<svg width="140" height="150" viewBox="0 0 140 150" fill="none" xmlns="http://www.w3.org/2000/svg">
<path d="M134.653 51.7238H121.012L113.931 2.21888C113.745 0.945898 112.658 0 111.367 0H28.6147C27.324 0 26.2367 0.945898 26.051 2.21888L18.97 51.7238H5.33849C2.48312 51.7238 0.166992 54.04 0.166992 56.8953V72.4098C0.166992 75.2652 2.48312 77.5813 5.33849 77.5813H15.2837L5.36501 147.047C5.25893 147.79 5.47993 148.541 5.97498 149.107C6.47003 149.673 7.17725 150 7.92866 150H132.071C132.823 150 133.53 149.673 134.025 149.107C134.52 148.541 134.741 147.79 134.635 147.047L124.716 77.5813H134.661C137.517 77.5813 139.833 75.2652 139.833 72.4098V56.8953C139.833 54.04 137.517 51.7238 134.661 51.7238H134.653ZM134.653 62.0668H126.891V56.8953H134.653V62.0668ZM111.376 72.4098V67.2383H121.719V72.4098H111.376ZM18.2717 72.4098V67.2383H28.6147V72.4098H18.2717ZM39.3731 41.3808H100.636L101.688 51.7238H38.33L39.3731 41.3808ZM106.205 72.4098H95.8618V67.2383H106.205V72.4098ZM33.7862 72.4098V67.2383H44.1292V72.4098H33.7862ZM90.6815 56.8953V62.0668H80.3385V56.8953H90.6815ZM75.167 62.0668H64.824V56.8953H75.167V62.0668ZM59.6525 62.0668H49.3095V56.8953H59.6525V62.0668ZM44.1292 62.0668H33.7862V56.8953H44.1292V62.0668ZM49.3095 67.2383H59.6525V72.4098H49.3095V67.2383ZM64.824 67.2383H75.167V72.4098H64.824V67.2383ZM80.3385 67.2383H90.6815V72.4098H80.3385V67.2383ZM95.853 62.0668V56.8953H106.196V62.0668H95.853ZM28.6147 62.0668H18.2717V56.8953H28.6147V62.0668ZM35.7133 77.5902H104.304L107.442 108.628H32.5662L35.7133 77.5902ZM111.376 62.0668V56.8953H121.719V62.0668H111.376ZM115.788 51.7238H106.886L102.165 5.1715H109.14L115.796 51.7238H115.788ZM96.958 5.1715L100.105 36.2093H39.8947L43.033 5.1715H96.958ZM30.8601 5.1715H37.835L33.132 51.7238H24.2034L30.8601 5.1715ZM13.1002 56.8953V62.0668H5.33849V56.8953H13.1002ZM5.33849 67.2383H13.1002V72.4098H5.33849V67.2383ZM20.5171 77.5902H30.5153L23.6995 144.829H10.9166L20.5259 77.5902H20.5171ZM28.8887 144.829L32.0358 113.791H107.964L111.102 144.829H28.8887ZM129.083 144.829H116.3L109.502 77.5902H119.474L129.083 144.829ZM126.891 72.4098V67.2383H134.653V72.4098H126.891Z" fill="#1F2831"/>
</svg>
