<svg width="71" height="50" viewBox="0 0 71 50" fill="none" xmlns="http://www.w3.org/2000/svg">
<path d="M1.45631 50L0 45.3074C7.01187 43.0421 12.2438 40.6149 15.6958 38.0259C19.2557 35.329 21.0356 32.4703 21.0356 29.4498C21.0356 27.1845 20.2805 25.3506 18.7702 23.9482C17.3679 22.5459 15.6958 21.2514 13.754 20.0647C11.8123 18.7702 10.0863 17.3139 8.57605 15.6958C7.17368 14.0777 6.47249 11.9741 6.47249 9.38511C6.47249 6.68824 7.4973 4.47682 9.54692 2.75082C11.5965 0.916942 14.2395 0 17.4757 0C22.0065 0 25.7282 1.83387 28.6408 5.50162C31.5534 9.06149 33.0097 13.5922 33.0097 19.0939C33.0097 26.1057 30.3128 32.2546 24.9191 37.5405C19.6332 42.7184 11.8123 46.8716 1.45631 50ZM39.1586 50L37.7023 45.3074C44.7141 43.0421 49.9461 40.6149 53.398 38.0259C56.9579 35.329 58.7379 32.4703 58.7379 29.4498C58.7379 27.1845 57.9827 25.3506 56.4725 23.9482C55.0701 22.5459 53.3981 21.2514 51.4563 20.0647C49.5146 18.7702 47.7886 17.3139 46.2783 15.6958C44.8759 14.0777 44.1748 11.9741 44.1748 9.38511C44.1748 6.68824 45.1996 4.47682 47.2492 2.75082C49.2988 0.916942 51.9417 0 55.178 0C59.7087 0 63.4304 1.83387 66.343 5.50162C69.2557 9.06149 70.712 13.5922 70.712 19.0939C70.712 26.1057 68.0151 32.2546 62.6213 37.5405C57.3355 42.7184 49.5146 46.8716 39.1586 50Z" fill="#CCFF00"/>
</svg>
