<svg width="36" height="25" viewBox="0 0 36 25" fill="none" xmlns="http://www.w3.org/2000/svg">
<path fill-rule="evenodd" clip-rule="evenodd" d="M34.2442 0.770155C34.7368 1.26287 35.0135 1.93105 35.0135 2.62776C35.0135 3.32446 34.7368 3.99264 34.2442 4.48536L14.5507 24.1789C14.2904 24.4392 13.9814 24.6457 13.6413 24.7866C13.3013 24.9275 12.9368 25 12.5687 25C12.2006 25 11.8361 24.9275 11.496 24.7866C11.156 24.6457 10.847 24.4392 10.5867 24.1789L0.802127 14.3961C0.55118 14.1537 0.351015 13.8638 0.213314 13.5432C0.0756121 13.2227 0.00313079 12.8779 9.92033e-05 12.529C-0.00293238 12.1801 0.0635466 11.8342 0.195657 11.5113C0.327767 11.1884 0.522863 10.895 0.76956 10.6483C1.01626 10.4016 1.30962 10.2065 1.63252 10.0744C1.95542 9.94228 2.3014 9.8758 2.65027 9.87884C2.99914 9.88187 3.34392 9.95435 3.66447 10.0921C3.98503 10.2298 4.27496 10.4299 4.51733 10.6809L12.5678 18.7313L30.5273 0.770155C30.7713 0.525996 31.061 0.33231 31.3799 0.200163C31.6987 0.0680164 32.0405 0 32.3857 0C32.7309 0 33.0727 0.0680164 33.3916 0.200163C33.7105 0.33231 34.0002 0.525996 34.2442 0.770155Z" fill="#1F2831"/>
</svg>
