<svg width="114" height="150" viewBox="0 0 114 150" fill="none" xmlns="http://www.w3.org/2000/svg">
<path d="M110.299 101.453C107.894 97.2268 104.455 93.6903 100.353 91.2236C96.9047 89.1194 93.0588 87.7579 88.93 87.1832L88.3199 87.0948L84.5005 86.5731L78.9129 82.2586C77.9315 81.5071 76.5611 81.5425 75.6328 82.3559L75.0493 82.8687V80.0572C76.9855 78.8106 78.8156 77.3694 80.5043 75.7161C86.366 69.9605 89.8229 62.4455 90.4418 54.3381C90.4418 54.3292 90.4418 54.3204 90.4418 54.3116H90.6363C93.3948 54.3116 95.9941 53.2329 97.948 51.279C99.9019 49.3251 100.981 46.7258 100.981 43.9674C100.981 38.2648 96.3389 33.6231 90.6363 33.6231V23.2789C90.6363 19.654 89.8052 16.2236 88.3199 13.1557V13.2972C84.5801 5.43734 76.5611 0 67.2955 0H46.6071C33.7696 0 23.3282 10.4415 23.3282 23.2789V33.6231C17.6256 33.6231 12.984 38.2648 12.984 43.9674C12.984 46.7258 14.0626 49.3251 16.0165 51.279C17.9704 53.2329 20.5697 54.3116 23.3282 54.3116H23.5227C24.619 64.9652 30.4807 74.2308 38.8533 79.8008V82.8687L38.2698 82.3559C37.3415 81.5513 35.9711 81.5071 34.9897 82.2586L29.4021 86.5731L25.0434 87.1743C20.9145 87.749 17.0686 89.1106 13.6205 91.2148C9.5182 93.6815 6.07897 97.218 3.67416 101.444C1.30472 105.635 0.0581055 110.4 0.0581055 115.236V147.41C0.0581055 148.842 1.2163 150 2.64858 150H111.351C112.784 150 113.942 148.842 113.942 147.41V115.236C113.942 110.4 112.695 105.635 110.326 101.444L110.299 101.453ZM23.3193 49.1395C21.9401 49.1395 20.6404 48.6001 19.6679 47.6188C18.6865 46.6374 18.1472 45.3377 18.1472 43.9674C18.1472 41.1116 20.4725 38.7952 23.3193 38.7952V49.1395ZM77.4276 87.6518L80.3452 89.9063L73.6081 107.447L61.5664 101.444L77.4276 87.6518ZM62.1146 112.593C61.1244 112.027 60.0457 111.603 58.8964 111.39C56.412 110.931 53.9188 111.408 51.8057 112.628C50.7094 111.09 50.064 109.658 49.7015 108.526L56.9513 104.91L64.2011 108.526C63.8386 109.64 63.2109 111.063 62.1234 112.593H62.1146ZM58.693 126.403C57.6498 126.765 56.9425 127.747 56.9425 128.852V134.493H51.7704V121.558C51.7704 120.011 52.4511 118.561 53.627 117.579C54.573 116.792 55.7224 116.386 56.9336 116.386C57.2696 116.386 57.6144 116.412 57.9504 116.483C59.9573 116.845 61.6195 118.499 61.9996 120.488C62.5036 123.096 61.1067 125.581 58.6842 126.412L58.693 126.403ZM44.0078 87.36V82.6388C47.8183 84.301 51.9737 85.2646 56.3236 85.3442C56.5269 85.3442 56.7391 85.3442 56.9425 85.3442C61.4515 85.3442 65.8279 84.4513 69.8683 82.7714V87.36L56.9336 98.5972L43.9989 87.36H44.0078ZM95.7377 43.9585C95.7377 45.3377 95.1984 46.6374 94.217 47.6099C93.2533 48.5736 91.9802 49.1041 90.6275 49.1218V38.7864C93.4478 38.8218 95.7377 41.1293 95.7377 43.9585ZM28.4914 23.2701C28.4914 13.2883 36.6165 5.16327 46.5982 5.16327H67.2867C77.2684 5.16327 85.3935 13.2883 85.3935 23.2701V31.0327H28.4914V23.2701ZM83.7932 36.2048L81.9189 39.9446C81.4768 40.8287 80.5927 41.3769 79.6025 41.3769H34.2648C33.2745 41.3769 32.3904 40.8287 31.9484 39.9446L30.074 36.2048H83.7755H83.7932ZM28.4914 50.6867V43.9585C29.9414 45.5853 32.0191 46.549 34.2736 46.549H79.6113C81.8658 46.549 83.9435 45.5853 85.3935 43.9585V51.7211C85.3935 59.4218 82.3698 66.6274 76.8794 72.0205C71.389 77.4136 64.1215 80.2428 56.4208 80.1721C41.0194 79.8892 28.4914 66.6627 28.4914 50.6867ZM36.4574 87.6518L52.3185 101.444L40.2768 107.447L33.5398 89.9063L36.4574 87.6518ZM108.743 144.837H5.21253V115.245C5.21253 111.302 6.22927 107.412 8.15666 104.008C10.1194 100.56 12.9221 97.6689 16.2817 95.6531C19.1374 93.9113 22.3203 92.7885 25.7418 92.3111L28.7567 91.8956L36.4662 111.965C36.7315 112.646 37.2619 113.185 37.9427 113.45C38.2433 113.565 38.5616 113.627 38.8799 113.627C39.2777 113.627 39.6667 113.539 40.0381 113.353L45.0245 110.869C45.6169 112.487 46.5629 114.379 48.0836 116.333C47.1552 117.906 46.5982 119.692 46.5982 121.567V134.501C46.5982 137.357 48.9235 139.673 51.7704 139.673H56.9425C59.7982 139.673 62.1146 137.348 62.1146 134.501V130.523C65.9075 128.374 67.9586 124.025 67.0922 119.516C66.8711 118.348 66.4291 117.27 65.8367 116.28C67.3309 114.343 68.2681 112.469 68.8604 110.869L73.8469 113.353C74.2094 113.539 74.6072 113.627 75.0051 113.627C75.3233 113.627 75.6416 113.565 75.9422 113.45C76.623 113.185 77.1535 112.646 77.4187 111.965L85.1283 91.8956L88.1431 92.3111C88.205 92.3111 88.258 92.3288 88.3199 92.3376C91.6973 92.815 94.8447 93.929 97.6739 95.6531C101.034 97.6777 103.836 100.56 105.799 104.008C107.726 107.421 108.743 111.302 108.743 115.245V144.837Z" fill="#1F2831"/>
</svg>
