<svg width="180" height="150" viewBox="0 0 180 150" fill="none" xmlns="http://www.w3.org/2000/svg">
<path d="M137.108 13.1105C117.641 -6.35671 83.4611 -3.85618 60.9122 18.6927C46.7543 32.8506 39.9923 51.9832 42.8098 69.8656C44.2273 78.8376 42.0878 88.2674 36.7962 96.4382L32.8076 102.593L3.171 132.247C0.159796 135.258 0.159796 140.162 3.171 143.174L7.04507 147.048C8.50665 148.509 10.4437 149.31 12.5128 149.31C14.5819 149.31 16.5189 148.509 17.9805 147.048L47.6259 117.402L53.7892 113.414C61.96 108.122 71.4075 105.982 80.3618 107.4C98.253 110.209 117.386 103.456 131.544 89.2976C154.092 66.7487 156.593 32.5689 137.126 13.1017L137.108 13.1105ZM14.3266 143.411C13.358 144.389 11.6587 144.389 10.6902 143.411L6.81615 139.537C5.81241 138.533 5.81241 136.896 6.81615 135.892L34.8415 107.867L42.3607 115.386L14.3354 143.411H14.3266ZM127.89 85.6612C114.894 98.657 97.4253 104.9 81.1543 102.32C70.932 100.717 60.2079 103.112 50.9805 109.091L46.3405 112.093L38.1169 103.869L41.1193 99.2293C47.0977 89.9931 49.5013 79.2778 47.8901 69.0556C45.3279 52.7845 51.5528 35.3159 64.5486 22.3202C85.0988 1.79644 116.012 -0.704095 133.472 16.7556C150.932 34.2154 148.431 65.1287 127.89 85.67V85.6612ZM129.668 20.5505C122.167 13.0488 111.601 9.55338 99.9171 10.6716C88.4181 11.781 77.2098 17.2751 68.3522 26.1326C49.9064 44.5785 47.4058 72.0844 62.77 87.4486C69.3472 94.0257 78.2839 97.5388 88.2685 97.5388C89.6684 97.5388 91.086 97.4683 92.5211 97.3275C104.02 96.2181 115.228 90.7239 124.086 81.8664C142.532 63.4206 145.032 35.9147 129.668 20.5505ZM132.045 60.1276L124.051 52.1329L134.326 41.8578C135.03 47.7306 134.255 53.9995 132.045 60.1276ZM86.8421 67.0217L96.2191 57.6447L103.738 65.1639L94.3613 74.5409L86.8421 67.0217ZM90.725 78.186L78.0814 90.8296C74.4803 89.685 71.2049 87.8888 68.3522 85.5204L83.2058 70.6668L90.725 78.186ZM60.4016 47.8714L68.3962 55.8661L58.1212 66.1412C57.4168 60.2685 58.1916 53.9995 60.4016 47.8714ZM62.5851 42.7647C64.5398 38.873 67.1108 35.131 70.2452 31.6708L81.4096 42.8352L72.0326 52.2122L62.5851 42.7647ZM105.605 40.9774L96.2279 50.3544L88.7087 42.8352L98.0857 33.4582L105.605 40.9774ZM101.722 29.813L114.357 17.1783C117.967 18.3229 121.26 20.0926 124.112 22.4611L109.25 37.3234L101.731 29.8042L101.722 29.813ZM109.25 44.6225L116.769 52.1417L107.392 61.5187L99.8731 53.9995L109.25 44.6225ZM85.0635 39.1988L73.8992 28.0345C77.3154 24.9352 81.0486 22.3466 84.9843 20.3656L94.4406 29.8218L85.0635 39.1988ZM85.0635 46.4803L92.5828 53.9995L83.2058 63.3765L75.6865 55.8573L85.0635 46.4803ZM107.383 68.8002L118.548 79.9646C115.132 83.0638 111.398 85.6524 107.463 87.6335L98.0065 78.1772L107.383 68.8002ZM111.029 65.1639L120.406 55.7869L129.853 65.2343C127.898 69.126 125.327 72.868 122.193 76.3282L111.029 65.1639ZM133.058 35.8442L120.406 48.4966L112.886 40.9774L127.731 26.1326C130.135 29.0206 131.922 32.2959 133.058 35.853V35.8442ZM100.419 15.8047C101.687 15.6815 102.928 15.6198 104.161 15.6198C105.596 15.6198 106.987 15.7343 108.37 15.8928L98.0945 26.1679L90.0998 18.1732C93.472 16.9581 96.9323 16.1305 100.428 15.7959L100.419 15.8047ZM59.389 72.1548L72.0414 59.5025L79.5606 67.0217L64.7159 81.8664C62.3122 78.9785 60.5248 75.7031 59.389 72.146V72.1548ZM92.0281 92.1943C89.2898 92.4585 86.6396 92.4056 84.0862 92.0975L94.3613 81.8224L102.356 89.8171C98.9838 91.0321 95.5235 91.8597 92.0281 92.1943ZM58.2004 88.0209C56.9325 86.7442 55.1187 86.2423 53.3754 86.6474C51.6233 87.0612 50.2409 88.3291 49.6774 90.0284L47.6788 96.0244C47.0624 97.891 47.5379 99.9072 48.929 101.298C49.9152 102.285 51.2183 102.813 52.5566 102.813C53.1025 102.813 53.6572 102.725 54.1943 102.549L60.1903 100.55C61.8984 99.9777 63.1662 98.5953 63.5713 96.8432C63.9851 95.0911 63.4744 93.2861 62.1977 92.0182L58.2004 88.0209ZM52.5566 97.6797V97.662L54.5641 91.666L58.5614 95.6634L52.5566 97.6797Z" fill="#1F2831"/>
<path d="M143.418 94.2957C128.331 98.3383 119.34 113.91 123.383 128.997C127.426 144.084 142.997 153.075 158.084 149.032C173.172 144.989 182.162 129.418 178.119 114.331C174.077 99.2432 158.514 90.2508 143.418 94.2957ZM144.751 99.2709C149.437 98.0153 154.181 98.3029 158.442 99.8138C158.038 102.319 158.155 104.868 158.811 107.317L161.241 116.383C162.881 122.506 159.233 128.825 153.11 130.466C146.986 132.107 140.667 128.459 139.026 122.335L136.597 113.269C135.943 110.828 134.769 108.554 133.166 106.586C136.1 103.148 140.065 100.527 144.751 99.2709ZM156.751 144.057C144.402 147.365 131.667 140.013 128.358 127.664C126.818 121.915 127.611 116.096 130.121 111.176C130.779 112.239 131.296 113.386 131.62 114.594L134.049 123.66C136.426 132.53 145.57 137.81 154.441 135.433C163.311 133.056 168.59 123.912 166.214 115.041L163.784 105.975C163.461 104.768 163.335 103.516 163.374 102.266C168.01 105.281 171.606 109.923 173.144 115.664C176.453 128.012 169.1 140.748 156.751 144.057Z" fill="#1F2831"/>
</svg>
