<svg width="651" height="100" viewBox="0 0 651 100" fill="none" xmlns="http://www.w3.org/2000/svg">
<path d="M84.4951 19.4875C82.1319 19.2383 81.3076 17.4284 82.6815 13.5814H88.6975L89.5475 15.8603C90.5074 18.4433 90.0128 19.2676 88.3678 19.4875V19.7329H97.1866V19.4875C96.0325 19.2933 95.0433 18.3041 94.3032 16.3842L88.1516 0.281708H87.0818L81.8352 14.1017C80.4063 17.8681 79.1716 19.2383 77.6584 19.4875V19.7329H84.4988V19.4875H84.4951ZM85.7042 5.41839L88.507 13.0025H82.9013L85.7042 5.41839Z" fill="#CCFF00"/>
<path d="M52.5282 43.5698C55.1918 43.5698 57.2253 45.8487 57.8041 49.256L58.2694 49.311L59.3942 44.2549C57.9104 43.4855 55.5472 42.9909 53.1035 42.9909C47.1424 42.9909 42.2512 47.2483 42.2512 53.2679C42.2512 58.5988 46.1532 63.1859 51.594 63.1859C55.3311 63.1859 58.024 60.9326 59.2037 57.7744L58.7934 57.6352C57.6393 59.6686 55.5802 60.6835 53.3819 60.6835C49.6192 60.6835 46.787 57.8807 46.787 52.2201C46.787 46.5595 49.5056 43.5661 52.5282 43.5661V43.5698Z" fill="#CCFF00"/>
<path d="M114.923 64.5525H130.476L131.245 58.6721H130.806C129.787 61.8889 126.629 64.0286 123.497 64.0286H121.353V54.7701H122.782C125.226 54.7701 126.984 55.8949 127.398 58.1481H127.754V50.8645H127.398C127.014 53.0627 125.284 54.2169 122.782 54.2169H121.353V45.834H123.302C125.83 45.834 128.494 47.3179 130.172 50.2013H130.557L129.787 45.3101H114.923V45.5556C116.052 45.6655 117.121 46.2151 117.121 48.2778V61.6581C117.121 63.7171 116.052 64.1861 114.923 64.296V64.5525Z" fill="#CCFF00"/>
<path d="M42.057 18.37C41.8409 23.6899 44.5777 28.277 48.3771 31.7723C52.858 35.8904 59.8889 38.6456 65.9452 38.9717C71.7999 39.2868 78.1787 41.5327 82.861 45.0646C82.861 45.0646 83.1908 45.7754 83.5535 46.0758C83.5901 46.1052 83.6891 46.1931 83.8356 46.3213C82.088 47.7099 80.4099 49.0399 80.4099 49.0399C80.4099 49.0399 75.8485 52.799 75.5957 53.0115C74.687 53.7735 72.0711 54.2169 73.0493 55.6384C73.848 56.8035 74.2914 57.3348 75.3026 58.3277C76.5336 59.5367 77.4276 57.0417 78.3362 56.2796C78.589 56.0671 83.0882 52.2347 83.0882 52.2347C83.0882 52.2347 84.9934 50.5494 86.8143 48.9409C88.6352 50.5494 90.5404 52.2347 90.5404 52.2347C90.5404 52.2347 95.0396 56.0671 95.2924 56.2796C96.201 57.0417 97.095 59.5367 98.326 58.3277C99.3372 57.3311 99.7806 56.7999 100.579 55.6384C101.554 54.2132 98.9379 53.7699 98.0329 53.0115C97.7801 52.799 93.2187 49.0399 93.2187 49.0399C93.2187 49.0399 91.5406 47.7099 89.793 46.3213C89.9395 46.1931 90.0385 46.1052 90.0751 46.0758C90.4378 45.7717 90.7676 45.0646 90.7676 45.0646C95.4499 41.5327 101.829 39.2868 107.683 38.9717C113.74 38.6456 120.771 35.8904 125.251 31.7723C129.055 28.2806 131.791 23.6899 131.572 18.37C131.333 12.5445 127.937 8.48867 122.24 7.23198C117.041 6.08887 112.098 8.04169 107.991 11.1743C103.151 14.8674 99.1577 21.2388 97.7728 27.1449C96.4355 32.8531 93.1087 38.7409 88.8148 42.7308C88.8148 42.7308 88.06 42.9323 87.6973 43.2364C87.624 43.295 87.2943 43.5625 86.8106 43.9472C86.327 43.5625 85.9973 43.2987 85.924 43.2364C85.5613 42.9323 84.8065 42.7308 84.8065 42.7308C80.5089 38.7372 77.1821 32.8531 75.8485 27.1449C74.4672 21.2388 70.47 14.8637 65.6301 11.1743C61.5266 8.04169 56.5841 6.0852 51.3815 7.23198C45.6879 8.48501 42.2878 12.5409 42.0497 18.37H42.057ZM104.371 36.7771L104.269 36.9346C103.924 36.8064 103.591 36.6562 103.276 36.4913L103.371 36.3044L103.334 36.2824L106.31 33.7874L107.017 34.6337L104.426 36.8027L104.371 36.7771ZM99.275 29.2113L101.155 27.6358L101.935 28.5701L99.3739 30.7134L99.3592 30.6658L99.1541 30.7024C99.0844 30.2774 99.0405 29.8378 99.0295 29.3835L99.2859 29.2735L99.2713 29.2076L99.275 29.2113ZM117.924 22.5211L117.077 23.2282L116.436 22.4625L117.283 21.7554L117.924 22.5211ZM117.345 21.7004L118.235 20.953L118.876 21.7187L117.986 22.4662L117.345 21.7004ZM113.857 23.1696L114.703 22.4625L115.366 23.2502L114.52 23.9573L113.857 23.1696ZM114.454 24.0123L113.615 24.7157L112.952 23.928L113.791 23.2246L114.454 24.0123ZM115.421 23.3162L116.063 24.0819L115.216 24.789L114.575 24.0233L115.421 23.3162ZM115.484 23.2612L116.37 22.5211L117.012 23.2869L116.125 24.027L115.484 23.2612ZM116.381 22.4002L115.718 21.6125L116.565 20.9054L117.228 21.6931L116.381 22.4002ZM116.315 22.4515L115.429 23.1916L114.766 22.4039L115.652 21.6638L116.315 22.4515ZM114.711 22.3379L114.048 21.5465L114.934 20.8064L115.597 21.5978L114.711 22.3379ZM114.648 22.3929L113.802 23.1L113.139 22.3086L113.985 21.6015L114.648 22.3929ZM113.736 23.155L112.897 23.8584L112.234 23.067L113.073 22.3636L113.736 23.155ZM112.835 23.9134L111.996 24.6168L111.333 23.8254L112.172 23.122L112.835 23.9134ZM111.93 24.6681L111.05 25.4045L110.387 24.6132L111.267 23.8767L111.93 24.6681ZM111.985 24.7377L112.648 25.5255L111.769 26.2619L111.105 25.4742L111.985 24.7377ZM112.051 24.6828L112.89 23.9793L113.553 24.767L112.714 25.4705L112.051 24.6828ZM113.608 24.8367L114.249 25.6024L113.41 26.3058L112.769 25.5401L113.608 24.8367ZM113.67 24.7817L114.509 24.0782L115.15 24.844L114.311 25.5474L113.67 24.7817ZM115.209 24.9099L115.854 25.6793L115.015 26.3828L114.37 25.6134L115.209 24.9099ZM115.271 24.855L116.118 24.1479L116.762 24.9173L115.916 25.6244L115.271 24.855ZM116.184 24.0929L117.07 23.3528L117.715 24.1222L116.828 24.8623L116.184 24.0929ZM117.132 23.2978L117.979 22.5907L118.624 23.3601L117.777 24.0673L117.132 23.2978ZM118.045 22.5358L118.939 21.7884L119.584 22.5578L118.693 23.3052L118.048 22.5358H118.045ZM119.001 21.7334L119.891 20.986L120.536 21.7554L119.646 22.5028L119.001 21.7334ZM118.946 21.6674L118.305 20.9017L119.199 20.1543L119.84 20.92L118.946 21.6674ZM118.246 20.8358L117.583 20.048L118.473 19.3006L119.137 20.0883L118.246 20.8358ZM118.184 20.8871L117.29 21.6345L116.627 20.8468L117.517 20.0993L118.18 20.8871H118.184ZM116.572 20.7808L115.909 19.9894L116.799 19.242L117.462 20.0334L116.572 20.7808ZM116.506 20.8321L115.66 21.5392L114.996 20.7478L115.843 20.0407L116.506 20.8321ZM114.945 20.6855L114.293 19.9051L115.139 19.198L115.791 19.9784L114.945 20.6855ZM114.879 20.7405L113.993 21.4806L113.34 20.7002L114.227 19.9601L114.879 20.7405ZM113.93 21.5355L113.084 22.2427L112.432 21.4623L113.278 20.7552L113.93 21.5355ZM113.018 22.2976L112.179 23.0011L111.527 22.2207L112.366 21.5172L113.018 22.2976ZM112.113 23.056L111.274 23.7595L110.622 22.9791L111.461 22.2756L112.113 23.056ZM111.212 23.8144L110.332 24.5509L109.68 23.7705L110.56 23.0341L111.212 23.8144ZM110.266 24.6022L109.354 25.3642L108.702 24.5839L109.614 23.8218L110.266 24.6022ZM110.325 24.6681L110.988 25.4595L110.076 26.2216L109.413 25.4302L110.325 24.6681ZM111.043 25.5255L111.706 26.3132L110.794 27.0753L110.131 26.2875L111.043 25.5255ZM111.758 26.3828L112.399 27.1485L111.486 27.9106L110.845 27.1449L111.758 26.3828ZM111.824 26.3278L112.703 25.5914L113.344 26.3571L112.465 27.0936L111.824 26.3278ZM113.399 26.4268L114.044 27.1962L113.165 27.9326L112.52 27.1632L113.399 26.4268ZM113.465 26.3718L114.304 25.6683L114.949 26.4377L114.11 27.1412L113.465 26.3718ZM115.004 26.5037L115.711 27.35L114.872 28.0535L114.165 27.2071L115.004 26.5037ZM115.07 26.4487L115.909 25.7453L116.616 26.5916L115.777 27.2951L115.07 26.4487ZM115.975 25.694L116.821 24.9869L117.528 25.8332L116.682 26.5403L115.975 25.694ZM116.883 24.9283L117.77 24.1882L118.477 25.0345L117.59 25.7746L116.883 24.9283ZM117.832 24.1332L118.679 23.4261L119.386 24.2724L118.539 24.9795L117.832 24.1332ZM118.745 23.3711L119.635 22.6237L120.342 23.47L119.452 24.2175L118.745 23.3711ZM119.701 22.5687L120.591 21.8213L121.298 22.6677L120.408 23.4151L119.701 22.5687ZM120.657 21.7664L121.72 20.8761L122.427 21.7224L121.364 22.6127L120.657 21.7664ZM120.602 21.7004L119.957 20.931L121.02 20.0407L121.665 20.8101L120.602 21.7004ZM119.902 20.8651L119.261 20.0993L120.324 19.209L120.965 19.9748L119.902 20.8651ZM119.203 20.0334L118.539 19.2457L119.602 18.3553L120.265 19.1431L119.203 20.0334ZM118.484 19.176L117.821 18.3847L118.884 17.4944L119.547 18.2857L118.484 19.176ZM118.422 19.231L117.532 19.9784L116.869 19.187L117.763 18.4396L118.426 19.231H118.422ZM116.81 19.1211L116.158 18.3407L117.048 17.5933L117.7 18.3737L116.81 19.1211ZM116.748 19.176L115.854 19.9235L115.202 19.1431L116.092 18.3957L116.744 19.176H116.748ZM115.143 19.0735L114.425 18.2161L115.315 17.4687L116.033 18.326L115.139 19.0735H115.143ZM115.081 19.1284L114.234 19.8355L113.516 18.9782L114.363 18.2711L115.081 19.1284ZM114.168 19.8905L113.282 20.6306L112.564 19.7733L113.45 19.0332L114.168 19.8905ZM113.219 20.6892L112.373 21.3963L111.655 20.539L112.501 19.8319L113.219 20.6892ZM112.307 21.4513L111.468 22.1547L110.75 21.2974L111.589 20.5939L112.307 21.4513ZM111.406 22.2097L110.567 22.9131L109.849 22.0558L110.688 21.3524L111.406 22.2097ZM110.501 22.9644L109.622 23.7009L108.903 22.8435L109.783 22.1071L110.501 22.9644ZM109.559 23.7558L108.647 24.5179L107.929 23.6606L108.841 22.8985L109.559 23.7558ZM108.581 24.5729L107.566 25.4229L106.848 24.5655L107.863 23.7155L108.581 24.5729ZM108.64 24.6388L109.292 25.4192L108.277 26.2692L107.625 25.4888L108.64 24.6388ZM109.347 25.4888L110.01 26.2802L108.995 27.1302L108.332 26.3388L109.347 25.4888ZM110.065 26.3462L110.728 27.1339L109.713 27.9839L109.05 27.1962L110.065 26.3462ZM110.783 27.1998L111.424 27.9656L110.409 28.8156L109.768 28.0498L110.783 27.1998ZM111.483 28.0315L112.128 28.8009L111.113 29.6509L110.468 28.8815L111.483 28.0315ZM111.545 27.9802L112.457 27.2181L113.102 27.9875L112.19 28.7496L111.545 27.9802ZM113.157 28.0498L113.864 28.8962L112.952 29.6582L112.245 28.8119L113.157 28.0498ZM113.223 27.9985L114.102 27.2621L114.81 28.1084L113.93 28.8449L113.223 27.9985ZM114.865 28.1744L115.638 29.094L114.758 29.8304L113.985 28.9108L114.865 28.1744ZM114.927 28.1194L115.766 27.416L116.539 28.3356L115.7 29.0391L114.927 28.1194ZM115.832 27.361L116.671 26.6576L117.444 27.5772L116.605 28.2806L115.832 27.361ZM116.737 26.6026L117.583 25.8955L118.356 26.8151L117.51 27.5222L116.737 26.6026ZM117.645 25.8405L118.532 25.1005L119.305 26.0201L118.418 26.7602L117.645 25.8405ZM118.598 25.0455L119.444 24.3384L120.217 25.258L119.371 25.9651L118.598 25.0455ZM119.507 24.2834L120.397 23.536L121.17 24.4556L120.28 25.203L119.507 24.2834ZM120.463 23.481L121.353 22.7336L122.126 23.6532L121.236 24.4007L120.463 23.481ZM121.419 22.6787L122.482 21.7884L123.255 22.708L122.192 23.5983L121.419 22.6787ZM122.548 21.7371L123.544 20.9017L124.317 21.8213L123.321 22.6567L122.548 21.7371ZM122.493 21.6674L121.785 20.8211L122.782 19.9858L123.489 20.8321L122.493 21.6674ZM121.727 20.7588L121.082 19.9894L122.079 19.1541L122.723 19.9235L121.727 20.7588ZM121.027 19.9235L120.386 19.1577L121.382 18.3224L122.024 19.0881L121.027 19.9235ZM120.331 19.0881L119.668 18.3004L120.664 17.465L121.328 18.2528L120.331 19.0881ZM119.613 18.2308L118.95 17.4394L119.946 16.604L120.609 17.3954L119.613 18.2308ZM118.895 17.3734L118.243 16.5931L119.239 15.7577L119.891 16.5381L118.895 17.3734ZM118.829 17.4284L117.766 18.3187L117.114 17.5383L118.177 16.648L118.829 17.4284ZM117.059 17.4724L116.341 16.615L117.404 15.7247L118.122 16.5821L117.059 17.4724ZM116.993 17.5273L116.103 18.2747L115.385 17.4174L116.275 16.67L116.993 17.5273ZM115.326 17.3515L114.546 16.4172L115.44 15.6698L116.22 16.604L115.326 17.3515ZM115.264 17.4028L114.374 18.1502L113.593 17.2159L114.483 16.4685L115.264 17.4028ZM114.308 18.2051L113.461 18.9123L112.681 17.978L113.527 17.2709L114.308 18.2051ZM113.395 18.9672L112.509 19.7073L111.728 18.773L112.615 18.0329L113.395 18.9672ZM112.446 19.7659L111.6 20.473L110.82 19.5388L111.666 18.8316L112.446 19.7659ZM111.534 20.528L110.695 21.2315L109.915 20.2972L110.754 19.5937L111.534 20.528ZM110.633 21.2864L109.794 21.9899L109.013 21.0556L109.852 20.3521L110.633 21.2864ZM109.728 22.0412L108.849 22.7776L108.068 21.8433L108.947 21.1069L109.728 22.0412ZM108.783 22.8325L107.87 23.5946L107.09 22.6603L108.002 21.8983L108.783 22.8325ZM107.808 23.6496L106.793 24.4996L106.013 23.5653L107.028 22.7153L107.808 23.6496ZM106.727 24.5545L105.613 25.4852L104.833 24.5509L105.947 23.6203L106.727 24.5545ZM106.786 24.6205L107.504 25.4778L106.39 26.4084L105.672 25.5511L106.786 24.6205ZM107.559 25.5438L108.211 26.3242L107.097 27.2548L106.445 26.4744L107.559 25.5438ZM108.27 26.3901L108.933 27.1815L107.819 28.1121L107.156 27.3207L108.27 26.3901ZM108.988 27.2475L109.651 28.0352L108.537 28.9658L107.874 28.1781L108.988 27.2475ZM109.702 28.1048L110.343 28.8705L109.23 29.8011L108.588 29.0354L109.702 28.1048ZM110.402 28.9365L111.047 29.7059L109.933 30.6365L109.288 29.8671L110.402 28.9365ZM111.102 29.7718L111.809 30.6182L110.695 31.5488L109.988 30.7024L111.102 29.7718ZM111.168 29.7205L112.183 28.8705L112.89 29.7169L111.875 30.5669L111.168 29.7205ZM112.945 29.7792L113.718 30.6988L112.703 31.5488L111.93 30.6292L112.945 29.7792ZM113.011 29.7242L113.923 28.9621L114.696 29.8817L113.784 30.6438L113.011 29.7242ZM114.747 29.9514L115.627 30.9992L114.714 31.7613L113.835 30.7134L114.747 29.9514ZM114.813 29.8964L115.693 29.16L116.572 30.2078L115.693 30.9442L114.813 29.8964ZM115.755 29.105L116.594 28.4016L117.473 29.4494L116.634 30.1529L115.755 29.105ZM116.66 28.3466L117.499 27.6431L118.378 28.691L117.539 29.3945L116.66 28.3466ZM117.565 27.5919L118.411 26.8847L119.29 27.9326L118.444 28.6397L117.565 27.5919ZM118.473 26.8261L119.36 26.086L120.239 27.1339L119.353 27.874L118.473 26.8261ZM119.422 26.0311L120.269 25.3239L121.148 26.3718L120.302 27.0789L119.422 26.0311ZM120.335 25.269L121.229 24.5216L122.108 25.5694L121.218 26.3168L120.338 25.269H120.335ZM121.291 24.4666L122.181 23.7192L123.061 24.767L122.167 25.5145L121.287 24.4666H121.291ZM122.247 23.6642L123.31 22.7739L124.189 23.8218L123.126 24.7121L122.247 23.6642ZM123.376 22.7226L124.372 21.8873L125.251 22.9351L124.255 23.7705L123.376 22.7226ZM124.434 21.8323L125.57 20.8797L126.45 21.9276L125.314 22.8802L124.434 21.8323ZM124.379 21.7664L123.606 20.8468L124.742 19.8942L125.515 20.8138L124.379 21.7664ZM123.551 20.7808L122.844 19.9345L123.98 18.9819L124.687 19.8282L123.551 20.7808ZM122.789 19.8685L122.145 19.0991L123.28 18.1465L123.925 18.9159L122.789 19.8685ZM122.09 19.0332L121.448 18.2674L122.584 17.3148L123.225 18.0806L122.09 19.0332ZM121.39 18.1978L120.727 17.4101L121.862 16.4575L122.526 17.2452L121.39 18.1978ZM120.675 17.3441L120.012 16.5527L121.148 15.6002L121.811 16.3915L120.675 17.3441ZM119.957 16.4868L119.305 15.7064L120.441 14.7538L121.093 15.5342L119.957 16.4868ZM119.246 15.6368L118.528 14.7795L119.664 13.8269L120.382 14.6842L119.246 15.6368ZM119.181 15.6918L118.184 16.5271L117.466 15.6698L118.462 14.8344L119.181 15.6918ZM117.411 15.6038L116.63 14.6695L117.627 13.8342L118.407 14.7685L117.411 15.6038ZM117.345 15.6588L116.282 16.5491L115.502 15.6148L116.565 14.7245L117.345 15.6588ZM115.447 15.5489L114.557 14.4864L115.619 13.596L116.51 14.6586L115.447 15.5489ZM115.381 15.6038L114.491 16.3512L113.601 15.2887L114.491 14.5413L115.381 15.6038ZM114.425 16.4025L113.535 17.15L112.644 16.0874L113.535 15.34L114.425 16.4025ZM113.469 17.2049L112.622 17.912L111.732 16.8495L112.578 16.1424L113.469 17.2049ZM112.556 17.967L111.67 18.7071L110.779 17.6446L111.666 16.9045L112.556 17.967ZM111.607 18.7657L110.761 19.4728L109.871 18.4103L110.717 17.7032L111.607 18.7657ZM110.699 19.5278L109.86 20.2312L108.969 19.1687L109.808 18.4653L110.699 19.5278ZM109.794 20.2862L108.955 20.9896L108.064 19.9271L108.903 19.2237L109.794 20.2862ZM108.889 21.0409L108.01 21.7774L107.119 20.7149L107.999 19.9784L108.889 21.0409ZM107.947 21.8323L107.035 22.5944L106.145 21.5319L107.057 20.7698L107.947 21.8323ZM106.969 22.6494L105.954 23.4994L105.064 22.4368L106.079 21.5868L106.969 22.6494ZM105.892 23.5543L104.778 24.4849L103.888 23.4224L105.002 22.4918L105.892 23.5543ZM105.551 25.5401L104.016 26.8261L103.236 25.8918L104.771 24.6058L105.551 25.5401ZM105.61 25.6097L106.328 26.4671L104.793 27.7531L104.075 26.8957L105.61 25.6097ZM106.383 26.533L107.035 27.3134L105.5 28.5994L104.848 27.819L106.383 26.533ZM107.09 27.3794L107.753 28.1707L106.218 29.4567L105.555 28.6653L107.09 27.3794ZM107.808 28.2367L108.471 29.0244L106.936 30.3104L106.273 29.5227L107.808 28.2367ZM108.526 29.0904L109.167 29.8561L107.632 31.1421L106.991 30.3764L108.526 29.0904ZM109.226 29.9257L109.871 30.6951L108.336 31.9811L107.691 31.2117L109.226 29.9257ZM109.926 30.7611L110.633 31.6074L109.098 32.8934L108.391 32.0471L109.926 30.7611ZM110.688 31.6697L111.461 32.5893L109.926 33.8753L109.153 32.9557L110.688 31.6697ZM110.754 31.6184L111.868 30.6878L112.641 31.6074L111.527 32.538L110.754 31.6184ZM112.692 31.6733L113.571 32.7212L112.457 33.6518L111.578 32.604L112.692 31.6733ZM112.758 31.6184L113.773 30.7684L114.652 31.8162L113.637 32.6662L112.758 31.6184ZM114.707 31.8822L115.663 33.0216L114.648 33.8716L113.692 32.7322L114.707 31.8822ZM114.769 31.8272L115.682 31.0652L116.638 32.2046L115.726 32.9667L114.769 31.8272ZM115.748 31.0102L116.627 30.2738L117.583 31.4132L116.704 32.1496L115.748 31.0102ZM116.689 30.2188L117.528 29.5154L118.484 30.6548L117.645 31.3583L116.689 30.2188ZM117.594 29.4641L118.433 28.7606L119.389 29.9001L118.55 30.6035L117.594 29.4641ZM118.499 28.7057L119.345 27.9985L120.302 29.138L119.455 29.8451L118.499 28.7057ZM119.408 27.9436L120.294 27.2035L121.251 28.3429L120.364 29.083L119.408 27.9436ZM120.357 27.1449L121.203 26.4377L122.159 27.5772L121.313 28.2843L120.357 27.1449ZM121.269 26.3828L122.159 25.6354L123.115 26.7748L122.221 27.5222L121.265 26.3828H121.269ZM122.225 25.5804L123.119 24.833L124.075 25.9724L123.185 26.7199L122.229 25.5804H122.225ZM123.181 24.7817L124.244 23.8914L125.2 25.0308L124.138 25.9211L123.181 24.7817ZM124.306 23.8364L125.303 23.0011L126.259 24.1405L125.262 24.9759L124.306 23.8364ZM125.369 22.9461L126.505 21.9935L127.461 23.133L126.325 24.0856L125.369 22.9461ZM125.636 20.8248L127.025 19.6633L127.904 20.7112L126.515 21.8726L125.636 20.8248ZM125.581 20.7588L124.808 19.8392L126.197 18.6778L126.97 19.5974L125.581 20.7588ZM124.753 19.7733L124.046 18.9269L125.435 17.7655L126.142 18.6118L124.753 19.7733ZM123.991 18.861L123.346 18.0916L124.735 16.9301L125.38 17.6995L123.991 18.861ZM123.291 18.0256L122.65 17.2599L124.039 16.0984L124.68 16.8642L123.291 18.0256ZM122.592 17.1939L121.928 16.4062L123.317 15.2448L123.98 16.0325L122.592 17.1939ZM121.877 16.3366L121.214 15.5452L122.603 14.3838L123.266 15.1751L121.877 16.3366ZM121.159 15.4792L120.507 14.6989L121.895 13.5374L122.548 14.3178L121.159 15.4792ZM120.448 14.6329L119.73 13.7756L121.119 12.6141L121.837 13.4715L120.448 14.6329ZM119.675 13.7096L118.895 12.7753L120.283 11.6139L121.064 12.5482L119.675 13.7096ZM119.609 13.7609L118.473 14.7135L117.693 13.7792L118.829 12.8266L119.609 13.7609ZM117.634 13.7133L116.744 12.6508L117.88 11.6982L118.77 12.7607L117.634 13.7133ZM117.568 13.7682L116.572 14.6036L115.682 13.5411L116.678 12.7057L117.568 13.7682ZM115.627 13.4751L114.659 12.321L115.656 11.4857L116.623 12.6398L115.627 13.4751ZM115.561 13.5301L114.498 14.4204L113.531 13.2663L114.593 12.376L115.561 13.5301ZM114.436 14.4717L113.542 15.2191L112.575 14.065L113.465 13.3176L114.432 14.4717H114.436ZM113.48 15.2741L112.589 16.0215L111.622 14.8674L112.512 14.12L113.48 15.2741ZM112.523 16.0765L111.677 16.7836L110.71 15.6295L111.556 14.9223L112.523 16.0765ZM111.611 16.8385L110.724 17.5786L109.757 16.4245L110.644 15.6844L111.611 16.8385ZM110.662 17.6336L109.816 18.3407L108.849 17.1866L109.695 16.4795L110.662 17.6336ZM109.75 18.3993L108.911 19.1028L107.944 17.9487L108.783 17.2452L109.75 18.3993ZM108.849 19.1541L108.01 19.8575L107.042 18.7034L107.881 18L108.849 19.1541ZM107.944 19.9125L107.064 20.6489L106.097 19.4948L106.976 18.7584L107.944 19.9125ZM106.998 20.7039L106.086 21.4659L105.119 20.3118L106.031 19.5498L106.998 20.7039ZM106.024 21.5209L105.009 22.3709L104.042 21.2168L105.056 20.3668L106.024 21.5209ZM104.947 22.4259L103.833 23.3565L102.866 22.2024L103.979 21.2718L104.947 22.4259ZM104.712 24.5399L103.177 25.8259L102.287 24.7634L103.822 23.4774L104.712 24.5399ZM103.954 26.8811L102.001 28.5151L101.22 27.5809L103.173 25.9468L103.954 26.8811ZM104.009 26.947L104.727 27.8044L102.774 29.4384L102.056 28.5811L104.009 26.947ZM104.782 27.8703L105.434 28.6507L103.481 30.2848L102.829 29.5044L104.782 27.8703ZM105.492 28.7203L106.156 29.5117L104.203 31.1458L103.54 30.3544L105.492 28.7203ZM106.211 29.5776L106.874 30.3654L104.921 31.9994L104.258 31.2117L106.211 29.5776ZM106.925 30.4313L107.566 31.1971L105.613 32.8311L104.972 32.0654L106.925 30.4313ZM107.625 31.263L108.27 32.0324L106.317 33.6665L105.672 32.8971L107.625 31.263ZM108.325 32.102L109.032 32.9484L107.079 34.5824L106.372 33.7361L108.325 32.102ZM109.087 33.0106L109.86 33.9303L107.907 35.5643L107.134 34.6447L109.087 33.0106ZM109.915 33.9999L110.794 35.0477L108.841 36.6818L107.962 35.6339L109.915 33.9999ZM109.981 33.9449L111.516 32.6589L112.395 33.7068L110.86 34.9928L109.981 33.9449ZM112.45 33.7727L113.406 34.9122L111.871 36.1982L110.915 35.0587L112.45 33.7727ZM112.512 33.7178L113.626 32.7872L114.582 33.9266L113.469 34.8572L112.512 33.7178ZM114.637 33.9925L115.561 35.0954L114.447 36.026L113.524 34.9232L114.637 33.9925ZM114.703 33.9376L115.718 33.0876L116.641 34.1904L115.627 35.0404L114.703 33.9376ZM115.78 33.0326L116.693 32.2706L117.616 33.3734L116.704 34.1354L115.78 33.0326ZM116.759 32.2156L117.638 31.4792L118.561 32.582L117.682 33.3184L116.759 32.2156ZM117.7 31.4279L118.539 30.7244L119.463 31.8272L118.624 32.5307L117.7 31.4279ZM118.605 30.6695L119.444 29.966L120.368 31.0688L119.529 31.7723L118.605 30.6695ZM119.507 29.9111L120.353 29.2039L121.276 30.3067L120.43 31.0139L119.507 29.9111ZM120.419 29.149L121.306 28.4089L122.229 29.5117L121.342 30.2518L120.419 29.149ZM121.368 28.3539L122.214 27.6468L123.137 28.7496L122.291 29.4567L121.368 28.3539ZM122.28 27.5919L123.17 26.8444L124.094 27.9472L123.2 28.6947L122.276 27.5919H122.28ZM123.236 26.7895L124.13 26.0421L125.054 27.1449L124.163 27.8923L123.24 26.7895H123.236ZM124.193 25.9871L125.255 25.0968L126.178 26.1996L125.116 27.0899L124.193 25.9871ZM125.317 25.0418L126.314 24.2065L127.237 25.3093L126.241 26.1446L125.317 25.0418ZM126.38 24.1552L127.516 23.2026L128.439 24.3054L127.303 25.258L126.38 24.1552ZM126.57 21.9386L127.959 20.7771L128.915 21.9166L127.527 23.078L126.57 21.9386ZM127.091 19.6084L128.699 18.2601L129.578 19.3079L127.97 20.6562L127.091 19.6084ZM127.036 19.5424L126.263 18.6228L127.871 17.2745L128.644 18.1941L127.036 19.5424ZM126.208 18.5569L125.501 17.7105L127.109 16.3622L127.816 17.2086L126.208 18.5569ZM125.446 17.6446L124.801 16.8752L126.409 15.5269L127.054 16.2963L125.446 17.6446ZM124.742 16.8092L124.101 16.0435L125.709 14.6952L126.351 15.4609L124.742 16.8092ZM124.046 15.9739L123.383 15.1861L124.991 13.8379L125.654 14.6292L124.046 15.9775V15.9739ZM123.328 15.1202L122.665 14.3288L124.273 12.9805L124.936 13.7719L123.328 15.1202ZM122.61 14.2629L121.958 13.4825L123.566 12.1342L124.218 12.9146L122.61 14.2629ZM121.899 13.4129L121.181 12.5555L122.789 11.2072L123.507 12.0646L121.899 13.4129ZM121.126 12.4896L120.346 11.5553L121.954 10.207L122.734 11.1413L121.126 12.4896ZM120.287 11.4893L119.397 10.4268L121.005 9.07855L121.895 10.1411L120.287 11.4893ZM120.225 11.5443L118.836 12.7057L117.946 11.6432L119.334 10.4818L120.225 11.5443ZM117.891 11.5773L116.924 10.4232L118.312 9.26174L119.279 10.4158L117.891 11.5773ZM117.825 11.6322L116.689 12.5848L115.722 11.4307L116.858 10.4781L117.825 11.6322ZM115.663 11.3648L114.725 10.2473L115.861 9.29471L116.799 10.4122L115.663 11.3648ZM115.597 11.4161L114.601 12.2514L113.663 11.134L114.659 10.2986L115.597 11.4161ZM114.538 12.3064L113.476 13.1967L112.538 12.0792L113.601 11.1889L114.538 12.3064ZM113.41 13.2516L112.516 13.9991L111.578 12.8816L112.472 12.1342L113.41 13.2516ZM112.454 14.054L111.563 14.8014L110.625 13.684L111.516 12.9366L112.454 14.054ZM111.497 14.8527L110.651 15.5599L109.713 14.4424L110.56 13.7353L111.497 14.8527ZM110.585 15.6185L109.699 16.3586L108.761 15.2411L109.647 14.501L110.585 15.6185ZM109.636 16.4135L108.79 17.1206L107.852 16.0032L108.698 15.2961L109.636 16.4135ZM108.728 17.1756L107.889 17.8791L106.951 16.7616L107.79 16.0581L108.728 17.1756ZM107.823 17.934L106.984 18.6375L106.046 17.52L106.885 16.8165L107.823 17.934ZM106.918 18.6888L106.038 19.4252L105.1 18.3077L105.98 17.5713L106.918 18.6888ZM105.976 19.4801L105.064 20.2422L104.126 19.1248L105.038 18.3627L105.976 19.4801ZM105.002 20.2972L103.987 21.1472L103.049 20.0297L104.064 19.1797L105.002 20.2972ZM103.921 21.2021L102.807 22.1328L101.869 21.0153L102.983 20.0847L103.921 21.2021ZM103.767 23.4114L102.232 24.6974L101.264 23.5433L102.8 22.2573L103.767 23.4114ZM103.115 25.8808L101.162 27.5149L100.272 26.4524L102.224 24.8183L103.115 25.8808ZM99.2053 30.9699L99.242 30.9406L99.4179 30.8673L99.3995 30.8087L101.99 28.6397L102.708 29.497L99.7329 31.9921L99.7146 31.9518L99.4728 32.0214C99.3629 31.6843 99.2713 31.3326 99.2017 30.9699H99.2053ZM99.7952 32.1387L99.7696 32.0727L102.767 29.563L103.419 30.3434L100.191 33.0509L100.165 33.0033L99.9235 33.1059C99.7879 32.8384 99.6707 32.56 99.5644 32.2706L99.7952 32.1423V32.1387ZM100.264 33.1792L100.235 33.1242L103.477 30.4057L104.141 31.1971L100.792 34.0035L100.759 33.9669L100.532 34.1208C100.352 33.8716 100.191 33.6078 100.044 33.3331L100.264 33.1792ZM100.891 34.1244L100.847 34.0695L104.195 31.263L104.859 32.0507L101.51 34.8572L101.466 34.8059L101.235 34.9598C101.045 34.7583 100.861 34.5494 100.697 34.3296L100.898 34.1208L100.891 34.1244ZM101.59 34.9635L101.561 34.9268L104.91 32.1203L105.551 32.8861L102.309 35.6046L102.261 35.568L102.089 35.7402C101.851 35.557 101.623 35.3592 101.411 35.1503L101.59 34.9671V34.9635ZM102.422 35.6926L102.378 35.6596L105.606 32.952L106.251 33.7214L103.254 36.2311L103.195 36.1945L103.052 36.3704C102.789 36.2202 102.532 36.0589 102.29 35.8867L102.419 35.6926H102.422ZM105.903 37.1727L105.778 37.3633C105.335 37.2753 104.906 37.1581 104.5 37.0189L104.558 36.8687L104.514 36.8467L107.075 34.7033L107.848 35.623L105.969 37.1984L105.906 37.1727H105.903ZM107.936 37.3669L107.837 37.5794C107.214 37.5684 106.614 37.5135 106.046 37.4146L106.093 37.2497L106.057 37.235L107.9 35.6889L108.779 36.7368L108.002 37.3889L107.936 37.3669ZM109.252 37.5318C108.867 37.5648 108.493 37.5831 108.123 37.5831L108.152 37.4402L108.097 37.4219L108.834 36.8064L109.27 37.3266L109.226 37.3376L109.255 37.5318H109.252ZM110.757 37.0628L110.673 37.3413C110.288 37.4109 109.907 37.4659 109.534 37.5025L109.446 37.2753L109.358 37.2973L108.896 36.7477L110.849 35.1137L111.805 36.2531L110.82 37.0775L110.757 37.0628ZM112.241 37.0225C111.816 37.1178 111.384 37.2094 110.944 37.2937L110.966 37.1178L110.922 37.1068L111.86 36.3227L112.26 36.799L112.201 36.8174L112.241 37.0225ZM113.934 36.363L113.751 36.6415C113.348 36.7514 112.937 36.8577 112.516 36.9566L112.417 36.7441L112.344 36.7661L111.922 36.2641L113.458 34.9781L114.381 36.0809L114.007 36.3924L113.93 36.3594L113.934 36.363ZM114.476 36.4327C114.355 36.4693 114.234 36.5059 114.113 36.5389L114.139 36.451L114.099 36.4327L114.44 36.1469L114.487 36.2055L114.44 36.2238L114.48 36.4327H114.476ZM115.465 36.1139C115.231 36.1945 114.989 36.2714 114.751 36.3484L114.652 36.1469L114.575 36.1762L114.509 36.0956L115.623 35.165L116.044 35.6669L115.993 35.6889L116.055 35.9124C115.861 35.9857 115.667 36.0553 115.473 36.1212L115.465 36.1139ZM116.315 35.8061L116.202 35.5973L116.121 35.6303L115.682 35.1064L116.696 34.2563L117.4 35.0954L117.356 35.1173L117.433 35.3408C117.059 35.5057 116.685 35.6633 116.312 35.8061H116.315ZM117.7 35.2236L117.568 35.0184L117.48 35.0587L116.762 34.2014L117.675 33.4393L118.598 34.5421L118.536 34.5751L118.616 34.7803C118.312 34.9342 118.008 35.0807 117.7 35.2199V35.2236ZM118.865 34.6557L118.737 34.4725L118.675 34.5055L117.737 33.388L118.616 32.6516L119.697 33.9413L119.638 33.9742L119.734 34.1867C119.448 34.3479 119.159 34.5055 118.869 34.6557H118.865ZM119.976 34.0438L119.833 33.857L119.767 33.8936L118.679 32.593L119.518 31.8895L120.708 33.3111L120.657 33.3441L120.763 33.5675C120.503 33.7324 120.239 33.89 119.976 34.0438ZM121.009 33.4137L120.855 33.2231L120.785 33.2671L119.587 31.8382L120.426 31.1348L121.698 32.6553L121.635 32.6992L121.756 32.919C121.511 33.0876 121.262 33.2561 121.012 33.4173L121.009 33.4137ZM121.987 32.7505L121.822 32.5673L121.767 32.6076L120.488 31.0835L121.335 30.3764L122.646 31.9408L122.577 31.9958L122.716 32.2229C122.478 32.4061 122.236 32.582 121.991 32.7578L121.987 32.7505ZM122.947 32.0397L122.76 31.8529L122.712 31.8895L121.397 30.3214L122.284 29.5813L123.606 31.1604L123.548 31.208L123.698 31.4315C123.453 31.6404 123.203 31.8419 122.947 32.0434V32.0397ZM124.515 30.7024C124.321 30.8856 124.119 31.0615 123.918 31.2374L123.724 31.0578L123.669 31.1018L122.346 29.5227L123.192 28.8156L124.482 30.358L124.42 30.4093L124.577 30.6438C124.555 30.6658 124.533 30.6841 124.511 30.7061L124.515 30.7024ZM124.797 30.4386L124.603 30.2591L124.552 30.3031L123.262 28.7606L124.156 28.0132L125.376 29.4714L125.317 29.5263L125.49 29.7498C125.266 29.9843 125.035 30.2151 124.801 30.4386H124.797ZM125.687 29.5337L125.479 29.3651L125.431 29.4091L124.215 27.9546L125.105 27.2071L126.204 28.5188L126.149 28.5774L126.343 28.7899C126.131 29.0391 125.911 29.2882 125.684 29.53L125.687 29.5337ZM126.537 28.5664L126.307 28.4089L126.263 28.4565L125.171 27.1522L126.233 26.2619L127.127 27.3317L127.076 27.394L127.285 27.6028C127.047 27.9289 126.794 28.2513 126.534 28.5664H126.537ZM127.461 27.361L127.223 27.2181L127.182 27.2694L126.296 26.2143L127.292 25.3789L127.933 26.141L127.893 26.1996L128.109 26.3828C127.904 26.7125 127.688 27.0386 127.461 27.361ZM128.263 26.13L128.025 26.0091L127.985 26.0677L127.358 25.3239L128.494 24.3713L128.739 24.6645L128.699 24.7377L128.926 24.8953C128.721 25.3166 128.498 25.727 128.259 26.1336L128.263 26.13ZM129.055 24.6278L128.813 24.5326L128.783 24.5839L128.56 24.3164L129.175 23.7998L129.384 23.8584C129.282 24.1185 129.172 24.375 129.051 24.6278H129.055ZM129.483 23.6093L129.216 23.5983L129.205 23.6642L128.509 24.2468L127.585 23.144L128.974 21.9825L129.556 22.6787L129.531 22.7483L129.666 22.8142L129.736 22.8985C129.659 23.1403 129.575 23.3785 129.487 23.6129L129.483 23.6093ZM129.824 22.5981L129.597 22.5504L129.586 22.5834L129.036 21.9276L129.963 21.1508V21.1692L130.161 21.1838C130.077 21.6601 129.963 22.1328 129.828 22.5944L129.824 22.5981ZM130.205 20.9274L129.959 20.9677V21.0409L128.981 21.8616L128.025 20.7222L129.633 19.3739L130.113 19.9454L130.088 20.048L130.253 20.1103L130.3 20.1689C130.275 20.4217 130.242 20.6745 130.201 20.9274H130.205ZM130.352 19.4508C130.348 19.5864 130.337 19.722 130.33 19.8575L130.146 19.8355V19.8502L129.703 19.3226L130.176 18.9269V18.9562L130.363 18.9489C130.363 19.1174 130.359 19.2823 130.352 19.4545V19.4508ZM130.359 18.6888L130.15 18.7474L130.161 18.8207L129.644 19.253L128.765 18.2051L130.055 17.1243L130.069 17.1683L130.245 17.128C130.315 17.6336 130.352 18.1538 130.359 18.6924V18.6888ZM130.209 16.8752L130.003 16.9778L130.025 17.04L128.71 18.1428L127.937 17.2232L129.747 15.7064L129.769 15.7577L129.963 15.6991C130.066 16.0801 130.146 16.4721 130.209 16.8788V16.8752ZM129.897 15.4499L129.692 15.5672L129.714 15.6221L127.886 17.1536L127.179 16.3073L129.337 14.501L129.359 14.545L129.56 14.4644C129.688 14.7831 129.802 15.1129 129.901 15.4499H129.897ZM129.458 14.2299L129.26 14.3654L129.289 14.4241L127.116 16.245L126.472 15.4756L128.813 13.5154L128.842 13.5741L129.091 13.4788C129.223 13.7243 129.344 13.9771 129.458 14.2372V14.2299ZM128.967 13.2443L128.75 13.3835L128.772 13.4275L126.417 15.4023L125.775 14.6366L128.234 12.5775L128.274 12.6288L128.487 12.4859C128.659 12.7314 128.82 12.9842 128.967 13.2443ZM128.336 12.2771L128.146 12.4749L128.179 12.5152L125.72 14.5743L125.057 13.7866L127.516 11.7275L127.549 11.7678L127.783 11.6103C127.977 11.8264 128.161 12.0499 128.333 12.2807L128.336 12.2771ZM126.933 10.7749C127.168 10.9764 127.395 11.1889 127.607 11.4124L127.42 11.6066L127.464 11.6579L125.006 13.7169L124.343 12.9256L126.699 10.9508L126.739 10.9801L126.933 10.7712V10.7749ZM126.05 10.1008C126.285 10.2583 126.512 10.4268 126.728 10.6027L126.574 10.8592L126.625 10.8995L124.284 12.8596L123.632 12.0792L125.805 10.2583L125.86 10.2986L126.054 10.1008H126.05ZM124.739 9.65377L124.918 9.4376C125.233 9.59881 125.537 9.77101 125.83 9.95787L125.695 10.1777L125.735 10.207L123.577 12.0133L122.859 11.1559L124.687 9.62079L124.735 9.65377H124.739ZM123.394 9.08221L123.559 8.85872C123.947 8.99428 124.321 9.1445 124.68 9.3167L124.566 9.54019L124.614 9.5695L122.804 11.0863L122.024 10.152L123.339 9.04924L123.398 9.08221H123.394ZM121.661 8.61691L121.771 8.38609C122.302 8.48867 122.815 8.61691 123.302 8.77811L123.214 8.98329L123.255 9.00527L121.965 10.0861L121.075 9.02359L121.591 8.59126L121.661 8.61324V8.61691ZM120.584 8.42272L120.595 8.21022C120.639 8.21389 120.686 8.21755 120.73 8.22488C120.994 8.25419 121.254 8.29449 121.507 8.33846L121.463 8.55096L121.492 8.56195L121.02 8.95764L120.573 8.42272H120.587H120.584ZM119.353 8.38609L119.426 8.40074L119.514 8.14427C119.778 8.14794 120.042 8.16259 120.309 8.18458L120.36 8.44104L120.463 8.43372L120.95 9.0126L119.342 10.3609L118.374 9.20678L119.353 8.38609ZM117.788 8.22854C118.272 8.17358 118.759 8.14427 119.246 8.14427L119.228 8.35677H119.246L118.32 9.13717L117.763 8.47035H117.796L117.788 8.22488V8.22854ZM116.693 8.65355L116.726 8.38609C116.99 8.33479 117.257 8.29449 117.521 8.25785L117.543 8.33846H117.539L117.546 8.34945L117.587 8.496L117.66 8.48501L118.25 9.18846L116.861 10.3499L115.923 9.23243L116.619 8.64988H116.689L116.693 8.65355ZM115.649 8.63523C115.92 8.56195 116.191 8.49966 116.466 8.44104L116.488 8.65355L115.872 9.17014L115.645 8.89902L115.7 8.8807L115.649 8.63523ZM115.366 8.71217L115.48 8.95398L115.557 8.92833L115.806 9.2251L114.67 10.1777L114.037 9.42295L114.099 9.39364L114.026 9.15549C114.469 8.98695 114.916 8.8404 115.366 8.71217ZM113.758 9.26174L113.894 9.49256L113.96 9.46325L114.608 10.2363L113.612 11.0717L112.714 10.0018L112.772 9.96886L112.681 9.73071C113.036 9.56217 113.399 9.40463 113.762 9.26174H113.758ZM112.413 9.85528L112.567 10.0788L112.637 10.0421L113.546 11.1266L112.483 12.0169L111.377 10.6943L111.432 10.6613L111.329 10.4342C111.684 10.2327 112.047 10.0421 112.413 9.86261V9.85528ZM111.076 10.5734L111.234 10.7786L111.303 10.7383L112.417 12.0682L111.527 12.8156L110.292 11.3428L110.343 11.3062L110.23 11.0973C110.508 10.9178 110.79 10.7419 111.076 10.5734ZM109.988 11.2512L110.157 11.4381L110.222 11.3904L111.461 12.8669L110.571 13.6144L109.263 12.0536L109.314 12.0096L109.186 11.8118C109.449 11.6176 109.717 11.4344 109.988 11.2512ZM108.717 12.1598C108.794 12.1012 108.874 12.0389 108.955 11.9803L109.138 12.1562L109.2 12.1049L110.508 13.6657L109.662 14.3728L108.321 12.7717L108.372 12.7277L108.244 12.5262C108.402 12.4016 108.559 12.2771 108.717 12.1525V12.1598ZM108.021 12.7167L108.193 12.8853L108.251 12.834L109.592 14.4351L108.706 15.1751L107.376 13.5851L107.42 13.5447L107.28 13.3469C107.522 13.1307 107.768 12.9219 108.021 12.7131V12.7167ZM107.072 13.5411L107.251 13.7023L107.317 13.6437L108.647 15.2301L107.801 15.9372L106.507 14.3911L106.555 14.3435L106.416 14.1639C106.632 13.9514 106.852 13.7463 107.075 13.5411H107.072ZM106.211 14.3618L106.39 14.5047L106.445 14.4497L107.735 15.9885L106.896 16.692L105.679 15.2411L105.734 15.1788L105.584 15.0066C105.789 14.7868 105.994 14.5706 106.207 14.3581L106.211 14.3618ZM105.394 15.2155L105.584 15.351L105.624 15.3034L106.83 16.7433L105.991 17.4467L104.888 16.1277L104.936 16.0691L104.782 15.9043C104.98 15.6698 105.181 15.4389 105.39 15.2118L105.394 15.2155ZM104.602 16.1241L104.789 16.2486L104.833 16.1974L105.928 17.5017L105.049 18.2381L104.1 17.106L104.144 17.0474L103.987 16.8898C104.184 16.6297 104.39 16.3732 104.602 16.1204V16.1241ZM103.814 17.117L104.001 17.2342L104.045 17.1756L104.983 18.2931L104.071 19.0551L103.342 18.1868L103.397 18.1099L103.217 17.9413C103.408 17.6629 103.606 17.3881 103.811 17.117H103.814ZM103.06 18.1795L103.269 18.2967L103.294 18.2601L104.009 19.1101L102.994 19.9601L102.55 19.4289L102.594 19.3556L102.408 19.2017C102.613 18.8573 102.833 18.5166 103.06 18.1758V18.1795ZM102.14 19.6597C102.18 19.5901 102.221 19.5241 102.261 19.4545L102.473 19.5571L102.503 19.5095L102.928 20.0187L101.814 20.9493L101.744 20.8687L101.788 20.7955L101.598 20.6562C101.774 20.3155 101.953 19.9821 102.14 19.6597ZM101.466 20.9127L101.675 20.9933L101.7 20.9493L101.748 21.008L101.407 21.2937L101.396 21.2498L101.29 21.2608C101.349 21.1435 101.404 21.0299 101.462 20.9164L101.466 20.9127ZM101.129 21.6015L101.455 21.4659L101.437 21.3817L101.81 21.0702L102.748 22.1877L101.213 23.4737L100.784 22.9644L100.821 22.8948L100.612 22.7483C100.781 22.3562 100.957 21.9752 101.133 21.6015H101.129ZM100.491 23.0157L100.708 23.1L100.737 23.045L101.14 23.5287L100.202 24.3127V24.2688L99.9894 24.2578C100.151 23.8328 100.315 23.4188 100.488 23.0157H100.491ZM99.8978 24.5216L100.22 24.4849V24.419L101.198 23.5946L102.166 24.7487L100.213 26.3828L99.7439 25.8259L99.7806 25.7453L99.5388 25.5951C99.6413 25.2397 99.7586 24.8806 99.8905 24.5179L99.8978 24.5216ZM99.4655 25.8808L99.689 25.9541L99.7073 25.9102L100.151 26.4377L99.4142 27.0533L99.4069 26.9946H99.2163C99.2823 26.6319 99.3666 26.2582 99.4655 25.8772V25.8808ZM99.1687 27.2987L99.4398 27.2291L99.4288 27.1632L100.206 26.511L101.096 27.5735L99.253 29.1197L99.2457 29.0794L99.0258 29.1013C99.0258 28.5225 99.0698 27.9216 99.1687 27.3024V27.2987ZM91.8227 41.2689C94.1346 37.6197 95.3217 36.8284 97.0913 32.2266C97.2012 31.9262 97.5823 30.827 97.9596 30.8783C98.1465 30.9039 98.2711 31.1677 98.37 31.5561C99.1138 34.4688 100.708 36.3704 103.444 37.6124C103.811 37.7773 104.049 37.9495 104.042 38.1363C104.027 38.5174 102.877 38.7006 102.561 38.7555C97.7215 39.6935 96.7359 40.7303 92.7314 42.3607C91.8484 42.7198 91.3098 42.0676 91.8191 41.2652L91.8227 41.2689ZM45.1456 12.4859L45.3581 12.6288L45.3984 12.5775L47.8569 14.6366L47.2157 15.4023L44.8599 13.4275L44.8818 13.3835L44.6657 13.2443C44.8159 12.9842 44.9771 12.7314 45.1456 12.4859ZM74.6028 29.3871C74.5881 29.8414 74.5478 30.2811 74.4782 30.7061L74.273 30.6695L74.2584 30.7171L71.6974 28.5738L72.4778 27.6395L74.3573 29.2149L74.3426 29.2809L74.5991 29.3908L74.6028 29.3871ZM60.7352 23.8584L59.8962 23.155L60.5593 22.3636L61.3984 23.067L60.7352 23.8584ZM61.4606 23.122L62.2997 23.8254L61.6365 24.6168L60.7975 23.9134L61.4606 23.122ZM58.2108 23.3162L59.0572 24.0233L58.416 24.789L57.5697 24.0819L58.2108 23.3162ZM57.5037 24.027L56.6171 23.2869L57.2582 22.5211L58.1449 23.2612L57.5037 24.027ZM58.2658 23.2502L58.9289 22.4625L59.7753 23.1696L59.1121 23.9573L58.2658 23.2502ZM59.8376 23.2209L60.6766 23.9244L60.0134 24.7121L59.1744 24.0086L59.8376 23.2209ZM59.8302 23.1L58.9839 22.3929L59.647 21.6015L60.4934 22.3086L59.8302 23.1ZM58.9216 22.3379L58.035 21.5978L58.6981 20.8064L59.5848 21.5465L58.9216 22.3379ZM58.863 22.4039L58.1998 23.1916L57.3132 22.4515L57.9763 21.6638L58.863 22.4039ZM57.2509 22.4002L56.4046 21.6931L57.0677 20.9054L57.9141 21.6125L57.2509 22.4002ZM57.1959 22.4662L56.5548 23.2319L55.7084 22.5248L56.3496 21.759L57.1959 22.4662ZM55.6462 22.4698L54.7558 21.7224L55.397 20.9567L56.2873 21.7041L55.6462 22.4698ZM55.5875 22.5358L54.9427 23.3052L54.0524 22.5578L54.6972 21.7884L55.5875 22.5358ZM55.6535 22.5907L56.4998 23.2978L55.855 24.0673L55.0086 23.3601L55.6535 22.5907ZM56.5658 23.3528L57.4524 24.0929L56.8076 24.8623L55.9209 24.1222L56.5658 23.3528ZM57.5147 24.1479L58.361 24.855L57.7162 25.6244L56.8699 24.9173L57.5147 24.1479ZM58.4233 24.9099L59.2623 25.6134L58.6175 26.3828L57.7785 25.6793L58.4233 24.9099ZM58.4783 24.844L59.1195 24.0782L59.9585 24.7817L59.3173 25.5474L58.4783 24.844ZM60.0244 24.8367L60.8634 25.5401L60.2223 26.3058L59.3833 25.6024L60.0244 24.8367ZM60.083 24.7707L60.7462 23.983L61.5852 24.6864L60.9221 25.4742L60.083 24.7707ZM61.6475 24.7377L62.5268 25.4742L61.8637 26.2619L60.9843 25.5255L61.6475 24.7377ZM61.7025 24.6681L62.3656 23.8767L63.2449 24.6132L62.5818 25.4045L61.7025 24.6681ZM62.4206 23.8144L63.0727 23.0341L63.952 23.7705L63.2999 24.5509L62.4206 23.8144ZM62.3583 23.7595L61.5193 23.056L62.1714 22.2756L63.0104 22.9791L62.3583 23.7595ZM61.4533 23.0011L60.6143 22.2976L61.2665 21.5172L62.1055 22.2207L61.4533 23.0011ZM60.5483 22.2427L59.702 21.5355L60.3542 20.7552L61.2005 21.4623L60.5483 22.2427ZM59.6397 21.4806L58.7531 20.7405L59.4052 19.9601L60.2919 20.7002L59.6397 21.4806ZM58.6871 20.6855L57.8408 19.9784L58.4929 19.198L59.3393 19.9051L58.6871 20.6855ZM58.6322 20.7515L57.969 21.5429L57.1227 20.8358L57.7858 20.0444L58.6322 20.7515ZM57.0604 20.7808L56.1701 20.0334L56.8332 19.242L57.7235 19.9894L57.0604 20.7808ZM57.0018 20.8468L56.3386 21.6345L55.4483 20.8871L56.1115 20.0993L57.0018 20.8468ZM55.386 20.8358L54.4957 20.0883L55.1589 19.3006L56.0492 20.048L55.386 20.8358ZM55.3311 20.9017L54.6899 21.6674L53.7996 20.92L54.4408 20.1543L55.3311 20.9017ZM54.6313 21.7334L53.9864 22.5028L53.0961 21.7554L53.741 20.986L54.6313 21.7334ZM53.9315 22.5687L53.2244 23.4151L52.3341 22.6677L53.0412 21.8213L53.9315 22.5687ZM53.9974 22.6237L54.8877 23.3711L54.1806 24.2175L53.2903 23.47L53.9974 22.6237ZM54.9537 23.4261L55.8 24.1332L55.0929 24.9795L54.2466 24.2724L54.9537 23.4261ZM55.8623 24.1882L56.749 24.9283L56.0418 25.7746L55.1552 25.0345L55.8623 24.1882ZM56.8149 24.9832L57.6613 25.6903L56.9541 26.5367L56.1078 25.8296L56.8149 24.9832ZM57.7235 25.7453L58.5626 26.4487L57.8554 27.2951L57.0164 26.5916L57.7235 25.7453ZM58.6285 26.5037L59.4675 27.2071L58.7604 28.0535L57.9214 27.35L58.6285 26.5037ZM58.6835 26.4377L59.3283 25.6683L60.1673 26.3718L59.5225 27.1412L58.6835 26.4377ZM60.2333 26.4268L61.1126 27.1632L60.4677 27.9326L59.5884 27.1962L60.2333 26.4268ZM60.2882 26.3608L60.9294 25.5951L61.8087 26.3315L61.1675 27.0972L60.2882 26.3608ZM61.8747 26.3828L62.7869 27.1449L62.1458 27.9106L61.2335 27.1485L61.8747 26.3828ZM61.9296 26.3168L62.5928 25.5291L63.5051 26.2912L62.8419 27.0789L61.9296 26.3168ZM62.6477 25.4595L63.3109 24.6681L64.2232 25.4302L63.56 26.2216L62.6477 25.4595ZM63.3658 24.6022L64.018 23.8218L64.9303 24.5839L64.2781 25.3642L63.3658 24.6022ZM64.9926 24.6388L66.0074 25.4888L65.3553 26.2692L64.3404 25.4192L64.9926 24.6388ZM65.0512 24.5729L65.7693 23.7155L66.7842 24.5655L66.0661 25.4229L65.0512 24.5729ZM64.9852 24.5179L64.073 23.7558L64.7911 22.8985L65.7033 23.6606L64.9852 24.5179ZM64.0107 23.7009L63.1313 22.9644L63.8495 22.1071L64.7288 22.8435L64.0107 23.7009ZM63.0654 22.9131L62.2264 22.2097L62.9445 21.3524L63.7835 22.0558L63.0654 22.9131ZM62.1641 22.1547L61.3251 21.4513L62.0432 20.5939L62.8822 21.2974L62.1641 22.1547ZM61.2591 21.3963L60.4128 20.6892L61.1309 19.8319L61.9772 20.539L61.2591 21.3963ZM60.3468 20.6342L59.4602 19.8942L60.1783 19.0368L61.0649 19.7769L60.3468 20.6342ZM59.3979 19.8392L58.5516 19.1321L59.2697 18.2747L60.116 18.9819L59.3979 19.8392ZM58.4893 19.0735L57.599 18.326L58.3171 17.4687L59.2074 18.2161L58.4893 19.0735ZM58.4307 19.1431L57.7785 19.9235L56.8845 19.176L57.5367 18.3957L58.427 19.1431H58.4307ZM56.8222 19.1211L55.9319 18.3737L56.5841 17.5933L57.4744 18.3407L56.8222 19.1211ZM56.7636 19.187L56.1005 19.9784L55.2102 19.231L55.8733 18.4396L56.7636 19.187ZM55.1479 19.176L54.0854 18.2857L54.7485 17.4944L55.811 18.3847L55.1479 19.176ZM55.0893 19.242L54.4261 20.0297L53.3636 19.1394L54.0267 18.3517L55.0893 19.242ZM54.3711 20.0993L53.73 20.8651L52.6675 19.9748L53.3086 19.209L54.3711 20.0993ZM53.675 20.931L53.0302 21.7004L51.9677 20.8101L52.6125 20.0407L53.675 20.931ZM52.9752 21.7664L52.2681 22.6127L51.2056 21.7224L51.9127 20.8761L52.9752 21.7664ZM52.2095 22.6787L51.4364 23.5983L50.3739 22.708L51.147 21.7884L52.2095 22.6787ZM52.2754 22.7336L53.1657 23.481L52.3927 24.4007L51.5024 23.6532L52.2754 22.7336ZM53.2317 23.536L54.122 24.2834L53.3489 25.203L52.4586 24.4556L53.2317 23.536ZM54.188 24.3347L55.0343 25.0418L54.2612 25.9614L53.4149 25.2543L54.188 24.3347ZM55.1002 25.1005L55.9869 25.8405L55.2138 26.7602L54.3272 26.0201L55.1002 25.1005ZM56.0492 25.8955L56.8955 26.6026L56.1224 27.5222L55.2761 26.8151L56.0492 25.8955ZM56.9615 26.6576L57.8005 27.361L57.0274 28.2806L56.1884 27.5772L56.9615 26.6576ZM57.8628 27.416L58.7018 28.1194L57.9287 29.0391L57.0897 28.3356L57.8628 27.416ZM58.7677 28.1744L59.647 28.9108L58.874 29.8304L57.9947 29.094L58.7677 28.1744ZM58.8227 28.1048L59.5298 27.2584L60.4091 27.9949L59.702 28.8412L58.8227 28.1048ZM60.4751 28.0498L61.3874 28.8119L60.6802 29.6582L59.768 28.8962L60.4751 28.0498ZM60.53 27.9839L61.1749 27.2145L62.0872 27.9766L61.4423 28.746L60.53 27.9839ZM62.1494 28.0315L63.1643 28.8815L62.5195 29.6509L61.5046 28.8009L62.1494 28.0315ZM62.2081 27.9656L62.8492 27.1998L63.8641 28.0498L63.2229 28.8156L62.2081 27.9656ZM62.9042 27.1339L63.5673 26.3462L64.5822 27.1962L63.9191 27.9839L62.9042 27.1339ZM63.6223 26.2765L64.2855 25.4852L65.3003 26.3352L64.6372 27.1265L63.6223 26.2765ZM65.3626 26.3901L66.4764 27.3207L65.8133 28.1121L64.6995 27.1815L65.3626 26.3901ZM65.4212 26.3242L66.0734 25.5438L67.1872 26.4744L66.535 27.2548L65.4212 26.3242ZM66.1284 25.4778L66.8465 24.6205L67.9603 25.5511L67.2422 26.4084L66.1284 25.4778ZM66.9014 24.5545L67.6818 23.6203L68.7956 24.5509L68.0152 25.4852L66.9014 24.5545ZM66.8391 24.4996L65.8243 23.6496L66.6046 22.7153L67.6195 23.5653L66.8391 24.4996ZM65.7583 23.5946L64.846 22.8325L65.6264 21.8983L66.5387 22.6603L65.7583 23.5946ZM64.7837 22.7776L63.9044 22.0412L64.6848 21.1069L65.5641 21.8433L64.7837 22.7776ZM63.8385 21.9899L62.9994 21.2864L63.7798 20.3521L64.6189 21.0556L63.8385 21.9899ZM62.9372 21.2315L62.0981 20.528L62.8785 19.5937L63.7176 20.2972L62.9372 21.2315ZM62.0322 20.473L61.1859 19.7659L61.9663 18.8316L62.8126 19.5388L62.0322 20.473ZM61.1199 19.711L60.2333 18.9709L61.0137 18.0366L61.9003 18.7767L61.1199 19.711ZM60.171 18.9159L59.3246 18.2088L60.105 17.2745L60.9514 17.9816L60.171 18.9159ZM59.2623 18.1502L58.372 17.4028L59.1524 16.4685L60.0427 17.2159L59.2623 18.1502ZM58.3061 17.3515L57.4158 16.604L58.1962 15.6698L59.0901 16.4172L58.3097 17.3515H58.3061ZM58.2475 17.4174L57.5294 18.2747L56.639 17.5273L57.3572 16.67L58.2475 17.4174ZM56.5731 17.4724L55.5106 16.5821L56.2287 15.7247L57.2912 16.615L56.5731 17.4724ZM56.5181 17.5383L55.866 18.3187L54.8035 17.4284L55.4556 16.648L56.5181 17.5383ZM54.7375 17.3734L53.741 16.5381L54.3931 15.7577L55.3897 16.5931L54.7375 17.3734ZM54.6826 17.4431L54.0194 18.2344L53.0229 17.3991L53.686 16.6077L54.6826 17.4431ZM53.9645 18.3004L53.3013 19.0881L52.3047 18.2528L52.9679 17.465L53.9645 18.3004ZM53.2463 19.1541L52.6052 19.9198L51.6086 19.0844L52.2498 18.3187L53.2463 19.1541ZM52.5502 19.9894L51.9054 20.7588L50.9088 19.9235L51.5537 19.1541L52.5502 19.9894ZM51.8504 20.8248L51.1433 21.6711L50.1468 20.8358L50.8539 19.9894L51.8504 20.8248ZM51.0847 21.7371L50.3116 22.6567L49.3151 21.8213L50.0881 20.9017L51.0847 21.7371ZM49.2528 21.7664L48.117 20.8138L48.8901 19.8942L50.0258 20.8468L49.2528 21.7664ZM49.1978 21.8323L48.3185 22.8802L47.1827 21.9276L48.062 20.8797L49.1978 21.8323ZM49.2601 21.8873L50.2567 22.7226L49.3774 23.7705L48.3808 22.9351L49.2601 21.8873ZM50.3226 22.7776L51.3851 23.6679L50.5058 24.7157L49.4433 23.8254L50.3226 22.7776ZM51.4474 23.7192L52.3377 24.4666L51.4584 25.5145L50.5681 24.767L51.4474 23.7192ZM52.4073 24.5216L53.2976 25.269L52.4183 26.3168L51.528 25.5694L52.4073 24.5216ZM53.3636 25.3239L54.2099 26.0311L53.3306 27.0789L52.4843 26.3718L53.3636 25.3239ZM54.2722 26.086L55.1589 26.8261L54.2795 27.874L53.3929 27.1339L54.2722 26.086ZM55.2211 26.8811L56.0675 27.5882L55.1882 28.636L54.3418 27.9289L55.2211 26.8811ZM56.1334 27.6431L56.9725 28.3466L56.0931 29.3945L55.2541 28.691L56.1334 27.6431ZM57.0384 28.4016L57.8774 29.105L56.9981 30.1529L56.1591 29.4494L57.0384 28.4016ZM57.9397 29.16L58.819 29.8964L57.9397 30.9442L57.0604 30.2078L57.9397 29.16ZM58.885 29.9514L59.7973 30.7134L58.9179 31.7613L58.0057 30.9992L58.885 29.9514ZM58.9399 29.8854L59.713 28.9658L60.6253 29.7279L59.8522 30.6475L58.9399 29.8854ZM60.6876 29.7792L61.7025 30.6292L60.9294 31.5488L59.9145 30.6988L60.6876 29.7792ZM60.7425 29.7132L61.4496 28.8669L62.4645 29.7169L61.7574 30.5632L60.7425 29.7132ZM62.5305 29.7718L63.6443 30.7024L62.9372 31.5488L61.8234 30.6182L62.5305 29.7718ZM62.5854 29.7059L63.2303 28.9365L64.3441 29.8671L63.6992 30.6365L62.5854 29.7059ZM63.2852 28.8705L63.9264 28.1048L65.0402 29.0354L64.399 29.8011L63.2852 28.8705ZM63.985 28.0388L64.6482 27.2511L65.762 28.1817L65.0988 28.9694L63.985 28.0388ZM65.8206 28.2367L67.3557 29.5227L66.6926 30.3104L65.1574 29.0244L65.8206 28.2367ZM65.8792 28.1671L66.5424 27.3757L68.0775 28.6617L67.4144 29.4531L65.8792 28.1671ZM66.5973 27.3097L67.2495 26.5293L68.7846 27.8153L68.1325 28.5957L66.5973 27.3097ZM67.3081 26.4634L68.0262 25.6061L69.5614 26.8921L68.8432 27.7494L67.3081 26.4634ZM68.0812 25.5401L68.8616 24.6058L70.3967 25.8918L69.6163 26.8261L68.0812 25.5401ZM68.8542 24.4849L67.7404 23.5543L68.6307 22.4918L69.7445 23.4224L68.8542 24.4849ZM67.6781 23.4994L66.6633 22.6494L67.5536 21.5868L68.5685 22.4368L67.6781 23.4994ZM66.5973 22.5944L65.685 21.8323L66.5753 20.7698L67.4876 21.5319L66.5973 22.5944ZM65.6227 21.7774L64.7434 21.0409L65.6337 19.9784L66.5131 20.7149L65.6227 21.7774ZM64.6775 20.986L63.8385 20.2825L64.7288 19.22L65.5678 19.9235L64.6775 20.986ZM63.7725 20.2312L62.9335 19.5278L63.8238 18.4653L64.6628 19.1687L63.7725 20.2312ZM62.8712 19.4728L62.0249 18.7657L62.9152 17.7032L63.7615 18.4103L62.8712 19.4728ZM61.9589 18.7107L61.0723 17.9706L61.9626 16.9081L62.8492 17.6482L61.9589 18.7107ZM61.01 17.9157L60.1637 17.2086L61.054 16.1461L61.9003 16.8532L61.01 17.9157ZM60.0977 17.15L59.2074 16.4025L60.0977 15.34L60.988 16.0874L60.0977 17.15ZM59.1414 16.3512L58.2511 15.6038L59.1414 14.5413L60.0318 15.2887L59.1414 16.3512ZM58.1852 15.5489L57.1227 14.6586L58.013 13.596L59.0755 14.4864L58.1852 15.5489ZM58.1302 15.6148L57.3498 16.5491L56.2873 15.6588L57.0677 14.7245L58.1302 15.6148ZM56.2214 15.6038L55.2248 14.7685L56.0052 13.8342L57.0018 14.6695L56.2214 15.6038ZM56.1664 15.6734L55.4483 16.5308L54.4517 15.6954L55.1699 14.8381L56.1664 15.6734ZM54.3858 15.6368L53.25 14.6842L53.9681 13.8269L55.1039 14.7795L54.3858 15.6368ZM54.3308 15.7064L53.6787 16.4868L52.5429 15.5342L53.1951 14.7538L54.3308 15.7064ZM53.6201 16.5527L52.9569 17.3441L51.8211 16.3915L52.4843 15.6002L53.6201 16.5527ZM52.9019 17.4101L52.2388 18.1978L51.103 17.2452L51.7662 16.4575L52.9019 17.4101ZM52.1838 18.2674L51.5427 19.0332L50.4069 18.0806L51.0481 17.3148L52.1838 18.2674ZM51.4877 19.0991L50.8429 19.8685L49.7071 18.9159L50.3519 18.1465L51.4877 19.0991ZM50.7879 19.9345L50.0808 20.7808L48.945 19.8282L49.6521 18.9819L50.7879 19.9345ZM48.8754 19.7733L47.4868 18.6118L48.1939 17.7655L49.5825 18.9269L48.8754 19.7733ZM48.8204 19.8392L48.0474 20.7588L46.6588 19.5974L47.4319 18.6778L48.8204 19.8392ZM47.9961 20.8248L47.1168 21.8726L45.7282 20.7112L46.6075 19.6633L47.9961 20.8248ZM47.1241 21.9935L48.2599 22.9461L47.3036 24.0856L46.1678 23.133L47.1241 21.9935ZM48.3258 23.0011L49.3224 23.8364L48.3661 24.9759L47.3696 24.1405L48.3258 23.0011ZM49.3883 23.8914L50.4509 24.7817L49.4946 25.9211L48.4321 25.0308L49.3883 23.8914ZM50.5168 24.833L51.4071 25.5804L50.4509 26.7199L49.5605 25.9724L50.5168 24.833ZM51.4731 25.6354L52.3634 26.3828L51.4071 27.5222L50.5168 26.7748L51.4731 25.6354ZM52.4293 26.4377L53.2757 27.1449L52.3194 28.2843L51.4731 27.5772L52.4293 26.4377ZM53.3379 27.1998L54.2246 27.9399L53.2683 29.0794L52.3817 28.3393L53.3379 27.1998ZM54.2905 27.9949L55.1369 28.702L54.1806 29.8414L53.3343 29.1343L54.2905 27.9949ZM55.1992 28.7606L56.0382 29.4641L55.0819 30.6035L54.2429 29.9001L55.1992 28.7606ZM56.1041 29.5154L56.9431 30.2188L55.9869 31.3583L55.1479 30.6548L56.1041 29.5154ZM57.0091 30.2738L57.8884 31.0102L56.9322 32.1496L56.0528 31.4132L57.0091 30.2738ZM57.9507 31.0652L58.863 31.8272L57.9067 32.9667L56.9944 32.2046L57.9507 31.0652ZM58.9253 31.8822L59.9402 32.7322L58.9839 33.8716L57.969 33.0216L58.9253 31.8822ZM58.9802 31.8162L59.8596 30.7684L60.8744 31.6184L59.9951 32.6662L58.9802 31.8162ZM60.9404 31.6733L62.0542 32.604L61.1749 33.6518L60.0611 32.7212L60.9404 31.6733ZM60.9953 31.6074L61.7684 30.6878L62.8822 31.6184L62.1091 32.538L60.9953 31.6074ZM62.9445 31.6697L64.4796 32.9557L63.7066 33.8753L62.1714 32.5893L62.9445 31.6697ZM62.9994 31.6037L63.7066 30.7574L65.2417 32.0434L64.5346 32.8897L62.9994 31.6037ZM63.7615 30.6951L64.4063 29.9257L65.9415 31.2117L65.2967 31.9811L63.7615 30.6951ZM64.465 29.8561L65.1061 29.0904L66.6413 30.3764L66.0001 31.1421L64.465 29.8561ZM66.7036 30.4313L68.6564 32.0654L68.0152 32.8311L66.0624 31.1971L66.7036 30.4313ZM66.7622 30.3654L67.4253 29.5776L69.3782 31.2117L68.715 31.9994L66.7622 30.3654ZM67.4803 29.508L68.1435 28.7166L70.0963 30.3507L69.4331 31.1421L67.4803 29.508ZM68.1984 28.6507L68.8506 27.8703L70.8034 29.5044L70.1512 30.2848L68.1984 28.6507ZM68.9055 27.8044L69.6236 26.947L71.5765 28.5811L70.8583 29.4384L68.9055 27.8044ZM69.6786 26.8811L70.459 25.9468L72.4118 27.5809L71.6314 28.5151L69.6786 26.8811ZM70.4553 25.8259L68.9202 24.5399L69.8105 23.4774L71.3456 24.7634L70.4553 25.8259ZM69.7995 23.3565L68.6857 22.4259L69.653 21.2718L70.7668 22.2024L69.7995 23.3565ZM68.6234 22.3709L67.6085 21.5209L68.5758 20.3668L69.5907 21.2168L68.6234 22.3709ZM67.5426 21.4659L66.6303 20.7039L67.5975 19.5498L68.5098 20.3118L67.5426 21.4659ZM66.568 20.6489L65.6887 19.9125L66.6559 18.7584L67.5353 19.4948L66.568 20.6489ZM65.6227 19.8575L64.7837 19.1541L65.751 18L66.59 18.7034L65.6227 19.8575ZM64.7214 19.1028L63.8824 18.3993L64.8497 17.2452L65.6887 17.9487L64.7214 19.1028ZM63.8165 18.3444L62.9701 17.6372L63.9374 16.4831L64.7837 17.1903L63.8165 18.3444ZM62.9042 17.5823L62.0175 16.8422L62.9848 15.6881L63.8714 16.4282L62.9042 17.5823ZM61.9553 16.7836L61.1089 16.0765L62.0762 14.9223L62.9225 15.6295L61.9553 16.7836ZM61.0466 16.0215L60.1563 15.2741L61.1236 14.12L62.0139 14.8674L61.0466 16.0215ZM60.0904 15.2191L59.2001 14.4717L60.1673 13.3176L61.0576 14.065L60.0904 15.2191ZM59.1304 14.4204L58.0679 13.5301L59.0352 12.376L60.0977 13.2663L59.1304 14.4204ZM58.0057 13.4751L57.0091 12.6398L57.9763 11.4857L58.9729 12.321L58.0057 13.4751ZM57.9507 13.5411L57.0604 14.6036L56.0638 13.7682L56.9541 12.7057L57.9507 13.5411ZM55.9979 13.7133L54.8621 12.7607L55.7524 11.6982L56.8882 12.6508L55.9979 13.7133ZM55.9429 13.7829L55.1625 14.7172L54.0267 13.7646L54.8071 12.8303L55.9429 13.7829ZM53.9571 13.7096L52.5685 12.5482L53.3489 11.6139L54.7375 12.7753L53.9571 13.7096ZM53.9022 13.7756L53.1841 14.6329L51.7955 13.4715L52.5136 12.6141L53.9022 13.7756ZM53.1291 14.6989L52.4769 15.4792L51.0884 14.3178L51.7405 13.5374L53.1291 14.6989ZM52.4183 15.5452L51.7552 16.3366L50.3666 15.1751L51.0297 14.3838L52.4183 15.5452ZM51.7002 16.4025L51.0371 17.1903L49.6485 16.0288L50.3116 15.2411L51.7002 16.4025ZM50.9821 17.2599L50.3409 18.0256L48.9523 16.8642L49.5935 16.0984L50.9821 17.2599ZM50.286 18.0916L49.6411 18.861L48.2526 17.6995L48.8974 16.9301L50.286 18.0916ZM48.1866 17.6446L46.5782 16.2963L47.223 15.5269L48.8314 16.8752L48.1866 17.6446ZM48.1316 17.7105L47.4245 18.5569L45.8161 17.2086L46.5232 16.3622L48.1316 17.7105ZM47.3696 18.6228L46.5965 19.5424L44.9881 18.1941L45.7612 17.2745L47.3696 18.6228ZM46.5415 19.6084L45.6622 20.6562L44.0538 19.3079L44.9331 18.2601L46.5415 19.6084ZM45.6732 20.7771L47.0618 21.9386L46.1056 23.078L44.717 21.9166L45.6732 20.7771ZM46.1129 23.2026L47.2487 24.1552L46.3254 25.258L45.1896 24.3054L46.1129 23.2026ZM47.3183 24.2065L48.3148 25.0418L47.3916 26.1446L46.395 25.3093L47.3183 24.2065ZM48.3771 25.0968L49.4396 25.9871L48.5163 27.0899L47.4538 26.1996L48.3771 25.0968ZM49.5056 26.0421L50.3959 26.7895L49.4726 27.8923L48.5823 27.1449L49.5056 26.0421ZM50.4618 26.8408L51.3522 27.5882L50.4289 28.691L49.5386 27.9436L50.4618 26.8408ZM51.4181 27.6431L52.2644 28.3503L51.3412 29.4531L50.4948 28.746L51.4181 27.6431ZM52.3267 28.4089L53.2134 29.149L52.2901 30.2518L51.4034 29.5117L52.3267 28.4089ZM53.2793 29.2039L54.1257 29.9111L53.2024 31.0139L52.356 30.3067L53.2793 29.2039ZM54.188 29.966L55.027 30.6695L54.1037 31.7723L53.2647 31.0688L54.188 29.966ZM55.0929 30.7244L55.9319 31.4279L55.0086 32.5307L54.1696 31.8272L55.0929 30.7244ZM55.9979 31.4792L56.8772 32.2156L55.9539 33.3184L55.0746 32.582L55.9979 31.4792ZM56.9395 32.2706L57.8518 33.0326L56.9285 34.1354L56.0162 33.3734L56.9395 32.2706ZM57.9141 33.0876L58.9289 33.9376L58.0057 35.0404L56.9908 34.1904L57.9141 33.0876ZM58.9949 33.9925L60.1087 34.9232L59.1854 36.026L58.0716 35.0954L58.9949 33.9925ZM59.0498 33.9266L60.0061 32.7872L61.1199 33.7178L60.1637 34.8572L59.0498 33.9266ZM61.1822 33.7727L62.7173 35.0587L61.7611 36.1982L60.2259 34.9122L61.1822 33.7727ZM61.2371 33.7068L62.1165 32.6589L63.6516 33.9449L62.7723 34.9928L61.2371 33.7068ZM63.7176 33.9999L65.6704 35.6339L64.7911 36.6818L62.8382 35.0477L63.7176 33.9999ZM63.7725 33.9339L64.5456 33.0143L66.4984 34.6484L65.7253 35.568L63.7725 33.9339ZM64.6005 32.9447L65.3077 32.0984L67.2605 33.7324L66.5534 34.5788L64.6005 32.9447ZM65.3626 32.0324L66.0074 31.263L67.9603 32.8971L67.3154 33.6665L65.3626 32.0324ZM68.0226 32.952L71.2504 35.6596L71.2064 35.6926L71.3346 35.8867C71.0928 36.0626 70.84 36.2238 70.5726 36.3704L70.4297 36.1945L70.3711 36.2311L67.3741 33.7214L68.0189 32.952H68.0226ZM71.3237 35.6046L68.0812 32.8861L68.7223 32.1203L72.0711 34.9268L72.0418 34.9635L72.2213 35.1467C72.0088 35.3555 71.7816 35.5497 71.5435 35.7365L71.3713 35.5643L71.3237 35.601V35.6046ZM72.17 34.8096L72.126 34.8609L68.7773 32.0544L69.4404 31.2667L72.7892 34.0732L72.7452 34.1281L72.9467 34.3369C72.7782 34.5568 72.5987 34.7656 72.4081 34.9671L72.1773 34.8132L72.17 34.8096ZM72.8735 33.9669L72.8405 34.0035L69.4917 31.1971L70.1549 30.4057L73.3974 33.1242L73.3681 33.1792L73.5879 33.3331C73.4413 33.6078 73.2765 33.868 73.1006 34.1208L72.8735 33.9669ZM73.4707 32.9997L73.445 33.0473L70.2172 30.3397L70.8693 29.5593L73.8663 32.069L73.8407 32.135L74.0715 32.2632C73.9653 32.5527 73.848 32.8311 73.7125 33.0986L73.4707 32.996V32.9997ZM73.914 31.9481L73.8957 31.9884L70.9206 29.4934L71.6387 28.636L74.2291 30.805L74.2107 30.8636L74.3866 30.9369L74.4232 30.9662C74.3536 31.3253 74.262 31.6733 74.1521 32.0141L73.9103 31.9445L73.914 31.9481ZM72.4704 27.5149L70.5176 25.8808L71.4079 24.8183L73.3607 26.4524L72.4704 27.5149ZM71.4006 24.6974L69.8655 23.4114L70.8327 22.2573L72.3678 23.5433L71.4006 24.6974ZM70.8254 22.1364L69.7116 21.2058L70.6495 20.0883L71.7633 21.0189L70.8254 22.1364ZM69.6456 21.1472L68.6307 20.2972L69.5687 19.1797L70.5836 20.0297L69.6456 21.1472ZM68.5685 20.2422L67.6562 19.4801L68.5941 18.3627L69.5064 19.1248L68.5685 20.2422ZM67.5902 19.4252L66.7109 18.6888L67.6488 17.5713L68.5282 18.3077L67.5902 19.4252ZM66.6486 18.6375L65.8096 17.934L66.7475 16.8165L67.5866 17.52L66.6486 18.6375ZM65.7437 17.8791L64.9046 17.1756L65.8426 16.0581L66.6816 16.7616L65.7437 17.8791ZM64.8387 17.1206L63.9923 16.4135L64.9303 15.2961L65.7766 16.0032L64.8387 17.1206ZM63.9301 16.3586L63.0434 15.6185L63.9814 14.501L64.868 15.2411L63.9301 16.3586ZM62.9811 15.5635L62.1348 14.8564L63.0727 13.7389L63.9191 14.446L62.9811 15.5635ZM62.0688 14.8014L61.1785 14.054L62.1165 12.9366L63.0068 13.684L62.0688 14.8014ZM61.1126 13.9991L60.2223 13.2516L61.1602 12.1342L62.0542 12.8816L61.1162 13.9991H61.1126ZM60.1563 13.1967L59.0938 12.3064L60.0318 11.1889L61.0943 12.0792L60.1563 13.1967ZM59.0315 12.2514L58.035 11.4161L58.9729 10.2986L59.9695 11.134L59.0315 12.2514ZM57.969 11.3648L56.8332 10.4122L57.7712 9.29471L58.907 10.2473L57.969 11.3648ZM57.9104 11.4307L56.9431 12.5848L55.8074 11.6322L56.7746 10.4781L57.9104 11.4307ZM55.7414 11.5773L54.3528 10.4158L55.3201 9.26174L56.7087 10.4232L55.7414 11.5773ZM55.6865 11.6469L54.7961 12.7094L53.4076 11.548L54.2979 10.4855L55.6865 11.6469ZM53.3416 11.4893L51.7332 10.1411L52.6235 9.07855L54.2319 10.4268L53.3416 11.4893ZM53.2867 11.559L52.5063 12.4932L50.8978 11.1449L51.6782 10.2107L53.2867 11.559ZM52.4476 12.5592L51.7295 13.4165L50.1211 12.0682L50.8392 11.2109L52.4476 12.5592ZM51.6746 13.4825L51.0224 14.2629L49.414 12.9146L50.0661 12.1342L51.6746 13.4825ZM50.9674 14.3288L50.3043 15.1202L48.6959 13.7719L49.359 12.9805L50.9674 14.3288ZM50.2457 15.1861L49.5825 15.9739L47.9741 14.6256L48.6373 13.8342L50.2457 15.1825V15.1861ZM49.5312 16.0398L48.8901 16.8056L47.2816 15.4573L47.9228 14.6915L49.5312 16.0398ZM44.5374 13.4715L44.7866 13.5667L44.8159 13.5081L47.1571 15.4683L46.5122 16.2377L44.3396 14.4167L44.3689 14.3581L44.1711 14.2226C44.281 13.9624 44.4055 13.7096 44.5374 13.4641V13.4715ZM44.0758 14.4607L44.2773 14.5413L44.2993 14.4973L46.4573 16.3036L45.7502 17.15L43.9219 15.6185L43.9439 15.5635L43.7387 15.4463C43.8377 15.1092 43.9512 14.7795 44.0795 14.4607H44.0758ZM43.6691 15.6954L43.8633 15.754L43.8853 15.7027L45.6952 17.2196L44.9221 18.1392L43.6068 17.0364L43.6288 16.9741L43.4236 16.8715C43.4859 16.4685 43.5702 16.0728 43.6691 15.6918V15.6954ZM43.387 17.1243L43.5629 17.1646L43.5775 17.1206L44.8672 18.2015L43.9879 19.2493L43.4713 18.817L43.4823 18.7437L43.2734 18.6851C43.2808 18.1465 43.3174 17.6262 43.387 17.1206V17.1243ZM43.2807 19.4508C43.2734 19.2823 43.2698 19.1138 43.2698 18.9452L43.4529 18.9526V18.9232L43.9329 19.3189L43.4932 19.8465V19.8319L43.3064 19.8539C43.2954 19.7183 43.2881 19.5827 43.2844 19.4472L43.2807 19.4508ZM43.332 20.1689L43.3797 20.1103L43.5445 20.048L43.5189 19.9454L43.9989 19.3739L45.6073 20.7222L44.651 21.8616L43.6728 21.0409V20.9677L43.4273 20.9274C43.387 20.6782 43.354 20.4254 43.3284 20.1689H43.332ZM43.4749 21.1875L43.6691 21.1728V21.1545L44.5961 21.9312L44.0465 22.5871L44.0355 22.5541L43.8083 22.6017C43.6728 22.1364 43.5592 21.6674 43.4749 21.1911V21.1875ZM43.8999 22.8948L43.9695 22.8106L44.1051 22.7446L44.0795 22.675L44.662 21.9789L46.0506 23.1403L45.1273 24.2431L44.4312 23.6606L44.4202 23.5946L44.1527 23.6056C44.0648 23.3675 43.9805 23.1293 43.9036 22.8912L43.8999 22.8948ZM44.2443 23.8584L44.4532 23.7998L45.0687 24.3164L44.8415 24.5839L44.8122 24.5326L44.5704 24.6278C44.4532 24.375 44.3433 24.1185 44.237 23.8584H44.2443ZM44.7023 24.8953L44.9295 24.7377L44.8892 24.6645L45.1346 24.3713L46.2704 25.3239L45.6439 26.0677L45.6036 26.0091L45.3655 26.13C45.1236 25.7233 44.9002 25.313 44.6986 24.8916L44.7023 24.8953ZM45.523 26.3828L45.7392 26.1996L45.6989 26.141L46.34 25.3789L47.3366 26.2143L46.45 27.2694L46.4097 27.2181L46.1715 27.361C45.9443 27.0423 45.7282 26.7162 45.523 26.3828ZM46.3437 27.6028L46.5525 27.394L46.5012 27.3317L47.3952 26.2619L48.4577 27.1522L47.3659 28.4565L47.3219 28.4089L47.0911 28.5664C46.831 28.2513 46.5819 27.9326 46.34 27.6028H46.3437ZM47.2853 28.7936L47.4795 28.5811L47.4245 28.5225L48.5237 27.2108L49.414 27.9582L48.1976 29.4128L48.15 29.3688L47.9411 29.5373C47.714 29.2955 47.4941 29.0501 47.2816 28.7972L47.2853 28.7936ZM48.8351 30.4386C48.6006 30.2151 48.3698 29.9843 48.1463 29.7498L48.3185 29.5263L48.2599 29.4714L49.4799 28.0132L50.3702 28.7606L49.0806 30.3031L49.0293 30.2591L48.8351 30.4386ZM49.7144 31.2374C49.5129 31.0615 49.3114 30.882 49.1172 30.7024C49.0952 30.6805 49.0733 30.6621 49.0513 30.6402L49.2088 30.4057L49.1465 30.3544L50.4362 28.8119L51.2825 29.519L49.9599 31.0981L49.9049 31.0542L49.7108 31.2337L49.7144 31.2374ZM50.6853 32.0397C50.4325 31.8419 50.1834 31.6367 49.9342 31.4279L50.0845 31.2044L50.0258 31.1568L51.3485 29.5776L52.2351 30.3177L50.9198 31.8859L50.8722 31.8492L50.6853 32.0361V32.0397ZM51.8101 32.5673L51.6453 32.7505C51.3998 32.5783 51.158 32.3988 50.9198 32.2156L51.059 31.9884L50.9894 31.9335L52.3011 30.369L53.1474 31.0761L51.8688 32.6003L51.8138 32.56L51.8101 32.5673ZM52.7774 33.2231L52.6235 33.4137C52.3744 33.2525 52.1252 33.0876 51.8797 32.9154L52.0006 32.6956L51.9384 32.6516L53.2097 31.1311L54.0487 31.8346L52.8507 33.2635L52.781 33.2195L52.7774 33.2231ZM53.7959 33.857L53.653 34.0438C53.3892 33.89 53.1254 33.7324 52.8653 33.5675L52.9716 33.3441L52.9203 33.3111L54.111 31.8895L54.95 32.593L53.8619 33.8936L53.7959 33.857ZM54.8951 34.4688L54.7668 34.652C54.4774 34.5018 54.1916 34.3479 53.9022 34.1831L53.9974 33.9706L53.9388 33.9376L55.0196 32.6479L55.899 33.3844L54.961 34.5018L54.8987 34.4688H54.8951ZM56.0675 35.0184L55.9356 35.2236C55.6315 35.0844 55.3237 34.9378 55.0196 34.7839L55.1002 34.5788L55.038 34.5458L55.9612 33.443L56.8735 34.2051L56.1554 35.0624L56.0675 35.0221V35.0184ZM57.4304 35.5973L57.3169 35.8061C56.9431 35.6633 56.5694 35.5057 56.1957 35.3408L56.2727 35.1173L56.2287 35.0954L56.9322 34.2563L57.947 35.1064L57.5074 35.6303L57.4268 35.5973H57.4304ZM59.0608 36.1762L58.9839 36.1469L58.885 36.3484C58.6432 36.2714 58.405 36.1945 58.1705 36.1139C57.9763 36.048 57.7822 35.9783 57.588 35.9051L57.6503 35.6816L57.599 35.6596L58.0203 35.1576L59.1341 36.0883L59.0682 36.1689L59.0608 36.1762ZM59.5152 36.5389C59.3942 36.5023 59.2733 36.4693 59.1524 36.4327L59.1927 36.2238L59.1451 36.2055L59.1927 36.1469L59.5335 36.4327L59.4932 36.451L59.5188 36.5389H59.5152ZM61.2115 36.7441L61.1126 36.9566C60.6912 36.8577 60.2809 36.7514 59.8779 36.6415L59.6947 36.363L59.6177 36.396L59.244 36.0846L60.1673 34.9818L61.7025 36.2678L61.2811 36.7697L61.2078 36.7477L61.2115 36.7441ZM62.688 37.29C62.2484 37.2057 61.816 37.1178 61.391 37.0189L61.4313 36.8137L61.3727 36.7954L61.7721 36.3191L62.71 37.1031L62.666 37.1141L62.688 37.29ZM64.1865 37.2753L64.0986 37.5025C63.7249 37.4622 63.3475 37.4072 62.9591 37.3413L62.8749 37.0628L62.8126 37.0775L61.827 36.2531L62.7833 35.1137L64.7361 36.7477L64.2745 37.2973L64.1865 37.2753ZM65.5092 37.5831C65.1428 37.5831 64.7654 37.5648 64.3807 37.5318L64.41 37.3376L64.3661 37.3266L64.802 36.8064L65.5385 37.4219L65.4835 37.4402L65.5128 37.5831H65.5092ZM65.7949 37.5794L65.696 37.3669L65.6301 37.3889L64.8533 36.7368L65.7327 35.6889L67.5756 37.235L67.5389 37.2497L67.5866 37.4146C67.0187 37.5135 66.4178 37.5684 65.7949 37.5794ZM67.854 37.3633L67.7294 37.1727L67.6672 37.1984L65.7876 35.623L66.5607 34.7033L69.1217 36.8467L69.0777 36.8687L69.1364 37.0189C68.7297 37.1581 68.3047 37.2753 67.8577 37.3633H67.854ZM69.2609 36.7771L69.206 36.8027L66.6156 34.6337L67.3228 33.7874L70.2978 36.2824L70.2611 36.3044L70.3564 36.4913C70.0413 36.6562 69.7079 36.8064 69.3635 36.9346L69.2609 36.7771ZM75.6726 30.8783C76.0536 30.827 76.431 31.9262 76.5409 32.2266C78.3106 36.8284 79.4976 37.6197 81.8095 41.2689C82.3188 42.0749 81.7802 42.7234 80.8972 42.3644C76.8963 40.734 75.9108 39.6971 71.0672 38.7592C70.7521 38.7042 69.6017 38.521 69.587 38.14C69.5797 37.9531 69.8178 37.7809 70.1842 37.6161C72.9211 36.374 74.5148 34.4725 75.2586 31.5598C75.3575 31.1714 75.4821 30.9076 75.6689 30.882L75.6726 30.8783ZM74.6064 29.0977L74.3866 29.0757L74.3793 29.116L72.5364 27.5699L73.4267 26.5074L74.2034 27.1595L74.1924 27.2255L74.4636 27.2951C74.5588 27.9143 74.6064 28.5151 74.6064 29.094V29.0977ZM74.4159 27.002H74.2254L74.2181 27.0569L73.4816 26.4414L73.925 25.9138L73.9433 25.9578L74.1668 25.8845C74.2657 26.2655 74.35 26.6356 74.4159 27.0056V27.002ZM74.0898 25.5987L73.848 25.7489L73.8847 25.8296L73.4157 26.3865L71.4629 24.7524L72.4301 23.5983L73.4157 24.4226V24.4886L73.7345 24.5252C73.8663 24.8879 73.9836 25.247 74.0862 25.6024L74.0898 25.5987ZM73.6355 24.2578L73.4267 24.2688V24.3127L72.4851 23.5287L72.8881 23.045L72.9174 23.1L73.1336 23.0157C73.3058 23.4188 73.4707 23.8328 73.6319 24.2578H73.6355ZM73.0273 22.7519L72.8185 22.8985L72.8551 22.9681L72.4265 23.4774L70.8913 22.1914L71.8293 21.0739L72.203 21.3853L72.1847 21.4696L72.5107 21.6052C72.6903 21.9789 72.8625 22.3599 73.031 22.7519H73.0273ZM72.3385 21.2571L72.2323 21.2461L72.2213 21.2901L71.8806 21.0043L71.9282 20.9457L71.9538 20.9896L72.1627 20.909C72.2213 21.0226 72.2799 21.1362 72.3349 21.2534L72.3385 21.2571ZM71.4922 19.6597C71.6754 19.9821 71.8586 20.3155 72.0344 20.6562L71.8439 20.7955L71.8879 20.8687L71.8183 20.9493L70.7045 20.0187L71.1295 19.5095L71.1588 19.5571L71.3713 19.4545C71.4116 19.5241 71.4519 19.5901 71.4922 19.6597ZM71.2247 19.2054L71.0379 19.3592L71.0818 19.4325L70.6385 19.9638L69.6236 19.1138L70.3381 18.2638L70.3637 18.3004L70.5726 18.1831C70.7997 18.5239 71.0196 18.8646 71.2247 19.209V19.2054ZM70.4114 17.945L70.2318 18.1135L70.2868 18.1905L69.5577 19.0588L68.6454 18.2967L69.5833 17.1793L69.6273 17.2379L69.8142 17.1206C70.0193 17.3954 70.2172 17.6702 70.4077 17.945H70.4114ZM69.6456 16.8935L69.4881 17.051L69.532 17.1096L68.5831 18.2418L67.7038 17.5053L68.7993 16.201L68.8432 16.2523L69.0301 16.1277C69.2426 16.3805 69.4441 16.637 69.6456 16.8971V16.8935ZM68.2387 15.2155C68.4476 15.4426 68.6491 15.6771 68.8469 15.9079L68.693 16.0728L68.7407 16.1314L67.6378 17.4504L66.7988 16.7469L68.0042 15.307L68.0445 15.3547L68.2351 15.2191L68.2387 15.2155ZM67.4217 14.3618C67.6342 14.5743 67.843 14.7904 68.0445 15.0103L67.8943 15.1825L67.9493 15.2448L66.7329 16.6956L65.8939 15.9922L67.1835 14.4534L67.2385 14.5083L67.418 14.3654L67.4217 14.3618ZM66.5607 13.5411C66.7842 13.7463 67.004 13.9514 67.2202 14.1639L67.0809 14.3435L67.1286 14.3911L65.8353 15.9372L64.9889 15.2301L66.3189 13.6437L66.3848 13.7023L66.5643 13.5411H66.5607ZM65.6118 12.7167C65.8609 12.9219 66.11 13.1344 66.3518 13.3506L66.2126 13.5484L66.2566 13.5887L64.9266 15.1788L64.04 14.4387L65.3809 12.8376L65.4396 12.8889L65.6118 12.7204V12.7167ZM64.6775 11.984C64.7581 12.0426 64.835 12.1012 64.9156 12.1635C65.0732 12.2844 65.2307 12.409 65.3883 12.5372L65.26 12.7387L65.3113 12.7827L63.9704 14.3838L63.124 13.6766L64.432 12.1159L64.4943 12.1672L64.6775 11.9913V11.984ZM63.4721 11.4381L63.6406 11.2512C63.9117 11.4307 64.1792 11.6176 64.443 11.8118L64.3148 12.0096L64.3661 12.0536L63.0581 13.6144L62.1678 12.8669L63.4061 11.3904L63.4721 11.4381ZM62.3949 10.7786L62.5525 10.5734C62.8382 10.7419 63.1203 10.9141 63.3988 11.0973L63.2852 11.3062L63.3365 11.3428L62.1018 12.8156L61.2115 12.0682L62.3253 10.7383L62.3949 10.7786ZM61.0649 10.0788L61.2188 9.85528C61.5852 10.0348 61.9479 10.2253 62.3033 10.4268L62.2007 10.654L62.2557 10.687L61.1492 12.0096L60.0867 11.1193L60.9953 10.0348L61.0649 10.0714V10.0788ZM59.7423 9.4889L59.8779 9.25808C60.2406 9.40096 60.5996 9.55851 60.9587 9.72705L60.8671 9.96519L60.9257 9.99817L60.0281 11.068L59.0315 10.2327L59.68 9.45959L59.746 9.4889H59.7423ZM58.1522 8.95398L58.2658 8.71217C58.7164 8.8404 59.1634 8.98695 59.6067 9.15549L59.5335 9.39364L59.5958 9.42295L58.9619 10.1777L57.8261 9.2251L58.0753 8.92833L58.1522 8.95398ZM57.1447 8.65355L57.1666 8.44104C57.4414 8.49966 57.7125 8.56195 57.9837 8.63523L57.9324 8.8807L57.9873 8.89902L57.7602 9.17014L57.1447 8.65355ZM56.0418 8.49966L56.0821 8.35311L56.0895 8.34578H56.0858L56.1078 8.26152C56.3753 8.29815 56.639 8.33846 56.9028 8.38975L56.9358 8.65721H57.0054L57.7016 9.23976L56.7636 10.3572L55.375 9.19579L55.9649 8.49234L56.0382 8.50333L56.0418 8.49966ZM55.844 8.22854L55.8367 8.46669H55.8696L55.3127 9.13717L54.3858 8.36044H54.4041L54.3858 8.14427C54.8731 8.14427 55.3604 8.17358 55.844 8.22854ZM53.2683 8.44104L53.3196 8.18458C53.5834 8.16259 53.8472 8.1516 54.1147 8.14427L54.2026 8.40074L54.2759 8.38609L55.2541 9.20678L54.2869 10.3609L52.6785 9.0126L53.1657 8.43372L53.2683 8.44104ZM52.9019 8.22488C52.9459 8.22121 52.9935 8.21755 53.0375 8.21022L53.0485 8.42272H53.0632L52.6162 8.95764L52.1435 8.56195L52.1728 8.55096L52.1289 8.33846C52.3853 8.29449 52.6418 8.25785 52.9056 8.22488H52.9019ZM51.8614 8.38609L51.9713 8.61691L52.0409 8.59492L52.5575 9.02725L51.6672 10.0898L50.3776 9.00894L50.4179 8.98695L50.3299 8.78178C50.8172 8.62423 51.3302 8.49234 51.8614 8.38975V8.38609ZM50.0771 8.86238L50.242 9.08588L50.3006 9.0529L51.6159 10.1557L50.8356 11.09L49.0256 9.57316L49.0733 9.54385L48.9597 9.32036C49.3187 9.15182 49.6924 8.99794 50.0808 8.86238H50.0771ZM48.7179 9.4376L48.8974 9.65377L48.945 9.62079L50.7733 11.1559L50.0552 12.0133L47.8972 10.207L47.9375 10.1777L47.8019 9.95787C48.095 9.77101 48.3991 9.59881 48.7142 9.4376H48.7179ZM47.5821 10.1008L47.7763 10.2986L47.8312 10.2583L50.0039 12.0792L49.3517 12.8596L47.0105 10.8995L47.0618 10.8592L46.9079 10.6027C47.1241 10.4268 47.3513 10.2583 47.5857 10.1008H47.5821ZM46.6991 10.7749L46.8933 10.9837L46.9336 10.9544L49.2894 12.9292L48.6263 13.7206L46.1678 11.6615L46.2118 11.6103L46.025 11.4161C46.2375 11.1926 46.4609 10.9801 46.6991 10.7786V10.7749ZM46.0836 11.7641L46.1166 11.7238L48.575 13.7829L47.9118 14.5706L45.4534 12.5116L45.4864 12.4712L45.2958 12.2734C45.468 12.0426 45.6512 11.8191 45.8454 11.6029L46.0799 11.7605L46.0836 11.7641Z" fill="#CCFF00"/>
<path d="M0 85.9126H13.274C14.234 86.7076 15.454 87.6419 16.8133 88.5102C20.0155 90.6316 23.9871 92.3536 26.2293 92.1118C29.0578 91.8553 30.6149 90.9687 31.1572 90.6316C32.8792 90.9613 34.5902 91.2105 36.2938 91.3827C36.4917 91.5182 36.6859 91.6501 36.8727 91.7747C37.316 92.0642 37.8363 92.3353 38.3859 92.6101C38.6607 92.7493 38.9464 92.8885 39.2359 93.0277C39.5253 93.167 39.8221 93.3062 40.1189 93.4527C41.1008 93.9437 42.0717 94.5629 42.6652 94.6032C43.2404 94.889 43.8853 95.2114 44.5521 95.5375C45.2189 95.8562 45.904 96.1786 46.5379 96.4864C47.6041 97.1019 48.7435 97.7101 49.7364 98.2377C50.6011 98.4502 51.561 98.8056 52.5979 99.1463C53.6384 99.4761 54.7449 99.8131 55.8587 99.978C56.0602 99.9414 56.5035 99.945 56.8662 99.9194C57.2363 99.8901 57.522 99.8351 57.4158 99.6959C57.2472 99.4724 56.8772 99.5127 56.4449 99.2269C55.8587 99.0914 56.291 98.9155 55.6865 98.7799C53.9022 98.4612 52.444 97.8127 50.8062 97.1495C49.2455 96.5304 47.67 95.9185 46.0616 95.237C45.6586 95.0685 45.2556 94.8926 44.8525 94.7094C44.4495 94.5262 44.0465 94.3284 43.6398 94.1232C43.6251 94.1159 43.6142 94.1086 43.5995 94.1049C42.6726 92.5991 41.8592 91.0822 41.1447 89.5618C41.2656 89.0488 41.4525 87.7738 41.4928 85.9089H132.183C132.224 87.7775 132.411 89.0525 132.531 89.5691C131.821 91.0859 131.004 92.6027 130.08 94.1122C130.066 94.1196 130.055 94.1269 130.04 94.1342C129.637 94.3357 129.234 94.5336 128.827 94.7204C128.424 94.9036 128.021 95.0795 127.618 95.248C126.01 95.9295 124.434 96.5414 122.874 97.1605C121.236 97.8237 119.778 98.4758 117.993 98.7946C117.389 98.9338 117.821 99.106 117.235 99.2453C116.803 99.531 116.433 99.4907 116.264 99.7179C116.158 99.8571 116.444 99.9121 116.814 99.9414C117.176 99.967 117.62 99.9634 117.821 100C118.935 99.8351 120.042 99.4981 121.082 99.1683C122.119 98.8239 123.082 98.4685 123.943 98.256C124.933 97.7284 126.072 97.1202 127.138 96.5047C127.776 96.1969 128.457 95.8709 129.124 95.5521C129.787 95.226 130.436 94.9036 131.007 94.6178C131.601 94.5775 132.568 93.9584 133.55 93.4674C133.847 93.3208 134.14 93.178 134.433 93.0424C134.722 92.9032 135.008 92.7639 135.283 92.6247C135.836 92.3499 136.353 92.0751 136.796 91.7894C136.987 91.6648 137.181 91.5329 137.375 91.3973C139.075 91.2251 140.79 90.976 142.512 90.6426C143.058 90.976 144.611 91.8626 147.443 92.1191C149.682 92.3573 153.657 90.6353 156.856 88.5102C158.211 87.6456 159.424 86.7113 160.38 85.9163H174.654V85.1835H0V85.9163V85.9126ZM149.631 85.9126C146.604 87.6859 143.867 89.4995 142.761 90.1773C141.174 90.4924 139.592 90.7415 138.02 90.921C138.262 90.7415 138.504 90.5583 138.745 90.3641C139.408 89.8402 140.068 89.2796 140.669 88.7044C141.794 87.6456 142.743 86.6087 143.34 85.9089H149.631V85.9126ZM135.979 85.9126H141.991C141.819 86.0701 141.651 86.2313 141.486 86.3926C140.885 86.9861 140.288 87.6089 139.658 88.2098C139.027 88.807 138.353 89.3639 137.628 89.8365C136.873 90.5803 136.166 91.3167 135.188 91.9066C134.023 92.6101 133.345 92.4305 132.455 92.8006C131.872 93.156 131.289 93.4784 130.703 93.7898C131.553 92.3573 132.308 90.921 132.971 89.4812C133.59 88.9133 134.81 87.6089 135.979 85.9163V85.9126ZM37.6824 85.9126C38.8512 87.6016 40.0712 88.9059 40.6904 89.4702C41.3536 90.91 42.1083 92.3463 42.962 93.7788C42.3758 93.4711 41.7932 93.145 41.2107 92.7896C40.3167 92.4232 39.6426 92.5991 38.4775 91.8993C37.4992 91.3094 36.7921 90.573 36.0374 89.8329C35.3119 89.3603 34.6378 88.8033 34.0039 88.2061C33.3738 87.6089 32.7766 86.9824 32.1757 86.3926C32.0145 86.2313 31.8423 86.0738 31.6701 85.9163H37.6861L37.6824 85.9126ZM30.3145 85.9126C30.9117 86.6087 31.8606 87.6456 32.9854 88.7044C33.5863 89.276 34.2458 89.8365 34.9089 90.3605C35.1507 90.551 35.3962 90.7378 35.638 90.9174C34.0662 90.7378 32.4835 90.4924 30.897 90.1773C29.7906 89.4958 27.05 87.6859 24.02 85.9126H30.3145Z" fill="#CCFF00"/>
<path d="M166.191 67.5935C166.235 67.5239 166.279 67.4542 166.323 67.3883C168.437 64.0945 169.657 60.8007 169.664 60.8301C169.624 60.8374 163.531 62.2699 160.135 66.5896C159.878 66.923 159.625 67.2601 159.376 67.5935H155.2C155.478 66.5823 155.716 65.593 155.958 64.6404C156.236 63.8271 156.288 63.2409 156.442 62.4751C156.46 62.3872 156.478 62.2919 156.497 62.204C157.665 60.918 158.794 59.5587 159.867 58.1225C160.948 57.5729 164.209 55.6787 166.539 53.4658C170.393 50.216 170.514 38.968 170.284 38.9937C170.251 39.0083 164.872 42.2581 162.949 47.3912C161.391 51.6668 160.127 56.2466 159.655 57.7818C158.688 59.0788 157.68 60.3171 156.636 61.4932C156.837 60.482 157.042 59.4305 157.211 58.3533C157.431 56.9208 157.61 55.4516 157.713 53.9824C157.717 53.9128 157.724 53.8431 157.728 53.7735C157.742 53.7589 157.753 53.7479 157.768 53.7332C157.757 53.7112 157.746 53.6856 157.735 53.6636C157.845 51.839 157.841 50.1427 157.823 48.2888C157.812 47.6659 157.79 47.0394 157.761 46.4092C158.438 44.5444 159.028 42.6062 159.516 40.6094C160.292 39.5945 162.527 36.2715 163.729 33.0546C165.902 28.1378 161.468 17.8827 161.267 18.011C161.267 18.0659 158.039 23.928 158.252 29.4824C158.497 34.1171 159.05 38.8141 159.197 40.4116C158.775 42.1556 158.277 43.8482 157.709 45.4933C157.647 44.5554 157.563 43.6064 157.453 42.6502C157.281 41.2689 157.057 39.873 156.775 38.4734C156.636 37.7736 156.482 37.0738 156.313 36.3777C156.138 35.6816 155.947 34.9891 155.742 34.2966C154.998 31.7686 154.1 29.2845 153.1 26.8884C152.95 25.2067 152.715 23.5067 152.393 21.7957C152.646 20.572 153.162 16.8898 152.884 13.7023C152.73 8.6682 145.278 1.76189 145.161 1.91577C145.201 1.97073 145.021 8.37509 147.245 13.0062C149.154 16.8056 151.301 20.4584 152.03 21.7664C152.29 23.122 152.492 24.4739 152.639 25.8112C152.419 25.302 152.195 24.8 151.972 24.3164C151.682 23.7082 151.386 23.122 151.089 22.5614C150.488 21.444 149.869 20.4327 149.213 19.5864C148.165 17.5933 145.853 14.7465 144.505 13.1014C144.384 13.0318 144.175 12.8376 143.915 12.5738C143.127 10.7822 141.119 7.11108 137.76 4.14338C133.011 -0.201917 124.357 -0.0626916 124.467 0.0472231C124.445 0.0582146 127.131 1.94508 129.963 4.28993C132.865 6.61279 135.913 9.39364 138.251 10.7126C140.925 12.1818 142.849 13.0941 143.787 13.4861C143.904 13.6217 144.021 13.7609 144.135 13.8928C144.483 14.3068 144.813 14.7098 145.128 15.1055C146.388 16.6993 147.418 18.1905 148.348 19.6707C149.011 20.7258 149.616 21.7627 150.231 22.8802C150.539 23.4407 150.851 24.0196 151.166 24.6425C151.477 25.2653 151.792 25.9248 152.111 26.6393C152.913 28.4235 153.613 30.2481 154.188 32.0031C153.104 30.8636 151.983 29.7901 150.829 28.7789C150.209 27.4783 147.945 23.6166 144.633 21.2571C140.577 18.3114 135.69 19.0881 135.734 19.0918C136.001 18.9745 141.984 26.5183 145.743 28.0608C148.304 28.9072 150.114 29.1746 150.777 29.2149C152.045 30.3361 153.272 31.5378 154.452 32.8165C154.661 33.4796 154.848 34.1318 155.02 34.7656C155.251 35.6083 155.463 36.4143 155.628 37.1727C156.225 39.8363 156.552 42.3278 156.742 44.7276C156.834 45.9293 156.9 47.109 156.925 48.2778C156.94 49.4502 156.933 50.6117 156.907 51.7804C156.907 51.85 156.907 51.9196 156.903 51.9892C156.288 50.8058 155.636 49.6664 154.95 48.5636C154.76 47.1493 153.793 42.8737 151.451 39.807C148.601 36.0077 143.867 35.4617 143.9 35.4617C144.142 35.3848 147.234 44.0314 150.352 46.5595C152.51 48.0543 154.148 48.7687 154.764 48.9739C155.511 50.1903 156.218 51.458 156.878 52.7696C156.815 54.946 156.632 57.2578 156.416 58.8992C156.247 60.0753 156.028 61.2441 155.756 62.4458C155.727 62.4751 155.702 62.5044 155.672 62.5337C155.687 62.563 155.702 62.5887 155.716 62.618C155.482 63.6365 155.214 64.6734 154.899 65.7616C154.723 66.3661 154.536 66.9743 154.331 67.5825H152.159C152.14 67.3627 152.122 67.1392 152.1 66.9193C152.529 65.5197 153.485 61.1085 152.668 57.1516C151.701 52.2237 145.857 49.9009 145.893 49.9448C146.121 49.8899 147.157 58.9578 148.883 62.8635C150.18 65.256 151.312 66.7178 151.767 67.2088C151.778 67.3333 151.789 67.4579 151.796 67.5825H146.725C145.516 64.395 142.721 62.237 142.739 62.2736C142.863 62.2736 142.519 64.6771 142.237 67.5825H31.4063C31.1205 64.6771 30.7761 62.2736 30.9007 62.2736C30.919 62.237 28.1235 64.395 26.9181 67.5825H21.8474C21.8584 67.4579 21.8657 67.3333 21.8767 67.2124C22.3273 66.7215 23.4595 65.2596 24.7565 62.8671C26.4821 58.9615 27.5117 49.8935 27.7388 49.9448C27.7754 49.9045 21.9316 52.2274 20.9681 57.1552C20.1547 61.1122 21.111 65.5234 21.5433 66.923C21.5213 67.1428 21.503 67.3627 21.4847 67.5825H19.3084C19.1032 66.9743 18.9163 66.3698 18.7405 65.7652C18.4254 64.6771 18.1542 63.6402 17.9198 62.6217C17.9344 62.5924 17.9491 62.5667 17.9637 62.5374C17.9344 62.5081 17.9088 62.4788 17.8795 62.4495C17.6083 61.2477 17.3848 60.079 17.22 58.9029C17.0038 57.2615 16.8206 54.9496 16.7547 52.7733C17.4142 51.458 18.1176 50.1903 18.865 48.9739C19.4806 48.7687 21.1183 48.0543 23.2763 46.5595C26.3942 44.0278 29.4828 35.3775 29.7246 35.4581C29.7576 35.4581 25.0239 36.0077 22.1771 39.807C19.8359 42.8737 18.876 47.1493 18.6818 48.5672C17.9967 49.6664 17.3445 50.8095 16.7327 51.9929C16.7327 51.9233 16.7327 51.8537 16.729 51.7841C16.7034 50.6153 16.6924 49.4502 16.707 48.2815C16.7327 47.109 16.7986 45.9329 16.8902 44.7312C17.0771 42.3314 17.4032 39.8363 18.0004 37.1764C18.1652 36.418 18.3777 35.612 18.6086 34.7693C18.7808 34.1391 18.9713 33.4869 19.1765 32.8201C20.3562 31.5415 21.5836 30.3397 22.8513 29.2186C23.5144 29.1783 25.3243 28.9072 27.8817 28.0608C31.6408 26.5147 37.6201 18.9672 37.8876 19.0844C37.9316 19.0844 33.044 18.3077 28.9918 21.2534C25.6797 23.6129 23.4192 27.4746 22.8 28.7789C21.6459 29.7901 20.5247 30.8673 19.4402 32.0068C20.0155 30.2518 20.7116 28.4272 21.514 26.6429C21.8327 25.9285 22.1478 25.2653 22.4592 24.6425C22.7743 24.0233 23.0821 23.4407 23.3935 22.8802C24.009 21.759 24.6136 20.7258 25.2767 19.667C26.2073 18.1868 27.2369 16.6956 28.4972 15.1019C28.8123 14.7025 29.1421 14.2995 29.4901 13.8855C29.6037 13.7499 29.7209 13.6144 29.8382 13.4788C30.7761 13.0868 32.6996 12.1708 35.3706 10.7016C37.7117 9.38265 40.7564 6.59814 43.6545 4.27528C46.4793 1.93409 49.1649 0.0472231 49.1429 0.0362317C49.2528 -0.0736831 40.5988 -0.209245 35.8505 4.14704C32.4908 7.1184 30.483 10.7896 29.699 12.5812C29.4388 12.845 29.2336 13.0391 29.1127 13.1088C27.7645 14.7575 25.4562 17.6006 24.4084 19.5974C23.7562 20.4437 23.1334 21.4549 22.5362 22.5724C22.2357 23.133 21.9426 23.7192 21.6532 24.3274C21.4297 24.811 21.2099 25.313 20.9864 25.8222C21.1329 24.4849 21.3344 23.133 21.5946 21.7774C22.3237 20.4694 24.467 16.8129 26.3759 13.0135C28.5961 8.38242 28.413 1.97806 28.4533 1.9231C28.336 1.76922 20.8875 8.67919 20.7372 13.7133C20.4625 16.8971 20.9791 20.5793 21.2319 21.803C20.9094 23.514 20.6786 25.214 20.5284 26.8957C19.5282 29.2919 18.6342 31.7759 17.8905 34.304C17.6853 34.9928 17.4984 35.6889 17.3189 36.385C17.1504 37.0848 16.9965 37.7809 16.8573 38.4807C16.5788 39.8803 16.3516 41.2762 16.1831 42.6575C16.0732 43.6138 15.9889 44.5627 15.9266 45.5006C15.3587 43.8592 14.8568 42.1629 14.4355 40.4189C14.582 38.8251 15.1316 34.1281 15.3734 29.4897C15.5822 23.9354 12.3507 18.0732 12.3507 18.0183C12.1492 17.89 7.71968 28.1451 9.89599 33.0619C11.0977 36.2751 13.3363 39.6019 14.113 40.6131C14.6003 42.6099 15.1902 44.5444 15.8717 46.4129C15.8424 47.0431 15.8204 47.6696 15.8094 48.2924C15.7911 50.1427 15.7874 51.8427 15.8973 53.6673L15.8644 53.7369C15.8644 53.7369 15.89 53.7625 15.9047 53.7772C15.9083 53.8468 15.912 53.9128 15.9193 53.986C16.0219 55.4552 16.2051 56.9281 16.4249 58.357C16.5935 59.4341 16.7986 60.4857 17.0001 61.4969C15.956 60.3208 14.9447 59.0861 13.9775 57.7891C13.5049 56.2539 12.2372 51.6778 10.6764 47.4021C8.74921 42.2691 3.37072 39.023 3.33774 39.0083C3.10692 38.9827 3.23149 50.2306 7.0895 53.4768C9.41969 55.6897 12.6842 57.5802 13.765 58.1298C14.8421 59.5624 15.9669 60.9253 17.1394 62.2076C17.1577 62.2992 17.176 62.3908 17.1943 62.4788C17.3482 63.2445 17.3995 63.8271 17.6779 64.6441C17.9198 65.593 18.1579 66.5859 18.4364 67.5935H14.2559C14.0068 67.2601 13.754 66.9267 13.5012 66.5969C10.1048 62.2809 4.00822 60.8484 3.97158 60.8447C3.98258 60.8154 5.20263 64.1092 7.31666 67.3993C7.35696 67.4652 7.40092 67.5312 7.44123 67.5935H0V68.3262H174.651V67.5935H166.191Z" fill="#CCFF00"/>
<path d="M81.3882 74.7746C81.8425 74.4192 82.099 73.8293 81.7949 72.6569C80.2744 71.6237 78.2153 71.5687 76.6142 72.6752C76.0866 73.0416 75.658 73.4996 75.3355 74.0088C76.1599 73.9539 76.9586 74.0931 78.4864 74.8295C79.516 75.3278 80.7104 75.3022 81.3882 74.7709V74.7746Z" fill="#CCFF00"/>
<path d="M74.9911 74.6793C74.4123 76.0716 74.5258 77.7203 75.4491 79.0502C76.1709 80.0944 77.2444 80.7429 78.4022 80.9518C78.4132 80.9371 79.4024 80.4095 80.1278 79.0502C80.2011 78.9074 81.5457 76.3793 83.788 76.7201C83.8466 75.7308 83.5901 74.7159 82.9856 73.8403C82.8024 73.5765 82.5972 73.3347 82.3701 73.1222C82.5679 74.0821 82.469 74.694 81.7912 75.2655C80.9155 76.0056 79.4647 76.1119 78.1713 75.489C76.3431 74.606 75.2146 74.5987 74.9911 74.6793Z" fill="#CCFF00"/>
<path d="M80.7727 79.391C80.0582 80.7246 79.5563 80.9664 79.3291 81.025C80.1901 81.0031 81.0584 80.7429 81.8205 80.2153C82.8097 79.5302 83.4472 78.5263 83.6891 77.4382C81.9524 77.1817 80.7836 79.369 80.7727 79.391Z" fill="#CCFF00"/>
<path d="M23.5767 73.0049C24.4121 73.0049 24.9287 73.3787 25.5662 74.6097L25.8409 75.1263H25.9838L25.6981 72.7961H19.334L19.0043 75.1263H19.1471L19.389 74.6317C19.9715 73.4556 20.598 73.0049 21.4773 73.0049H21.6532V79.3031C21.6532 80.1494 21.2025 80.3472 20.7409 80.3912V80.4901H24.2692V80.3912C23.8075 80.3472 23.3569 80.1494 23.3569 79.3031V73.0049H23.5767Z" fill="#CCFF00"/>
<path d="M28.5229 80.3912V80.4901H34.744L35.0518 78.138H34.8759C34.4693 79.424 33.2052 80.2813 31.9522 80.2813H31.0949V76.5772H31.6664C32.6447 76.5772 33.3481 77.0278 33.513 77.9291H33.6559V75.0164H33.513C33.3591 75.8957 32.6667 76.3573 31.6664 76.3573H31.0949V73.0049H31.8753C32.8865 73.0049 33.9527 73.5985 34.6231 74.7526H34.777L34.4693 72.7961H28.5229V72.895C28.9735 72.939 29.4022 73.1588 29.4022 73.9832V79.336C29.4022 80.1604 28.9735 80.3472 28.5229 80.3912Z" fill="#CCFF00"/>
<path d="M37.7997 80.3912V80.4901H40.7784V80.3912C40.0199 80.3472 39.3275 79.8087 39.3165 78.3358L39.3055 74.2909L44.3176 80.633H44.6034L44.6364 74.8185C44.6474 73.5325 45.043 72.939 45.8344 72.895V72.7961H42.9876V72.895C43.779 72.961 44.3286 73.5435 44.3396 74.8185L44.3726 77.9621L40.3057 72.7961H37.8217V72.895C38.624 72.972 39.0637 73.7304 39.0527 74.8405L39.0197 78.4347C39.0087 79.8966 38.4701 80.3582 37.7997 80.3912Z" fill="#CCFF00"/>
<path d="M48.2965 80.3912V80.4901H51.2752V80.3912C50.5168 80.3472 49.8243 79.8087 49.8133 78.3358L49.8024 74.2909L54.8145 80.633H55.1002L55.1332 74.8185C55.1442 73.5325 55.5399 72.939 56.3313 72.895V72.7961H53.4845V72.895C54.2759 72.961 54.8255 73.5435 54.8364 74.8185L54.8694 77.9621L50.8026 72.7961H48.3185V72.895C49.1209 72.972 49.5605 73.7304 49.5496 74.8405L49.5166 78.4347C49.5056 79.8966 48.967 80.3582 48.2965 80.3912Z" fill="#CCFF00"/>
<path d="M58.9033 80.3912V80.4901H62.3656V80.3912C61.9259 80.3472 61.4863 80.1384 61.4863 79.325V73.9612C61.4863 73.1478 61.9259 72.939 62.3656 72.895V72.7961H58.9033V72.895C59.3539 72.939 59.7826 73.1478 59.7826 73.9612V79.325C59.7826 80.1384 59.3539 80.3472 58.9033 80.3912Z" fill="#CCFF00"/>
<path d="M67.9603 80.4901C66.8941 80.4901 66.2126 79.7427 65.8829 78.0061L65.718 77.9841L65.2564 80.1164C65.8169 80.4022 66.8611 80.699 67.8503 80.699C69.598 80.699 70.7961 79.5778 70.7961 78.2479C70.7961 76.742 69.4771 76.1925 68.301 75.6759C67.3447 75.2582 66.4874 74.8625 66.4874 74.0162C66.4874 73.2687 67.1139 72.7961 67.9932 72.7961C69.0154 72.7961 69.62 73.5325 69.8398 74.9724L70.0157 74.9944L70.4663 73.1258C69.8288 72.7961 68.9715 72.5983 68.1032 72.5983C66.3885 72.5983 65.3883 73.6534 65.3883 74.8955C65.3883 76.4123 66.6633 76.9289 67.7954 77.4455C68.6857 77.8632 69.4881 78.2699 69.4881 79.1931C69.4881 79.9186 68.9605 80.4901 67.9603 80.4901Z" fill="#CCFF00"/>
<path d="M90.5477 80.3912V80.4901H94.076V80.3912C93.6143 80.3143 93.2187 79.9186 92.9219 79.1492L90.4598 72.7082H90.0311L87.9318 78.2369C87.3602 79.7427 86.8656 80.2923 86.2611 80.3912V80.4901H88.9979V80.3912C88.0527 80.2923 87.7229 79.5668 88.2725 78.028H90.6796L91.0204 78.9403C91.4051 79.9735 91.2072 80.3033 90.5477 80.3912ZM88.3604 77.7972L89.4816 74.7636L90.6027 77.7972H88.3604Z" fill="#CCFF00"/>
<path d="M100.385 72.8291C101.451 72.8291 102.265 73.7414 102.495 75.1043L102.682 75.1263L103.133 73.1039C102.539 72.7961 101.594 72.5983 100.616 72.5983C98.2308 72.5983 96.2743 74.3019 96.2743 76.7091C96.2743 78.8414 97.8351 80.677 100.011 80.677C101.506 80.677 102.583 79.7757 103.056 78.5117L102.891 78.4567C102.43 79.2701 101.605 79.6768 100.726 79.6768C99.22 79.6768 98.0879 78.5556 98.0879 76.2914C98.0879 74.0271 99.176 72.8291 100.385 72.8291Z" fill="#CCFF00"/>
<path d="M109.453 80.3912V80.4901H112.981V80.3912C112.52 80.3143 112.124 79.9186 111.827 79.1492L109.365 72.7082H108.936L106.837 78.2369C106.266 79.7427 105.771 80.2923 105.166 80.3912V80.4901H107.903V80.3912C106.958 80.2923 106.628 79.5668 107.178 78.028H109.585L109.926 78.9403C110.31 79.9735 110.113 80.3033 109.453 80.3912ZM107.266 77.7972L108.387 74.7636L109.508 77.7972H107.266Z" fill="#CCFF00"/>
<path d="M115.498 80.3912V80.4901H119.071C121.5 80.4901 123.203 78.6656 123.203 76.5772C123.203 74.4888 121.511 72.7961 119.148 72.7961H115.498V72.895C115.938 72.939 116.378 73.1368 116.378 73.9612V79.325C116.378 80.1494 115.938 80.3472 115.498 80.3912ZM118.07 73.0049H118.741C120.225 73.0049 121.313 74.181 121.313 76.6541C121.313 79.1272 120.39 80.2813 118.829 80.2813H118.07V73.0049Z" fill="#CCFF00"/>
<path d="M126.006 80.3912V80.4901H132.227L132.535 78.138H132.359C131.953 79.424 130.689 80.2813 129.436 80.2813H128.578V76.5772H129.15C130.128 76.5772 130.831 77.0278 130.996 77.9291H131.139V75.0164H130.996C130.842 75.8957 130.15 76.3573 129.15 76.3573H128.578V73.0049H129.359C130.37 73.0049 131.436 73.5985 132.106 74.7526H132.26L131.953 72.7961H126.006V72.895C126.457 72.939 126.886 73.1588 126.886 73.9832V79.336C126.886 80.1604 126.457 80.3472 126.006 80.3912Z" fill="#CCFF00"/>
<path d="M136.833 78.3138C136.547 79.7207 135.986 80.3472 135.228 80.3912V80.4901H138.141V80.3912C137.207 80.3472 136.855 79.5668 137.108 78.2589L137.943 74.0601L139.866 80.633H140.053L142.219 74.0381L143.076 78.9623C143.23 79.8966 142.977 80.3472 142.186 80.3912V80.4901H146.198V80.3912C145.494 80.3472 144.977 79.8636 144.813 78.9293L144.021 74.6537C143.856 73.6974 144.153 72.95 145.076 72.895V72.7961H142.362L140.746 77.7203L139.284 72.7961H136.503V72.895C137.426 72.95 137.778 73.6974 137.591 74.6537L136.833 78.3138Z" fill="#CCFF00"/>
<path d="M151.144 72.895V72.7961H147.758V72.895C148.154 72.9939 148.451 73.2797 148.814 73.9612L150.484 77.1597V79.325C150.484 80.1384 150.034 80.3472 149.572 80.3912V80.4901H153.089V80.3912C152.628 80.3472 152.177 80.1384 152.177 79.325V77.0828L153.463 74.6097C154.078 73.4446 154.65 72.939 155.134 72.895V72.7961H152.54V72.895C153.419 73.0159 153.661 73.6974 153.001 74.9724L152.056 76.797L150.693 74.0052C150.385 73.4006 150.55 72.961 151.144 72.895Z" fill="#CCFF00"/>
<path d="M225.23 56.8365L213.928 27.2704H211.96L202.324 52.6488C199.7 59.561 197.43 62.0838 194.655 62.5378V62.9919H207.218V62.5378C202.879 62.0838 201.365 58.7538 203.888 51.6902H214.937L216.501 55.8779C218.267 60.6206 217.359 62.1342 214.332 62.5378V62.9919H230.527V62.5378C228.408 62.1847 226.592 60.3683 225.23 56.8365ZM204.291 50.6307L209.438 36.7053L214.584 50.6307H204.291Z" fill="#CCFF00"/>
<path d="M246.219 59.0565C241.577 59.0565 238.096 55.3734 238.096 48.663C238.096 43.113 240.164 40.0858 242.687 40.0858C245.058 40.0858 245.361 42.8103 246.067 45.0303C246.572 46.5943 247.783 47.3512 249.145 47.3512C250.961 47.3512 252.223 45.9889 252.223 44.3744C252.223 41.9021 249.347 39.1776 243.999 39.1776C236.834 39.1776 231.839 44.5762 231.839 51.8416C231.839 59.107 236.683 63.7992 242.99 63.7992C247.884 63.7992 251.314 60.9233 252.879 55.6761L252.374 55.4238C250.961 57.8456 248.842 59.0565 246.219 59.0565Z" fill="#CCFF00"/>
<path d="M266.955 39.1776C261.153 39.1776 255.603 44.4753 255.603 51.9425C255.603 58.7033 260.396 63.7992 266.602 63.7992C271.244 63.7992 274.977 60.9738 276.491 55.6256L275.987 55.4238C274.574 57.8456 272.303 59.0565 269.68 59.0565C265.139 59.0565 261.96 55.2725 261.859 49.1675H276.693C276.491 42.9112 272.202 39.1776 266.955 39.1776ZM261.859 48.1584C262.112 43.113 264.13 40.0858 266.602 40.0858C268.721 40.0858 270.134 42.3058 270.184 48.1584H261.859Z" fill="#CCFF00"/>
<path d="M319.831 38.3703L318.519 27.6741H289.306L287.793 38.3703H288.449L289.559 36.0999C292.233 30.7013 295.109 28.6327 299.145 28.6327H299.952V57.5429C299.952 61.4278 297.884 62.336 295.765 62.5378V62.9919H311.96V62.5378C309.841 62.336 307.773 61.4278 307.773 57.5429V28.6327H308.782C312.616 28.6327 314.988 30.3481 317.914 35.999L319.175 38.3703H319.831Z" fill="#CCFF00"/>
<path d="M329.569 39.1776C323.767 39.1776 318.217 44.4753 318.217 51.9425C318.217 58.7033 323.01 63.7992 329.216 63.7992C333.857 63.7992 337.591 60.9738 339.105 55.6256L338.6 55.4238C337.187 57.8456 334.917 59.0565 332.293 59.0565C327.752 59.0565 324.574 55.2725 324.473 49.1675H339.306C339.105 42.9112 334.816 39.1776 329.569 39.1776ZM324.473 48.1584C324.725 43.113 326.743 40.0858 329.216 40.0858C331.335 40.0858 332.747 42.3058 332.798 48.1584H324.473Z" fill="#CCFF00"/>
<path d="M366.35 58.552V45.5348C366.35 41.3471 363.978 39.1776 360.295 39.1776C357.117 39.1776 354.039 41.0949 351.92 43.4157V39.4299L351.516 39.2785L341.476 42.1544V42.6085C343.444 42.5076 345.159 43.3148 345.159 46.443V58.552C345.159 61.5288 343.494 62.3865 341.88 62.5378V62.9919H354.695V62.5883C353.08 62.4369 352.021 61.4279 352.021 58.4511V44.4753C353.282 43.1635 354.897 42.2553 356.36 42.2553C358.378 42.2553 359.488 43.6176 359.488 46.8971V58.4511C359.488 61.4279 358.529 62.4369 356.814 62.5883V62.9919H369.68V62.5378C367.964 62.3865 366.35 61.5288 366.35 58.552Z" fill="#CCFF00"/>
<path d="M396.269 58.552V45.5348C396.269 41.3471 393.898 39.1776 390.215 39.1776C387.036 39.1776 383.958 41.0949 381.839 43.4157V39.4299L381.436 39.2785L371.395 42.1544V42.6085C373.363 42.5076 375.078 43.3148 375.078 46.443V58.552C375.078 61.5288 373.413 62.3865 371.799 62.5378V62.9919H384.614V62.5883C383 62.4369 381.94 61.4279 381.94 58.4511V44.4753C383.201 43.1635 384.816 42.2553 386.279 42.2553C388.297 42.2553 389.407 43.6176 389.407 46.8971V58.4511C389.407 61.4279 388.449 62.4369 386.733 62.5883V62.9919H399.599V62.5378C397.884 62.3865 396.269 61.5288 396.269 58.552Z" fill="#CCFF00"/>
<path d="M408.328 35.8476C410.699 35.8476 412.566 33.9808 412.566 31.7608C412.566 29.5409 410.699 27.6236 408.328 27.6236C405.956 27.6236 404.19 29.44 404.19 31.7608C404.19 34.0817 406.057 35.8476 408.328 35.8476Z" fill="#CCFF00"/>
<path d="M411.859 58.552V45.5853L411.96 39.4299L411.557 39.2785L401.314 42.1544V42.6085C403.282 42.5076 404.998 43.3148 404.998 46.443V58.552C404.998 61.5288 403.333 62.3865 401.718 62.5378V62.9919H415.24V62.5378C413.575 62.3865 411.859 61.5288 411.859 58.552Z" fill="#CCFF00"/>
<path d="M428.206 48.4611C425.179 47.0989 422.404 45.888 422.404 43.3148C422.404 41.4985 423.867 40.1867 426.34 40.1867C429.064 40.1867 431.839 42.6085 432.747 46.8971L433.201 46.9475L434.917 41.0949C432.899 39.884 430.073 39.1776 427.147 39.1776C421.143 39.1776 418.065 42.6589 418.065 46.6448C418.065 51.7911 422.757 53.4561 426.39 55.222C428.711 56.332 430.628 57.442 430.628 59.5611C430.628 61.5288 429.115 62.9415 426.491 62.9415C423.111 62.9415 420.437 60.0151 419.831 55.3229L419.276 55.2725L417.359 61.8819C419.226 62.9415 422.808 63.7992 426.037 63.7992C432.142 63.7992 435.573 60.7719 435.573 56.3824C435.573 51.9929 431.738 50.1261 428.206 48.4611Z" fill="#CCFF00"/>
<path d="M477.349 56.8365L466.047 27.2704H464.079L454.443 52.6488C451.819 59.561 449.549 62.0838 446.774 62.5378V62.9919H459.337V62.5378C454.998 62.0838 453.484 58.7538 456.007 51.6902H467.056L468.62 55.8779C470.386 60.6206 469.478 62.1342 466.451 62.5378V62.9919H482.646V62.5378C480.527 62.1847 478.711 60.3683 477.349 56.8365ZM456.41 50.6307L461.557 36.7053L466.703 50.6307H456.41Z" fill="#CCFF00"/>
<path d="M498.338 59.0565C493.696 59.0565 490.215 55.3734 490.215 48.663C490.215 43.113 492.283 40.0858 494.806 40.0858C497.177 40.0858 497.48 42.8103 498.186 45.0303C498.691 46.5943 499.902 47.3512 501.264 47.3512C503.08 47.3512 504.342 45.9889 504.342 44.3744C504.342 41.9021 501.466 39.1776 496.118 39.1776C488.953 39.1776 483.958 44.5762 483.958 51.8416C483.958 59.107 488.802 63.7992 495.109 63.7992C500.003 63.7992 503.434 60.9233 504.998 55.6761L504.493 55.4238C503.08 57.8456 500.961 59.0565 498.338 59.0565Z" fill="#CCFF00"/>
<path d="M528.812 60.7719C527.752 60.7719 527.248 59.9142 527.248 58.0979V47.0484C527.248 42.1039 524.271 39.1776 517.914 39.1776C511.96 39.1776 508.731 41.6498 508.731 44.5762C508.731 46.2916 509.942 47.5025 511.607 47.5025C513.121 47.5025 514.433 46.5439 514.937 44.5257C515.643 41.7003 515.744 39.9344 517.712 39.9344C519.427 39.9344 520.336 41.2967 520.336 44.9294V48.8648C510.093 51.9929 507.571 54.9697 507.571 58.4511C507.571 61.9324 510.295 63.7992 513.423 63.7992C515.946 63.7992 518.519 62.5883 520.588 60.2674C521.244 62.5883 522.909 63.6478 525.179 63.6478C527.702 63.6478 529.871 62.3865 531.536 59.5106L531.082 59.2079C530.326 60.3179 529.619 60.7719 528.812 60.7719ZM517.308 60.7719C515.643 60.7719 514.281 59.6115 514.281 56.887C514.281 54.1625 515.492 51.6902 520.336 49.672V57.997C520.336 58.5015 520.386 58.9556 520.437 59.3592C519.377 60.3683 518.318 60.7719 517.308 60.7719Z" fill="#CCFF00"/>
<path d="M555.3 57.8456V25.1514L554.897 25L544.856 27.775V28.2795C546.774 28.1786 548.439 28.9354 548.439 32.0636V40.0858C547.43 39.4803 546.219 39.1776 544.907 39.1776C538.751 39.1776 533 45.0303 533 52.9516C533 59.4097 536.733 63.7992 541.325 63.7992C544.402 63.7992 547.026 61.6297 548.59 59.0061V63.5469L548.994 63.6983L558.63 62.4369V61.9324C556.663 62.0333 555.3 61.0747 555.3 57.8456ZM548.439 58.1483C547.631 59.107 546.521 59.662 545.159 59.662C541.93 59.662 539.609 56.3824 539.609 50.227C539.609 43.668 542.081 39.9344 544.755 39.9344C546.269 39.9344 547.833 41.0444 548.439 43.8194V58.1483Z" fill="#CCFF00"/>
<path d="M572.253 39.1776C566.451 39.1776 560.901 44.4753 560.901 51.9425C560.901 58.7033 565.694 63.7992 571.9 63.7992C576.542 63.7992 580.275 60.9738 581.789 55.6256L581.284 55.4238C579.871 57.8456 577.601 59.0565 574.977 59.0565C570.437 59.0565 567.258 55.2725 567.157 49.1675H581.991C581.789 42.9112 577.5 39.1776 572.253 39.1776ZM567.157 48.1584C567.409 43.113 569.427 40.0858 571.9 40.0858C574.019 40.0858 575.432 42.3058 575.482 48.1584H567.157Z" fill="#CCFF00"/>
<path d="M612.515 62.5883V62.9919H625.078V62.5378C623.363 62.3865 621.748 61.5288 621.748 58.552V45.5348C621.748 41.3471 619.427 39.1776 615.845 39.1776C612.818 39.1776 610.043 40.9435 607.974 43.2644C607.268 40.5903 605.199 39.1776 602.324 39.1776C599.448 39.1776 596.723 40.8426 594.604 43.113V39.4299L594.2 39.2785L584.16 42.1544V42.6085C586.128 42.5076 587.843 43.3148 587.843 46.443V58.552C587.843 61.5288 586.229 62.3865 584.564 62.5378V62.9919H597.127V62.5883C595.462 62.4369 594.705 61.4279 594.705 58.4511V44.1726C595.916 42.9112 597.278 42.2553 598.439 42.2553C600.356 42.2553 601.365 43.6176 601.365 46.8971V58.4511C601.365 61.2765 600.659 62.4369 598.943 62.5883V62.9919H610.648V62.5883C608.983 62.4369 608.227 61.4279 608.227 58.4511V45.5348C608.227 45.0807 608.227 44.6771 608.176 44.3239C609.337 42.9617 610.749 42.2553 611.96 42.2553C613.878 42.2553 614.887 43.6176 614.887 46.8971V58.4511C614.887 61.4279 614.18 62.4369 612.515 62.5883Z" fill="#CCFF00"/>
<path d="M641.072 40.0858V40.4894C644.503 40.8426 645.159 44.223 643.04 48.9657L640.215 55.4743L636.027 45.8375C634.614 42.6085 635.623 40.6408 637.894 40.4894V40.0858H624.12V40.4894C625.684 40.8426 626.895 42.3562 628.307 45.4844L636.531 63.6983L634.614 68.0878C633.555 70.5096 632.041 72.4268 630.78 72.4268C629.72 72.4268 629.468 71.1655 628.862 69.9546C628.307 68.6932 627.399 67.7851 625.886 67.7851C624.12 67.7851 622.657 69.1473 622.657 71.115C622.657 73.6377 624.826 75 627.399 75C630.527 75 633.605 73.0323 635.623 68.4914L644.251 49.0666C646.925 43.0626 648.489 40.8426 650.759 40.4894V40.0858H641.072Z" fill="#CCFF00"/>
</svg>
