<svg width="146" height="150" viewBox="0 0 146 150" fill="none" xmlns="http://www.w3.org/2000/svg">
<path d="M42.4426 97.2214H20.226C18.6879 97.2214 17.4442 98.4651 17.4442 100.003V122.22C17.4442 123.758 18.6879 125.002 20.226 125.002H42.4426C43.9807 125.002 45.2244 123.758 45.2244 122.22V100.003C45.2244 98.4651 43.9807 97.2214 42.4426 97.2214ZM39.6703 119.447H23.0078V102.785H39.6703V119.447Z" fill="#1F2831"/>
<path d="M125.774 55.5605H103.557C102.019 55.5605 100.775 56.8042 100.775 58.3423V80.5589C100.775 82.097 102.019 83.3407 103.557 83.3407H125.774C127.312 83.3407 128.556 82.097 128.556 80.5589V58.3423C128.556 56.8042 127.312 55.5605 125.774 55.5605ZM122.992 77.7771H106.33V61.1146H122.992V77.7771Z" fill="#1F2831"/>
<path d="M84.113 97.2214H61.8964C60.3583 97.2214 59.1145 98.4651 59.1145 100.003V122.22C59.1145 123.758 60.3583 125.002 61.8964 125.002H84.113C85.651 125.002 86.8948 123.758 86.8948 122.22V100.003C86.8948 98.4651 85.651 97.2214 84.113 97.2214ZM81.3311 119.447H64.6687V102.785H81.3311V119.447Z" fill="#1F2831"/>
<path d="M136.882 11.1178H125.774V8.33597C125.774 3.74074 122.033 0 117.438 0C112.843 0 109.102 3.74074 109.102 8.33597V11.1178H81.3217V8.33597C81.3217 3.74074 77.5809 0 72.9857 0C68.3905 0 64.6497 3.74074 64.6497 8.33597V11.1178H39.6513V8.33597C39.6513 3.74074 35.9105 0 31.3153 0C26.7201 0 22.9793 3.74074 22.9793 8.33597V11.1178H9.08923C4.52248 11.1178 0.781738 14.8585 0.781738 19.4538V141.664C0.781738 146.259 4.52248 150 9.11771 150H136.882C141.477 150 145.218 146.259 145.218 141.664V19.4538C145.218 14.8585 141.477 11.1178 136.882 11.1178ZM114.666 8.34547C114.666 6.81689 115.909 5.56364 117.447 5.56364C118.985 5.56364 120.229 6.80739 120.229 8.34547V19.4538C120.229 20.9823 118.985 22.2356 117.447 22.2356C115.909 22.2356 114.666 20.9918 114.666 19.4538V8.34547ZM70.2228 8.34547C70.2228 6.81689 71.4666 5.56364 73.0047 5.56364C74.5427 5.56364 75.7865 6.80739 75.7865 8.34547V19.4538C75.7865 20.9823 74.5427 22.2356 73.0047 22.2356C71.4666 22.2356 70.2228 20.9918 70.2228 19.4538V8.34547ZM28.562 8.34547C28.562 6.81689 29.8057 5.56364 31.3438 5.56364C32.8819 5.56364 34.1256 6.80739 34.1256 8.34547V19.4538C34.1256 20.9823 32.8819 22.2356 31.3438 22.2356C29.8057 22.2356 28.562 20.9918 28.562 19.4538V8.34547ZM6.33589 19.4538C6.33589 17.9252 7.57964 16.6719 9.11771 16.6719H23.0078V19.4538C23.0078 24.049 26.7486 27.7897 31.3438 27.7897C35.939 27.7897 39.6798 24.049 39.6798 19.4538V16.6719H64.6782V19.4538C64.6782 24.049 68.4189 27.7897 73.0142 27.7897C77.6094 27.7897 81.3501 24.049 81.3501 19.4538V16.6719H109.13V19.4538C109.13 24.049 112.871 27.7897 117.466 27.7897C122.062 27.7897 125.802 24.049 125.802 19.4538V16.6719H136.911C138.439 16.6719 139.692 17.9157 139.692 19.4538V33.3439H6.33589V19.4538ZM139.664 94.7054V141.664C139.664 143.193 138.42 144.446 136.882 144.446H9.11771C7.58913 144.446 6.33589 143.202 6.33589 141.664V38.898H139.664V94.7149V94.7054Z" fill="#1F2831"/>
<path d="M42.4426 55.5605H20.226C18.6879 55.5605 17.4442 56.8042 17.4442 58.3423V80.5589C17.4442 82.097 18.6879 83.3407 20.226 83.3407H42.4426C43.9807 83.3407 45.2244 82.097 45.2244 80.5589V58.3423C45.2244 56.8042 43.9807 55.5605 42.4426 55.5605ZM39.6703 77.7771H23.0078V61.1146H39.6703V77.7771Z" fill="#1F2831"/>
<path d="M84.113 55.5605H61.8964C60.3583 55.5605 59.1145 56.8042 59.1145 58.3423V80.5589C59.1145 82.097 60.3583 83.3407 61.8964 83.3407H84.113C85.651 83.3407 86.8948 82.097 86.8948 80.5589V58.3423C86.8948 56.8042 85.651 55.5605 84.113 55.5605ZM81.3311 77.7771H64.6687V61.1146H81.3311V77.7771Z" fill="#1F2831"/>
</svg>
