<svg width="71" height="50" viewBox="0 0 71 50" fill="none" xmlns="http://www.w3.org/2000/svg">
<path d="M69.2557 0L70.712 4.69255C63.7001 6.95792 58.4142 9.43904 54.8544 12.1359C51.4024 14.7249 49.6764 17.5297 49.6764 20.5502C49.6764 22.8155 50.3776 24.6494 51.7799 26.0518C53.2902 27.4542 54.9622 28.8026 56.7961 30.0971C58.7379 31.2837 60.4639 32.6861 61.9741 34.3042C63.4844 35.9223 64.2395 38.0259 64.2395 40.6149C64.2395 43.3118 63.2147 45.5771 61.165 47.411C59.1154 49.137 56.4725 50 53.2363 50C48.8134 50 45.0917 48.2201 42.0712 44.6602C39.1586 40.9924 37.7023 36.4078 37.7023 30.9061C37.7023 23.8943 40.3452 17.7994 45.6311 12.6214C51.0248 7.33549 58.8997 3.12837 69.2557 0ZM31.5534 0L33.0097 4.69255C25.9978 6.95792 20.712 9.43904 17.1521 12.1359C13.7001 14.7249 11.9741 17.5297 11.9741 20.5502C11.9741 22.8155 12.6753 24.6494 14.0777 26.0518C15.5879 27.4542 17.26 28.8026 19.0939 30.0971C21.0356 31.2837 22.7077 32.6861 24.11 34.3042C25.6203 35.9223 26.3754 38.0259 26.3754 40.6149C26.3754 43.3118 25.3506 45.5771 23.301 47.411C21.3592 49.137 18.7702 50 15.534 50C11.0032 50 7.28155 48.2201 4.36893 44.6602C1.45631 40.9924 0 36.4078 0 30.9061C0 23.8943 2.64293 17.7994 7.9288 12.6214C13.3225 7.33549 21.1974 3.12837 31.5534 0Z" fill="#CCFF00"/>
</svg>
