<svg width="40" height="40" viewBox="0 0 40 40" fill="none" xmlns="http://www.w3.org/2000/svg">
<path fill-rule="evenodd" clip-rule="evenodd" d="M16.8149 12.9601C21.3189 15.1281 26.5269 15.0241 29.4868 12.7042C31.4628 11.1522 32.5828 8.58419 31.2548 3.46423C24.6229 -1.04773 15.6229 -1.28773 8.63101 3.54423C6.31903 5.14421 4.45504 7.1362 3.05505 9.37618C6.65502 9.14418 10.151 9.74418 16.8229 12.9601H16.8149Z" fill="#070B0E"/>
<path fill-rule="evenodd" clip-rule="evenodd" d="M23.9749 31.3838C24.2949 30.7678 30.1669 19.7119 39.9668 21.2079C40.2308 16.896 39.1108 12.464 36.4628 8.63202C35.6628 7.47203 34.7588 6.42404 33.7748 5.49605C34.6468 9.68801 34.2148 12.352 31.2389 14.864C27.4149 18.0879 21.0789 18.5519 15.431 15.832C7.44706 11.976 2.5271 11.936 1.5511 12.288C-0.984875 18.3599 -0.472879 25.5599 3.54309 31.3758C6.68706 35.9278 11.391 38.7758 16.439 39.6878C16.487 39.6238 20.7989 37.3118 23.9749 31.3838Z" fill="#070B0E"/>
<path fill-rule="evenodd" clip-rule="evenodd" d="M26.7911 32.8561C23.6791 38.688 21.4791 39.744 20.4951 40C24.2631 39.912 28.0471 38.76 31.3751 36.464C35.703 33.4721 38.479 29.0881 39.527 24.3281C31.943 23.2161 26.8391 32.7681 26.7911 32.8641V32.8561Z" fill="#070B0E"/>
</svg>
