<svg width="31" height="35" viewBox="0 0 31 35" fill="none" xmlns="http://www.w3.org/2000/svg">
<path d="M11.3125 7.65625C11.3125 5.24316 13.2744 3.28125 15.6875 3.28125C18.1006 3.28125 20.0625 5.24316 20.0625 7.65625V10.9375H11.3125V7.65625ZM8.03125 10.9375H3.65625C1.84473 10.9375 0.375 12.4072 0.375 14.2188V28.4375C0.375 32.0605 3.31445 35 6.9375 35H24.4375C28.0605 35 31 32.0605 31 28.4375V14.2188C31 12.4072 29.5303 10.9375 27.7188 10.9375H23.3438V7.65625C23.3438 3.4248 19.9189 0 15.6875 0C11.4561 0 8.03125 3.4248 8.03125 7.65625V10.9375ZM9.67188 14.2188C10.107 14.2188 10.5243 14.3916 10.832 14.6993C11.1396 15.007 11.3125 15.4243 11.3125 15.8594C11.3125 16.2945 11.1396 16.7118 10.832 17.0195C10.5243 17.3271 10.107 17.5 9.67188 17.5C9.23675 17.5 8.81945 17.3271 8.51178 17.0195C8.2041 16.7118 8.03125 16.2945 8.03125 15.8594C8.03125 15.4243 8.2041 15.007 8.51178 14.6993C8.81945 14.3916 9.23675 14.2188 9.67188 14.2188ZM20.0625 15.8594C20.0625 15.4243 20.2354 15.007 20.543 14.6993C20.8507 14.3916 21.268 14.2188 21.7031 14.2188C22.1382 14.2188 22.5555 14.3916 22.8632 14.6993C23.1709 15.007 23.3438 15.4243 23.3438 15.8594C23.3438 16.2945 23.1709 16.7118 22.8632 17.0195C22.5555 17.3271 22.1382 17.5 21.7031 17.5C21.268 17.5 20.8507 17.3271 20.543 17.0195C20.2354 16.7118 20.0625 16.2945 20.0625 15.8594Z" fill="#CCFF00"/>
</svg>
