<svg width="50" height="50" viewBox="0 0 50 50" fill="none" xmlns="http://www.w3.org/2000/svg">
<path d="M14.646 0.174844C11.986 0.300344 10.1695 0.724844 8.58154 1.34884C6.93804 1.98934 5.54504 2.84884 4.15904 4.23984C2.77304 5.63084 1.91954 7.02484 1.28354 8.67084C0.668041 10.2623 0.251041 12.0803 0.133541 14.7418C0.0160406 17.4033 -0.00995946 18.2588 0.00304054 25.0478C0.0160405 31.8368 0.0460405 32.6878 0.175041 35.3548C0.302041 38.0143 0.725041 39.8303 1.34904 41.4188C1.99054 43.0623 2.84904 44.4548 4.24054 45.8413C5.63204 47.2278 7.02504 48.0793 8.67504 48.7163C10.265 49.3308 12.0835 49.7498 14.7445 49.8663C17.4055 49.9828 18.262 50.0098 25.049 49.9968C31.836 49.9838 32.6905 49.9538 35.357 49.8273C38.0235 49.7008 39.83 49.2748 41.419 48.6538C43.0625 48.0108 44.456 47.1538 45.8415 45.7618C47.227 44.3698 48.08 42.9748 48.7155 41.3278C49.3315 39.7378 49.75 37.9193 49.8655 35.2603C49.982 32.5918 50.0095 31.7398 49.9965 24.9518C49.9835 18.1638 49.953 17.3128 49.8265 14.6468C49.7 11.9808 49.2765 10.1703 48.653 8.58084C48.0105 6.93734 47.153 5.54584 45.762 4.15834C44.371 2.77084 42.975 1.91834 41.3285 1.28434C39.7375 0.668844 37.92 0.249344 35.259 0.134344C32.598 0.019344 31.7415 -0.010156 24.952 0.00284403C18.1625 0.015844 17.3125 0.044844 14.646 0.174844ZM14.938 45.3688C12.5005 45.2628 11.177 44.8578 10.295 44.5188C9.12704 44.0688 8.29504 43.5248 7.41604 42.6543C6.53704 41.7838 5.99704 40.9488 5.54104 39.7833C5.19854 38.9013 4.78604 37.5793 4.67204 35.1418C4.54804 32.5073 4.52204 31.7163 4.50754 25.0418C4.49304 18.3673 4.51854 17.5773 4.63404 14.9418C4.73804 12.5063 5.14554 11.1813 5.48404 10.2998C5.93404 9.13034 6.47604 8.29984 7.34854 7.42134C8.22104 6.54284 9.05354 6.00184 10.22 5.54584C11.101 5.20184 12.423 4.79284 14.8595 4.67684C17.496 4.55184 18.286 4.52684 24.9595 4.51234C31.633 4.49784 32.425 4.52284 35.0625 4.63884C37.498 4.74484 38.8235 5.14834 39.704 5.48884C40.8725 5.93884 41.704 6.47934 42.5825 7.35334C43.461 8.22734 44.0025 9.05684 44.4585 10.2258C44.803 11.1043 45.212 12.4258 45.327 14.8638C45.4525 17.5003 45.481 18.2908 45.493 24.9638C45.505 31.6368 45.4815 32.4293 45.366 35.0638C45.2595 37.5013 44.8555 38.8253 44.516 39.7083C44.066 40.8758 43.5235 41.7083 42.6505 42.5863C41.7775 43.4643 40.946 44.0053 39.779 44.4613C38.899 44.8048 37.5755 45.2148 35.141 45.3308C32.5045 45.4548 31.7145 45.4808 25.0385 45.4953C18.3625 45.5098 17.575 45.4828 14.9385 45.3688M35.3185 11.6383C35.3195 12.2317 35.4965 12.8115 35.827 13.3043C36.1575 13.7971 36.6267 14.1809 37.1753 14.407C37.724 14.6331 38.3273 14.6914 38.9091 14.5746C39.4909 14.4578 40.0249 14.1711 40.4437 13.7508C40.8626 13.3304 41.1473 12.7953 41.262 12.2131C41.3767 11.6309 41.3161 11.0278 41.088 10.48C40.8598 9.9322 40.4744 9.46437 39.9804 9.13567C39.4863 8.80697 38.9059 8.63216 38.3125 8.63334C37.5171 8.63493 36.7548 8.95239 36.1933 9.51591C35.6319 10.0794 35.3172 10.8429 35.3185 11.6383ZM12.1635 25.0248C12.1775 32.1148 17.9355 37.8493 25.024 37.8358C32.1125 37.8223 37.851 32.0648 37.8375 24.9748C37.824 17.8848 32.0645 12.1488 24.975 12.1628C17.8855 12.1768 12.15 17.9358 12.1635 25.0248ZM16.6665 25.0158C16.6633 23.3676 17.1488 21.7555 18.0618 20.3832C18.9748 19.011 20.2742 17.9403 21.7957 17.3065C23.3172 16.6728 24.9925 16.5044 26.6096 16.8228C28.2268 17.1411 29.7133 17.9319 30.881 19.095C32.0488 20.2582 32.8454 21.7415 33.1702 23.3574C33.4949 24.9733 33.3332 26.6492 32.7055 28.1732C32.0778 29.6972 31.0122 31.0008 29.6436 31.9192C28.275 32.8376 26.6647 33.3296 25.0165 33.3328C23.9221 33.3351 22.838 33.1218 21.826 32.7051C20.8141 32.2883 19.8941 31.6763 19.1187 30.904C18.3433 30.1317 17.7277 29.2141 17.3069 28.2038C16.8862 27.1935 16.6686 26.1103 16.6665 25.0158Z" fill="white"/>
</svg>
