<svg width="35" height="35" viewBox="0 0 35 35" fill="none" xmlns="http://www.w3.org/2000/svg">
<path d="M17.5 0C7.84 0 0 7.84 0 17.5C0 27.16 7.84 35 17.5 35C27.16 35 35 27.16 35 17.5C35 7.84 27.16 0 17.5 0ZM17.5 7C20.8775 7 23.625 9.7475 23.625 13.125C23.625 16.5025 20.8775 19.25 17.5 19.25C14.1225 19.25 11.375 16.5025 11.375 13.125C11.375 9.7475 14.1225 7 17.5 7ZM17.5 31.5C13.9475 31.5 9.7475 30.065 6.755 26.46C9.82031 24.055 13.6038 22.7479 17.5 22.7479C21.3962 22.7479 25.1797 24.055 28.245 26.46C25.2525 30.065 21.0525 31.5 17.5 31.5Z" fill="#CCFF00"/>
</svg>
