<svg width="50" height="38" viewBox="0 0 50 38" fill="none" xmlns="http://www.w3.org/2000/svg">
<path fill-rule="evenodd" clip-rule="evenodd" d="M46.4461 0H3.55392C2.61136 0 1.70741 0.37443 1.04092 1.04092C0.37443 1.70741 0 2.61136 0 3.55392V34.1912C0 35.1337 0.37443 36.0377 1.04092 36.7042C1.70741 37.3707 2.61136 37.7451 3.55392 37.7451H46.4461C47.3886 37.7451 48.2926 37.3707 48.9591 36.7042C49.6256 36.0377 50 35.1337 50 34.1912V3.55392C50 2.61136 49.6256 1.70741 48.9591 1.04092C48.2926 0.374429 47.3886 0 46.4461 0ZM14.602 20.2783L4.04412 31.2017V7.06175L22.2494 25.1791C22.9153 25.8411 23.816 26.2126 24.7549 26.2126C25.6938 26.2126 26.5946 25.841 27.2605 25.1791L45.9559 6.58632V31.0316L35.1716 20.2473L32.3186 23.1003L42.9047 33.701H7.25261L17.5133 23.0885L14.602 20.2783ZM24.755 21.9648L6.74813 4.04412H42.7763L24.755 21.9648Z" fill="white"/>
</svg>
