<svg width="30" height="30" viewBox="0 0 30 30" fill="none" xmlns="http://www.w3.org/2000/svg">
<path fill-rule="evenodd" clip-rule="evenodd" d="M12.6112 9.72011C15.9892 11.3461 19.8951 11.2681 22.1151 9.52811C23.5971 8.36412 24.4371 6.43814 23.4411 2.59817C18.4672 -0.785801 11.7172 -0.9658 6.47325 2.65817C4.73927 3.85816 3.34128 5.35215 2.29129 7.03213C4.99127 6.85814 7.61325 7.30813 12.6172 9.72011H12.6112Z" fill="#070B0E"/>
<path fill-rule="evenodd" clip-rule="evenodd" d="M17.9812 23.5379C18.2212 23.0759 22.6252 14.7839 29.9751 15.9059C30.1731 12.672 29.3331 9.34799 27.3471 6.47402C26.7471 5.60402 26.0691 4.81803 25.3311 4.12204C25.9851 7.26601 25.6611 9.26399 23.4291 11.148C20.5612 13.566 15.8092 13.914 11.5732 11.874C5.58529 8.982 1.89532 8.952 1.16333 9.21599C-0.738656 13.77 -0.354659 19.1699 2.65732 23.5319C5.0153 26.9458 8.54327 29.0818 12.3292 29.7658C12.3652 29.7178 15.5992 27.9838 17.9812 23.5379Z" fill="#070B0E"/>
<path fill-rule="evenodd" clip-rule="evenodd" d="M20.0933 24.642C17.7593 29.016 16.1094 29.808 15.3714 30C18.1973 29.934 21.0353 29.07 23.5313 27.348C26.7773 25.104 28.8592 21.8161 29.6452 18.2461C23.9573 17.4121 20.1293 24.576 20.0933 24.648V24.642Z" fill="#070B0E"/>
</svg>
