<svg width="36" height="25" viewBox="0 0 36 25" fill="none" xmlns="http://www.w3.org/2000/svg">
<path d="M34.6278 0L35.356 2.34628C31.8501 3.47896 29.2071 4.71952 27.4272 6.06796C25.7012 7.36246 24.8382 8.76483 24.8382 10.2751C24.8382 11.4078 25.1888 12.3247 25.89 13.0259C26.6451 13.7271 27.4811 14.4013 28.3981 15.0485C29.3689 15.6419 30.2319 16.343 30.9871 17.1521C31.7422 17.9612 32.1197 19.0129 32.1197 20.3074C32.1197 21.6559 31.6073 22.7886 30.5825 23.7055C29.5577 24.5685 28.2362 25 26.6181 25C24.4067 25 22.5458 24.11 21.0356 22.3301C19.5793 20.4962 18.8511 18.2039 18.8511 15.4531C18.8511 11.9471 20.1726 8.89968 22.8155 6.31068C25.5124 3.66775 29.4498 1.56418 34.6278 0ZM15.7767 0L16.5049 2.34628C12.9989 3.47896 10.356 4.71952 8.57605 6.06796C6.85005 7.36246 5.98706 8.76483 5.98706 10.2751C5.98706 11.4078 6.33765 12.3247 7.03884 13.0259C7.79396 13.7271 8.62999 14.4013 9.54693 15.0485C10.5178 15.6419 11.3538 16.343 12.055 17.1521C12.8101 17.9612 13.1877 19.0129 13.1877 20.3074C13.1877 21.6559 12.6753 22.7886 11.6505 23.7055C10.6796 24.5685 9.38511 25 7.76699 25C5.50162 25 3.64078 24.11 2.18447 22.3301C0.728155 20.4962 0 18.2039 0 15.4531C0 11.9471 1.32147 8.89968 3.9644 6.31068C6.66127 3.66775 10.5987 1.56418 15.7767 0Z" fill="#CCFF00"/>
</svg>
