<svg width="326" height="50" viewBox="0 0 326 50" fill="none" xmlns="http://www.w3.org/2000/svg">
<path d="M42.2476 9.74374C41.066 9.61917 40.6538 8.7142 41.3408 6.79069H44.3488L44.7738 7.93014C45.2537 9.22164 45.0064 9.63382 44.1839 9.74374V9.86647H48.5933V9.74374C48.0162 9.64664 47.5216 9.15203 47.1516 8.19211L44.0758 0.140854H43.5409L40.9176 7.05083C40.2031 8.93403 39.5858 9.61917 38.8292 9.74374V9.86647H42.2494V9.74374H42.2476ZM42.8521 2.70919L44.2535 6.50125H41.4507L42.8521 2.70919Z" fill="#CCFF00"/>
<path d="M26.2641 21.7849C27.5959 21.7849 28.6126 22.9243 28.9021 24.628L29.1347 24.6555L29.6971 22.1275C28.9552 21.7428 27.7736 21.4954 26.5517 21.4954C23.5712 21.4954 21.1256 23.6241 21.1256 26.634C21.1256 29.2994 23.0766 31.5929 25.797 31.5929C27.6655 31.5929 29.012 30.4663 29.6019 28.8872L29.3967 28.8176C28.8196 29.8343 27.7901 30.3418 26.691 30.3418C24.8096 30.3418 23.3935 28.9403 23.3935 26.11C23.3935 23.2797 24.7528 21.7831 26.2641 21.7831V21.7849Z" fill="#CCFF00"/>
<path d="M57.4616 32.2762H65.238L65.6227 29.336H65.4029C64.8936 30.9445 63.3145 32.0143 61.7483 32.0143H60.6766V27.385H61.391C62.6129 27.385 63.4922 27.9474 63.6992 29.0741H63.8769V25.4322H63.6992C63.5069 26.5314 62.6422 27.1084 61.391 27.1084H60.6766V22.917H61.6512C62.9152 22.917 64.247 23.6589 65.086 25.1007H65.2783L64.8936 22.6551H57.4616V22.7778C58.0258 22.8327 58.5607 23.1075 58.5607 24.1389V30.829C58.5607 31.8586 58.0258 32.0931 57.4616 32.148V32.2762Z" fill="#CCFF00"/>
<path d="M21.0285 9.185C20.9204 11.8449 22.2889 14.1385 24.1886 15.8861C26.429 17.9452 29.9444 19.3228 32.9726 19.4858C35.9 19.6434 39.0893 20.7663 41.4305 22.5323C41.4305 22.5323 41.5954 22.8877 41.7767 23.0379C41.7951 23.0526 41.8445 23.0965 41.9178 23.1607C41.044 23.855 40.205 24.5199 40.205 24.5199C40.205 24.5199 37.9242 26.3995 37.7978 26.5057C37.3435 26.8868 36.0355 27.1084 36.5247 27.8192C36.924 28.4018 37.1457 28.6674 37.6513 29.1638C38.2668 29.7684 38.7138 28.5208 39.1681 28.1398C39.2945 28.0335 41.5441 26.1174 41.5441 26.1174C41.5441 26.1174 42.4967 25.2747 43.4072 24.4705C44.3176 25.2747 45.2702 26.1174 45.2702 26.1174C45.2702 26.1174 47.5198 28.0335 47.6462 28.1398C48.1005 28.5208 48.5475 29.7684 49.163 29.1638C49.6686 28.6656 49.8903 28.3999 50.2896 27.8192C50.7769 27.1066 49.4689 26.8849 49.0165 26.5057C48.8901 26.3995 46.6093 24.5199 46.6093 24.5199C46.6093 24.5199 45.7703 23.855 44.8965 23.1607C44.9698 23.0965 45.0192 23.0526 45.0376 23.0379C45.2189 22.8859 45.3838 22.5323 45.3838 22.5323C47.725 20.7663 50.9143 19.6434 53.8417 19.4858C56.8699 19.3228 60.3853 17.9452 62.6257 15.8861C64.5273 14.1403 65.8957 11.8449 65.7858 9.185C65.6667 6.27226 63.9685 4.24434 61.1199 3.61599C58.5204 3.04443 56.0492 4.02084 53.9956 5.58713C51.5756 7.43369 49.5789 10.6194 48.8864 13.5724C48.2177 16.4265 46.5544 19.3704 44.4074 21.3654C44.4074 21.3654 44.03 21.4661 43.8486 21.6182C43.812 21.6475 43.6471 21.7812 43.4053 21.9736C43.1635 21.7812 42.9986 21.6493 42.962 21.6182C42.7806 21.4661 42.4033 21.3654 42.4033 21.3654C40.2544 19.3686 38.5911 16.4265 37.9242 13.5724C37.2336 10.6194 35.235 7.43186 32.815 5.58713C30.7633 4.02084 28.292 3.0426 25.6907 3.61599C22.8439 4.2425 21.1439 6.27043 21.0249 9.185H21.0285ZM52.1857 18.3885L52.1344 18.4673C51.9622 18.4032 51.7955 18.3281 51.6379 18.2456L51.6856 18.1522L51.6672 18.1412L53.1548 16.8937L53.5083 17.3169L52.2132 18.4014L52.1857 18.3885ZM49.6375 14.6056L50.5773 13.8179L50.9674 14.285L49.6869 15.3567L49.6796 15.3329L49.577 15.3512C49.5422 15.1387 49.5202 14.9189 49.5147 14.6917L49.643 14.6368L49.6357 14.6038L49.6375 14.6056ZM58.9619 11.2606L58.5387 11.6141L58.2182 11.2312L58.6413 10.8777L58.9619 11.2606ZM58.6725 10.8502L59.1176 10.4765L59.4382 10.8594L58.9931 11.2331L58.6725 10.8502ZM56.9285 11.5848L57.3517 11.2312L57.6832 11.6251L57.2601 11.9787L56.9285 11.5848ZM57.2271 12.0061L56.8076 12.3579L56.476 11.964L56.8955 11.6123L57.2271 12.0061ZM57.7107 11.6581L58.0313 12.041L57.6081 12.3945L57.2875 12.0116L57.7107 11.6581ZM57.7419 11.6306L58.1852 11.2606L58.5058 11.6434L58.0624 12.0135L57.7419 11.6306ZM58.1907 11.2001L57.8591 10.8062L58.2823 10.4527L58.6138 10.8465L58.1907 11.2001ZM58.1577 11.2258L57.7144 11.5958L57.3828 11.2019L57.8261 10.8319L58.1577 11.2258ZM57.3553 11.169L57.0238 10.7733L57.4671 10.4032L57.7987 10.7989L57.3553 11.169ZM57.3242 11.1964L56.901 11.55L56.5694 11.1543L56.9926 10.8007L57.3242 11.1964ZM56.868 11.5775L56.4485 11.9292L56.117 11.5335L56.5365 11.1818L56.868 11.5775ZM56.4174 11.9567L55.9979 12.3084L55.6663 11.9127L56.0858 11.561L56.4174 11.9567ZM55.9649 12.3341L55.5252 12.7023L55.1937 12.3066L55.6333 11.9384L55.9649 12.3341ZM55.9924 12.3689L56.324 12.7627L55.8843 13.1309L55.5527 12.7371L55.9924 12.3689ZM56.0254 12.3414L56.4449 11.9897L56.7764 12.3835L56.3569 12.7352L56.0254 12.3414ZM56.8039 12.4183L57.1245 12.8012L56.705 13.1529L56.3844 12.7701L56.8039 12.4183ZM56.8351 12.3908L57.2546 12.0391L57.5752 12.422L57.1556 12.7737L56.8351 12.3908ZM57.6045 12.455L57.9269 12.8397L57.5074 13.1914L57.185 12.8067L57.6045 12.455ZM57.6356 12.4275L58.0588 12.0739L58.3812 12.4586L57.958 12.8122L57.6356 12.4275ZM58.0918 12.0464L58.5351 11.6764L58.8575 12.0611L58.4142 12.4312L58.0918 12.0464ZM58.5662 11.6489L58.9894 11.2954L59.3118 11.6801L58.8886 12.0336L58.5662 11.6489ZM59.0224 11.2679L59.4694 10.8942L59.7918 11.2789L59.3466 11.6526L59.0242 11.2679H59.0224ZM59.5005 10.8667L59.9457 10.493L60.2681 10.8777L59.8229 11.2514L59.5005 10.8667ZM59.473 10.8337L59.1524 10.4509L59.5994 10.0771L59.92 10.46L59.473 10.8337ZM59.1231 10.4179L58.7915 10.024L59.2367 9.65031L59.5683 10.0442L59.1231 10.4179ZM59.092 10.4435L58.645 10.8172L58.3134 10.4234L58.7586 10.0497L59.0901 10.4435H59.092ZM58.2859 10.3904L57.9544 9.99471L58.3995 9.621L58.7311 10.0167L58.2859 10.3904ZM58.253 10.416L57.8298 10.7696L57.4982 10.3739L57.9214 10.0204L58.253 10.416ZM57.4726 10.3428L57.1465 9.95257L57.5697 9.59902L57.8957 9.98921L57.4726 10.3428ZM57.4396 10.3702L56.9963 10.7403L56.6702 10.3501L57.1135 9.98005L57.4396 10.3702ZM56.9651 10.7678L56.542 11.1213L56.2159 10.7311L56.639 10.3776L56.9651 10.7678ZM56.509 11.1488L56.0895 11.5005L55.7634 11.1103L56.1829 10.7586L56.509 11.1488ZM56.0565 11.528L55.637 11.8797L55.3109 11.4895L55.7304 11.1378L56.0565 11.528ZM55.6059 11.9072L55.1662 12.2754L54.8401 11.8852L55.2798 11.517L55.6059 11.9072ZM55.1332 12.3011L54.6771 12.6821L54.351 12.2919L54.8071 11.9109L55.1332 12.3011ZM55.1625 12.3341L55.4941 12.7298L55.038 13.1108L54.7064 12.7151L55.1625 12.3341ZM55.5216 12.7627L55.8532 13.1566L55.397 13.5376L55.0654 13.1438L55.5216 12.7627ZM55.8788 13.1914L56.1994 13.5743L55.7432 13.9553L55.4227 13.5724L55.8788 13.1914ZM55.9118 13.1639L56.3514 12.7957L56.672 13.1786L56.2324 13.5468L55.9118 13.1639ZM56.6995 13.2134L57.0219 13.5981L56.5823 13.9663L56.2598 13.5816L56.6995 13.2134ZM56.7325 13.1859L57.152 12.8342L57.4744 13.2189L57.0549 13.5706L56.7325 13.1859ZM57.5019 13.2518L57.8554 13.675L57.4359 14.0267L57.0824 13.6036L57.5019 13.2518ZM57.5349 13.2244L57.9544 12.8726L58.3079 13.2958L57.8884 13.6475L57.5349 13.2244ZM57.9873 12.847L58.4105 12.4934L58.7641 12.9166L58.3409 13.2702L57.9873 12.847ZM58.4416 12.4641L58.885 12.0941L59.2385 12.5173L58.7952 12.8873L58.4416 12.4641ZM58.9161 12.0666L59.3393 11.713L59.6928 12.1362L59.2697 12.4898L58.9161 12.0666ZM59.3723 11.6856L59.8174 11.3119L60.171 11.735L59.7258 12.1087L59.3723 11.6856ZM59.8504 11.2844L60.2955 10.9107L60.6491 11.3338L60.204 11.7075L59.8504 11.2844ZM60.3285 10.8832L60.8598 10.438L61.2133 10.8612L60.6821 11.3064L60.3285 10.8832ZM60.301 10.8502L59.9786 10.4655L60.5099 10.0204L60.8323 10.4051L60.301 10.8502ZM59.9511 10.4325L59.6306 10.0497L60.1618 9.60451L60.4824 9.98738L59.9511 10.4325ZM59.6013 10.0167L59.2697 9.62283L59.8009 9.17767L60.1325 9.57154L59.6013 10.0167ZM59.2422 9.58802L58.9106 9.19233L59.4419 8.74718L59.7735 9.14287L59.2422 9.58802ZM59.2111 9.6155L58.7659 9.98921L58.4343 9.59352L58.8813 9.21981L59.2129 9.6155H59.2111ZM58.405 9.56054L58.0789 9.17035L58.5241 8.79664L58.8502 9.18683L58.405 9.56054ZM58.3739 9.58802L57.9269 9.96173L57.6008 9.57154L58.046 9.19783L58.372 9.58802H58.3739ZM57.5715 9.53673L57.2124 9.10806L57.6576 8.73435L58.0166 9.16302L57.5697 9.53673H57.5715ZM57.5404 9.56421L57.1172 9.91777L56.7581 9.4891L57.1813 9.13554L57.5404 9.56421ZM57.0842 9.94525L56.6409 10.3153L56.2818 9.88663L56.7251 9.51658L57.0842 9.94525ZM56.6097 10.3446L56.1866 10.6982L55.8275 10.2695L56.2507 9.91594L56.6097 10.3446ZM56.1536 10.7256L55.7341 11.0774L55.375 10.6487L55.7945 10.297L56.1536 10.7256ZM55.7029 11.1048L55.2834 11.4566L54.9244 11.0279L55.3439 10.6762L55.7029 11.1048ZM55.2505 11.4822L54.8108 11.8504L54.4517 11.4218L54.8914 11.0536L55.2505 11.4822ZM54.7797 11.8779L54.3235 12.259L53.9645 11.8303L54.4206 11.4492L54.7797 11.8779ZM54.2905 12.2864L53.7831 12.7114L53.424 12.2828L53.9315 11.8578L54.2905 12.2864ZM54.3198 12.3194L54.6459 12.7096L54.1385 13.1346L53.8124 12.7444L54.3198 12.3194ZM54.6734 12.7444L55.005 13.1401L54.4975 13.5651L54.166 13.1694L54.6734 12.7444ZM55.0325 13.1731L55.364 13.5669L54.8566 13.9919L54.525 13.5981L55.0325 13.1731ZM55.3915 13.5999L55.7121 13.9828L55.2047 14.4078L54.8841 14.0249L55.3915 13.5999ZM55.7414 14.0158L56.0638 14.4005L55.5564 14.8255L55.234 14.4408L55.7414 14.0158ZM55.7726 13.9901L56.2287 13.6091L56.5511 13.9938L56.095 14.3748L55.7726 13.9901ZM56.5786 14.0249L56.9322 14.4481L56.476 14.8291L56.1224 14.406L56.5786 14.0249ZM56.6116 13.9993L57.0512 13.6311L57.4048 14.0542L56.9651 14.4224L56.6116 13.9993ZM57.4323 14.0872L57.8188 14.547L57.3791 14.9152L56.9926 14.4554L57.4323 14.0872ZM57.4634 14.0597L57.8829 13.708L58.2694 14.1678L57.8499 14.5195L57.4634 14.0597ZM57.9159 13.6805L58.3354 13.3288L58.7219 13.7886L58.3024 14.1403L57.9159 13.6805ZM58.3684 13.3013L58.7915 12.9478L59.1781 13.4076L58.7549 13.7611L58.3684 13.3013ZM58.8227 12.9203L59.266 12.5502L59.6525 13.01L59.2092 13.3801L58.8227 12.9203ZM59.299 12.5227L59.7222 12.1692L60.1087 12.629L59.6855 12.9826L59.299 12.5227ZM59.7533 12.1417L60.1985 11.768L60.585 12.2278L60.1398 12.6015L59.7533 12.1417ZM60.2314 11.7405L60.6766 11.3668L61.0631 11.8266L60.618 12.2003L60.2314 11.7405ZM60.7096 11.3393L61.2408 10.8942L61.6273 11.354L61.0961 11.7991L60.7096 11.3393ZM61.2738 10.8685L61.7721 10.4509L62.1586 10.9107L61.6603 11.3283L61.2738 10.8685ZM61.2463 10.8337L60.8927 10.4106L61.391 9.99288L61.7446 10.416L61.2463 10.8337ZM60.8634 10.3794L60.541 9.99471L61.0393 9.57703L61.3617 9.96173L60.8634 10.3794ZM60.5135 9.96173L60.193 9.57886L60.6912 9.16119L61.0118 9.54406L60.5135 9.96173ZM60.1655 9.54406L59.8339 9.1502L60.3322 8.73252L60.6638 9.12638L60.1655 9.54406ZM59.8064 9.11539L59.4748 8.7197L59.9731 8.30202L60.3047 8.69771L59.8064 9.11539ZM59.4474 8.68672L59.1213 8.29653L59.6196 7.87885L59.9457 8.26905L59.4474 8.68672ZM59.4144 8.7142L58.8831 9.15936L58.5571 8.76916L59.0883 8.324L59.4144 8.7142ZM58.5296 8.73618L58.1705 8.30752L58.7018 7.86236L59.0608 8.29103L58.5296 8.73618ZM58.4966 8.76366L58.0515 9.13737L57.6924 8.70871L58.1376 8.335L58.4966 8.76366ZM57.6631 8.67573L57.2729 8.20859L57.7199 7.83488L58.1101 8.30202L57.6631 8.67573ZM57.6319 8.70138L57.1868 9.07509L56.7966 8.60795L57.2417 8.23424L57.6319 8.70138ZM57.1538 9.10257L56.7306 9.45613L56.3404 8.98899L56.7636 8.63543L57.1538 9.10257ZM56.6977 9.4836L56.2543 9.85365L55.8642 9.38651L56.3075 9.01647L56.6977 9.4836ZM56.2232 9.88296L55.8 10.2365L55.4098 9.76938L55.833 9.41582L56.2232 9.88296ZM55.7671 10.264L55.3476 10.6157L54.9574 10.1486L55.3769 9.79686L55.7671 10.264ZM55.3164 10.6432L54.8969 10.9949L54.5067 10.5278L54.9262 10.1761L55.3164 10.6432ZM54.8639 11.0206L54.4243 11.3888L54.0341 10.9217L54.4737 10.5534L54.8639 11.0206ZM54.3913 11.4163L53.9352 11.7973L53.545 11.3302L54.0011 10.9491L54.3913 11.4163ZM53.904 11.8248L53.3966 12.2498L53.0064 11.7827L53.5138 11.3576L53.904 11.8248ZM53.3636 12.2773L52.8067 12.7426L52.4165 12.2754L52.9734 11.8101L53.3636 12.2773ZM53.3929 12.3102L53.752 12.7389L53.1951 13.2042L52.836 12.7755L53.3929 12.3102ZM53.7794 12.7719L54.1055 13.1621L53.5486 13.6274L53.2225 13.2372L53.7794 12.7719ZM54.1348 13.1951L54.4664 13.5908L53.9095 14.0561L53.5779 13.6604L54.1348 13.1951ZM54.4939 13.6237L54.8255 14.0176L54.2686 14.4829L53.937 14.089L54.4939 13.6237ZM54.8511 14.0524L55.1717 14.4353L54.6148 14.9006L54.2942 14.5177L54.8511 14.0524ZM55.201 14.4682L55.5234 14.8529L54.9665 15.3182L54.6441 14.9335L55.201 14.4682ZM55.5509 14.8859L55.9045 15.3091L55.3476 15.7744L54.994 15.3512L55.5509 14.8859ZM55.5839 14.8603L56.0913 14.4353L56.4449 14.8584L55.9374 15.2834L55.5839 14.8603ZM56.4723 14.8896L56.8589 15.3494L56.3514 15.7744L55.9649 15.3146L56.4723 14.8896ZM56.5053 14.8621L56.9615 14.4811L57.348 14.9409L56.8919 15.3219L56.5053 14.8621ZM57.3736 14.9757L57.8133 15.4996L57.3572 15.8806L56.9175 15.3567L57.3736 14.9757ZM57.4066 14.9482L57.8463 14.58L58.2859 15.1039L57.8463 15.4721L57.4066 14.9482ZM57.8774 14.5525L58.2969 14.2008L58.7366 14.7247L58.3171 15.0764L57.8774 14.5525ZM58.3299 14.1733L58.7494 13.8216L59.1891 14.3455L58.7696 14.6972L58.3299 14.1733ZM58.7824 13.7959L59.2056 13.4424L59.6452 13.9663L59.222 14.3199L58.7824 13.7959ZM59.2367 13.4131L59.68 13.043L60.1197 13.5669L59.6764 13.937L59.2367 13.4131ZM59.7112 13.0155L60.1343 12.662L60.574 13.1859L60.1508 13.5395L59.7112 13.0155ZM60.1673 12.6345L60.6143 12.2608L61.054 12.7847L60.6088 13.1584L60.1691 12.6345H60.1673ZM60.6454 12.2333L61.0906 11.8596L61.5303 12.3835L61.0833 12.7572L60.6436 12.2333H60.6454ZM61.1236 11.8321L61.6548 11.387L62.0945 11.9109L61.5632 12.356L61.1236 11.8321ZM61.6878 11.3613L62.1861 10.9436L62.6257 11.4676L62.1275 11.8852L61.6878 11.3613ZM62.2172 10.9162L62.7851 10.4399L63.2248 10.9638L62.6569 11.4401L62.2172 10.9162ZM62.1897 10.8832L61.8032 10.4234L62.3711 9.94708L62.7576 10.4069L62.1897 10.8832ZM61.7757 10.3904L61.4222 9.96723L61.9901 9.49093L62.3436 9.9141L61.7757 10.3904ZM61.3947 9.93425L61.0723 9.54955L61.6402 9.07326L61.9626 9.45796L61.3947 9.93425ZM61.0448 9.51658L60.7242 9.13371L61.2921 8.65741L61.6127 9.04028L61.0448 9.51658ZM60.6949 9.0989L60.3633 8.70504L60.9312 8.22874L61.2628 8.62261L60.6949 9.0989ZM60.3377 8.67207L60.0061 8.27637L60.574 7.80008L60.9056 8.19577L60.3377 8.67207ZM59.9786 8.2434L59.6525 7.8532L60.2204 7.37691L60.5465 7.7671L59.9786 8.2434ZM59.6232 7.8184L59.2642 7.38973L59.8321 6.91343L60.1911 7.3421L59.6232 7.8184ZM59.5903 7.84588L59.092 8.26355L58.7329 7.83488L59.2312 7.41721L59.5903 7.84588ZM58.7054 7.80191L58.3152 7.33477L58.8135 6.9171L59.2037 7.38423L58.7054 7.80191ZM58.6725 7.82939L58.1412 8.27454L57.751 7.8074L58.2823 7.36225L58.6725 7.82939ZM57.7235 7.77443L57.2784 7.24318L57.8096 6.79802L58.2548 7.32928L57.7235 7.77443ZM57.6906 7.80191L57.2454 8.17562L56.8003 7.64436L57.2454 7.27065L57.6906 7.80191ZM57.2124 8.20127L56.7673 8.57498L56.3221 8.04372L56.7673 7.67001L57.2124 8.20127ZM56.7343 8.60245L56.3111 8.95601L55.866 8.42476L56.2892 8.0712L56.7343 8.60245ZM56.2782 8.98349L55.8348 9.35354L55.3897 8.82228L55.833 8.45224L56.2782 8.98349ZM55.8037 9.38285L55.3805 9.73641L54.9354 9.20515L55.3585 8.85159L55.8037 9.38285ZM55.3494 9.76389L54.9299 10.1156L54.4847 9.58436L54.9042 9.23263L55.3494 9.76389ZM54.8969 10.1431L54.4774 10.4948L54.0322 9.96356L54.4517 9.61184L54.8969 10.1431ZM54.4444 10.5205L54.0048 10.8887L53.5596 10.3574L53.9993 9.98921L54.4444 10.5205ZM53.9736 10.9162L53.5175 11.2972L53.0723 10.7659L53.5285 10.3849L53.9736 10.9162ZM53.4845 11.3247L52.9771 11.7497L52.5319 11.2184L53.0393 10.7934L53.4845 11.3247ZM52.9459 11.7772L52.389 12.2425L51.9439 11.7112L52.5008 11.2459L52.9459 11.7772ZM52.7755 12.7701L52.008 13.4131L51.6178 12.9459L52.3853 12.3029L52.7755 12.7701ZM52.8049 12.8049L53.1639 13.2335L52.3963 13.8765L52.0373 13.4479L52.8049 12.8049ZM53.1914 13.2665L53.5175 13.6567L52.7499 14.2997L52.4238 13.9095L53.1914 13.2665ZM53.545 13.6897L53.8765 14.0854L53.109 14.7284L52.7774 14.3327L53.545 13.6897ZM53.904 14.1183L54.2356 14.5122L53.468 15.1552L53.1364 14.7613L53.904 14.1183ZM54.2631 14.5452L54.5836 14.928L53.8161 15.571L53.4955 15.1882L54.2631 14.5452ZM54.613 14.9629L54.9354 15.3476L54.1678 15.9906L53.8454 15.6059L54.613 14.9629ZM54.9628 15.3805L55.3164 15.8037L54.5488 16.4467L54.1953 16.0235L54.9628 15.3805ZM55.3439 15.8348L55.7304 16.2947L54.9628 16.9377L54.5763 16.4778L55.3439 15.8348ZM55.3769 15.8092L55.9338 15.3439L56.3203 15.8037L55.7634 16.269L55.3769 15.8092ZM56.3459 15.8367L56.7856 16.3606L56.2287 16.8259L55.789 16.302L56.3459 15.8367ZM56.3789 15.8092L56.8864 15.3842L57.326 15.9081L56.8186 16.3331L56.3789 15.8092ZM57.3535 15.9411L57.8316 16.5108L57.3242 16.9358L56.8461 16.3661L57.3535 15.9411ZM57.3846 15.9136L57.8408 15.5326L58.3189 16.1023L57.8628 16.4833L57.3846 15.9136ZM57.8738 15.5051L58.3134 15.1369L58.7915 15.7066L58.3519 16.0748L57.8738 15.5051ZM58.3446 15.1094L58.7641 14.7577L59.2422 15.3274L58.8227 15.6791L58.3446 15.1094ZM58.797 14.732L59.2165 14.3803L59.6947 14.95L59.2752 15.3018L58.797 14.732ZM59.2495 14.3528L59.6727 13.9993L60.1508 14.569L59.7277 14.9226L59.2495 14.3528ZM59.7038 13.9718L60.1472 13.6017L60.6253 14.1715L60.182 14.5415L59.7038 13.9718ZM60.1783 13.5724L60.6015 13.2189L61.0796 13.7886L60.6564 14.1422L60.1783 13.5724ZM60.6344 13.1914L61.0796 12.8177L61.5577 13.3874L61.1107 13.7611L60.6326 13.1914H60.6344ZM61.1126 12.7902L61.5596 12.4165L62.0377 12.9862L61.5925 13.3599L61.1144 12.7902H61.1126ZM61.5907 12.3908L62.122 11.9457L62.6001 12.5154L62.0688 12.9606L61.5907 12.3908ZM62.1531 11.9182L62.6514 11.5005L63.1295 12.0703L62.6312 12.4879L62.1531 11.9182ZM62.6844 11.4731L63.2523 10.9968L63.7304 11.5665L63.1625 12.0428L62.6844 11.4731ZM62.8181 10.4124L63.5124 9.83167L63.952 10.3556L63.2577 10.9363L62.8181 10.4124ZM62.7906 10.3794L62.4041 9.9196L63.0984 9.33888L63.4849 9.79869L62.7906 10.3794ZM62.3766 9.88663L62.023 9.46345L62.7173 8.88274L63.0709 9.30591L62.3766 9.88663ZM61.9956 9.43048L61.6731 9.04578L62.3674 8.46506L62.6899 8.84976L61.9956 9.43048ZM61.6457 9.0128L61.3251 8.62993L62.0194 8.04922L62.34 8.43209L61.6457 9.0128ZM61.2958 8.59696L60.9642 8.2031L61.6585 7.62238L61.9901 8.01624L61.2958 8.59696ZM60.9385 8.16829L60.607 7.7726L61.3013 7.19188L61.6328 7.58757L60.9385 8.16829ZM60.5795 7.73962L60.2534 7.34943L60.9477 6.76871L61.2738 7.15891L60.5795 7.73962ZM60.2241 7.31645L59.865 6.88778L60.5593 6.30707L60.9184 6.73574L60.2241 7.31645ZM59.8376 6.85481L59.4474 6.38767L60.1417 5.80696L60.5319 6.27409L59.8376 6.85481ZM59.8046 6.88046L59.2367 7.35675L58.8465 6.88962L59.4144 6.41332L59.8046 6.88046ZM58.8172 6.85664L58.372 6.32539L58.9399 5.84909L59.3851 6.38035L58.8172 6.85664ZM58.7842 6.88412L58.2859 7.3018L57.8408 6.77054L58.3391 6.35287L58.7842 6.88412ZM57.8133 6.73757L57.3297 6.16052L57.828 5.74284L58.3116 6.31989L57.8133 6.73757ZM57.7803 6.76505L57.2491 7.2102L56.7654 6.63315L57.2967 6.18799L57.7803 6.76505ZM57.2179 7.23585L56.7709 7.60956L56.2873 7.03251L56.7325 6.6588L57.2161 7.23585H57.2179ZM56.7398 7.63704L56.2946 8.01075L55.811 7.43369L56.2562 7.05998L56.7398 7.63704ZM56.2617 8.03823L55.8385 8.39178L55.3549 7.81473L55.7781 7.46117L56.2617 8.03823ZM55.8055 8.41926L55.3622 8.78931L54.8786 8.21226L55.3219 7.84221L55.8055 8.41926ZM55.3311 8.81679L54.9079 9.17035L54.4243 8.5933L54.8474 8.23974L55.3311 8.81679ZM54.8749 9.19966L54.4554 9.55138L53.9718 8.97433L54.3913 8.62261L54.8749 9.19966ZM54.4243 9.57703L54.0048 9.92876L53.5211 9.35171L53.9406 8.99998L54.4243 9.57703ZM53.9718 9.95624L53.5321 10.3245L53.0485 9.7474L53.4882 9.37919L53.9718 9.95624ZM53.4992 10.3519L53.043 10.733L52.5594 10.1559L53.0155 9.77488L53.4992 10.3519ZM53.0119 10.7604L52.5044 11.1855L52.0208 10.6084L52.5282 10.1834L53.0119 10.7604ZM52.4733 11.2129L51.9164 11.6782L51.4328 11.1012L51.9897 10.6359L52.4733 11.2129ZM52.356 12.2699L51.5885 12.9129L51.1433 12.3817L51.9109 11.7387L52.356 12.2699ZM51.9768 13.4405L51.0004 14.2576L50.6102 13.7904L51.5866 12.9734L51.9768 13.4405ZM52.0043 13.4735L52.3634 13.9022L51.387 14.7192L51.0279 14.2905L52.0043 13.4735ZM52.3908 13.9352L52.7169 14.3253L51.7405 15.1424L51.4144 14.7522L52.3908 13.9352ZM52.7462 14.3602L53.0778 14.7558L52.1014 15.5729L51.7698 15.1772L52.7462 14.3602ZM53.1053 14.7888L53.4369 15.1827L52.4605 15.9997L52.1289 15.6059L53.1053 14.7888ZM53.4625 15.2157L53.7831 15.5985L52.8067 16.4156L52.4861 16.0327L53.4625 15.2157ZM53.8124 15.6315L54.1348 16.0162L53.1584 16.8332L52.836 16.4485L53.8124 15.6315ZM54.1623 16.051L54.5159 16.4742L53.5395 17.2912L53.1859 16.868L54.1623 16.051ZM54.5433 16.5053L54.9299 16.9651L53.9535 17.7822L53.5669 17.3224L54.5433 16.5053ZM54.9574 16.9999L55.397 17.5239L54.4206 18.3409L53.9809 17.817L54.9574 16.9999ZM54.9903 16.9725L55.7579 16.3295L56.1976 16.8534L55.43 17.4964L54.9903 16.9725ZM56.225 16.8864L56.7032 17.4561L55.9356 18.0991L55.4575 17.5294L56.225 16.8864ZM56.2562 16.8589L56.8131 16.3936L57.2912 16.9633L56.7343 17.4286L56.2562 16.8589ZM57.3187 16.9963L57.7803 17.5477L57.2234 18.013L56.7618 17.4616L57.3187 16.9963ZM57.3517 16.9688L57.8591 16.5438L58.3207 17.0952L57.8133 17.5202L57.3517 16.9688ZM57.8902 16.5163L58.3464 16.1353L58.808 16.6867L58.3519 17.0677L57.8902 16.5163ZM58.3794 16.1078L58.819 15.7396L59.2807 16.291L58.841 16.6592L58.3794 16.1078ZM58.8502 15.7139L59.2697 15.3622L59.7313 15.9136L59.3118 16.2653L58.8502 15.7139ZM59.3027 15.3347L59.7222 14.983L60.1838 15.5344L59.7643 15.8861L59.3027 15.3347ZM59.7533 14.9555L60.1765 14.602L60.6381 15.1534L60.2149 15.5069L59.7533 14.9555ZM60.2094 14.5745L60.6528 14.2044L61.1144 14.7558L60.6711 15.1259L60.2094 14.5745ZM60.6839 14.177L61.1071 13.8234L61.5687 14.3748L61.1456 14.7284L60.6839 14.177ZM61.1401 13.7959L61.5852 13.4222L62.0469 13.9736L61.5999 14.3473L61.1382 13.7959H61.1401ZM61.6182 13.3947L62.0652 13.021L62.5268 13.5724L62.0817 13.9461L61.62 13.3947H61.6182ZM62.0963 12.9935L62.6276 12.5484L63.0892 13.0998L62.558 13.545L62.0963 12.9935ZM62.6587 12.5209L63.157 12.1032L63.6186 12.6546L63.1204 13.0723L62.6587 12.5209ZM63.19 12.0776L63.7579 11.6013L64.2195 12.1527L63.6516 12.629L63.19 12.0776ZM63.2852 10.9693L63.9795 10.3886L64.4576 10.9583L63.7634 11.539L63.2852 10.9693ZM63.5454 9.80419L64.3496 9.13004L64.7892 9.65397L63.985 10.3281L63.5454 9.80419ZM63.5179 9.77121L63.1313 9.3114L63.9356 8.63726L64.3221 9.09707L63.5179 9.77121ZM63.1039 9.27843L62.7503 8.85526L63.5545 8.18112L63.9081 8.60429L63.1039 9.27843ZM62.7228 8.82228L62.4004 8.43758L63.2046 7.76344L63.527 8.14814L62.7228 8.82228ZM62.3711 8.40461L62.0505 8.02174L62.8547 7.3476L63.1753 7.73046L62.3711 8.40461ZM62.023 7.98693L61.6915 7.59307L62.4957 6.91893L62.8272 7.31462L62.023 7.98876V7.98693ZM61.664 7.5601L61.3324 7.1644L62.1366 6.49026L62.4682 6.88595L61.664 7.5601ZM61.3049 7.13143L60.9788 6.74123L61.7831 6.06709L62.1091 6.45729L61.3049 7.13143ZM60.9495 6.70643L60.5905 6.27776L61.3947 5.60361L61.7537 6.03228L60.9495 6.70643ZM60.563 6.24478L60.1728 5.77765L60.977 5.1035L61.3672 5.57064L60.563 6.24478ZM60.1435 5.74467L59.6983 5.21342L60.5025 4.53927L60.9477 5.07053L60.1435 5.74467ZM60.1124 5.77215L59.4181 6.35287L58.9729 5.82161L59.6672 5.2409L60.1124 5.77215ZM58.9454 5.78864L58.4618 5.21159L59.1561 4.63087L59.6397 5.20792L58.9454 5.78864ZM58.9125 5.81612L58.3446 6.29241L57.8609 5.71536L58.4288 5.23906L58.9125 5.81612ZM57.8316 5.68239L57.3627 5.12365L57.9305 4.64736L58.3995 5.20609L57.8316 5.68239ZM57.7987 5.70803L57.3004 6.12571L56.8314 5.56698L57.3297 5.1493L57.7987 5.70803ZM57.2692 6.15319L56.738 6.59834L56.269 6.03961L56.8003 5.59446L57.2692 6.15319ZM56.705 6.62582L56.258 6.99953L55.789 6.4408L56.236 6.06709L56.705 6.62582ZM56.2269 7.02701L55.7817 7.40072L55.3127 6.84199L55.7579 6.46828L56.2269 7.02701ZM55.7487 7.42637L55.3256 7.77993L54.8566 7.22119L55.2798 6.86763L55.7487 7.42637ZM55.2926 7.80924L54.8493 8.17928L54.3803 7.62055L54.8236 7.2505L55.2926 7.80924ZM54.8181 8.20676L54.395 8.56032L53.926 8.00159L54.3492 7.64803L54.8181 8.20676ZM54.3638 8.5878L53.9443 8.93953L53.4753 8.38079L53.8948 8.02907L54.3638 8.5878ZM53.9113 8.967L53.4918 9.31873L53.0229 8.76L53.4424 8.40827L53.9113 8.967ZM53.4589 9.34438L53.0192 9.71259L52.5502 9.15386L52.9899 8.78565L53.4589 9.34438ZM52.988 9.74007L52.5319 10.1211L52.0629 9.56238L52.5191 9.18134L52.988 9.74007ZM52.5008 10.1486L51.9933 10.5736L51.5244 10.0149L52.0318 9.58985L52.5008 10.1486ZM51.9604 10.6011L51.4034 11.0664L50.9345 10.5076L51.4914 10.0423L51.9604 10.6011ZM51.8834 11.7057L51.1158 12.3487L50.6322 11.7717L51.3998 11.1287L51.8834 11.7057ZM51.5573 12.9404L50.5809 13.7575L50.1358 13.2262L51.1122 12.4092L51.5573 12.9404ZM49.6027 15.4849L49.621 15.4703L49.7089 15.4337L49.6998 15.4043L50.9949 14.3199L51.354 14.7485L49.8665 15.9961L49.8573 15.9759L49.7364 16.0107C49.6814 15.8422 49.6357 15.6663 49.6008 15.4849H49.6027ZM49.8976 16.0693L49.8848 16.0364L51.3833 14.7815L51.7094 15.1717L50.0955 16.5255L50.0826 16.5017L49.9617 16.553C49.894 16.4192 49.8353 16.28 49.7822 16.1353L49.8976 16.0712V16.0693ZM50.1321 16.5896L50.1174 16.5621L51.7387 15.2028L52.0703 15.5985L50.3959 17.0018L50.3794 16.9835L50.2658 17.0604C50.1761 16.9358 50.0955 16.8039 50.0222 16.6665L50.1321 16.5896ZM50.4454 17.0622L50.4234 17.0347L52.0977 15.6315L52.4293 16.0254L50.7549 17.4286L50.733 17.403L50.6176 17.4799C50.5223 17.3791 50.4307 17.2747 50.3483 17.1648L50.449 17.0604L50.4454 17.0622ZM50.7952 17.4817L50.7806 17.4634L52.455 16.0602L52.7755 16.443L51.1543 17.8023L51.1305 17.784L51.0444 17.8701C50.9253 17.7785 50.8117 17.6796 50.7055 17.5752L50.7952 17.4836V17.4817ZM51.2111 17.8463L51.1891 17.8298L52.803 16.476L53.1254 16.8607L51.6269 18.1156L51.5976 18.0973L51.5262 18.1852C51.3943 18.1101 51.2661 18.0295 51.1451 17.9434L51.2093 17.8463H51.2111ZM52.9514 18.5864L52.8891 18.6816C52.6675 18.6377 52.4531 18.579 52.2498 18.5094L52.2791 18.4343L52.2571 18.4233L53.5376 17.3517L53.9242 17.8115L52.9844 18.5992L52.9532 18.5864H52.9514ZM53.9681 18.6835L53.9187 18.7897C53.6072 18.7842 53.3068 18.7567 53.0229 18.7073L53.0467 18.6248L53.0284 18.6175L53.9498 17.8444L54.3895 18.3684L54.0011 18.6945L53.9681 18.6835ZM54.6258 18.7659C54.4334 18.7824 54.2466 18.7915 54.0615 18.7915L54.0762 18.7201L54.0487 18.7109L54.4169 18.4032L54.6349 18.6633L54.613 18.6688L54.6276 18.7659H54.6258ZM55.3787 18.5314L55.3366 18.6706C55.1442 18.7054 54.9537 18.7329 54.7668 18.7512L54.7229 18.6377L54.6789 18.6487L54.4481 18.3739L55.4245 17.5568L55.9026 18.1266L55.4098 18.5387L55.3787 18.5314ZM56.1206 18.5113C55.9081 18.5589 55.692 18.6047 55.4721 18.6468L55.4831 18.5589L55.4611 18.5534L55.9301 18.1614L56.1298 18.3995L56.1005 18.4087L56.1206 18.5113ZM56.967 18.1815L56.8754 18.3207C56.6739 18.3757 56.4687 18.4288 56.258 18.4783L56.2085 18.372L56.1719 18.383L55.9612 18.1321L56.7288 17.4891L57.1905 18.0405L57.0036 18.1962L56.9651 18.1797L56.967 18.1815ZM57.2381 18.2163C57.1776 18.2346 57.1172 18.253 57.0567 18.2695L57.0695 18.2255L57.0494 18.2163L57.2198 18.0734L57.2436 18.1027L57.2198 18.1119L57.2399 18.2163H57.2381ZM57.7327 18.057C57.6155 18.0973 57.4946 18.1357 57.3755 18.1742L57.326 18.0734L57.2875 18.0881L57.2546 18.0478L57.8115 17.5825L58.0221 17.8335L57.9965 17.8444L58.0276 17.9562C57.9305 17.9928 57.8335 18.0276 57.7364 18.0606L57.7327 18.057ZM58.1577 17.9031L58.1009 17.7987L58.0606 17.8151L57.8408 17.5532L58.3482 17.1282L58.6999 17.5477L58.678 17.5587L58.7164 17.6704C58.5296 17.7529 58.3427 17.8316 58.1559 17.9031H58.1577ZM58.8502 17.6118L58.7842 17.5092L58.7402 17.5294L58.3812 17.1007L58.8373 16.7197L59.299 17.2711L59.2678 17.2875L59.3081 17.3901C59.1561 17.4671 59.004 17.5404 58.8502 17.61V17.6118ZM59.4327 17.3279L59.3686 17.2363L59.3375 17.2527L58.8685 16.694L59.3081 16.3258L59.8486 16.9706L59.8192 16.9871L59.8669 17.0934C59.724 17.174 59.5793 17.2527 59.4345 17.3279H59.4327ZM59.9878 17.0219L59.9163 16.9285L59.8834 16.9468L59.3393 16.2965L59.7588 15.9448L60.3542 16.6555L60.3285 16.672L60.3816 16.7838C60.2516 16.8662 60.1197 16.945 59.9878 17.0219ZM60.5044 16.7068L60.4274 16.6116L60.3926 16.6336L59.7936 15.9191L60.2131 15.5674L60.8488 16.3276L60.8176 16.3496L60.8781 16.4595C60.7554 16.5438 60.6308 16.6281 60.5062 16.7087L60.5044 16.7068ZM60.9935 16.3753L60.9111 16.2837L60.8836 16.3038L60.2442 15.5417L60.6674 15.1882L61.3232 15.9704L61.2884 15.9979L61.3581 16.1115C61.239 16.2031 61.1181 16.291 60.9953 16.3789L60.9935 16.3753ZM61.4735 16.0199L61.38 15.9264L61.3562 15.9448L60.6986 15.1607L61.1419 14.7907L61.8032 15.5802L61.7739 15.604L61.849 15.7158C61.7263 15.8202 61.6017 15.9209 61.4735 16.0217V16.0199ZM62.2575 15.3512C62.1604 15.4428 62.0597 15.5307 61.9589 15.6187L61.8618 15.5289L61.8344 15.5509L61.173 14.7613L61.5962 14.4078L62.241 15.179L62.2099 15.2047L62.2887 15.3219C62.2777 15.3329 62.2667 15.3421 62.2557 15.353L62.2575 15.3512ZM62.3986 15.2193L62.3015 15.1296L62.2758 15.1515L61.631 14.3803L62.078 14.0066L62.688 14.7357L62.6587 14.7632L62.7448 14.8749C62.6331 14.9922 62.5177 15.1076 62.4004 15.2193H62.3986ZM62.8437 14.7668L62.7393 14.6826L62.7155 14.7046L62.1073 13.9773L62.5525 13.6036L63.102 14.2594L63.0746 14.2887L63.1716 14.395C63.0654 14.5195 62.9555 14.6441 62.8419 14.765L62.8437 14.7668ZM63.2687 14.2832L63.1533 14.2044L63.1313 14.2283L62.5854 13.5761L63.1167 13.1309L63.5637 13.6659L63.538 13.697L63.6424 13.8014C63.5234 13.9645 63.397 14.1257 63.2669 14.2832H63.2687ZM63.7304 13.6805L63.6113 13.6091L63.5912 13.6347L63.1478 13.1071L63.6461 12.6894L63.9667 13.0705L63.9465 13.0998L64.0546 13.1914C63.952 13.3563 63.844 13.5193 63.7304 13.6805ZM64.1316 13.065L64.0125 13.0045L63.9923 13.0338L63.6791 12.662L64.247 12.1857L64.3697 12.3322L64.3496 12.3689L64.4632 12.4476C64.3606 12.6583 64.2488 12.8635 64.1297 13.0668L64.1316 13.065ZM64.5273 12.3139L64.4063 12.2663L64.3917 12.2919L64.28 12.1582L64.5877 11.8999L64.6921 11.9292C64.6408 12.0593 64.5859 12.1875 64.5254 12.3139H64.5273ZM64.7416 11.8046L64.6079 11.7991L64.6024 11.8321L64.2543 12.1234L63.7927 11.572L64.487 10.9913L64.7782 11.3393L64.7654 11.3741L64.8332 11.4071L64.868 11.4492C64.8295 11.5702 64.7874 11.6892 64.7434 11.8065L64.7416 11.8046ZM64.912 11.299L64.7984 11.2752L64.7929 11.2917L64.5181 10.9638L64.9816 10.5754V10.5846L65.0805 10.5919C65.0384 10.8301 64.9816 11.0664 64.9138 11.2972L64.912 11.299ZM65.1025 10.4637L64.9797 10.4838V10.5205L64.4906 10.9308L64.0125 10.3611L64.8167 9.68695L65.0567 9.97272L65.0439 10.024L65.1263 10.0552L65.1501 10.0845C65.1373 10.2109 65.1208 10.3373 65.1006 10.4637H65.1025ZM65.1758 9.72542C65.1739 9.7932 65.1684 9.86098 65.1648 9.92876L65.0732 9.91777V9.92509L64.8515 9.6613L65.0878 9.46345V9.47811L65.1813 9.47444C65.1813 9.55871 65.1794 9.64115 65.1758 9.72725V9.72542ZM65.1794 9.34438L65.075 9.37369L65.0805 9.41033L64.8222 9.62649L64.3825 9.10257L65.0274 8.56215L65.0347 8.58414L65.1226 8.56398C65.1574 8.81679 65.1758 9.07692 65.1794 9.34621V9.34438ZM65.1043 8.43758L65.0017 8.48888L65.0127 8.52002L64.3551 9.07142L63.9685 8.61161L64.8735 7.8532L64.8845 7.87885L64.9816 7.84954C65.0329 8.04006 65.0732 8.23607 65.1043 8.43941V8.43758ZM64.9486 7.72497L64.846 7.78359L64.857 7.81107L63.9429 8.57681L63.5893 8.15364L64.6683 7.2505L64.6793 7.27249L64.7801 7.23218C64.8442 7.39156 64.901 7.55643 64.9504 7.72497H64.9486ZM64.7288 7.11494L64.6298 7.18272L64.6445 7.21203L63.5582 8.12249L63.2358 7.73779L64.4063 6.75772L64.421 6.78703L64.5456 6.7394C64.6115 6.86214 64.672 6.98854 64.7288 7.11861V7.11494ZM64.4833 6.62216L64.3752 6.69177L64.3862 6.71375L63.2083 7.70115L62.8877 7.31828L64.1169 6.28875L64.1371 6.3144L64.2433 6.24295C64.3294 6.36569 64.41 6.49209 64.4833 6.62216ZM64.1682 6.13853L64.073 6.23746L64.0894 6.25761L62.8602 7.28714L62.5286 6.89328L63.7579 5.86375L63.7743 5.8839L63.8916 5.80513C63.9887 5.91321 64.0803 6.02495 64.1664 6.14037L64.1682 6.13853ZM63.4666 5.38745C63.5838 5.4882 63.6974 5.59446 63.8037 5.7062L63.7102 5.80329L63.7322 5.82894L62.503 6.85847L62.1714 6.46278L63.3493 5.47538L63.3695 5.49004L63.4666 5.38562V5.38745ZM63.0251 5.05038C63.1423 5.12915 63.2559 5.21342 63.364 5.30135L63.2871 5.42958L63.3127 5.44973L62.1421 6.42981L61.816 6.03961L62.9024 5.12915L62.9298 5.1493L63.0269 5.05038H63.0251ZM62.3693 4.82688L62.459 4.7188C62.6166 4.79941 62.7686 4.88551 62.9152 4.97893L62.8474 5.08885L62.8675 5.1035L61.7886 6.00664L61.4295 5.57797L62.3436 4.8104L62.3674 4.82688H62.3693ZM61.697 4.54111L61.7794 4.42936C61.9736 4.49714 62.1604 4.57225 62.34 4.65835L62.2832 4.7701L62.307 4.78475L61.402 5.54316L61.0118 5.07602L61.6695 4.52462L61.6988 4.54111H61.697ZM60.8305 4.30845L60.8854 4.19304C61.151 4.24434 61.4075 4.30845 61.6512 4.38906L61.6072 4.49164L61.6273 4.50264L60.9825 5.04305L60.5374 4.5118L60.7957 4.29563L60.8305 4.30662V4.30845ZM60.2919 4.21136L60.2974 4.10511C60.3194 4.10694 60.3432 4.10878 60.3652 4.11244C60.4971 4.12709 60.6271 4.14724 60.7535 4.16923L60.7315 4.27548L60.7462 4.28097L60.5099 4.47882L60.2864 4.21136H60.2937H60.2919ZM59.6764 4.19304L59.713 4.20037L59.757 4.07214C59.8889 4.07397 60.0208 4.0813 60.1545 4.09229L60.1801 4.22052L60.2314 4.21686L60.4751 4.5063L59.6709 5.18044L59.1872 4.60339L59.6764 4.19304ZM58.8941 4.11427C59.1359 4.08679 59.3796 4.07214 59.6232 4.07214L59.6141 4.17839H59.6232L59.1598 4.56858L58.8813 4.23518H58.8978L58.8941 4.11244V4.11427ZM58.3464 4.32677L58.3629 4.19304C58.4948 4.1674 58.6285 4.14724 58.7604 4.12893L58.7714 4.16923H58.7696L58.7732 4.17472L58.7934 4.248L58.83 4.2425L59.125 4.59423L58.4307 5.17495L57.9617 4.61621L58.3097 4.32494H58.3446L58.3464 4.32677ZM57.8243 4.31761C57.9599 4.28097 58.0954 4.24983 58.2328 4.22052L58.2438 4.32677L57.936 4.58507L57.8225 4.44951L57.8499 4.44035L57.8243 4.31761ZM57.6832 4.35608L57.74 4.47699L57.7785 4.46417L57.9031 4.61255L57.3352 5.08885L57.0183 4.71147L57.0494 4.69682L57.0128 4.57774C57.2344 4.49348 57.4579 4.4202 57.6832 4.35608ZM56.879 4.63087L56.9468 4.74628L56.9798 4.73162L57.304 5.11816L56.8058 5.53583L56.3569 5.00092L56.3862 4.98443L56.3404 4.86535C56.5181 4.78109 56.6995 4.70231 56.8809 4.63087H56.879ZM56.2067 4.92764L56.2837 5.03939L56.3185 5.02107L56.7728 5.56331L56.2415 6.00847L55.6883 5.34715L55.7158 5.33066L55.6645 5.21708C55.8422 5.11633 56.0235 5.02107 56.2067 4.9313V4.92764ZM55.5381 5.28669L55.6168 5.38928L55.6516 5.36913L56.2085 6.03411L55.7634 6.40782L55.146 5.6714L55.1717 5.65308L55.1149 5.54866C55.2541 5.45889 55.3952 5.37096 55.5381 5.28669ZM54.994 5.6256L55.0783 5.71903L55.1112 5.69521L55.7304 6.43347L55.2853 6.80718L54.6313 6.02679L54.6569 6.0048L54.5928 5.90588C54.7247 5.80879 54.8584 5.71719 54.994 5.6256ZM54.3583 6.07991C54.3968 6.0506 54.4371 6.01946 54.4774 5.99015L54.569 6.07808L54.6001 6.05243L55.2541 6.83283L54.831 7.18639L54.1605 6.38584L54.1861 6.36386L54.122 6.2631C54.2008 6.20082 54.2795 6.13853 54.3583 6.07625V6.07991ZM54.0103 6.35836L54.0964 6.44263L54.1257 6.41698L54.7961 7.21753L54.3528 7.58757L53.6878 6.79253L53.7098 6.77237L53.6402 6.67345C53.7611 6.56537 53.8839 6.46095 54.0103 6.35653V6.35836ZM53.5358 6.77054L53.6256 6.85115L53.6585 6.82184L54.3235 7.61505L53.9003 7.96861L53.2537 7.19555L53.2775 7.17173L53.2079 7.08197C53.316 6.97572 53.4259 6.87313 53.5376 6.77054H53.5358ZM53.1053 7.18089L53.1951 7.25234L53.2225 7.22486L53.8674 7.99426L53.4479 8.34599L52.8397 7.62055L52.8671 7.58941L52.792 7.50331C52.8946 7.39339 52.9972 7.28531 53.1035 7.17906L53.1053 7.18089ZM52.6968 7.60773L52.792 7.67551L52.8122 7.65169L53.4149 8.37163L52.9954 8.72336L52.444 8.06387L52.4678 8.03456L52.3908 7.95213C52.4898 7.83488 52.5905 7.71947 52.6949 7.60589L52.6968 7.60773ZM52.3011 8.06204L52.3945 8.12432L52.4165 8.09868L52.9642 8.75084L52.5246 9.11905L52.0501 8.55299L52.0721 8.52368L51.9933 8.44491C52.0922 8.31484 52.1948 8.18661 52.3011 8.06021V8.06204ZM51.9072 8.55849L52.0006 8.61711L52.0226 8.5878L52.4916 9.14653L52.0355 9.52757L51.6709 9.09341L51.6984 9.05494L51.6086 8.97067C51.7039 8.83144 51.8028 8.69405 51.9054 8.55849H51.9072ZM51.5299 9.08974L51.6343 9.14836L51.6471 9.13004L52.0043 9.55505L51.4969 9.98005L51.2752 9.71443L51.2972 9.67779L51.2038 9.60085C51.3064 9.42865 51.4163 9.25828 51.5299 9.08791V9.08974ZM51.07 9.82983C51.0902 9.79503 51.1103 9.76205 51.1305 9.72725L51.2367 9.77854L51.2514 9.75473L51.4639 10.0094L50.907 10.4747L50.8722 10.4344L50.8942 10.3977L50.7989 10.3281C50.8868 10.1577 50.9766 9.99104 51.07 9.82983ZM50.733 10.4563L50.8374 10.4967L50.8502 10.4747L50.874 10.504L50.7037 10.6469L50.6982 10.6249L50.645 10.6304C50.6743 10.5718 50.7018 10.515 50.7311 10.4582L50.733 10.4563ZM50.5644 10.8007L50.7275 10.733L50.7183 10.6908L50.9052 10.5351L51.3741 11.0939L50.6066 11.7369L50.3922 11.4822L50.4105 11.4474L50.3061 11.3741C50.3904 11.1781 50.4783 10.9876 50.5663 10.8007H50.5644ZM50.2457 11.5079L50.3538 11.55L50.3684 11.5225L50.5699 11.7643L50.101 12.1564V12.1344L49.9947 12.1289C50.0753 11.9164 50.1577 11.7094 50.2438 11.5079H50.2457ZM49.9489 12.2608L50.1101 12.2425V12.2095L50.5992 11.7973L51.0829 12.3744L50.1064 13.1914L49.872 12.9129L49.8903 12.8726L49.7694 12.7975C49.8207 12.6198 49.8793 12.4403 49.9452 12.259L49.9489 12.2608ZM49.7327 12.9404L49.8445 12.9771L49.8536 12.9551L50.0753 13.2189L49.7071 13.5266L49.7034 13.4973H49.6082C49.6411 13.316 49.6833 13.1291 49.7327 12.9386V12.9404ZM49.5844 13.6494L49.7199 13.6146L49.7144 13.5816L50.1028 13.2555L50.5479 13.7868L49.6265 14.5598L49.6228 14.5397L49.5129 14.5507C49.5129 14.2612 49.5349 13.9608 49.5844 13.6512V13.6494ZM45.9114 20.6345C47.0673 18.8099 47.6609 18.4142 48.5457 16.1133C48.6006 15.9631 48.7911 15.4135 48.9798 15.4391C49.0733 15.452 49.1355 15.5839 49.185 15.7781C49.5569 17.2344 50.3538 18.1852 51.7222 18.8062C51.9054 18.8886 52.0245 18.9747 52.0208 19.0682C52.0135 19.2587 51.4383 19.3503 51.2807 19.3778C48.8608 19.8467 48.368 20.3652 46.3657 21.1804C45.9242 21.3599 45.6549 21.0338 45.9095 20.6326L45.9114 20.6345ZM22.5728 6.24295L22.6791 6.3144L22.6992 6.28875L23.9284 7.31828L23.6078 7.70115L22.4299 6.71375L22.4409 6.69177L22.3328 6.62216C22.4079 6.49209 22.4886 6.36569 22.5728 6.24295ZM37.3014 14.6936C37.2941 14.9207 37.2739 15.1405 37.2391 15.353L37.1365 15.3347L37.1292 15.3585L35.8487 14.2869L36.2389 13.8197L37.1786 14.6075L37.1713 14.6404L37.2996 14.6954L37.3014 14.6936ZM30.3676 11.9292L29.9481 11.5775L30.2797 11.1818L30.6992 11.5335L30.3676 11.9292ZM30.7303 11.561L31.1498 11.9127L30.8183 12.3084L30.3987 11.9567L30.7303 11.561ZM29.1054 11.6581L29.5286 12.0116L29.208 12.3945L28.7848 12.041L29.1054 11.6581ZM28.7519 12.0135L28.3085 11.6434L28.6291 11.2606L29.0724 11.6306L28.7519 12.0135ZM29.1329 11.6251L29.4645 11.2312L29.8876 11.5848L29.5561 11.9787L29.1329 11.6251ZM29.9188 11.6105L30.3383 11.9622L30.0067 12.356L29.5872 12.0043L29.9188 11.6105ZM29.9151 11.55L29.4919 11.1964L29.8235 10.8007L30.2467 11.1543L29.9151 11.55ZM29.4608 11.169L29.0175 10.7989L29.3491 10.4032L29.7924 10.7733L29.4608 11.169ZM29.4315 11.2019L29.0999 11.5958L28.6566 11.2258L28.9882 10.8319L29.4315 11.2019ZM28.6255 11.2001L28.2023 10.8465L28.5339 10.4527L28.957 10.8062L28.6255 11.2001ZM28.598 11.2331L28.2774 11.6159L27.8542 11.2624L28.1748 10.8795L28.598 11.2331ZM27.8231 11.2349L27.3779 10.8612L27.6985 10.4783L28.1437 10.852L27.8231 11.2349ZM27.7938 11.2679L27.4713 11.6526L27.0262 11.2789L27.3486 10.8942L27.7938 11.2679ZM27.8267 11.2954L28.2499 11.6489L27.9275 12.0336L27.5043 11.6801L27.8267 11.2954ZM28.2829 11.6764L28.7262 12.0464L28.4038 12.4312L27.9605 12.0611L28.2829 11.6764ZM28.7574 12.0739L29.1805 12.4275L28.8581 12.8122L28.4349 12.4586L28.7574 12.0739ZM29.2117 12.455L29.6312 12.8067L29.3088 13.1914L28.8892 12.8397L29.2117 12.455ZM29.2391 12.422L29.5597 12.0391L29.9792 12.3908L29.6587 12.7737L29.2391 12.422ZM30.0122 12.4183L30.4317 12.7701L30.1111 13.1529L29.6916 12.8012L30.0122 12.4183ZM30.0415 12.3854L30.3731 11.9915L30.7926 12.3432L30.461 12.7371L30.0415 12.3854ZM30.8237 12.3689L31.2634 12.7371L30.9318 13.1309L30.4922 12.7627L30.8237 12.3689ZM30.8512 12.3341L31.1828 11.9384L31.6225 12.3066L31.2909 12.7023L30.8512 12.3341ZM31.2103 11.9072L31.5364 11.517L31.976 11.8852L31.6499 12.2754L31.2103 11.9072ZM31.1791 11.8797L30.7596 11.528L31.0857 11.1378L31.5052 11.4895L31.1791 11.8797ZM30.7267 11.5005L30.3071 11.1488L30.6332 10.7586L31.0527 11.1103L30.7267 11.5005ZM30.2742 11.1213L29.851 10.7678L30.1771 10.3776L30.6003 10.7311L30.2742 11.1213ZM29.8199 10.7403L29.3765 10.3702L29.7026 9.98005L30.1459 10.3501L29.8199 10.7403ZM29.3436 10.3428L28.9204 9.98921L29.2465 9.59902L29.6696 9.95257L29.3436 10.3428ZM29.3161 10.3757L28.9845 10.7714L28.5613 10.4179L28.8929 10.0222L29.3161 10.3757ZM28.5302 10.3904L28.085 10.0167L28.4166 9.621L28.8618 9.99471L28.5302 10.3904ZM28.5009 10.4234L28.1693 10.8172L27.7242 10.4435L28.0557 10.0497L28.5009 10.4234ZM27.693 10.4179L27.2479 10.0442L27.5794 9.65031L28.0246 10.024L27.693 10.4179ZM27.6655 10.4509L27.3449 10.8337L26.8998 10.46L27.2204 10.0771L27.6655 10.4509ZM27.3156 10.8667L26.9932 11.2514L26.5481 10.8777L26.8705 10.493L27.3156 10.8667ZM26.9657 11.2844L26.6122 11.7075L26.167 11.3338L26.5206 10.9107L26.9657 11.2844ZM26.9987 11.3119L27.4439 11.6856L27.0903 12.1087L26.6452 11.735L26.9987 11.3119ZM27.4768 11.713L27.9 12.0666L27.5465 12.4898L27.1233 12.1362L27.4768 11.713ZM27.9312 12.0941L28.3745 12.4641L28.0209 12.8873L27.5776 12.5173L27.9312 12.0941ZM28.4075 12.4916L28.8306 12.8452L28.4771 13.2683L28.0539 12.9148L28.4075 12.4916ZM28.8618 12.8726L29.2813 13.2244L28.9277 13.6475L28.5082 13.2958L28.8618 12.8726ZM29.3143 13.2518L29.7338 13.6036L29.3802 14.0267L28.9607 13.675L29.3143 13.2518ZM29.3417 13.2189L29.6641 12.8342L30.0837 13.1859L29.7612 13.5706L29.3417 13.2189ZM30.1166 13.2134L30.5563 13.5816L30.2339 13.9663L29.7942 13.5981L30.1166 13.2134ZM30.1441 13.1804L30.4647 12.7975L30.9044 13.1657L30.5838 13.5486L30.1441 13.1804ZM30.9373 13.1914L31.3935 13.5724L31.0729 13.9553L30.6167 13.5743L30.9373 13.1914ZM30.9648 13.1584L31.2964 12.7646L31.7525 13.1456L31.421 13.5395L30.9648 13.1584ZM31.3239 12.7298L31.6554 12.3341L32.1116 12.7151L31.78 13.1108L31.3239 12.7298ZM31.6829 12.3011L32.009 11.9109L32.4651 12.2919L32.1391 12.6821L31.6829 12.3011ZM32.4963 12.3194L33.0037 12.7444L32.6776 13.1346L32.1702 12.7096L32.4963 12.3194ZM32.5256 12.2864L32.8846 11.8578L33.3921 12.2828L33.033 12.7114L32.5256 12.2864ZM32.4926 12.259L32.0365 11.8779L32.3955 11.4492L32.8517 11.8303L32.4926 12.259ZM32.0053 11.8504L31.5657 11.4822L31.9247 11.0536L32.3644 11.4218L32.0053 11.8504ZM31.5327 11.4566L31.1132 11.1048L31.4722 10.6762L31.8918 11.0279L31.5327 11.4566ZM31.082 11.0774L30.6625 10.7256L31.0216 10.297L31.4411 10.6487L31.082 11.0774ZM30.6296 10.6982L30.2064 10.3446L30.5654 9.91594L30.9886 10.2695L30.6296 10.6982ZM30.1734 10.3171L29.7301 9.94708L30.0892 9.51841L30.5325 9.88846L30.1734 10.3171ZM29.699 9.9196L29.2758 9.56604L29.6348 9.13737L30.058 9.49093L29.699 9.9196ZM29.2446 9.53673L28.7995 9.16302L29.1585 8.73435L29.6037 9.10806L29.2446 9.53673ZM29.2153 9.57154L28.8892 9.96173L28.4423 9.58802L28.7683 9.19783L29.2135 9.57154H29.2153ZM28.4111 9.56054L27.966 9.18683L28.292 8.79664L28.7372 9.17035L28.4111 9.56054ZM28.3818 9.59352L28.0502 9.98921L27.6051 9.6155L27.9367 9.21981L28.3818 9.59352ZM27.5739 9.58802L27.0427 9.14287L27.3743 8.74718L27.9055 9.19233L27.5739 9.58802ZM27.5446 9.621L27.2131 10.0149L26.6818 9.5697L27.0134 9.17584L27.5446 9.621ZM27.1856 10.0497L26.865 10.4325L26.3337 9.98738L26.6543 9.60451L27.1856 10.0497ZM26.8375 10.4655L26.5151 10.8502L25.9838 10.4051L26.3063 10.0204L26.8375 10.4655ZM26.4876 10.8832L26.1341 11.3064L25.6028 10.8612L25.9564 10.438L26.4876 10.8832ZM26.1047 11.3393L25.7182 11.7991L25.187 11.354L25.5735 10.8942L26.1047 11.3393ZM26.1377 11.3668L26.5829 11.7405L26.1963 12.2003L25.7512 11.8266L26.1377 11.3668ZM26.6158 11.768L27.061 12.1417L26.6745 12.6015L26.2293 12.2278L26.6158 11.768ZM27.094 12.1674L27.5171 12.5209L27.1306 12.9807L26.7074 12.6272L27.094 12.1674ZM27.5501 12.5502L27.9934 12.9203L27.6069 13.3801L27.1636 13.01L27.5501 12.5502ZM28.0246 12.9478L28.4478 13.3013L28.0612 13.7611L27.6381 13.4076L28.0246 12.9478ZM28.4807 13.3288L28.9002 13.6805L28.5137 14.1403L28.0942 13.7886L28.4807 13.3288ZM28.9314 13.708L29.3509 14.0597L28.9644 14.5195L28.5449 14.1678L28.9314 13.708ZM29.3839 14.0872L29.8235 14.4554L29.437 14.9152L28.9973 14.547L29.3839 14.0872ZM29.4113 14.0524L29.7649 13.6292L30.2046 13.9974L29.851 14.4206L29.4113 14.0524ZM30.2375 14.0249L30.6937 14.406L30.3401 14.8291L29.884 14.4481L30.2375 14.0249ZM30.265 13.9919L30.5874 13.6072L31.0436 13.9883L30.7212 14.373L30.265 13.9919ZM31.0747 14.0158L31.5822 14.4408L31.2597 14.8255L30.7523 14.4005L31.0747 14.0158ZM31.104 13.9828L31.4246 13.5999L31.9321 14.0249L31.6115 14.4078L31.104 13.9828ZM31.4521 13.5669L31.7837 13.1731L32.2911 13.5981L31.9595 13.9919L31.4521 13.5669ZM31.8111 13.1383L32.1427 12.7426L32.6502 13.1676L32.3186 13.5633L31.8111 13.1383ZM32.6813 13.1951L33.2382 13.6604L32.9066 14.0561L32.3497 13.5908L32.6813 13.1951ZM32.7106 13.1621L33.0367 12.7719L33.5936 13.2372L33.2675 13.6274L32.7106 13.1621ZM33.0642 12.7389L33.4232 12.3102L33.9801 12.7755L33.6211 13.2042L33.0642 12.7389ZM33.4507 12.2773L33.8409 11.8101L34.3978 12.2754L34.0076 12.7426L33.4507 12.2773ZM33.4196 12.2498L32.9121 11.8248L33.3023 11.3576L33.8098 11.7827L33.4196 12.2498ZM32.8792 11.7973L32.423 11.4163L32.8132 10.9491L33.2694 11.3302L32.8792 11.7973ZM32.3919 11.3888L31.9522 11.0206L32.3424 10.5534L32.7821 10.9217L32.3919 11.3888ZM31.9192 10.9949L31.4997 10.6432L31.8899 10.1761L32.3094 10.5278L31.9192 10.9949ZM31.4686 10.6157L31.0491 10.264L31.4393 9.79686L31.8588 10.1486L31.4686 10.6157ZM31.0161 10.2365L30.5929 9.88296L30.9831 9.41582L31.4063 9.76938L31.0161 10.2365ZM30.56 9.85548L30.1166 9.48544L30.5068 9.0183L30.9501 9.38834L30.56 9.85548ZM30.0855 9.45796L29.6623 9.1044L30.0525 8.63726L30.4757 8.99082L30.0855 9.45796ZM29.6312 9.07509L29.186 8.70138L29.5762 8.23424L30.0214 8.60795L29.6312 9.07509ZM29.153 8.67573L28.7079 8.30202L29.0981 7.83488L29.5451 8.20859L29.1549 8.67573H29.153ZM29.1237 8.70871L28.7647 9.13737L28.3195 8.76366L28.6786 8.335L29.1237 8.70871ZM28.2866 8.73618L27.7553 8.29103L28.1144 7.86236L28.6456 8.30752L28.2866 8.73618ZM28.2591 8.76916L27.933 9.15936L27.4017 8.7142L27.7278 8.324L28.2591 8.76916ZM27.3688 8.68672L26.8705 8.26905L27.1966 7.87885L27.6948 8.29653L27.3688 8.68672ZM27.3413 8.72153L27.0097 9.11722L26.5114 8.69955L26.843 8.30385L27.3413 8.72153ZM26.9822 9.1502L26.6507 9.54406L26.1524 9.12638L26.4839 8.73252L26.9822 9.1502ZM26.6232 9.57703L26.3026 9.9599L25.8043 9.54222L26.1249 9.15936L26.6232 9.57703ZM26.2751 9.99471L25.9527 10.3794L25.4544 9.96173L25.7768 9.57703L26.2751 9.99471ZM25.9252 10.4124L25.5717 10.8356L25.0734 10.4179L25.4269 9.99471L25.9252 10.4124ZM25.5423 10.8685L25.1558 11.3283L24.6575 10.9107L25.0441 10.4509L25.5423 10.8685ZM24.6264 10.8832L24.0585 10.4069L24.445 9.94708L25.0129 10.4234L24.6264 10.8832ZM24.5989 10.9162L24.1593 11.4401L23.5914 10.9638L24.031 10.4399L24.5989 10.9162ZM24.6301 10.9436L25.1283 11.3613L24.6887 11.8852L24.1904 11.4676L24.6301 10.9436ZM25.1613 11.3888L25.6926 11.8339L25.2529 12.3579L24.7216 11.9127L25.1613 11.3888ZM25.7237 11.8596L26.1689 12.2333L25.7292 12.7572L25.284 12.3835L25.7237 11.8596ZM26.2037 12.2608L26.6488 12.6345L26.2092 13.1584L25.764 12.7847L26.2037 12.2608ZM26.6818 12.662L27.105 13.0155L26.6653 13.5395L26.2421 13.1859L26.6818 12.662ZM27.1361 13.043L27.5794 13.4131L27.1398 13.937L26.6964 13.5669L27.1361 13.043ZM27.6106 13.4405L28.0337 13.7941L27.5941 14.318L27.1709 13.9645L27.6106 13.4405ZM28.0667 13.8216L28.4862 14.1733L28.0466 14.6972L27.6271 14.3455L28.0667 13.8216ZM28.5192 14.2008L28.9387 14.5525L28.4991 15.0764L28.0795 14.7247L28.5192 14.2008ZM28.9699 14.58L29.4095 14.9482L28.9699 15.4721L28.5302 15.1039L28.9699 14.58ZM29.4425 14.9757L29.8986 15.3567L29.459 15.8806L29.0028 15.4996L29.4425 14.9757ZM29.47 14.9427L29.8565 14.4829L30.3126 14.8639L29.9261 15.3237L29.47 14.9427ZM30.3438 14.8896L30.8512 15.3146L30.4647 15.7744L29.9573 15.3494L30.3438 14.8896ZM30.3713 14.8566L30.7248 14.4334L31.2323 14.8584L30.8787 15.2816L30.3713 14.8566ZM31.2652 14.8859L31.8221 15.3512L31.4686 15.7744L30.9117 15.3091L31.2652 14.8859ZM31.2927 14.8529L31.6151 14.4682L32.172 14.9335L31.8496 15.3182L31.2927 14.8529ZM31.6426 14.4353L31.9632 14.0524L32.5201 14.5177L32.1995 14.9006L31.6426 14.4353ZM31.9925 14.0194L32.3241 13.6256L32.881 14.0909L32.5494 14.4847L31.9925 14.0194ZM32.9103 14.1183L33.6779 14.7613L33.3463 15.1552L32.5787 14.5122L32.9103 14.1183ZM32.9396 14.0835L33.2712 13.6878L34.0388 14.3308L33.7072 14.7265L32.9396 14.0835ZM33.2987 13.6549L33.6247 13.2647L34.3923 13.9077L34.0662 14.2979L33.2987 13.6549ZM33.6541 13.2317L34.0131 12.803L34.7807 13.446L34.4216 13.8747L33.6541 13.2317ZM34.0406 12.7701L34.4308 12.3029L35.1984 12.9459L34.8082 13.4131L34.0406 12.7701ZM34.4271 12.2425L33.8702 11.7772L34.3154 11.2459L34.8723 11.7112L34.4271 12.2425ZM33.8391 11.7497L33.3316 11.3247L33.7768 10.7934L34.2842 11.2184L33.8391 11.7497ZM33.2987 11.2972L32.8425 10.9162L33.2877 10.3849L33.7438 10.7659L33.2987 11.2972ZM32.8114 10.8887L32.3717 10.5205L32.8169 9.98921L33.2565 10.3574L32.8114 10.8887ZM32.3387 10.493L31.9192 10.1413L32.3644 9.61001L32.7839 9.96173L32.3387 10.493ZM31.8863 10.1156L31.4667 9.76389L31.9119 9.23263L32.3314 9.58436L31.8863 10.1156ZM31.4356 9.73641L31.0124 9.38285L31.4576 8.85159L31.8808 9.20515L31.4356 9.73641ZM30.9795 9.35537L30.5361 8.98532L30.9813 8.45407L31.4246 8.82412L30.9795 9.35537ZM30.505 8.95785L30.0818 8.60429L30.527 8.07303L30.9501 8.42659L30.505 8.95785ZM30.0488 8.57498L29.6037 8.20127L30.0488 7.67001L30.494 8.04372L30.0488 8.57498ZM29.5707 8.17562L29.1256 7.80191L29.5707 7.27065L30.0159 7.64436L29.5707 8.17562ZM29.0926 7.77443L28.5613 7.32928L29.0065 6.79802L29.5377 7.24318L29.0926 7.77443ZM29.0651 7.8074L28.6749 8.27454L28.1437 7.82939L28.5339 7.36225L29.0651 7.8074ZM28.1107 7.80191L27.6124 7.38423L28.0026 6.9171L28.5009 7.33477L28.1107 7.80191ZM28.0832 7.83672L27.7242 8.26538L27.2259 7.84771L27.5849 7.41904L28.0832 7.83672ZM27.1929 7.8184L26.625 7.3421L26.9841 6.91343L27.552 7.38973L27.1929 7.8184ZM27.1654 7.8532L26.8393 8.2434L26.2714 7.7671L26.5975 7.37691L27.1654 7.8532ZM26.81 8.27637L26.4785 8.67207L25.9106 8.19577L26.2421 7.80008L26.81 8.27637ZM26.451 8.70504L26.1194 9.0989L25.5515 8.62261L25.8831 8.22874L26.451 8.70504ZM26.0919 9.13371L25.7713 9.51658L25.2034 9.04028L25.524 8.65741L26.0919 9.13371ZM25.7439 9.54955L25.4214 9.93425L24.8535 9.45796L25.176 9.07326L25.7439 9.54955ZM25.394 9.96723L25.0404 10.3904L24.4725 9.9141L24.8261 9.49093L25.394 9.96723ZM24.4377 9.88663L23.7434 9.30591L24.097 8.88274L24.7913 9.46345L24.4377 9.88663ZM24.4102 9.9196L24.0237 10.3794L23.3294 9.79869L23.7159 9.33888L24.4102 9.9196ZM23.998 10.4124L23.5584 10.9363L22.8641 10.3556L23.3037 9.83167L23.998 10.4124ZM23.562 10.9968L24.1299 11.4731L23.6518 12.0428L23.0839 11.5665L23.562 10.9968ZM24.1629 11.5005L24.6612 11.9182L24.1831 12.4879L23.6848 12.0703L24.1629 11.5005ZM24.6942 11.9457L25.2254 12.3908L24.7473 12.9606L24.216 12.5154L24.6942 11.9457ZM25.2584 12.4165L25.7036 12.7902L25.2254 13.3599L24.7803 12.9862L25.2584 12.4165ZM25.7365 12.8177L26.1817 13.1914L25.7036 13.7611L25.2584 13.3874L25.7365 12.8177ZM26.2147 13.2189L26.6378 13.5724L26.1597 14.1422L25.7365 13.7886L26.2147 13.2189ZM26.669 13.5999L27.1123 13.97L26.6342 14.5397L26.1908 14.1696L26.669 13.5999ZM27.1453 13.9974L27.5684 14.351L27.0903 14.9207L26.6671 14.5672L27.1453 13.9974ZM27.5996 14.3803L28.0191 14.732L27.541 15.3018L27.1215 14.95L27.5996 14.3803ZM28.0521 14.7577L28.4716 15.1094L27.9934 15.6791L27.5739 15.3274L28.0521 14.7577ZM28.5045 15.1369L28.9442 15.5051L28.4661 16.0748L28.0264 15.7066L28.5045 15.1369ZM28.9753 15.5326L29.4315 15.9136L28.9534 16.4833L28.4972 16.1023L28.9753 15.5326ZM29.4626 15.9411L29.9701 16.3661L29.4919 16.9358L28.9845 16.5108L29.4626 15.9411ZM29.4901 15.9081L29.9298 15.3842L30.4372 15.8092L29.9976 16.3331L29.4901 15.9081ZM30.4702 15.8367L31.0271 16.302L30.5874 16.8259L30.0305 16.3606L30.4702 15.8367ZM30.4977 15.8037L30.8842 15.3439L31.4411 15.8092L31.0546 16.269L30.4977 15.8037ZM31.4722 15.8348L32.2398 16.4778L31.8533 16.9377L31.0857 16.2947L31.4722 15.8348ZM31.4997 15.8019L31.8533 15.3787L32.6209 16.0217L32.2673 16.4449L31.4997 15.8019ZM31.8808 15.3476L32.2032 14.9629L32.9707 15.6059L32.6483 15.9906L31.8808 15.3476ZM32.2325 14.928L32.5531 14.5452L33.3206 15.1882L33.0001 15.571L32.2325 14.928ZM33.3518 15.2157L34.3282 16.0327L34.0076 16.4156L33.0312 15.5985L33.3518 15.2157ZM33.3811 15.1827L33.7127 14.7888L34.6891 15.6059L34.3575 15.9997L33.3811 15.1827ZM33.7402 14.754L34.0717 14.3583L35.0481 15.1754L34.7166 15.571L33.7402 14.754ZM34.0992 14.3253L34.4253 13.9352L35.4017 14.7522L35.0756 15.1424L34.0992 14.3253ZM34.4528 13.9022L34.8118 13.4735L35.7882 14.2905L35.4292 14.7192L34.4528 13.9022ZM34.8393 13.4405L35.2295 12.9734L36.2059 13.7904L35.8157 14.2576L34.8393 13.4405ZM35.2277 12.9129L34.4601 12.2699L34.9052 11.7387L35.6728 12.3817L35.2277 12.9129ZM34.8997 11.6782L34.3428 11.2129L34.8265 10.6359L35.3834 11.1012L34.8997 11.6782ZM34.3117 11.1855L33.8043 10.7604L34.2879 10.1834L34.7953 10.6084L34.3117 11.1855ZM33.7713 10.733L33.3151 10.3519L33.7988 9.77488L34.2549 10.1559L33.7713 10.733ZM33.284 10.3245L32.8443 9.95624L33.328 9.37919L33.7676 9.7474L33.284 10.3245ZM32.8114 9.92876L32.3919 9.57703L32.8755 8.99998L33.295 9.35171L32.8114 9.92876ZM32.3607 9.55138L31.9412 9.19966L32.4248 8.62261L32.8443 8.97433L32.3607 9.55138ZM31.9082 9.17218L31.4851 8.81862L31.9687 8.24157L32.3919 8.59513L31.9082 9.17218ZM31.4521 8.79114L31.0088 8.4211L31.4924 7.84404L31.9357 8.21409L31.4521 8.79114ZM30.9776 8.39178L30.5545 8.03823L31.0381 7.46117L31.4613 7.81473L30.9776 8.39178ZM30.5233 8.01075L30.0782 7.63704L30.5618 7.05998L31.0069 7.43369L30.5233 8.01075ZM30.0452 7.60956L29.6 7.23585L30.0837 6.6588L30.5288 7.03251L30.0452 7.60956ZM29.5652 7.2102L29.034 6.76505L29.5176 6.18799L30.0488 6.63315L29.5652 7.2102ZM29.0028 6.73757L28.5045 6.31989L28.9882 5.74284L29.4865 6.16052L29.0028 6.73757ZM28.9753 6.77054L28.5302 7.3018L28.0319 6.88412L28.4771 6.35287L28.9753 6.77054ZM27.9989 6.85664L27.431 6.38035L27.8762 5.84909L28.4441 6.32539L27.9989 6.85664ZM27.9715 6.89145L27.5813 7.35859L27.0134 6.88229L27.4036 6.41515L27.9715 6.89145ZM26.9786 6.85481L26.2843 6.27409L26.6745 5.80696L27.3688 6.38767L26.9786 6.85481ZM26.9511 6.88778L26.592 7.31645L25.8977 6.73574L26.2568 6.30707L26.9511 6.88778ZM26.5646 7.34943L26.2385 7.73962L25.5442 7.15891L25.8703 6.76871L26.5646 7.34943ZM26.2092 7.7726L25.8776 8.16829L25.1833 7.58757L25.5149 7.19188L26.2092 7.7726ZM25.8501 8.20127L25.5185 8.59513L24.8242 8.01441L25.1558 7.62055L25.8501 8.20127ZM25.4911 8.62993L25.1705 9.0128L24.4762 8.43209L24.7968 8.04922L25.4911 8.62993ZM25.143 9.04578L24.8206 9.43048L24.1263 8.84976L24.4487 8.46506L25.143 9.04578ZM24.0933 8.82228L23.2891 8.14814L23.6115 7.76344L24.4157 8.43758L24.0933 8.82228ZM24.0658 8.85526L23.7123 9.27843L22.9081 8.60429L23.2616 8.18112L24.0658 8.85526ZM23.6848 9.3114L23.2983 9.77121L22.494 9.09707L22.8806 8.63726L23.6848 9.3114ZM23.2708 9.80419L22.8311 10.3281L22.0269 9.65397L22.4666 9.13004L23.2708 9.80419ZM22.8366 10.3886L23.5309 10.9693L23.0528 11.539L22.3585 10.9583L22.8366 10.3886ZM23.0564 11.6013L23.6243 12.0776L23.1627 12.629L22.5948 12.1527L23.0564 11.6013ZM23.6591 12.1032L24.1574 12.5209L23.6958 13.0723L23.1975 12.6546L23.6591 12.1032ZM24.1886 12.5484L24.7198 12.9935L24.2582 13.545L23.7269 13.0998L24.1886 12.5484ZM24.7528 13.021L25.1979 13.3947L24.7363 13.9461L24.2912 13.5724L24.7528 13.021ZM25.2309 13.4204L25.6761 13.7941L25.2144 14.3455L24.7693 13.9718L25.2309 13.4204ZM25.709 13.8216L26.1322 14.1751L25.6706 14.7265L25.2474 14.373L25.709 13.8216ZM26.1634 14.2044L26.6067 14.5745L26.145 15.1259L25.7017 14.7558L26.1634 14.2044ZM26.6397 14.602L27.0628 14.9555L26.6012 15.5069L26.178 15.1534L26.6397 14.602ZM27.094 14.983L27.5135 15.3347L27.0518 15.8861L26.6323 15.5344L27.094 14.983ZM27.5465 15.3622L27.966 15.7139L27.5043 16.2653L27.0848 15.9136L27.5465 15.3622ZM27.9989 15.7396L28.4386 16.1078L27.977 16.6592L27.5373 16.291L27.9989 15.7396ZM28.4697 16.1353L28.9259 16.5163L28.4642 17.0677L28.0081 16.6867L28.4697 16.1353ZM28.957 16.5438L29.4645 16.9688L29.0028 17.5202L28.4954 17.0952L28.957 16.5438ZM29.4974 16.9963L30.0543 17.4616L29.5927 18.013L29.0358 17.5477L29.4974 16.9963ZM29.5249 16.9633L30.0031 16.3936L30.56 16.8589L30.0818 17.4286L29.5249 16.9633ZM30.5911 16.8864L31.3587 17.5294L30.8805 18.0991L30.113 17.4561L30.5911 16.8864ZM30.6186 16.8534L31.0582 16.3295L31.8258 16.9725L31.3861 17.4964L30.6186 16.8534ZM31.8588 16.9999L32.8352 17.817L32.3955 18.3409L31.4191 17.5239L31.8588 16.9999ZM31.8863 16.967L32.2728 16.5072L33.2492 17.3242L32.8627 17.784L31.8863 16.967ZM32.3003 16.4723L32.6538 16.0492L33.6302 16.8662L33.2767 17.2894L32.3003 16.4723ZM32.6813 16.0162L33.0037 15.6315L33.9801 16.4485L33.6577 16.8332L32.6813 16.0162ZM34.0113 16.476L35.6252 17.8298L35.6032 17.8463L35.6673 17.9434C35.5464 18.0313 35.42 18.1119 35.2863 18.1852L35.2148 18.0973L35.1855 18.1156L33.687 16.8607L34.0094 16.476H34.0113ZM35.6618 17.8023L34.0406 16.443L34.3612 16.0602L36.0355 17.4634L36.0209 17.4817L36.1106 17.5733C36.0044 17.6777 35.8908 17.7748 35.7717 17.8683L35.6856 17.7822L35.6618 17.8005V17.8023ZM36.085 17.4048L36.063 17.4304L34.3886 16.0272L34.7202 15.6333L36.3946 17.0366L36.3726 17.0641L36.4734 17.1685C36.3891 17.2784 36.2993 17.3828 36.2041 17.4836L36.0887 17.4066L36.085 17.4048ZM36.4367 16.9835L36.4202 17.0018L34.7459 15.5985L35.0774 15.2028L36.6987 16.5621L36.684 16.5896L36.7939 16.6665C36.7207 16.8039 36.6382 16.934 36.5503 17.0604L36.4367 16.9835ZM36.7353 16.4998L36.7225 16.5236L35.1086 15.1699L35.4347 14.7797L36.9332 16.0345L36.9203 16.0675L37.0358 16.1316C36.9826 16.2763 36.924 16.4156 36.8562 16.5493L36.7353 16.498V16.4998ZM36.957 15.9741L36.9478 15.9942L35.4603 14.7467L35.8194 14.318L37.1145 15.4025L37.1054 15.4318L37.1933 15.4685L37.2116 15.4831C37.1768 15.6626 37.131 15.8367 37.0761 16.007L36.9552 15.9722L36.957 15.9741ZM36.2352 13.7575L35.2588 12.9404L35.704 12.4092L36.6804 13.2262L36.2352 13.7575ZM35.7003 12.3487L34.9327 11.7057L35.4164 11.1287L36.1839 11.7717L35.7003 12.3487ZM35.4127 11.0682L34.8558 10.6029L35.3248 10.0442L35.8817 10.5095L35.4127 11.0682ZM34.8228 10.5736L34.3154 10.1486L34.7843 9.58985L35.2918 10.0149L34.8228 10.5736ZM34.2842 10.1211L33.8281 9.74007L34.2971 9.18134L34.7532 9.56238L34.2842 10.1211ZM33.7951 9.71259L33.3554 9.34438L33.8244 8.78565L34.2641 9.15386L33.7951 9.71259ZM33.3243 9.31873L32.9048 8.967L33.3738 8.40827L33.7933 8.76L33.3243 9.31873ZM32.8718 8.93953L32.4523 8.5878L32.9213 8.02907L33.3408 8.38079L32.8718 8.93953ZM32.4193 8.56032L31.9962 8.20676L32.4651 7.64803L32.8883 8.00159L32.4193 8.56032ZM31.965 8.17928L31.5217 7.80924L31.9907 7.2505L32.434 7.62055L31.965 8.17928ZM31.4906 7.78176L31.0674 7.4282L31.5364 6.86947L31.9595 7.22302L31.4906 7.78176ZM31.0344 7.40072L30.5893 7.02701L31.0582 6.46828L31.5034 6.84199L31.0344 7.40072ZM30.5563 6.99953L30.1111 6.62582L30.5801 6.06709L31.0271 6.4408L30.5581 6.99953H30.5563ZM30.0782 6.59834L29.5469 6.15319L30.0159 5.59446L30.5471 6.03961L30.0782 6.59834ZM29.5158 6.12571L29.0175 5.70803L29.4865 5.1493L29.9847 5.56698L29.5158 6.12571ZM28.9845 5.68239L28.4166 5.20609L28.8856 4.64736L29.4535 5.12365L28.9845 5.68239ZM28.9552 5.71536L28.4716 6.29241L27.9037 5.81612L28.3873 5.23906L28.9552 5.71536ZM27.8707 5.78864L27.1764 5.20792L27.66 4.63087L28.3543 5.21159L27.8707 5.78864ZM27.8432 5.82344L27.3981 6.3547L26.7038 5.77398L27.1489 5.24273L27.8432 5.82344ZM26.6708 5.74467L25.8666 5.07053L26.3118 4.53927L27.116 5.21342L26.6708 5.74467ZM26.6433 5.77948L26.2531 6.24662L25.4489 5.57247L25.8391 5.10533L26.6433 5.77948ZM26.2238 6.27959L25.8648 6.70826L25.0606 6.03411L25.4196 5.60545L26.2238 6.27959ZM25.8373 6.74123L25.5112 7.13143L24.707 6.45729L25.0331 6.06709L25.8373 6.74123ZM25.4837 7.1644L25.1521 7.5601L24.3479 6.88595L24.6795 6.49026L25.4837 7.1644ZM25.1228 7.59307L24.7913 7.98693L23.9871 7.31279L24.3186 6.9171L25.1228 7.59124V7.59307ZM24.7656 8.01991L24.445 8.40278L23.6408 7.72863L23.9614 7.34576L24.7656 8.01991ZM22.2687 6.73574L22.3933 6.78337L22.4079 6.75406L23.5785 7.73413L23.2561 8.11883L22.1698 7.20837L22.1845 7.17906L22.0855 7.11128C22.1405 6.98121 22.2028 6.85481 22.2687 6.73207V6.73574ZM22.0379 7.23035L22.1387 7.27065L22.1496 7.24867L23.2286 8.1518L22.8751 8.57498L21.961 7.80924L21.972 7.78176L21.8694 7.72314C21.9188 7.5546 21.9756 7.38973 22.0397 7.23035H22.0379ZM21.8346 7.84771L21.9316 7.87702L21.9426 7.85137L22.8476 8.60978L22.4611 9.06959L21.8034 8.51819L21.8144 8.48704L21.7118 8.43575C21.743 8.23424 21.7851 8.03639 21.8346 7.84588V7.84771ZM21.6935 8.56215L21.7814 8.5823L21.7888 8.56032L22.4336 9.10073L21.9939 9.62466L21.7356 9.4085L21.7411 9.37186L21.6367 9.34255C21.6404 9.07326 21.6587 8.81312 21.6935 8.56032V8.56215ZM21.6404 9.72542C21.6367 9.64115 21.6349 9.55688 21.6349 9.47261L21.7265 9.47628V9.46162L21.9665 9.65947L21.7466 9.92326V9.91594L21.6532 9.92693C21.6477 9.85915 21.644 9.79137 21.6422 9.72359L21.6404 9.72542ZM21.666 10.0845L21.6898 10.0552L21.7723 10.024L21.7594 9.97272L21.9994 9.68695L22.8036 10.3611L22.3255 10.9308L21.8364 10.5205V10.4838L21.7136 10.4637C21.6935 10.3391 21.677 10.2127 21.6642 10.0845H21.666ZM21.7375 10.5937L21.8346 10.5864V10.5773L22.298 10.9656L22.0232 11.2935L22.0177 11.277L21.9042 11.3009C21.8364 11.0682 21.7796 10.8337 21.7375 10.5956V10.5937ZM21.95 11.4474L21.9848 11.4053L22.0526 11.3723L22.0397 11.3375L22.331 10.9894L23.0253 11.5702L22.5637 12.1216L22.2156 11.8303L22.2101 11.7973L22.0764 11.8028C22.0324 11.6837 21.9903 11.5647 21.9518 11.4456L21.95 11.4474ZM22.1222 11.9292L22.2266 11.8999L22.5343 12.1582L22.4208 12.2919L22.4061 12.2663L22.2852 12.3139C22.2266 12.1875 22.1716 12.0593 22.1185 11.9292H22.1222ZM22.3512 12.4476L22.4647 12.3689L22.4446 12.3322L22.5673 12.1857L23.1352 12.662L22.822 13.0338L22.8018 13.0045L22.6827 13.065C22.5618 12.8617 22.4501 12.6565 22.3493 12.4458L22.3512 12.4476ZM22.7615 13.1914L22.8696 13.0998L22.8494 13.0705L23.17 12.6894L23.6683 13.1071L23.225 13.6347L23.2048 13.6091L23.0858 13.6805C22.9722 13.5211 22.8641 13.3581 22.7615 13.1914ZM23.1719 13.8014L23.2763 13.697L23.2506 13.6659L23.6976 13.1309L24.2289 13.5761L23.683 14.2283L23.661 14.2044L23.5456 14.2832C23.4155 14.1257 23.2909 13.9663 23.17 13.8014H23.1719ZM23.6427 14.3968L23.7397 14.2905L23.7123 14.2612L24.2618 13.6054L24.707 13.9791L24.0988 14.7064L24.075 14.6844L23.9706 14.7687C23.857 14.6478 23.7471 14.525 23.6408 14.3986L23.6427 14.3968ZM24.4176 15.2193C24.3003 15.1076 24.1849 14.9922 24.0732 14.8749L24.1593 14.7632L24.1299 14.7357L24.74 14.0066L25.1851 14.3803L24.5403 15.1515L24.5146 15.1296L24.4176 15.2193ZM24.8572 15.6187C24.7565 15.5307 24.6557 15.441 24.5586 15.3512C24.5476 15.3402 24.5366 15.3311 24.5256 15.3201L24.6044 15.2028L24.5733 15.1772L25.2181 14.406L25.6413 14.7595L24.9799 15.5491L24.9525 15.5271L24.8554 15.6168L24.8572 15.6187ZM25.3427 16.0199C25.2163 15.9209 25.0917 15.8184 24.9671 15.7139L25.0422 15.6022L25.0129 15.5784L25.6742 14.7888L26.1176 15.1589L25.4599 15.9429L25.4361 15.9246L25.3427 16.018V16.0199ZM25.9051 16.2837L25.8226 16.3753C25.6999 16.2892 25.579 16.1994 25.4599 16.1078L25.5295 15.9942L25.4947 15.9667L26.1505 15.1845L26.5737 15.5381L25.9344 16.3001L25.9069 16.28L25.9051 16.2837ZM26.3887 16.6116L26.3118 16.7068C26.1872 16.6262 26.0626 16.5438 25.9399 16.4577L26.0003 16.3478L25.9692 16.3258L26.6049 15.5656L27.0244 15.9173L26.4253 16.6317L26.3905 16.6097L26.3887 16.6116ZM26.898 16.9285L26.8265 17.0219C26.6946 16.945 26.5627 16.8662 26.4327 16.7838L26.4858 16.672L26.4601 16.6555L27.0555 15.9448L27.475 16.2965L26.9309 16.9468L26.898 16.9285ZM27.4475 17.2344L27.3834 17.326C27.2387 17.2509 27.0958 17.174 26.9511 17.0915L26.9987 16.9853L26.9694 16.9688L27.5098 16.324L27.9495 16.6922L27.4805 17.2509L27.4494 17.2344H27.4475ZM28.0337 17.5092L27.9678 17.6118C27.8157 17.5422 27.6619 17.4689 27.5098 17.392L27.5501 17.2894L27.519 17.2729L27.9806 16.7215L28.4368 17.1025L28.0777 17.5312L28.0337 17.511V17.5092ZM28.7152 17.7987L28.6584 17.9031C28.4716 17.8316 28.2847 17.7529 28.0979 17.6704L28.1363 17.5587L28.1144 17.5477L28.4661 17.1282L28.9735 17.5532L28.7537 17.8151L28.7134 17.7987H28.7152ZM29.5304 18.0881L29.4919 18.0734L29.4425 18.1742C29.3216 18.1357 29.2025 18.0973 29.0853 18.057C28.9882 18.024 28.8911 17.9892 28.794 17.9525L28.8251 17.8408L28.7995 17.8298L29.0102 17.5788L29.5671 18.0441L29.5341 18.0844L29.5304 18.0881ZM29.7576 18.2695C29.6971 18.2511 29.6367 18.2346 29.5762 18.2163L29.5964 18.1119L29.5726 18.1027L29.5964 18.0734L29.7667 18.2163L29.7466 18.2255L29.7594 18.2695H29.7576ZM30.6058 18.372L30.5563 18.4783C30.3456 18.4288 30.1404 18.3757 29.9389 18.3207L29.8473 18.1815L29.8089 18.198L29.622 18.0423L30.0837 17.4909L30.8512 18.1339L30.6406 18.3849L30.6039 18.3739L30.6058 18.372ZM31.344 18.645C31.1242 18.6029 30.908 18.5589 30.6955 18.5094L30.7157 18.4068L30.6864 18.3977L30.886 18.1595L31.355 18.5516L31.333 18.5571L31.344 18.645ZM32.0933 18.6377L32.0493 18.7512C31.8624 18.7311 31.6738 18.7036 31.4796 18.6706L31.4374 18.5314L31.4063 18.5387L30.9135 18.1266L31.3916 17.5568L32.368 18.3739L32.1372 18.6487L32.0933 18.6377ZM32.7546 18.7915C32.5714 18.7915 32.3827 18.7824 32.1904 18.7659L32.205 18.6688L32.183 18.6633L32.401 18.4032L32.7692 18.7109L32.7418 18.7201L32.7564 18.7915H32.7546ZM32.8975 18.7897L32.848 18.6835L32.815 18.6945L32.4267 18.3684L32.8663 17.8444L33.7878 18.6175L33.7695 18.6248L33.7933 18.7073C33.5093 18.7567 33.2089 18.7842 32.8975 18.7897ZM33.927 18.6816L33.8647 18.5864L33.8336 18.5992L32.8938 17.8115L33.2803 17.3517L34.5608 18.4233L34.5389 18.4343L34.5682 18.5094C34.3648 18.579 34.1523 18.6377 33.9288 18.6816H33.927ZM34.6305 18.3885L34.603 18.4014L33.3078 17.3169L33.6614 16.8937L35.1489 18.1412L35.1306 18.1522L35.1782 18.2456C35.0207 18.3281 34.854 18.4032 34.6818 18.4673L34.6305 18.3885ZM37.8363 15.4391C38.0268 15.4135 38.2155 15.9631 38.2705 16.1133C39.1553 18.4142 39.7488 18.8099 40.9048 20.6345C41.1594 21.0375 40.8901 21.3617 40.4486 21.1822C38.4482 20.367 37.9554 19.8486 35.5336 19.3796C35.376 19.3521 34.8008 19.2605 34.7935 19.07C34.7898 18.9766 34.9089 18.8905 35.0921 18.808C36.4605 18.187 37.2574 17.2363 37.6293 15.7799C37.6788 15.5857 37.741 15.4538 37.8345 15.441L37.8363 15.4391ZM37.3032 14.5488L37.1933 14.5378L37.1896 14.558L36.2682 13.7849L36.7133 13.2537L37.1017 13.5798L37.0962 13.6127L37.2318 13.6475C37.2794 13.9571 37.3032 14.2576 37.3032 14.547V14.5488ZM37.208 13.501H37.1127L37.109 13.5285L36.7408 13.2207L36.9625 12.9569L36.9716 12.9789L37.0834 12.9423C37.1329 13.1328 37.175 13.3178 37.208 13.5028V13.501ZM37.0449 12.7994L36.924 12.8745L36.9423 12.9148L36.7079 13.1932L35.7314 12.3762L36.2151 11.7991L36.7079 12.2113V12.2443L36.8672 12.2626C36.9332 12.444 36.9918 12.6235 37.0431 12.8012L37.0449 12.7994ZM36.8178 12.1289L36.7133 12.1344V12.1564L36.2425 11.7643L36.4441 11.5225L36.4587 11.55L36.5668 11.5079C36.6529 11.7094 36.7353 11.9164 36.8159 12.1289H36.8178ZM36.5137 11.376L36.4092 11.4492L36.4276 11.4841L36.2132 11.7387L35.4457 11.0957L35.9146 10.537L36.1015 10.6927L36.0923 10.7348L36.2554 10.8026C36.3451 10.9894 36.4312 11.18 36.5155 11.376H36.5137ZM36.1693 10.6285L36.1161 10.6231L36.1106 10.645L35.9403 10.5021L35.9641 10.4728L35.9769 10.4948L36.0813 10.4545C36.1106 10.5113 36.14 10.5681 36.1674 10.6267L36.1693 10.6285ZM35.7461 9.82983C35.8377 9.99104 35.9293 10.1577 36.0172 10.3281L35.922 10.3977L35.9439 10.4344L35.9091 10.4747L35.3522 10.0094L35.5647 9.75473L35.5794 9.77854L35.6856 9.72725C35.7058 9.76205 35.7259 9.79503 35.7461 9.82983ZM35.6124 9.60268L35.5189 9.67962L35.5409 9.71626L35.3193 9.98188L34.8118 9.55688L35.169 9.13188L35.1819 9.1502L35.2863 9.09157C35.3999 9.26194 35.5098 9.43231 35.6124 9.60451V9.60268ZM35.2057 8.9725L35.1159 9.05677L35.1434 9.09524L34.7788 9.5294L34.3227 9.14836L34.7917 8.58963L34.8137 8.61894L34.9071 8.56032C35.0097 8.69771 35.1086 8.83511 35.2038 8.9725H35.2057ZM34.8228 8.44674L34.744 8.52551L34.766 8.55482L34.2916 9.12089L33.8519 8.75267L34.3996 8.10051L34.4216 8.12616L34.5151 8.06387C34.6213 8.19027 34.7221 8.31851 34.8228 8.44857V8.44674ZM34.1194 7.60773C34.2238 7.7213 34.3245 7.83855 34.4235 7.95396L34.3465 8.03639L34.3703 8.0657L33.8189 8.72519L33.3994 8.37347L34.0021 7.65352L34.0223 7.67734L34.1175 7.60956L34.1194 7.60773ZM33.7108 7.18089C33.8171 7.28714 33.9215 7.39522 34.0223 7.50514L33.9472 7.59124L33.9746 7.62238L33.3664 8.34782L32.9469 7.99609L33.5918 7.22669L33.6192 7.25417L33.709 7.18272L33.7108 7.18089ZM33.2803 6.77054C33.3921 6.87313 33.502 6.97572 33.6101 7.08197L33.5405 7.17173L33.5643 7.19555L32.9176 7.96861L32.4945 7.61505L33.1594 6.82184L33.1924 6.85115L33.2822 6.77054H33.2803ZM32.8059 6.35836C32.9304 6.46095 33.055 6.5672 33.1759 6.67528L33.1063 6.77421L33.1283 6.79436L32.4633 7.58941L32.02 7.21936L32.6905 6.41882L32.7198 6.44446L32.8059 6.36019V6.35836ZM32.3387 5.99198C32.379 6.02129 32.4175 6.0506 32.4578 6.08174C32.5366 6.1422 32.6154 6.20448 32.6941 6.2686L32.63 6.36935L32.6557 6.39134L31.9852 7.19188L31.562 6.83832L32.216 6.05793L32.2471 6.08358L32.3387 5.99564V5.99198ZM31.736 5.71903L31.8203 5.6256C31.9559 5.71536 32.0896 5.80879 32.2215 5.90588L32.1574 6.0048L32.183 6.02679L31.529 6.80718L31.0839 6.43347L31.7031 5.69521L31.736 5.71903ZM31.1975 5.38928L31.2762 5.28669C31.4191 5.37096 31.5602 5.45706 31.6994 5.54866L31.6426 5.65308L31.6683 5.6714L31.0509 6.40782L30.6058 6.03411L31.1627 5.36913L31.1975 5.38928ZM30.5325 5.03939L30.6094 4.92764C30.7926 5.0174 30.974 5.11266 31.1517 5.21342L31.1004 5.327L31.1278 5.34348L30.5746 6.0048L30.0434 5.55965L30.4977 5.0174L30.5325 5.03572V5.03939ZM29.8712 4.74445L29.9389 4.62904C30.1203 4.70048 30.2998 4.77925 30.4793 4.86352L30.4336 4.9826L30.4629 4.99908L30.014 5.534L29.5158 5.11633L29.84 4.72979L29.873 4.74445H29.8712ZM29.0761 4.47699L29.1329 4.35608C29.3582 4.4202 29.5817 4.49348 29.8034 4.57774L29.7667 4.69682L29.7979 4.71147L29.481 5.08885L28.9131 4.61255L29.0376 4.46417L29.0761 4.47699ZM28.5723 4.32677L28.5833 4.22052C28.7207 4.24983 28.8563 4.28097 28.9918 4.31761L28.9662 4.44035L28.9937 4.44951L28.8801 4.58507L28.5723 4.32677ZM28.0209 4.24983L28.0411 4.17656L28.0447 4.17289H28.0429L28.0539 4.13076C28.1876 4.14908 28.3195 4.16923 28.4514 4.19487L28.4679 4.3286H28.5027L28.8508 4.61988L28.3818 5.17861L27.6875 4.5979L27.9825 4.24617L28.0191 4.25166L28.0209 4.24983ZM27.922 4.11427L27.9183 4.23335H27.9348L27.6564 4.56858L27.1929 4.18022H27.2021L27.1929 4.07214C27.4365 4.07214 27.6802 4.08679 27.922 4.11427ZM26.6342 4.22052L26.6598 4.09229C26.7917 4.0813 26.9236 4.0758 27.0573 4.07214L27.1013 4.20037L27.1379 4.19304L27.6271 4.60339L27.1434 5.18044L26.3392 4.5063L26.5829 4.21686L26.6342 4.22052ZM26.451 4.11244C26.473 4.11061 26.4968 4.10877 26.5188 4.10511L26.5243 4.21136H26.5316L26.3081 4.47882L26.0718 4.28097L26.0864 4.27548L26.0644 4.16923C26.1927 4.14724 26.3209 4.12893 26.4528 4.11244H26.451ZM25.9307 4.19304L25.9857 4.30845L26.0205 4.29746L26.2788 4.51363L25.8336 5.04488L25.1888 4.50447L25.2089 4.49348L25.165 4.39089C25.4086 4.31212 25.6651 4.24617 25.9307 4.19487V4.19304ZM25.0386 4.43119L25.121 4.54294L25.1503 4.52645L25.808 5.07786L25.4178 5.54499L24.5128 4.78658L24.5366 4.77193L24.4798 4.66018C24.6594 4.57591 24.8462 4.49897 25.0404 4.43119H25.0386ZM24.3589 4.7188L24.4487 4.82688L24.4725 4.8104L25.3866 5.57797L25.0276 6.00664L23.9486 5.1035L23.9687 5.08885L23.901 4.97893C24.0475 4.88551 24.1996 4.79941 24.3571 4.7188H24.3589ZM23.791 5.05038L23.8881 5.1493L23.9156 5.12915L25.0019 6.03961L24.6759 6.42981L23.5053 5.44973L23.5309 5.42958L23.454 5.30135C23.562 5.21342 23.6756 5.12915 23.7929 5.05038H23.791ZM23.3495 5.38745L23.4466 5.49187L23.4668 5.47721L24.6447 6.46461L24.3131 6.86031L23.0839 5.83077L23.1059 5.80513L23.0125 5.70803C23.1187 5.59629 23.2305 5.49004 23.3495 5.38928V5.38745ZM23.0418 5.88207L23.0583 5.86191L24.2875 6.89145L23.9559 7.28531L22.7267 6.25578L22.7432 6.23562L22.6479 6.1367C22.734 6.02129 22.8256 5.90954 22.9227 5.80146L23.04 5.88023L23.0418 5.88207Z" fill="#CCFF00"/>
<path d="M0 42.9563H6.63702C7.11698 43.3538 7.727 43.821 8.40664 44.2551C10.0077 45.3158 11.9935 46.1768 13.1147 46.0559C14.5289 45.9277 15.3075 45.4843 15.5786 45.3158C16.4396 45.4807 17.2951 45.6052 18.1469 45.6913C18.2458 45.7591 18.3429 45.8251 18.4364 45.8874C18.658 46.0321 18.9182 46.1676 19.1929 46.305C19.3303 46.3746 19.4732 46.4443 19.6179 46.5139C19.7627 46.5835 19.911 46.6531 20.0594 46.7264C20.5504 46.9718 21.0358 47.2814 21.3326 47.3016C21.6202 47.4445 21.9426 47.6057 22.276 47.7687C22.6095 47.9281 22.952 48.0893 23.2689 48.2432C23.802 48.551 24.3718 48.8551 24.8682 49.1189C25.3005 49.2251 25.7805 49.4028 26.2989 49.5732C26.8192 49.738 27.3724 49.9066 27.9293 49.989C28.0301 49.9707 28.2517 49.9725 28.4331 49.9597C28.6181 49.945 28.761 49.9176 28.7079 49.8479C28.6236 49.7362 28.4386 49.7564 28.2224 49.6135C27.9293 49.5457 28.1455 49.4578 27.8432 49.39C26.9511 49.2306 26.222 48.9063 25.4031 48.5748C24.6227 48.2652 23.835 47.9593 23.0308 47.6185C22.8293 47.5342 22.6278 47.4463 22.4263 47.3547C22.2248 47.2631 22.0232 47.1642 21.8199 47.0616C21.8126 47.0579 21.8071 47.0543 21.7998 47.0525C21.3363 46.2995 20.9296 45.5411 20.5724 44.7809C20.6328 44.5244 20.7262 43.8869 20.7464 42.9545H66.0917C66.1119 43.8887 66.2053 44.5262 66.2657 44.7845C65.9104 45.543 65.5018 46.3014 65.0402 47.0561C65.0329 47.0598 65.0274 47.0634 65.02 47.0671C64.8185 47.1679 64.617 47.2668 64.4137 47.3602C64.2122 47.4518 64.0107 47.5397 63.8092 47.624C63.0049 47.9647 62.2172 48.2707 61.4368 48.5803C60.618 48.9118 59.8889 49.2379 58.9967 49.3973C58.6945 49.4669 58.9106 49.553 58.6175 49.6226C58.4014 49.7655 58.2163 49.7454 58.1321 49.8589C58.0789 49.9286 58.2218 49.956 58.4068 49.9707C58.5882 49.9835 58.8099 49.9817 58.9106 50C59.4675 49.9176 60.0208 49.749 60.541 49.5842C61.0595 49.412 61.5412 49.2343 61.9717 49.128C62.4664 48.8642 63.0361 48.5601 63.5692 48.2524C63.8879 48.0985 64.2287 47.9354 64.5621 47.7761C64.8936 47.613 65.2179 47.4518 65.5037 47.3089C65.8004 47.2888 66.2841 46.9792 66.775 46.7337C66.9234 46.6604 67.07 46.589 67.2165 46.5212C67.3612 46.4516 67.5041 46.382 67.6415 46.3124C67.9181 46.175 68.1764 46.0376 68.3981 45.8947C68.4933 45.8324 68.5904 45.7664 68.6875 45.6987C69.5375 45.6126 70.3949 45.488 71.2559 45.3213C71.5288 45.488 72.3056 45.9313 73.7216 46.0596C74.8409 46.1786 76.8285 45.3176 78.4278 44.2551C79.1056 43.8228 79.712 43.3557 80.1901 42.9581H87.3272V42.5917H0V42.9581V42.9563ZM74.8153 42.9563C73.3021 43.8429 71.9337 44.7497 71.3804 45.0886C70.5872 45.2462 69.7958 45.3708 69.0099 45.4605C69.1309 45.3708 69.2518 45.2792 69.3727 45.1821C69.7042 44.9201 70.034 44.6398 70.3344 44.3522C70.8968 43.8228 71.3713 43.3044 71.6699 42.9545H74.8153V42.9563ZM67.9896 42.9563H70.9957C70.9096 43.0351 70.8254 43.1157 70.7429 43.1963C70.4425 43.493 70.1439 43.8045 69.8288 44.1049C69.5137 44.4035 69.1767 44.682 68.8139 44.9183C68.4366 45.2901 68.083 45.6584 67.5939 45.9533C67.0113 46.305 66.6724 46.2153 66.2273 46.4003C65.936 46.578 65.6447 46.7392 65.3516 46.8949C65.7766 46.1786 66.154 45.4605 66.4856 44.7406C66.7952 44.4566 67.4052 43.8045 67.9896 42.9581V42.9563ZM18.8412 42.9563C19.4256 43.8008 20.0356 44.453 20.3452 44.7351C20.6768 45.455 21.0542 46.1731 21.481 46.8894C21.1879 46.7355 20.8966 46.5725 20.6053 46.3948C20.1584 46.2116 19.8213 46.2995 19.2387 45.9496C18.7496 45.6547 18.3961 45.2865 18.0187 44.9164C17.656 44.6801 17.3189 44.4017 17.002 44.1031C16.6869 43.8045 16.3883 43.4912 16.0878 43.1963C16.0072 43.1157 15.9211 43.0369 15.835 42.9581H18.843L18.8412 42.9563ZM15.1572 42.9563C15.4558 43.3044 15.9303 43.8228 16.4927 44.3522C16.7931 44.638 17.1229 44.9183 17.4545 45.1802C17.5754 45.2755 17.6981 45.3689 17.819 45.4587C17.0331 45.3689 16.2417 45.2462 15.4485 45.0886C14.8953 44.7479 13.525 43.8429 12.01 42.9563H15.1572Z" fill="#CCFF00"/>
<path d="M83.0955 33.7967C83.1175 33.7619 83.1395 33.7271 83.1615 33.6941C84.2185 32.0473 84.8285 30.4004 84.8322 30.415C84.812 30.4187 81.7656 31.135 80.0674 33.2948C79.9391 33.4615 79.8127 33.63 79.6882 33.7967H77.5998C77.739 33.2911 77.8581 32.7965 77.979 32.3202C78.1182 31.9135 78.1439 31.6204 78.2208 31.2376C78.23 31.1936 78.2391 31.146 78.2483 31.102C78.8327 30.459 79.3969 29.7794 79.9336 29.0612C80.4741 28.7865 82.1045 27.8394 83.2695 26.7329C85.1967 25.108 85.2572 19.484 85.1418 19.4968C85.1253 19.5042 82.436 21.1291 81.4743 23.6956C80.6957 25.8334 80.0637 28.1233 79.8274 28.8909C79.3438 29.5394 78.84 30.1586 78.3179 30.7466C78.4186 30.241 78.5212 29.7152 78.6055 29.1767C78.7154 28.4604 78.8052 27.7258 78.8565 26.9912C78.8583 26.9564 78.862 26.9216 78.8638 26.8868C78.8711 26.8794 78.8766 26.8739 78.8839 26.8666C78.8785 26.8556 78.873 26.8428 78.8675 26.8318C78.9224 25.9195 78.9206 25.0713 78.9114 24.1444C78.9059 23.833 78.8949 23.5197 78.8803 23.2046C79.2192 22.2722 79.5141 21.3031 79.7578 20.3047C80.1461 19.7973 81.2636 18.1357 81.8645 16.5273C82.9508 14.0689 80.7342 8.94136 80.6334 9.00548C80.6334 9.03295 79.0195 11.964 79.1258 14.7412C79.2485 17.0586 79.5251 19.4071 79.5984 20.2058C79.3877 21.0778 79.1386 21.9241 78.8546 22.7466C78.8235 22.2777 78.7814 21.8032 78.7264 21.3251C78.6403 20.6345 78.5286 19.9365 78.3875 19.2367C78.3179 18.8868 78.241 18.5369 78.1567 18.1889C78.0688 17.8408 77.9735 17.4946 77.8709 17.1483C77.499 15.8843 77.0502 14.6423 76.5501 13.4442C76.475 12.6034 76.3577 11.7533 76.1965 10.8978C76.3229 10.286 76.5812 8.44491 76.442 6.85115C76.3651 4.3341 72.639 0.880946 72.5803 0.957887C72.6005 0.985365 72.5107 4.18755 73.6227 6.50308C74.5771 8.40278 75.6506 10.2292 76.0152 10.8832C76.1452 11.561 76.246 12.237 76.3193 12.9056C76.2094 12.651 76.0976 12.4 75.9859 12.1582C75.8411 11.8541 75.6928 11.561 75.5444 11.2807C75.2439 10.722 74.9344 10.2164 74.6064 9.7932C74.0825 8.79664 72.9266 7.37324 72.2524 6.55071C72.192 6.51591 72.0876 6.41882 71.9575 6.28692C71.5636 5.39111 70.5597 3.55554 68.8799 2.07169C66.5057 -0.100958 62.1787 -0.0313458 62.2337 0.0236116C62.2227 0.0291073 63.5655 0.972542 64.9816 2.14497C66.4324 3.3064 67.9566 4.69682 69.1254 5.35631C70.4627 6.0909 71.4244 6.54705 71.8934 6.74306C71.952 6.81084 72.0106 6.88046 72.0674 6.94641C72.2414 7.15341 72.4063 7.35492 72.5639 7.55277C73.194 8.34965 73.7088 9.09524 74.1741 9.83533C74.5057 10.3629 74.808 10.8814 75.1157 11.4401C75.2696 11.7204 75.4253 12.0098 75.5828 12.3212C75.7386 12.6327 75.8961 12.9624 76.0555 13.3196C76.4567 14.2118 76.8066 15.1241 77.0942 16.0015C76.5519 15.4318 75.9914 14.8951 75.4143 14.3895C75.1047 13.7391 73.9726 11.8083 72.3166 10.6285C70.2886 9.15569 67.8449 9.54406 67.8668 9.54589C68.0006 9.48727 70.9921 13.2592 72.8716 14.0304C74.1521 14.4536 75.0571 14.5873 75.3887 14.6075C76.0225 15.168 76.6362 15.7689 77.2261 16.4082C77.3305 16.7398 77.4239 17.0659 77.51 17.3828C77.6254 17.8041 77.7317 18.2072 77.8141 18.5864C78.1127 19.9182 78.2758 21.1639 78.371 22.3638C78.4168 22.9646 78.4498 23.5545 78.4626 24.1389C78.4699 24.7251 78.4663 25.3058 78.4535 25.8902C78.4535 25.925 78.4535 25.9598 78.4516 25.9946C78.1439 25.4029 77.8178 24.8332 77.4752 24.2818C77.38 23.5747 76.8963 21.4368 75.7257 19.9035C74.3005 18.0038 71.9337 17.7309 71.9502 17.7309C72.0711 17.6924 73.6172 22.0157 75.1762 23.2797C76.2552 24.0272 77.074 24.3844 77.3818 24.487C77.7555 25.0952 78.1091 25.729 78.4388 26.3848C78.4077 27.473 78.3161 28.6289 78.208 29.4496C78.1237 30.0377 78.0138 30.622 77.8782 31.2229C77.8636 31.2376 77.8508 31.2522 77.8361 31.2669C77.8434 31.2815 77.8508 31.2943 77.8581 31.309C77.7408 31.8183 77.6071 32.3367 77.4496 32.8808C77.3616 33.183 77.2682 33.4871 77.1656 33.7912H76.0793C76.0701 33.6813 76.061 33.5696 76.05 33.4597C76.2643 32.7599 76.7424 30.5543 76.3339 28.5758C75.8503 26.1119 72.9284 24.9504 72.9467 24.9724C73.0603 24.9449 73.5787 29.4789 74.4416 31.4317C75.0901 32.628 75.6561 33.3589 75.8833 33.6044C75.8888 33.6667 75.8943 33.729 75.8979 33.7912H73.3626C72.758 32.1975 71.3603 31.1185 71.3695 31.1368C71.4317 31.1368 71.2595 32.3385 71.1185 33.7912H15.7031C15.5603 32.3385 15.3881 31.1368 15.4503 31.1368C15.4595 31.1185 14.0618 32.1975 13.4591 33.7912H10.9237C10.9292 33.729 10.9328 33.6667 10.9383 33.6062C11.1637 33.3607 11.7297 32.6298 12.3782 31.4336C13.2411 29.4808 13.7558 24.9468 13.8694 24.9724C13.8877 24.9523 10.9658 26.1137 10.484 28.5776C10.0773 30.5561 10.5555 32.7617 10.7716 33.4615C10.7606 33.5714 10.7515 33.6813 10.7423 33.7912H9.65418C9.55159 33.4871 9.45816 33.1849 9.37023 32.8826C9.21268 32.3385 9.07712 31.8201 8.95988 31.3108C8.96721 31.2962 8.97454 31.2834 8.98186 31.2687C8.96721 31.254 8.95438 31.2394 8.93973 31.2247C8.80417 30.6239 8.69242 30.0395 8.60999 29.4514C8.5019 28.6307 8.41031 27.4748 8.37733 26.3867C8.70708 25.729 9.0588 25.0952 9.43251 24.487C9.74028 24.3844 10.5591 24.0272 11.6381 23.2797C13.1971 22.0139 14.7414 17.6887 14.8623 17.729C14.8788 17.729 12.512 18.0038 11.0886 19.9035C9.91797 21.4368 9.43801 23.5747 9.34092 24.2836C8.99835 24.8332 8.67227 25.4047 8.36634 25.9965C8.36634 25.9617 8.36634 25.9268 8.36451 25.892C8.35169 25.3077 8.34619 24.7251 8.35352 24.1407C8.36634 23.5545 8.39931 22.9665 8.44511 22.3656C8.53854 21.1657 8.70158 19.9182 9.00018 18.5882C9.08262 18.209 9.18887 17.806 9.30428 17.3846C9.39038 17.0696 9.48564 16.7435 9.58823 16.4101C10.1781 15.7707 10.7918 15.1699 11.4256 14.6093C11.7572 14.5891 12.6622 14.4536 13.9408 14.0304C15.8204 13.2573 18.8101 9.4836 18.9438 9.54222C18.9658 9.54222 16.522 9.15386 14.4959 10.6267C12.8399 11.8065 11.7096 13.7373 11.4 14.3895C10.8229 14.8951 10.2624 15.4337 9.72012 16.0034C10.0077 15.1259 10.3558 14.2136 10.757 13.3215C10.9164 12.9642 11.0739 12.6327 11.2296 12.3212C11.3872 12.0116 11.541 11.7204 11.6968 11.4401C12.0045 10.8795 12.3068 10.3629 12.6384 9.8335C13.1037 9.09341 13.6184 8.34782 14.2486 7.55094C14.4062 7.35126 14.571 7.14975 14.7451 6.94274C14.8018 6.87496 14.8605 6.80718 14.9191 6.7394C15.3881 6.54339 16.3498 6.08541 17.6853 5.35081C18.8559 4.69132 20.3782 3.29907 21.8272 2.13764C23.2396 0.967046 24.5824 0.0236116 24.5714 0.0181158C24.6264 -0.0368415 20.2994 -0.104622 17.9253 2.07352C16.2454 3.5592 15.2415 5.39478 14.8495 6.29058C14.7194 6.42248 14.6168 6.51957 14.5564 6.55438C13.8822 7.37874 12.7281 8.8003 12.2042 9.79869C11.8781 10.2219 11.5667 10.7275 11.2681 11.2862C11.1179 11.5665 10.9713 11.8596 10.8266 12.1637C10.7149 12.4055 10.6049 12.6565 10.4932 12.9111C10.5665 12.2425 10.6672 11.5665 10.7973 10.8887C11.1618 10.2347 12.2335 8.40644 13.1879 6.50675C14.2981 4.19121 14.2065 0.989029 14.2266 0.96155C14.168 0.88461 10.4437 4.3396 10.3686 6.85664C10.2312 8.44857 10.4895 10.2896 10.6159 10.9015C10.4547 11.757 10.3393 12.607 10.2642 13.4479C9.76409 14.6459 9.3171 15.888 8.94523 17.152C8.84264 17.4964 8.74921 17.8444 8.65945 18.1925C8.57518 18.5424 8.49824 18.8905 8.42863 19.2404C8.2894 19.9402 8.17582 20.6381 8.09155 21.3287C8.0366 21.8069 7.99446 22.2813 7.96332 22.7503C7.67937 21.9296 7.4284 21.0814 7.21773 20.2094C7.29101 19.4126 7.5658 17.0641 7.6867 14.7449C7.79112 11.9677 6.17537 9.03662 6.17537 9.00914C6.07462 8.94502 3.85984 14.0725 4.94799 16.531C5.54886 18.1376 6.66816 19.8009 7.05652 20.3065C7.30017 21.3049 7.59511 22.2722 7.93584 23.2065C7.92119 23.5215 7.9102 23.8348 7.9047 24.1462C7.89554 25.0713 7.89371 25.9213 7.94867 26.8336L7.93218 26.8684C7.93218 26.8684 7.945 26.8813 7.95233 26.8886C7.95416 26.9234 7.95599 26.9564 7.95966 26.993C8.01095 27.7276 8.10255 28.464 8.21246 29.1785C8.29673 29.7171 8.39932 30.2428 8.50007 30.7484C7.97798 30.1604 7.47237 29.543 6.98874 28.8945C6.75243 28.127 6.11859 25.8389 5.33819 23.7011C4.37461 21.1346 1.68536 19.5115 1.66887 19.5042C1.55346 19.4913 1.61575 25.1153 3.54475 26.7384C4.70985 27.8449 6.34208 28.7901 6.88249 29.0649C7.42107 29.7812 7.98347 30.4627 8.56968 31.1038C8.57884 31.1496 8.588 31.1954 8.59716 31.2394C8.6741 31.6223 8.69975 31.9135 8.83897 32.322C8.95988 32.7965 9.07895 33.293 9.21818 33.7967H7.12797C7.0034 33.63 6.877 33.4633 6.75059 33.2985C5.05241 31.1405 2.00411 30.4242 1.98579 30.4224C1.99129 30.4077 2.60131 32.0546 3.65833 33.6996C3.67848 33.7326 3.70046 33.7656 3.72061 33.7967H0V34.1631H87.3254V33.7967H83.0955Z" fill="#CCFF00"/>
<path d="M40.6941 37.3873C40.9212 37.2096 41.0495 36.9146 40.8974 36.3284C40.1372 35.8118 39.1077 35.7844 38.3071 36.3376C38.0433 36.5208 37.829 36.7498 37.6678 37.0044C38.0799 36.9769 38.4793 37.0466 39.2432 37.4148C39.758 37.6639 40.3552 37.6511 40.6941 37.3855V37.3873Z" fill="#CCFF00"/>
<path d="M37.4956 37.3397C37.2061 38.0358 37.2629 38.8601 37.7246 39.5251C38.0854 40.0472 38.6222 40.3715 39.2011 40.4759C39.2066 40.4686 39.7012 40.2048 40.0639 39.5251C40.1005 39.4537 40.7729 38.1897 41.894 38.36C41.9233 37.8654 41.7951 37.358 41.4928 36.9201C41.4012 36.7882 41.2986 36.6673 41.185 36.5611C41.284 37.0411 41.2345 37.347 40.8956 37.6328C40.4578 38.0028 39.7323 38.0559 39.0857 37.7445C38.1715 37.303 37.6073 37.2994 37.4956 37.3397Z" fill="#CCFF00"/>
<path d="M40.3863 39.6955C40.0291 40.3623 39.7781 40.4832 39.6646 40.5125C40.0951 40.5015 40.5292 40.3715 40.9103 40.1077C41.4049 39.7651 41.7236 39.2632 41.8445 38.7191C40.9762 38.5909 40.3918 39.6845 40.3863 39.6955Z" fill="#CCFF00"/>
<path d="M11.7884 36.5025C12.206 36.5025 12.4643 36.6893 12.7831 37.3048L12.9205 37.5631H12.9919L12.849 36.3981H9.667L9.50213 37.5631H9.57357L9.69448 37.3158C9.98575 36.7278 10.299 36.5025 10.7387 36.5025H10.8266V39.6515C10.8266 40.0747 10.6013 40.1736 10.3705 40.1956V40.2451H12.1346V40.1956C11.9038 40.1736 11.6784 40.0747 11.6784 39.6515V36.5025H11.7884Z" fill="#CCFF00"/>
<path d="M14.2614 40.1956V40.2451H17.372L17.5259 39.069H17.438C17.2346 39.712 16.6026 40.1406 15.9761 40.1406H15.5474V38.2886H15.8332C16.3223 38.2886 16.6741 38.5139 16.7565 38.9646H16.8279V37.5082H16.7565C16.6796 37.9478 16.3333 38.1787 15.8332 38.1787H15.5474V36.5025H15.9376C16.4432 36.5025 16.9763 36.7992 17.3116 37.3763H17.3885L17.2346 36.3981H14.2614V36.4475C14.4868 36.4695 14.7011 36.5794 14.7011 36.9916V39.668C14.7011 40.0802 14.4868 40.1736 14.2614 40.1956Z" fill="#CCFF00"/>
<path d="M18.8998 40.1956V40.2451H20.3892V40.1956C20.01 40.1736 19.6637 39.9043 19.6582 39.1679L19.6528 37.1455L22.1588 40.3165H22.3017L22.3182 37.4093C22.3237 36.7663 22.5215 36.4695 22.9172 36.4475V36.3981H21.4938V36.4475C21.8895 36.4805 22.1643 36.7718 22.1698 37.4093L22.1863 38.981L20.1529 36.3981H18.9108V36.4475C19.312 36.486 19.5318 36.8652 19.5263 37.4203L19.5099 39.2174C19.5044 39.9483 19.2351 40.1791 18.8998 40.1956Z" fill="#CCFF00"/>
<path d="M24.1483 40.1956V40.2451H25.6376V40.1956C25.2584 40.1736 24.9122 39.9043 24.9067 39.1679L24.9012 37.1455L27.4072 40.3165H27.5501L27.5666 37.4093C27.5721 36.7663 27.77 36.4695 28.1656 36.4475V36.3981H26.7422V36.4475C27.1379 36.4805 27.4127 36.7718 27.4182 37.4093L27.4347 38.981L25.4013 36.3981H24.1593V36.4475C24.5604 36.486 24.7803 36.8652 24.7748 37.4203L24.7583 39.2174C24.7528 39.9483 24.4835 40.1791 24.1483 40.1956Z" fill="#CCFF00"/>
<path d="M29.4516 40.1956V40.2451H31.1828V40.1956C30.963 40.1736 30.7431 40.0692 30.7431 39.6625V36.9806C30.7431 36.5739 30.963 36.4695 31.1828 36.4475V36.3981H29.4516V36.4475C29.677 36.4695 29.8913 36.5739 29.8913 36.9806V39.6625C29.8913 40.0692 29.677 40.1736 29.4516 40.1956Z" fill="#CCFF00"/>
<path d="M33.9801 40.2451C33.447 40.2451 33.1063 39.8714 32.9414 39.003L32.859 38.992L32.6282 40.0582C32.9085 40.2011 33.4306 40.3495 33.9252 40.3495C34.799 40.3495 35.398 39.7889 35.398 39.1239C35.398 38.371 34.7385 38.0962 34.1505 37.8379C33.6724 37.6291 33.2437 37.4313 33.2437 37.0081C33.2437 36.6344 33.557 36.3981 33.9966 36.3981C34.5077 36.3981 34.81 36.7663 34.9199 37.4862L35.0078 37.4972L35.2332 36.5629C34.9144 36.3981 34.4857 36.2991 34.0516 36.2991C33.1942 36.2991 32.6941 36.8267 32.6941 37.4477C32.6941 38.2061 33.3316 38.4645 33.8977 38.7227C34.3428 38.9316 34.744 39.1349 34.744 39.5966C34.744 39.9593 34.4802 40.2451 33.9801 40.2451Z" fill="#CCFF00"/>
<path d="M45.2739 40.1956V40.2451H47.038V40.1956C46.8072 40.1571 46.6093 39.9593 46.4609 39.5746L45.2299 36.3541H45.0156L43.9659 39.1184C43.6801 39.8714 43.4328 40.1461 43.1305 40.1956V40.2451H44.499V40.1956C44.0263 40.1461 43.8615 39.7834 44.1362 39.014H45.3398L45.5102 39.4702C45.7025 39.9868 45.6036 40.1516 45.2739 40.1956ZM44.1802 38.8986L44.7408 37.3818L45.3013 38.8986H44.1802Z" fill="#CCFF00"/>
<path d="M50.1926 36.4145C50.7256 36.4145 51.1323 36.8707 51.2477 37.5522L51.3412 37.5631L51.5665 36.5519C51.2697 36.3981 50.7971 36.2991 50.308 36.2991C49.1154 36.2991 48.1371 37.151 48.1371 38.3545C48.1371 39.4207 48.9175 40.3385 50.0057 40.3385C50.7531 40.3385 51.2917 39.8878 51.528 39.2558L51.4456 39.2284C51.2148 39.635 50.8026 39.8384 50.3629 39.8384C49.61 39.8384 49.0439 39.2778 49.0439 38.1457C49.0439 37.0136 49.588 36.4145 50.1926 36.4145Z" fill="#CCFF00"/>
<path d="M54.7265 40.1956V40.2451H56.4907V40.1956C56.2598 40.1571 56.062 39.9593 55.9136 39.5746L54.6826 36.3541H54.4682L53.4185 39.1184C53.1328 39.8714 52.8855 40.1461 52.5832 40.1956V40.2451H53.9516V40.1956C53.479 40.1461 53.3141 39.7834 53.5889 39.014H54.7925L54.9628 39.4702C55.1552 39.9868 55.0563 40.1516 54.7265 40.1956ZM53.6329 38.8986L54.1934 37.3818L54.754 38.8986H53.6329Z" fill="#CCFF00"/>
<path d="M57.7492 40.1956V40.2451H59.5353C60.7499 40.2451 61.6017 39.3328 61.6017 38.2886C61.6017 37.2444 60.7554 36.3981 59.5738 36.3981H57.7492V36.4475C57.969 36.4695 58.1889 36.5684 58.1889 36.9806V39.6625C58.1889 40.0747 57.969 40.1736 57.7492 40.1956ZM59.0352 36.5025H59.3704C60.1124 36.5025 60.6564 37.0905 60.6564 38.3271C60.6564 39.5636 60.1948 40.1406 59.4144 40.1406H59.0352V36.5025Z" fill="#CCFF00"/>
<path d="M63.0031 40.1956V40.2451H66.1137L66.2676 39.069H66.1796C65.9763 39.712 65.3443 40.1406 64.7178 40.1406H64.2891V38.2886H64.5749C65.064 38.2886 65.4157 38.5139 65.4982 38.9646H65.5696V37.5082H65.4982C65.4212 37.9478 65.075 38.1787 64.5749 38.1787H64.2891V36.5025H64.6793C65.1849 36.5025 65.718 36.7992 66.0532 37.3763H66.1302L65.9763 36.3981H63.0031V36.4475C63.2284 36.4695 63.4428 36.5794 63.4428 36.9916V39.668C63.4428 40.0802 63.2284 40.1736 63.0031 40.1956Z" fill="#CCFF00"/>
<path d="M68.4164 39.1569C68.2735 39.8604 67.9932 40.1736 67.614 40.1956V40.2451H69.0704V40.1956C68.6033 40.1736 68.4274 39.7834 68.5538 39.1294L68.9715 37.0301L69.9332 40.3165H70.0267L71.1093 37.0191L71.538 39.4812C71.6149 39.9483 71.4885 40.1736 71.0928 40.1956V40.2451H73.0988V40.1956C72.747 40.1736 72.4887 39.9318 72.4063 39.4647L72.0106 37.3268C71.9282 36.8487 72.0766 36.475 72.5382 36.4475V36.3981H71.1808L70.3729 38.8601L69.642 36.3981H68.2515V36.4475C68.7132 36.475 68.889 36.8487 68.7956 37.3268L68.4164 39.1569Z" fill="#CCFF00"/>
<path d="M75.5719 36.4475V36.3981H73.8792V36.4475C74.077 36.497 74.2254 36.6399 74.4068 36.9806L75.2421 38.5799V39.6625C75.2421 40.0692 75.0168 40.1736 74.786 40.1956V40.2451H76.5446V40.1956C76.3138 40.1736 76.0885 40.0692 76.0885 39.6625V38.5414L76.7315 37.3048C77.0392 36.7223 77.325 36.4695 77.5668 36.4475V36.3981H76.2698V36.4475C76.7095 36.508 76.8304 36.8487 76.5006 37.4862L76.028 38.3985L75.3465 37.0026C75.1926 36.7003 75.2751 36.4805 75.5719 36.4475Z" fill="#CCFF00"/>
<path d="M112.615 28.4183L106.964 13.6352H105.98L101.162 26.3244C99.8499 29.7805 98.7146 31.0419 97.3271 31.2689V31.496H103.609V31.2689C101.439 31.0419 100.682 29.3769 101.944 25.8451H107.468L108.25 27.939C109.133 30.3103 108.679 31.0671 107.166 31.2689V31.496H115.264V31.2689C114.204 31.0923 113.296 30.1842 112.615 28.4183ZM102.146 25.3153L104.719 18.3527L107.292 25.3153H102.146Z" fill="#CCFF00"/>
<path d="M123.109 29.5283C120.788 29.5283 119.048 27.6867 119.048 24.3315C119.048 21.5565 120.082 20.0429 121.343 20.0429C122.529 20.0429 122.68 21.4051 123.034 22.5151C123.286 23.2972 123.891 23.6756 124.572 23.6756C125.481 23.6756 126.111 22.9945 126.111 22.1872C126.111 20.9511 124.673 19.5888 121.999 19.5888C118.417 19.5888 115.919 22.2881 115.919 25.9208C115.919 29.5535 118.341 31.8996 121.495 31.8996C123.942 31.8996 125.657 30.4617 126.439 27.838L126.187 27.7119C125.481 28.9228 124.421 29.5283 123.109 29.5283Z" fill="#CCFF00"/>
<path d="M133.478 19.5888C130.576 19.5888 127.801 22.2376 127.801 25.9712C127.801 29.3517 130.198 31.8996 133.301 31.8996C135.622 31.8996 137.489 30.4869 138.245 27.8128L137.993 27.7119C137.287 28.9228 136.152 29.5283 134.84 29.5283C132.569 29.5283 130.98 27.6362 130.93 24.5838H138.346C138.245 21.4556 136.101 19.5888 133.478 19.5888ZM130.93 24.0792C131.056 21.5565 132.065 20.0429 133.301 20.0429C134.36 20.0429 135.067 21.1529 135.092 24.0792H130.93Z" fill="#CCFF00"/>
<path d="M159.915 19.1852L159.26 13.837H144.653L143.896 19.1852H144.224L144.779 18.0499C146.116 15.3507 147.554 14.3163 149.572 14.3163H149.976V28.7714C149.976 30.7139 148.942 31.168 147.882 31.2689V31.496H155.98V31.2689C154.92 31.168 153.886 30.7139 153.886 28.7714V14.3163H154.391C156.308 14.3163 157.494 15.1741 158.957 17.9995L159.587 19.1852H159.915Z" fill="#CCFF00"/>
<path d="M164.784 19.5888C161.883 19.5888 159.108 22.2376 159.108 25.9712C159.108 29.3517 161.505 31.8996 164.608 31.8996C166.929 31.8996 168.795 30.4869 169.552 27.8128L169.3 27.7119C168.594 28.9228 167.458 29.5283 166.147 29.5283C163.876 29.5283 162.287 27.6362 162.236 24.5838H169.653C169.552 21.4556 167.408 19.5888 164.784 19.5888ZM162.236 24.0792C162.362 21.5565 163.372 20.0429 164.608 20.0429C165.667 20.0429 166.374 21.1529 166.399 24.0792H162.236Z" fill="#CCFF00"/>
<path d="M183.175 29.276V22.7674C183.175 20.6736 181.989 19.5888 180.148 19.5888C178.558 19.5888 177.019 20.5474 175.96 21.7079V19.7149L175.758 19.6393L170.738 21.0772V21.3042C171.722 21.2538 172.579 21.6574 172.579 23.2215V29.276C172.579 30.7644 171.747 31.1932 170.94 31.2689V31.496H177.347V31.2941C176.54 31.2185 176.01 30.7139 176.01 29.2255V22.2376C176.641 21.5817 177.448 21.1276 178.18 21.1276C179.189 21.1276 179.744 21.8088 179.744 23.4485V29.2255C179.744 30.7139 179.265 31.2185 178.407 31.2941V31.496H184.84V31.2689C183.982 31.1932 183.175 30.7644 183.175 29.276Z" fill="#CCFF00"/>
<path d="M198.134 29.276V22.7674C198.134 20.6736 196.949 19.5888 195.107 19.5888C193.518 19.5888 191.979 20.5474 190.919 21.7079V19.7149L190.718 19.6393L185.697 21.0772V21.3042C186.681 21.2538 187.539 21.6574 187.539 23.2215V29.276C187.539 30.7644 186.707 31.1932 185.899 31.2689V31.496H192.307V31.2941C191.5 31.2185 190.97 30.7139 190.97 29.2255V22.2376C191.601 21.5817 192.408 21.1276 193.139 21.1276C194.149 21.1276 194.704 21.8088 194.704 23.4485V29.2255C194.704 30.7139 194.224 31.2185 193.367 31.2941V31.496H199.799V31.2689C198.942 31.1932 198.134 30.7644 198.134 29.276Z" fill="#CCFF00"/>
<path d="M204.164 17.9238C205.349 17.9238 206.283 16.9904 206.283 15.8804C206.283 14.7704 205.349 13.8118 204.164 13.8118C202.978 13.8118 202.095 14.72 202.095 15.8804C202.095 17.0409 203.028 17.9238 204.164 17.9238Z" fill="#CCFF00"/>
<path d="M205.93 29.276V22.7926L205.98 19.7149L205.778 19.6393L200.657 21.0772V21.3042C201.641 21.2538 202.499 21.6574 202.499 23.2215V29.276C202.499 30.7644 201.666 31.1932 200.859 31.2689V31.496H207.62V31.2689C206.787 31.1932 205.93 30.7644 205.93 29.276Z" fill="#CCFF00"/>
<path d="M214.103 24.2306C212.59 23.5494 211.202 22.944 211.202 21.6574C211.202 20.7492 211.934 20.0933 213.17 20.0933C214.532 20.0933 215.919 21.3042 216.374 23.4485L216.601 23.4738L217.458 20.5474C216.449 19.942 215.037 19.5888 213.573 19.5888C210.571 19.5888 209.033 21.3295 209.033 23.3224C209.033 25.8956 211.379 26.7281 213.195 27.611C214.355 28.166 215.314 28.721 215.314 29.7805C215.314 30.7644 214.557 31.4707 213.245 31.4707C211.555 31.4707 210.218 30.0076 209.915 27.6615L209.638 27.6362L208.679 30.941C209.613 31.4707 211.404 31.8996 213.018 31.8996C216.071 31.8996 217.786 30.386 217.786 28.1912C217.786 25.9965 215.869 25.0631 214.103 24.2306Z" fill="#CCFF00"/>
<path d="M238.674 28.4183L233.023 13.6352H232.04L227.221 26.3244C225.909 29.7805 224.774 31.0419 223.387 31.2689V31.496H229.668V31.2689C227.499 31.0419 226.742 29.3769 228.003 25.8451H233.528L234.31 27.939C235.193 30.3103 234.739 31.0671 233.225 31.2689V31.496H241.323V31.2689C240.264 31.0923 239.355 30.1842 238.674 28.4183ZM228.205 25.3153L230.778 18.3527L233.351 25.3153H228.205Z" fill="#CCFF00"/>
<path d="M249.169 29.5283C246.848 29.5283 245.107 27.6867 245.107 24.3315C245.107 21.5565 246.141 20.0429 247.403 20.0429C248.589 20.0429 248.74 21.4051 249.093 22.5151C249.345 23.2972 249.951 23.6756 250.632 23.6756C251.54 23.6756 252.171 22.9945 252.171 22.1872C252.171 20.9511 250.733 19.5888 248.059 19.5888C244.477 19.5888 241.979 22.2881 241.979 25.9208C241.979 29.5535 244.401 31.8996 247.554 31.8996C250.001 31.8996 251.717 30.4617 252.499 27.838L252.246 27.7119C251.54 28.9228 250.481 29.5283 249.169 29.5283Z" fill="#CCFF00"/>
<path d="M264.406 30.386C263.876 30.386 263.624 29.9571 263.624 29.0489V23.5242C263.624 21.052 262.135 19.5888 258.957 19.5888C255.98 19.5888 254.366 20.8249 254.366 22.2881C254.366 23.1458 254.971 23.7513 255.803 23.7513C256.56 23.7513 257.216 23.2719 257.468 22.2629C257.822 20.8502 257.872 19.9672 258.856 19.9672C259.714 19.9672 260.168 20.6483 260.168 22.4647V24.4324C255.047 25.9965 253.785 27.4849 253.785 29.2255C253.785 30.9662 255.148 31.8996 256.712 31.8996C257.973 31.8996 259.26 31.2941 260.294 30.1337C260.622 31.2941 261.454 31.8239 262.59 31.8239C263.851 31.8239 264.936 31.1932 265.768 29.7553L265.541 29.6039C265.163 30.1589 264.81 30.386 264.406 30.386ZM258.654 30.386C257.822 30.386 257.14 29.8057 257.14 28.4435C257.14 27.0812 257.746 25.8451 260.168 24.836V28.9985C260.168 29.2508 260.193 29.4778 260.218 29.6796C259.688 30.1842 259.159 30.386 258.654 30.386Z" fill="#CCFF00"/>
<path d="M277.65 28.9228V12.5757L277.448 12.5L272.428 13.8875V14.1398C273.387 14.0893 274.219 14.4677 274.219 16.0318V20.0429C273.715 19.7402 273.109 19.5888 272.453 19.5888C269.376 19.5888 266.5 22.5151 266.5 26.4758C266.5 29.7048 268.367 31.8996 270.662 31.8996C272.201 31.8996 273.513 30.8148 274.295 29.503V31.7735L274.497 31.8491L279.315 31.2185V30.9662C278.331 31.0166 277.65 30.5373 277.65 28.9228ZM274.219 29.0742C273.816 29.5535 273.261 29.831 272.579 29.831C270.965 29.831 269.804 28.1912 269.804 25.1135C269.804 21.834 271.041 19.9672 272.378 19.9672C273.134 19.9672 273.916 20.5222 274.219 21.9097V29.0742Z" fill="#CCFF00"/>
<path d="M286.126 19.5888C283.225 19.5888 280.45 22.2376 280.45 25.9712C280.45 29.3517 282.847 31.8996 285.95 31.8996C288.271 31.8996 290.137 30.4869 290.894 27.8128L290.642 27.7119C289.936 28.9228 288.8 29.5283 287.489 29.5283C285.218 29.5283 283.629 27.6362 283.578 24.5838H290.995C290.894 21.4556 288.75 19.5888 286.126 19.5888ZM283.578 24.0792C283.705 21.5565 284.714 20.0429 285.95 20.0429C287.009 20.0429 287.716 21.1529 287.741 24.0792H283.578Z" fill="#CCFF00"/>
<path d="M306.258 31.2941V31.496H312.539V31.2689C311.681 31.1932 310.874 30.7644 310.874 29.276V22.7674C310.874 20.6736 309.714 19.5888 307.923 19.5888C306.409 19.5888 305.021 20.4717 303.987 21.6322C303.634 20.2952 302.6 19.5888 301.162 19.5888C299.724 19.5888 298.361 20.4213 297.302 21.5565V19.7149L297.1 19.6393L292.08 21.0772V21.3042C293.064 21.2538 293.922 21.6574 293.922 23.2215V29.276C293.922 30.7644 293.114 31.1932 292.282 31.2689V31.496H298.563V31.2941C297.731 31.2185 297.352 30.7139 297.352 29.2255V22.0863C297.958 21.4556 298.639 21.1276 299.219 21.1276C300.178 21.1276 300.682 21.8088 300.682 23.4485V29.2255C300.682 30.6382 300.329 31.2185 299.471 31.2941V31.496H305.324V31.2941C304.492 31.2185 304.113 30.7139 304.113 29.2255V22.7674C304.113 22.5404 304.113 22.3385 304.088 22.162C304.668 21.4808 305.375 21.1276 305.98 21.1276C306.939 21.1276 307.443 21.8088 307.443 23.4485V29.2255C307.443 30.7139 307.09 31.2185 306.258 31.2941Z" fill="#CCFF00"/>
<path d="M320.536 20.0429V20.2447C322.251 20.4213 322.579 22.1115 321.52 24.4828L320.107 27.7371L318.013 22.9188C317.307 21.3042 317.812 20.3204 318.947 20.2447V20.0429H312.06V20.2447C312.842 20.4213 313.447 21.1781 314.154 22.7422L318.266 31.8491L317.307 34.0439C316.777 35.2548 316.02 36.2134 315.39 36.2134C314.86 36.2134 314.734 35.5827 314.431 34.9773C314.154 34.3466 313.7 33.8925 312.943 33.8925C312.06 33.8925 311.328 34.5737 311.328 35.5575C311.328 36.8189 312.413 37.5 313.7 37.5C315.264 37.5 316.802 36.5161 317.812 34.2457L322.125 24.5333C323.462 21.5313 324.244 20.4213 325.38 20.2447V20.0429H320.536Z" fill="#CCFF00"/>
</svg>
