<svg width="36" height="25" viewBox="0 0 36 25" fill="none" xmlns="http://www.w3.org/2000/svg">
<path d="M0.728155 25L0 22.6537C3.50593 21.521 6.1219 20.3074 7.8479 19.0129C9.62783 17.6645 10.5178 16.2352 10.5178 14.7249C10.5178 13.5922 10.1402 12.6753 9.38511 11.9741C8.68393 11.2729 7.84789 10.6257 6.87702 10.0324C5.90615 9.38512 5.04315 8.65696 4.28802 7.8479C3.58684 7.03884 3.23625 5.98706 3.23625 4.69256C3.23625 3.34412 3.74865 2.23841 4.77346 1.37541C5.79827 0.458471 7.11974 0 8.73786 0C11.0032 0 12.8641 0.916936 14.3204 2.75081C15.7767 4.53074 16.5049 6.79612 16.5049 9.54693C16.5049 13.0529 15.1564 16.1273 12.4595 18.7702C9.81661 21.3592 5.90615 23.4358 0.728155 25ZM19.5793 25L18.8511 22.6537C22.3571 21.521 24.973 20.3074 26.699 19.0129C28.479 17.6645 29.3689 16.2352 29.3689 14.7249C29.3689 13.5922 28.9914 12.6753 28.2362 11.9741C27.5351 11.2729 26.699 10.6257 25.7282 10.0324C24.7573 9.38512 23.8943 8.65696 23.1392 7.8479C22.438 7.03884 22.0874 5.98706 22.0874 4.69256C22.0874 3.34412 22.5998 2.23841 23.6246 1.37541C24.6494 0.458471 25.9709 0 27.589 0C29.8544 0 31.7152 0.916936 33.1715 2.75081C34.6278 4.53074 35.356 6.79612 35.356 9.54693C35.356 13.0529 34.0075 16.1273 31.3107 18.7702C28.6677 21.3592 24.7573 23.4358 19.5793 25Z" fill="#CCFF00"/>
</svg>
