<svg width="350" height="200" viewBox="0 0 350 200" fill="none" xmlns="http://www.w3.org/2000/svg">
<path d="M168.99 38.9749C164.264 38.4767 162.615 34.8568 165.363 27.1628H177.395L179.095 31.7206C181.015 36.8866 180.026 38.5353 176.736 38.9749V39.4659H194.373V38.9749C192.065 38.5866 190.087 36.6081 188.606 32.7684L176.303 0.563416H174.164L163.67 28.2033C160.813 35.7361 158.343 38.4767 155.317 38.9749V39.4659H168.998V38.9749H168.99ZM171.408 10.8368L177.014 26.005H165.803L171.408 10.8368Z" fill="white" fill-opacity="0.1"/>
<path d="M105.056 87.1396C110.384 87.1396 114.451 91.6974 115.608 98.5121L116.539 98.622L118.788 88.5098C115.821 86.971 111.094 85.9818 106.207 85.9818C94.2848 85.9818 84.5024 94.4965 84.5024 106.536C84.5024 117.198 92.3064 126.372 103.188 126.372C110.662 126.372 116.048 121.865 118.407 115.549L117.587 115.27C115.279 119.337 111.16 121.367 106.764 121.367C99.2383 121.367 93.5741 115.761 93.5741 104.44C93.5741 93.1189 99.0112 87.1322 105.056 87.1322V87.1396Z" fill="white" fill-opacity="0.1"/>
<path d="M229.846 129.105H260.952L262.491 117.344H261.612C259.575 123.778 253.258 128.057 246.993 128.057H242.706V109.54H245.564C250.452 109.54 253.969 111.79 254.797 116.296H255.508V101.729H254.797C254.028 106.125 250.569 108.434 245.564 108.434H242.706V91.6681H246.605C251.661 91.6681 256.988 94.6358 260.344 100.403H261.113L259.575 90.6202H229.846V91.1112C232.103 91.331 234.243 92.4301 234.243 96.5556V123.316C234.243 127.434 232.103 128.372 229.846 128.592V129.105Z" fill="white" fill-opacity="0.1"/>
<path d="M84.1141 36.74C83.6817 47.3798 89.1555 56.554 96.7542 63.5445C105.716 71.7808 119.778 77.2912 131.89 77.9434C143.6 78.5736 156.357 83.0654 165.722 90.1293C165.722 90.1293 166.382 91.5508 167.107 92.1517C167.18 92.2103 167.378 92.3862 167.671 92.6426C164.176 95.4198 160.82 98.0797 160.82 98.0797C160.82 98.0797 151.697 105.598 151.191 106.023C149.374 107.547 144.142 108.434 146.099 111.277C147.696 113.607 148.583 114.67 150.605 116.655C153.067 119.073 154.855 114.083 156.672 112.559C157.178 112.134 166.176 104.469 166.176 104.469C166.176 104.469 169.987 101.099 173.629 97.8819C177.27 101.099 181.081 104.469 181.081 104.469C181.081 104.469 190.079 112.134 190.585 112.559C192.402 114.083 194.19 119.073 196.652 116.655C198.674 114.662 199.561 113.6 201.159 111.277C203.108 108.426 197.876 107.54 196.066 106.023C195.56 105.598 186.437 98.0797 186.437 98.0797C186.437 98.0797 183.081 95.4198 179.586 92.6426C179.879 92.3862 180.077 92.2103 180.15 92.1517C180.876 91.5435 181.535 90.1293 181.535 90.1293C190.9 83.0654 203.657 78.5736 215.367 77.9434C227.479 77.2912 241.541 71.7808 250.503 63.5445C258.109 56.5613 263.583 47.3798 263.143 36.74C262.667 25.0891 255.874 16.9773 244.48 14.464C234.082 12.1777 224.197 16.0834 215.982 22.3485C206.303 29.7348 198.315 42.4776 195.546 54.2897C192.871 65.7062 186.218 77.4817 177.629 85.4615C177.629 85.4615 176.12 85.8646 175.395 86.4728C175.248 86.59 174.589 87.1249 173.621 87.8943C172.654 87.1249 171.995 86.5973 171.848 86.4728C171.123 85.8646 169.613 85.4615 169.613 85.4615C161.018 77.4744 154.364 65.7062 151.697 54.2897C148.934 42.4776 140.94 29.7275 131.26 22.3485C123.053 16.0834 113.168 12.1704 102.763 14.464C91.3758 16.97 84.5757 25.0817 84.0994 36.74H84.1141ZM208.743 73.5541L208.538 73.8692C207.849 73.6127 207.182 73.3123 206.552 72.9826L206.742 72.6088L206.669 72.5649L212.619 67.5748L214.033 69.2674L208.853 73.6054L208.743 73.5541ZM198.55 58.4225L202.309 55.2716L203.87 57.1402L198.748 61.4269L198.718 61.3316L198.308 61.4049C198.169 60.5549 198.081 59.6755 198.059 58.7669L198.572 58.5471L198.543 58.4152L198.55 58.4225ZM235.848 45.0422L234.155 46.4565L232.873 44.925L234.565 43.5108L235.848 45.0422ZM234.69 43.4008L236.47 41.906L237.753 43.4375L235.972 44.9323L234.69 43.4008ZM227.714 46.3392L229.407 44.925L230.733 46.5004L229.04 47.9147L227.714 46.3392ZM228.908 48.0246L227.23 49.4315L225.904 47.8561L227.582 46.4491L228.908 48.0246ZM230.843 46.6323L232.125 48.1638L230.433 49.5781L229.15 48.0466L230.843 46.6323ZM230.967 46.5224L232.741 45.0422L234.023 46.5737L232.25 48.0539L230.967 46.5224ZM232.763 44.8004L231.436 43.225L233.129 41.8107L234.455 43.3862L232.763 44.8004ZM232.631 44.903L230.858 46.3832L229.531 44.8078L231.305 43.3276L232.631 44.903ZM229.421 44.6759L228.095 43.0931L229.868 41.6129L231.195 43.1957L229.421 44.6759ZM229.297 44.7858L227.604 46.2L226.278 44.6172L227.97 43.203L229.297 44.7858ZM227.472 46.3099L225.794 47.7168L224.468 46.1341L226.146 44.7271L227.472 46.3099ZM225.67 47.8267L223.992 49.2337L222.665 47.6509L224.343 46.244L225.67 47.8267ZM223.86 49.3362L222.101 50.8091L220.775 49.2263L222.533 47.7535L223.86 49.3362ZM223.97 49.4755L225.296 51.0509L223.537 52.5238L222.211 50.9483L223.97 49.4755ZM224.101 49.3656L225.779 47.9586L227.106 49.5341L225.428 50.941L224.101 49.3656ZM227.216 49.6733L228.498 51.2048L226.82 52.6117L225.538 51.0802L227.216 49.6733ZM227.34 49.5634L229.018 48.1565L230.301 49.688L228.623 51.0949L227.34 49.5634ZM230.418 49.8199L231.708 51.3587L230.03 52.7656L228.74 51.2268L230.418 49.8199ZM230.542 49.7099L232.235 48.2957L233.525 49.8345L231.832 51.2488L230.542 49.7099ZM232.367 48.1858L234.14 46.7056L235.43 48.2444L233.657 49.7246L232.367 48.1858ZM234.265 46.5957L235.958 45.1815L237.247 46.7203L235.555 48.1345L234.265 46.5957ZM236.089 45.0715L237.877 43.5767L239.167 45.1155L237.386 46.6104L236.097 45.0715H236.089ZM238.002 43.4668L239.783 41.9719L241.072 43.5108L239.292 45.0056L238.002 43.4668ZM237.892 43.3349L236.61 41.8034L238.398 40.3086L239.68 41.8401L237.892 43.3349ZM236.492 41.6715L235.166 40.0961L236.947 38.6012L238.273 40.1767L236.492 41.6715ZM236.368 41.7741L234.58 43.2689L233.254 41.6935L235.034 40.1987L236.361 41.7741H236.368ZM233.144 41.5616L231.817 39.9788L233.598 38.484L234.924 40.0668L233.144 41.5616ZM233.012 41.6642L231.319 43.0784L229.993 41.4957L231.686 40.0814L233.012 41.6642ZM229.89 41.3711L228.586 39.8103L230.279 38.3961L231.583 39.9568L229.89 41.3711ZM229.758 41.481L227.985 42.9612L226.681 41.4004L228.454 39.9202L229.758 41.481ZM227.861 43.0711L226.168 44.4853L224.864 42.9245L226.556 41.5103L227.861 43.0711ZM226.036 44.5952L224.358 46.0022L223.054 44.4414L224.732 43.0345L226.036 44.5952ZM224.226 46.1121L222.548 47.519L221.244 45.9582L222.922 44.5513L224.226 46.1121ZM222.423 47.6289L220.665 49.1018L219.36 47.541L221.119 46.0681L222.423 47.6289ZM220.533 49.2043L218.708 50.7285L217.404 49.1677L219.229 47.6435L220.533 49.2043ZM220.65 49.3362L221.976 50.919L220.152 52.4432L218.826 50.8604L220.65 49.3362ZM222.086 51.0509L223.413 52.6264L221.588 54.1505L220.262 52.5751L222.086 51.0509ZM223.515 52.7656L224.798 54.2971L222.973 55.8212L221.691 54.2897L223.515 52.7656ZM223.647 52.6557L225.406 51.1828L226.688 52.7143L224.929 54.1871L223.647 52.6557ZM226.798 52.8535L228.088 54.3923L226.329 55.8652L225.039 54.3264L226.798 52.8535ZM226.93 52.7436L228.608 51.3367L229.898 52.8755L228.22 54.2824L226.93 52.7436ZM230.008 53.0074L231.422 54.7001L229.744 56.107L228.329 54.4143L230.008 53.0074ZM230.139 52.8975L231.817 51.4906L233.232 53.1833L231.554 54.5902L230.139 52.8975ZM231.949 51.388L233.642 49.9737L235.056 51.6664L233.364 53.0807L231.949 51.388ZM233.767 49.8565L235.54 48.3763L236.954 50.069L235.181 51.5492L233.767 49.8565ZM235.664 48.2664L237.357 46.8522L238.771 48.5449L237.079 49.9591L235.664 48.2664ZM237.489 46.7422L239.27 45.2474L240.684 46.9401L238.903 48.4349L237.489 46.7422ZM239.402 45.1375L241.182 43.6427L242.596 45.3353L240.816 46.8302L239.402 45.1375ZM241.314 43.5327L243.439 41.7521L244.853 43.4448L242.728 45.2254L241.314 43.5327ZM241.204 43.4008L239.914 41.862L242.04 40.0814L243.329 41.6202L241.204 43.4008ZM239.805 41.7301L238.522 40.1987L240.647 38.418L241.93 39.9495L239.805 41.7301ZM238.405 40.0668L237.079 38.4913L239.204 36.7107L240.53 38.2861L238.405 40.0668ZM236.969 38.3521L235.642 36.7693L237.768 34.9887L239.094 36.5715L236.969 38.3521ZM236.844 38.462L235.064 39.9568L233.737 38.3741L235.525 36.8792L236.852 38.462H236.844ZM233.62 38.2422L232.316 36.6814L234.096 35.1865L235.401 36.7473L233.62 38.2422ZM233.495 38.3521L231.708 39.8469L230.403 38.2861L232.184 36.7913L233.488 38.3521H233.495ZM230.286 38.1469L228.85 36.4322L230.63 34.9374L232.067 36.6521L230.279 38.1469H230.286ZM230.161 38.2568L228.469 39.6711L227.032 37.9564L228.725 36.5422L230.161 38.2568ZM228.337 39.781L226.564 41.2612L225.127 39.5465L226.901 38.0663L228.337 39.781ZM226.439 41.3784L224.746 42.7926L223.31 41.078L225.003 39.6637L226.439 41.3784ZM224.614 42.9026L222.936 44.3095L221.5 42.5948L223.178 41.1879L224.614 42.9026ZM222.812 44.4194L221.134 45.8263L219.698 44.1116L221.376 42.7047L222.812 44.4194ZM221.002 45.9289L219.243 47.4017L217.807 45.6871L219.566 44.2142L221.002 45.9289ZM219.119 47.5117L217.294 49.0358L215.858 47.3211L217.682 45.797L219.119 47.5117ZM217.162 49.1457L215.132 50.8457L213.696 49.1311L215.726 47.4311L217.162 49.1457ZM217.279 49.2776L218.584 50.8384L216.554 52.5384L215.25 50.9776L217.279 49.2776ZM218.694 50.9776L220.02 52.5604L217.99 54.2604L216.664 52.6776L218.694 50.9776ZM220.13 52.6923L221.456 54.2677L219.426 55.9678L218.1 54.3923L220.13 52.6923ZM221.566 54.3996L222.848 55.9311L220.819 57.6311L219.536 56.0997L221.566 54.3996ZM222.966 56.063L224.255 57.6018L222.226 59.3018L220.936 57.763L222.966 56.063ZM223.09 55.9604L224.915 54.4363L226.204 55.9751L224.38 57.4992L223.09 55.9604ZM226.314 56.0997L227.729 57.7923L225.904 59.3165L224.49 57.6238L226.314 56.0997ZM226.446 55.9971L228.205 54.5242L229.619 56.2169L227.861 57.6898L226.446 55.9971ZM229.729 56.3488L231.275 58.188L229.517 59.6609L227.97 57.8217L229.729 56.3488ZM229.854 56.2389L231.532 54.832L233.078 56.6712L231.4 58.0781L229.854 56.2389ZM231.664 54.7221L233.342 53.3152L234.888 55.1544L233.21 56.5613L231.664 54.7221ZM233.473 53.2052L235.166 51.791L236.712 53.6302L235.02 55.0445L233.473 53.2052ZM235.291 51.6811L237.064 50.2009L238.61 52.0401L236.837 53.5203L235.291 51.6811ZM237.196 50.091L238.889 48.6768L240.435 50.516L238.742 51.9302L237.196 50.091ZM239.013 48.5668L240.794 47.072L242.34 48.9112L240.559 50.4061L239.013 48.5668ZM240.926 46.9621L242.706 45.4672L244.252 47.3065L242.472 48.8013L240.926 46.9621ZM242.838 45.3573L244.963 43.5767L246.509 45.4159L244.384 47.1966L242.838 45.3573ZM245.095 43.4741L247.088 41.8034L248.634 43.6427L246.641 45.3134L245.095 43.4741ZM244.985 43.3349L243.571 41.6422L245.564 39.9715L246.978 41.6642L244.985 43.3349ZM243.454 41.5176L242.164 39.9788L244.157 38.3081L245.447 39.8469L243.454 41.5176ZM242.054 39.8469L240.772 38.3155L242.765 36.6447L244.047 38.1762L242.054 39.8469ZM240.662 38.1762L239.336 36.6008L241.329 34.9301L242.655 36.5055L240.662 38.1762ZM239.226 36.4616L237.899 34.8788L239.893 33.2081L241.219 34.7909L239.226 36.4616ZM237.789 34.7469L236.485 33.1861L238.478 31.5154L239.783 33.0762L237.789 34.7469ZM237.658 34.8568L235.533 36.6374L234.228 35.0766L236.353 33.296L237.658 34.8568ZM234.118 34.9447L232.682 33.2301L234.807 31.4494L236.243 33.1641L234.118 34.9447ZM233.986 35.0547L232.206 36.5495L230.77 34.8348L232.55 33.34L233.986 35.0547ZM230.652 34.7029L229.092 32.8344L230.879 31.3395L232.44 33.2081L230.652 34.7029ZM230.528 34.8055L228.747 36.3004L227.186 34.4318L228.967 32.937L230.528 34.8055ZM228.615 36.4103L226.923 37.8245L225.362 35.956L227.054 34.5417L228.615 36.4103ZM226.791 37.9344L225.017 39.4146L223.457 37.5461L225.23 36.0659L226.791 37.9344ZM224.893 39.5318L223.2 40.9461L221.639 39.0775L223.332 37.6633L224.893 39.5318ZM223.068 41.056L221.39 42.4629L219.829 40.5944L221.507 39.1874L223.068 41.056ZM221.266 42.5728L219.588 43.9797L218.027 42.1112L219.705 40.7043L221.266 42.5728ZM219.456 44.0823L217.697 45.5552L216.136 43.6866L217.895 42.2138L219.456 44.0823ZM217.565 45.6651L215.741 47.1892L214.18 45.3207L216.004 43.7965L217.565 45.6651ZM215.616 47.2992L213.586 48.9992L212.025 47.1306L214.055 45.4306L215.616 47.2992ZM213.454 49.1091L211.227 50.9703L209.666 49.1018L211.894 47.2405L213.454 49.1091ZM213.572 49.241L215.008 50.9556L212.78 52.8169L211.344 51.1022L213.572 49.241ZM215.118 51.0875L216.422 52.6483L214.194 54.5096L212.89 52.9488L215.118 51.0875ZM216.539 52.7802L217.866 54.363L215.638 56.2242L214.312 54.6415L216.539 52.7802ZM217.976 54.4949L219.302 56.0703L217.074 57.9316L215.748 56.3561L217.976 54.4949ZM219.404 56.2096L220.687 57.7411L218.459 59.6023L217.177 58.0708L219.404 56.2096ZM220.804 57.8729L222.094 59.4118L219.866 61.273L218.576 59.7342L220.804 57.8729ZM222.204 59.5437L223.618 61.2363L221.39 63.0976L219.976 61.4049L222.204 59.5437ZM222.335 59.4411L224.365 57.7411L225.779 59.4337L223.75 61.1338L222.335 59.4411ZM225.889 59.5583L227.436 61.3975L225.406 63.0976L223.86 61.2583L225.889 59.5583ZM226.021 59.4484L227.846 57.9242L229.392 59.7635L227.567 61.2876L226.021 59.4484ZM229.495 59.9027L231.253 61.9984L229.429 63.5226L227.67 61.4269L229.495 59.9027ZM229.626 59.7928L231.385 58.3199L233.144 60.4156L231.385 61.8885L229.626 59.7928ZM231.51 58.21L233.188 56.8031L234.946 58.8988L233.268 60.3057L231.51 58.21ZM233.32 56.6932L234.998 55.2863L236.756 57.382L235.078 58.7889L233.32 56.6932ZM235.13 55.1837L236.822 53.7695L238.581 55.8652L236.888 57.2794L235.13 55.1837ZM236.947 53.6522L238.72 52.172L240.479 54.2677L238.705 55.7479L236.947 53.6522ZM238.845 52.0621L240.537 50.6479L242.296 52.7436L240.603 54.1578L238.845 52.0621ZM240.669 50.538L242.457 49.0431L244.216 51.1388L242.435 52.6337L240.677 50.538H240.669ZM242.582 48.9332L244.362 47.4384L246.121 49.5341L244.333 51.0289L242.574 48.9332H242.582ZM244.494 47.3285L246.619 45.5478L248.378 47.6435L246.253 49.4242L244.494 47.3285ZM246.751 45.4453L248.744 43.7746L250.503 45.8703L248.51 47.541L246.751 45.4453ZM248.869 43.6646L251.14 41.7594L252.899 43.8552L250.628 45.7603L248.869 43.6646ZM248.759 43.5327L247.213 41.6935L249.484 39.7883L251.031 41.6276L248.759 43.5327ZM247.103 41.5616L245.689 39.8689L247.96 37.9637L249.374 39.6564L247.103 41.5616ZM245.579 39.737L244.289 38.1982L246.561 36.293L247.85 37.8318L245.579 39.737ZM244.179 38.0663L242.897 36.5348L245.168 34.6296L246.451 36.1611L244.179 38.0663ZM242.78 36.3956L241.453 34.8202L243.725 32.915L245.051 34.4904L242.78 36.3956ZM241.351 34.6883L240.024 33.1055L242.296 31.2003L243.622 32.7831L241.351 34.6883ZM239.914 32.9736L238.61 31.4128L240.882 29.5076L242.186 31.0684L239.914 32.9736ZM238.493 31.2736L237.057 29.5589L239.328 27.6537L240.765 29.3684L238.493 31.2736ZM238.361 31.3835L236.368 33.0542L234.932 31.3395L236.925 29.6688L238.361 31.3835ZM234.822 31.2076L233.261 29.3391L235.254 27.6684L236.815 29.5369L234.822 31.2076ZM234.69 31.3176L232.565 33.0982L231.004 31.2296L233.129 29.449L234.69 31.3176ZM230.894 31.0977L229.114 28.9727L231.239 27.1921L233.019 29.3171L230.894 31.0977ZM230.762 31.2076L228.982 32.7025L227.201 30.5775L228.982 29.0826L230.762 31.2076ZM228.85 32.8051L227.069 34.2999L225.289 32.1749L227.069 30.68L228.85 32.8051ZM226.937 34.4098L225.245 35.8241L223.464 33.699L225.157 32.2848L226.937 34.4098ZM225.113 35.934L223.339 37.4142L221.559 35.2891L223.332 33.809L225.113 35.934ZM223.215 37.5314L221.522 38.9456L219.741 36.8206L221.434 35.4064L223.215 37.5314ZM221.398 39.0555L219.72 40.4625L217.939 38.3374L219.617 36.9305L221.398 39.0555ZM219.588 40.5724L217.91 41.9793L216.129 39.8543L217.807 38.4474L219.588 40.5724ZM217.778 42.0819L216.019 43.5547L214.238 41.4297L215.997 39.9568L217.778 42.0819ZM215.894 43.6646L214.07 45.1888L212.289 43.0638L214.114 41.5396L215.894 43.6646ZM213.938 45.2987L211.908 46.9987L210.128 44.8737L212.157 43.1737L213.938 45.2987ZM211.784 47.1086L209.556 48.9699L207.775 46.8448L210.003 44.9836L211.784 47.1086ZM211.102 51.0802L208.032 53.6522L206.471 51.7837L209.541 49.2117L211.102 51.0802ZM211.219 51.2194L212.656 52.9341L209.585 55.5061L208.149 53.7915L211.219 51.2194ZM212.766 53.066L214.07 54.6268L211 57.1988L209.695 55.638L212.766 53.066ZM214.18 54.7587L215.506 56.3415L212.436 58.9135L211.11 57.3307L214.18 54.7587ZM215.616 56.4734L216.942 58.0488L213.872 60.6208L212.546 59.0454L215.616 56.4734ZM217.052 58.1807L218.335 59.7122L215.264 62.2842L213.982 60.7527L217.052 58.1807ZM218.452 59.8514L219.741 61.3902L216.671 63.9622L215.382 62.4234L218.452 59.8514ZM219.851 61.5221L221.266 63.2148L218.195 65.7868L216.781 64.0941L219.851 61.5221ZM221.376 63.3394L222.922 65.1786L219.851 67.7506L218.305 65.9114L221.376 63.3394ZM221.507 63.2368L223.735 61.3756L225.281 63.2148L223.054 65.076L221.507 63.2368ZM225.384 63.3467L227.142 65.4424L224.915 67.3036L223.156 65.2079L225.384 63.3467ZM225.516 63.2368L227.545 61.5368L229.304 63.6325L227.274 65.3325L225.516 63.2368ZM229.414 63.7644L231.326 66.0433L229.297 67.7433L227.384 65.4644L229.414 63.7644ZM229.539 63.6545L231.363 62.1303L233.276 64.4092L231.451 65.9334L229.539 63.6545ZM231.495 62.0204L233.254 60.5475L235.166 62.8264L233.408 64.2993L231.495 62.0204ZM233.378 60.4376L235.056 59.0307L236.969 61.3096L235.291 62.7165L233.378 60.4376ZM235.188 58.9281L236.866 57.5212L238.779 59.8001L237.101 61.207L235.188 58.9281ZM236.998 57.4113L238.691 55.9971L240.603 58.276L238.911 59.6902L236.998 57.4113ZM238.815 55.8872L240.589 54.407L242.501 56.6859L240.728 58.1661L238.815 55.8872ZM240.713 54.2897L242.406 52.8755L244.318 55.1544L242.626 56.5686L240.713 54.2897ZM242.538 52.7656L244.318 51.2707L246.231 53.5496L244.443 55.0445L242.53 52.7656H242.538ZM244.45 51.1608L246.238 49.666L248.151 51.9449L246.37 53.4397L244.458 51.1608H244.45ZM246.363 49.5634L248.488 47.7828L250.4 50.0617L248.275 51.8423L246.363 49.5634ZM248.612 47.6729L250.606 46.0022L252.518 48.2811L250.525 49.9518L248.612 47.6729ZM250.737 45.8922L253.009 43.9871L254.922 46.266L252.65 48.1711L250.737 45.8922ZM251.272 41.6495L254.05 39.3267L255.808 41.4224L253.031 43.7452L251.272 41.6495ZM251.162 41.5176L249.616 39.6784L252.393 37.3555L253.94 39.1948L251.162 41.5176ZM249.506 39.5465L248.092 37.8538L250.869 35.5309L252.284 37.2236L249.506 39.5465ZM247.982 37.7219L246.693 36.1831L249.47 33.8602L250.759 35.3991L247.982 37.7219ZM246.583 36.0512L245.3 34.5197L248.077 32.1969L249.36 33.7283L246.583 36.0512ZM245.183 34.3878L243.857 32.8124L246.634 30.4895L247.96 32.065L245.183 34.3878ZM243.754 32.6732L242.428 31.0904L245.205 28.7675L246.531 30.3503L243.754 32.6732ZM242.318 30.9585L241.014 29.3977L243.791 27.0748L245.095 28.6356L242.318 30.9585ZM240.896 29.2658L239.46 27.5511L242.237 25.2283L243.674 26.9429L240.896 29.2658ZM239.35 27.4192L237.789 25.5507L240.567 23.2278L242.127 25.0964L239.35 27.4192ZM239.218 27.5218L236.947 29.427L235.386 27.5585L237.658 25.6533L239.218 27.5218ZM235.269 27.4266L233.488 25.3016L235.76 23.3964L237.54 25.5214L235.269 27.4266ZM235.137 27.5365L233.144 29.2072L231.363 27.0822L233.356 25.4115L235.137 27.5365ZM231.253 26.9503L229.319 24.6421L231.312 22.9714L233.246 25.2796L231.253 26.9503ZM231.121 27.0602L228.996 28.8408L227.062 26.5326L229.187 24.752L231.121 27.0602ZM228.872 28.9434L227.084 30.4382L225.149 28.13L226.93 26.6352L228.864 28.9434H228.872ZM226.959 30.5481L225.179 32.043L223.244 29.7348L225.025 28.2399L226.959 30.5481ZM225.047 32.1529L223.354 33.5671L221.42 31.2589L223.112 29.8447L225.047 32.1529ZM223.222 33.6771L221.449 35.1572L219.514 32.849L221.288 31.3688L223.222 33.6771ZM221.324 35.2672L219.632 36.6814L217.697 34.3732L219.39 32.9589L221.324 35.2672ZM219.5 36.7986L217.822 38.2055L215.887 35.8973L217.565 34.4904L219.5 36.7986ZM217.697 38.3081L216.019 39.715L214.085 37.4068L215.763 35.9999L217.697 38.3081ZM215.887 39.8249L214.129 41.2978L212.194 38.9896L213.953 37.5167L215.887 39.8249ZM213.997 41.4077L212.172 42.9319L210.238 40.6237L212.062 39.0995L213.997 41.4077ZM212.047 43.0418L210.018 44.7418L208.083 42.4336L210.113 40.7336L212.047 43.0418ZM209.893 44.8517L207.666 46.7129L205.731 44.4047L207.959 42.5435L209.893 44.8517ZM209.424 49.0798L206.354 51.6518L204.573 49.5268L207.644 46.9548L209.424 49.0798ZM207.907 53.7621L204.002 57.0303L202.441 55.1617L206.347 51.8936L207.907 53.7621ZM208.017 53.894L209.453 55.6087L205.548 58.8768L204.112 57.1622L208.017 53.894ZM209.563 55.7406L210.868 57.3014L206.962 60.5695L205.658 59.0087L209.563 55.7406ZM210.985 57.4406L212.311 59.0234L208.406 62.2915L207.079 60.7087L210.985 57.4406ZM212.421 59.1553L213.747 60.7307L209.842 63.9989L208.516 62.4234L212.421 59.1553ZM213.85 60.8626L215.132 62.3941L211.227 65.6622L209.944 64.1308L213.85 60.8626ZM215.25 62.526L216.539 64.0648L212.634 67.3329L211.344 65.7941L215.25 62.526ZM216.649 64.204L218.063 65.8967L214.158 69.1649L212.744 67.4722L216.649 64.204ZM218.173 66.0213L219.72 67.8605L215.814 71.1287L214.268 69.2894L218.173 66.0213ZM219.829 67.9998L221.588 70.0955L217.682 73.3636L215.924 71.2679L219.829 67.9998ZM219.961 67.8898L223.032 65.3178L224.79 67.4135L221.72 69.9855L219.961 67.8898ZM224.9 67.5454L226.813 69.8243L223.742 72.3963L221.83 70.1174L224.9 67.5454ZM225.025 67.4355L227.252 65.5743L229.165 67.8532L226.937 69.7144L225.025 67.4355ZM229.275 67.9851L231.121 70.1907L228.894 72.0519L227.047 69.8463L229.275 67.9851ZM229.407 67.8752L231.436 66.1752L233.283 68.3808L231.253 70.0808L229.407 67.8752ZM231.561 66.0653L233.386 64.5411L235.232 66.7467L233.408 68.2709L231.561 66.0653ZM233.517 64.4312L235.276 62.9583L237.123 65.164L235.364 66.6368L233.517 64.4312ZM235.401 62.8557L237.079 61.4488L238.925 63.6545L237.247 65.0614L235.401 62.8557ZM237.211 61.3389L238.889 59.932L240.735 62.1376L239.057 63.5445L237.211 61.3389ZM239.013 59.8221L240.706 58.4079L242.552 60.6135L240.86 62.0277L239.013 59.8221ZM240.838 58.2979L242.611 56.8178L244.458 59.0234L242.684 60.5036L240.838 58.2979ZM242.736 56.7079L244.428 55.2936L246.275 57.4992L244.582 58.9135L242.736 56.7079ZM244.56 55.1837L246.341 53.6889L248.187 55.8945L246.399 57.3893L244.553 55.1837H244.56ZM246.473 53.5789L248.261 52.0841L250.107 54.2897L248.327 55.7846L246.48 53.5789H246.473ZM248.385 51.9742L250.51 50.1936L252.357 52.3992L250.232 54.1798L248.385 51.9742ZM250.635 50.0837L252.628 48.413L254.475 50.6186L252.481 52.2893L250.635 50.0837ZM252.76 48.3104L255.031 46.4052L256.878 48.6108L254.606 50.516L252.76 48.3104ZM253.141 43.8771L255.918 41.5543L257.831 43.8332L255.053 46.156L253.141 43.8771ZM254.181 39.2168L257.398 36.5202L259.157 38.6159L255.94 41.3125L254.181 39.2168ZM254.072 39.0849L252.525 37.2456L255.742 34.549L257.288 36.3883L254.072 39.0849ZM252.415 37.1137L251.001 35.421L254.218 32.7245L255.632 34.4171L252.415 37.1137ZM250.891 35.2891L249.602 33.7503L252.818 31.0538L254.108 32.5926L250.891 35.2891ZM249.484 33.6184L248.202 32.087L251.419 29.3904L252.701 30.9219L249.484 33.6184ZM248.092 31.9477L246.766 30.3723L249.983 27.6757L251.309 29.2585L248.092 31.9551V31.9477ZM246.656 30.2404L245.33 28.6576L248.546 25.961L249.873 27.5438L246.656 30.2404ZM245.22 28.5257L243.915 26.9649L247.132 24.2684L248.437 25.8291L245.22 28.5257ZM243.798 26.8257L242.362 25.111L245.579 22.4145L247.015 24.1291L243.798 26.8257ZM242.252 24.9791L240.691 23.1106L243.908 20.414L245.469 22.2826L242.252 24.9791ZM240.574 22.9787L238.793 20.8537L242.01 18.1571L243.791 20.2821L240.574 22.9787ZM240.449 23.0886L237.672 25.4115L235.892 23.2864L238.669 20.9636L240.449 23.0886ZM235.782 23.1546L233.847 20.8463L236.624 18.5235L238.559 20.8317L235.782 23.1546ZM235.65 23.2645L233.378 25.1697L231.444 22.8614L233.715 20.9563L235.65 23.2645ZM231.326 22.7295L229.451 20.4946L231.722 18.5894L233.598 20.8244L231.326 22.7295ZM231.195 22.8321L229.201 24.5028L227.326 22.2679L229.319 20.5972L231.195 22.8321ZM229.077 24.6128L226.952 26.3934L225.076 24.1584L227.201 22.3778L229.077 24.6128ZM226.82 26.5033L225.032 27.9981L223.156 25.7632L224.944 24.2684L226.82 26.5033ZM224.907 28.108L223.127 29.6029L221.251 27.3679L223.032 25.8731L224.907 28.108ZM222.995 29.7055L221.302 31.1197L219.426 28.8848L221.119 27.4705L222.995 29.7055ZM221.17 31.2369L219.397 32.7171L217.521 30.4822L219.294 29.002L221.17 31.2369ZM219.273 32.827L217.58 34.2413L215.704 32.0063L217.397 30.5921L219.273 32.827ZM217.455 34.3512L215.777 35.7581L213.901 33.5232L215.579 32.1163L217.455 34.3512ZM215.645 35.868L213.967 37.2749L212.091 35.04L213.769 33.6331L215.645 35.868ZM213.835 37.3775L212.077 38.8504L210.201 36.6154L211.96 35.1426L213.835 37.3775ZM211.952 38.9603L210.128 40.4844L208.252 38.2495L210.076 36.7254L211.952 38.9603ZM210.003 40.5944L207.973 42.2944L206.097 40.0594L208.127 38.3594L210.003 40.5944ZM207.841 42.4043L205.614 44.2655L203.738 42.0306L205.965 40.1693L207.841 42.4043ZM207.534 46.8229L204.463 49.3949L202.529 47.0867L205.599 44.5146L207.534 46.8229ZM206.229 51.7617L202.324 55.0298L200.543 52.9048L204.449 49.6367L206.229 51.7617ZM198.411 61.9398L198.484 61.8812L198.836 61.7346L198.799 61.6174L203.98 57.2794L205.416 58.9941L199.466 63.9842L199.429 63.9036L198.946 64.0428C198.726 63.3687 198.543 62.6652 198.403 61.9398H198.411ZM199.59 64.2773L199.539 64.1454L205.533 59.126L206.837 60.6868L200.382 66.1019L200.331 66.0066L199.847 66.2118C199.576 65.6769 199.341 65.12 199.129 64.5411L199.59 64.2846V64.2773ZM200.528 66.3584L200.47 66.2485L206.955 60.8113L208.281 62.3941L201.584 68.0071L201.518 67.9338L201.063 68.2416C200.704 67.7433 200.382 67.2157 200.089 66.6661L200.528 66.3584ZM201.781 68.2489L201.693 68.139L208.391 62.526L209.717 64.1014L203.02 69.7144L202.932 69.6118L202.47 69.9196C202.089 69.5166 201.723 69.0989 201.393 68.6592L201.796 68.2416L201.781 68.2489ZM203.181 69.9269L203.122 69.8537L209.82 64.2407L211.102 65.7722L204.617 71.2093L204.522 71.136L204.178 71.4804C203.701 71.114 203.247 70.7183 202.822 70.3006L203.181 69.9343V69.9269ZM204.844 71.3851L204.756 71.3192L211.212 65.9041L212.502 67.4429L206.508 72.4623L206.391 72.389L206.105 72.7407C205.577 72.4403 205.064 72.1179 204.581 71.7735L204.837 71.3851H204.844ZM211.806 74.3455L211.556 74.7265C210.67 74.5507 209.813 74.3162 208.999 74.0377L209.116 73.7373L209.028 73.6933L214.15 69.4067L215.697 71.2459L211.938 74.3968L211.813 74.3455H211.806ZM215.872 74.7339L215.675 75.1589C214.429 75.1369 213.227 75.027 212.091 74.8291L212.187 74.4994L212.113 74.4701L215.799 71.3778L217.558 73.4735L216.004 74.7778L215.872 74.7339ZM218.503 75.0636C217.734 75.1296 216.986 75.1662 216.246 75.1662L216.305 74.8804L216.195 74.8438L217.668 73.6127L218.54 74.6533L218.452 74.6752L218.51 75.0636H218.503ZM221.515 74.1257L221.346 74.6826C220.577 74.8218 219.815 74.9317 219.067 75.005L218.891 74.5507L218.716 74.5946L217.792 73.4955L221.698 70.2274L223.61 72.5063L221.639 74.155L221.515 74.1257ZM224.482 74.0451C223.632 74.2356 222.768 74.4188 221.888 74.5873L221.932 74.2356L221.845 74.2136L223.72 72.6455L224.519 73.5981L224.402 73.6347L224.482 74.0451ZM227.868 72.7261L227.501 73.283C226.695 73.5028 225.875 73.7153 225.032 73.9132L224.834 73.4882L224.688 73.5321L223.845 72.5282L226.915 69.9562L228.762 72.1619L228.014 72.7847L227.861 72.7188L227.868 72.7261ZM228.952 72.8653C228.711 72.9386 228.469 73.0119 228.227 73.0778L228.278 72.9019L228.198 72.8653L228.879 72.2938L228.974 72.411L228.879 72.4476L228.96 72.8653H228.952ZM230.931 72.2278C230.462 72.389 229.978 72.5429 229.502 72.6968L229.304 72.2938L229.15 72.3524L229.018 72.1912L231.246 70.3299L232.089 71.3338L231.986 71.3778L232.111 71.8248C231.722 71.9713 231.334 72.1106 230.945 72.2425L230.931 72.2278ZM232.631 71.6123L232.404 71.1946L232.242 71.2606L231.363 70.2127L233.393 68.5127L234.8 70.1907L234.712 70.2347L234.866 70.6817C234.118 71.0114 233.371 71.3265 232.623 71.6123H232.631ZM235.401 70.4472L235.137 70.0368L234.961 70.1174L233.525 68.4028L235.349 66.8786L237.196 69.0842L237.071 69.1502L237.233 69.5605C236.624 69.8683 236.016 70.1614 235.401 70.4399V70.4472ZM237.731 69.3114L237.474 68.945L237.35 69.011L235.474 66.776L237.233 65.3032L239.394 67.8825L239.277 67.9485L239.468 68.3735C238.896 68.6959 238.317 69.011 237.738 69.3114H237.731ZM239.951 68.0877L239.665 67.714L239.533 67.7873L237.357 65.1859L239.035 63.779L241.417 66.6222L241.314 66.6881L241.527 67.1351C241.006 67.4648 240.479 67.7799 239.951 68.0877ZM242.018 66.8273L241.71 66.4463L241.571 66.5342L239.174 63.6764L240.852 62.2695L243.395 65.3105L243.271 65.3984L243.512 65.8381C243.021 66.1752 242.523 66.5122 242.025 66.8347L242.018 66.8273ZM243.974 65.501L243.644 65.1346L243.534 65.2152L240.977 62.1669L242.67 60.7527L245.293 63.8816L245.154 63.9915L245.432 64.4458C244.956 64.8122 244.472 65.164 243.981 65.5157L243.974 65.501ZM245.894 64.0795L245.52 63.7058L245.425 63.779L242.794 60.6428L244.568 59.1626L247.213 62.3208L247.096 62.4161L247.396 62.8631C246.905 63.2808 246.407 63.6838 245.894 64.0868V64.0795ZM249.03 61.4049C248.642 61.7713 248.239 62.123 247.836 62.4747L247.447 62.1157L247.337 62.2036L244.692 59.0454L246.385 57.6311L248.964 60.7161L248.84 60.8187L249.155 61.2876C249.111 61.3316 249.067 61.3682 249.023 61.4122L249.03 61.4049ZM249.594 60.8773L249.206 60.5182L249.103 60.6062L246.524 57.5212L248.312 56.0264L250.752 58.9428L250.635 59.0527L250.979 59.4997C250.532 59.9687 250.071 60.4303 249.602 60.8773H249.594ZM251.375 59.0674L250.957 58.7303L250.862 58.8182L248.429 55.9091L250.21 54.4143L252.408 57.0376L252.298 57.1548L252.687 57.5798C252.262 58.0781 251.822 58.5764 251.368 59.06L251.375 59.0674ZM253.075 57.1329L252.613 56.8178L252.525 56.913L250.342 54.3044L252.467 52.5238L254.255 54.6634L254.152 54.788L254.57 55.2057C254.093 55.8578 253.588 56.5027 253.068 57.1329H253.075ZM254.922 54.7221L254.445 54.4363L254.365 54.5389L252.591 52.4285L254.584 50.7578L255.867 52.282L255.786 52.3992L256.219 52.7656C255.808 53.4251 255.376 54.0772 254.922 54.7221ZM256.526 52.26L256.05 52.0182L255.969 52.1354L254.716 50.6479L256.988 48.7427L257.479 49.3289L257.398 49.4755L257.853 49.7905C257.442 50.6332 256.995 51.4539 256.519 52.2673L256.526 52.26ZM258.109 49.2556L257.625 49.0651L257.567 49.1677L257.12 48.6328L258.351 47.5996L258.769 47.7168C258.563 48.2371 258.344 48.75 258.102 49.2556H258.109ZM258.966 47.2185L258.431 47.1966L258.409 47.3285L257.017 48.4936L255.171 46.2879L257.948 43.9651L259.113 45.3573L259.062 45.4965L259.333 45.6284L259.472 45.797C259.318 46.2806 259.15 46.7569 258.974 47.2259L258.966 47.2185ZM259.648 45.1961L259.194 45.1009L259.172 45.1668L258.072 43.8552L259.926 42.3017V42.3383L260.322 42.3676C260.153 43.3202 259.926 44.2655 259.655 45.1888L259.648 45.1961ZM260.41 41.8547L259.919 41.9353V42.0819L257.962 43.7233L256.05 41.4444L259.267 38.7478L260.227 39.8909L260.175 40.0961L260.505 40.2206L260.6 40.3379C260.549 40.8435 260.483 41.3491 260.403 41.8547H260.41ZM260.703 38.9017C260.696 39.1728 260.674 39.4439 260.659 39.715L260.293 39.6711V39.7004L259.406 38.6452L260.351 37.8538V37.9124L260.725 37.8978C260.725 38.2349 260.718 38.5646 260.703 38.909V38.9017ZM260.718 37.3775L260.3 37.4948L260.322 37.6413L259.289 38.506L257.53 36.4103L260.109 34.2486L260.139 34.3365L260.491 34.2559C260.63 35.2672 260.703 36.3077 260.718 37.3848V37.3775ZM260.417 33.7503L260.007 33.9555L260.051 34.0801L257.42 36.2857L255.874 34.4465L259.494 31.4128L259.538 31.5154L259.926 31.3982C260.131 32.1602 260.293 32.9443 260.417 33.7577V33.7503ZM259.794 30.8999L259.384 31.1344L259.428 31.2443L255.772 34.3072L254.357 32.6145L258.673 29.002L258.717 29.0899L259.12 28.9287C259.377 29.5662 259.604 30.2257 259.802 30.8999H259.794ZM258.915 28.4598L258.519 28.7309L258.578 28.8481L254.233 32.49L252.943 30.9512L257.625 27.0309L257.684 27.1481L258.182 26.9576C258.446 27.4486 258.688 27.9542 258.915 28.4744V28.4598ZM257.933 26.4886L257.501 26.7671L257.545 26.855L252.833 30.8046L251.551 29.2731L256.468 25.155L256.548 25.2576L256.973 24.9718C257.318 25.4628 257.64 25.9684 257.933 26.4886ZM256.673 24.5541L256.292 24.9498L256.358 25.0304L251.441 29.1486L250.115 27.5731L255.031 23.455L255.097 23.5356L255.566 23.2205C255.955 23.6528 256.321 24.0998 256.665 24.5615L256.673 24.5541ZM253.866 21.5498C254.335 21.9528 254.79 22.3778 255.215 22.8248L254.841 23.2132L254.929 23.3158L250.012 27.4339L248.686 25.8511L253.397 21.9015L253.478 21.9601L253.866 21.5425V21.5498ZM252.1 20.2015C252.569 20.5166 253.024 20.8537 253.456 21.2054L253.148 21.7183L253.251 21.7989L248.568 25.7192L247.264 24.1584L251.609 20.5166L251.719 20.5972L252.108 20.2015H252.1ZM249.477 19.3075L249.836 18.8752C250.466 19.1976 251.075 19.542 251.661 19.9157L251.39 20.3554L251.47 20.414L247.154 24.0265L245.718 22.3119L249.374 19.2416L249.47 19.3075H249.477ZM246.788 18.1644L247.118 17.7174C247.894 17.9886 248.642 18.289 249.36 18.6334L249.133 19.0804L249.228 19.139L245.608 22.1726L244.047 20.3041L246.678 18.0985L246.795 18.1644H246.788ZM243.322 17.2338L243.542 16.7722C244.604 16.9773 245.63 17.2338 246.605 17.5562L246.429 17.9666L246.509 18.0105L243.93 20.1722L242.149 18.0472L243.183 17.1825L243.322 17.2265V17.2338ZM241.168 16.8454L241.19 16.4204C241.277 16.4278 241.373 16.4351 241.461 16.4498C241.988 16.5084 242.508 16.589 243.014 16.6769L242.926 17.1019L242.985 17.1239L242.04 17.9153L241.146 16.8454H241.175H241.168ZM238.705 16.7722L238.852 16.8015L239.028 16.2885C239.555 16.2959 240.083 16.3252 240.618 16.3692L240.721 16.8821L240.926 16.8674L241.9 18.0252L238.683 20.7218L236.749 18.4136L238.705 16.7722ZM235.577 16.4571C236.544 16.3472 237.518 16.2885 238.493 16.2885L238.456 16.7135H238.493L236.639 18.2743L235.525 16.9407H235.591L235.577 16.4498V16.4571ZM233.386 17.3071L233.452 16.7722C233.979 16.6696 234.514 16.589 235.042 16.5157L235.086 16.6769H235.078L235.093 16.6989L235.174 16.992L235.32 16.97L236.5 18.3769L233.723 20.6998L231.847 18.4649L233.239 17.2998H233.378L233.386 17.3071ZM231.297 17.2705C231.839 17.1239 232.382 16.9993 232.931 16.8821L232.975 17.3071L231.744 18.3403L231.29 17.798L231.4 17.7614L231.297 17.2705ZM230.733 17.4243L230.96 17.908L231.114 17.8567L231.612 18.4502L229.341 20.3554L228.073 18.8459L228.198 18.7873L228.051 18.311C228.938 17.9739 229.832 17.6808 230.733 17.4243ZM227.516 18.5235L227.787 18.9851L227.919 18.9265L229.216 20.4726L227.223 22.1433L225.428 20.0037L225.545 19.9377L225.362 19.4614C226.073 19.1243 226.798 18.8093 227.523 18.5235H227.516ZM224.827 19.7106L225.135 20.1575L225.274 20.0843L227.091 22.2533L224.966 24.0339L222.753 21.3886L222.863 21.3226L222.658 20.8683C223.369 20.4653 224.094 20.0843 224.827 19.7252V19.7106ZM222.152 21.1468L222.467 21.5571L222.607 21.4765L224.834 24.1365L223.054 25.6313L220.584 22.6856L220.687 22.6123L220.46 22.1946C221.016 21.8356 221.581 21.4838 222.152 21.1468ZM219.976 22.5024L220.313 22.8761L220.445 22.7808L222.922 25.7339L221.141 27.2287L218.525 24.1071L218.628 24.0192L218.371 23.6235C218.899 23.2352 219.434 22.8688 219.976 22.5024ZM217.433 24.3196C217.587 24.2024 217.748 24.0778 217.91 23.9606L218.276 24.3123L218.401 24.2097L221.016 27.3313L219.324 28.7455L216.642 25.5434L216.744 25.4554L216.488 25.0524C216.803 24.8033 217.118 24.5541 217.433 24.305V24.3196ZM216.041 25.4334L216.385 25.7705L216.503 25.6679L219.185 28.8701L217.411 30.3503L214.751 27.1701L214.839 27.0895L214.561 26.6938C215.044 26.2615 215.535 25.8438 216.041 25.4261V25.4334ZM214.143 27.0822L214.502 27.4046L214.634 27.2873L217.294 30.4602L215.601 31.8745L213.015 28.7822L213.11 28.6869L212.832 28.3279C213.264 27.9029 213.704 27.4925 214.15 27.0822H214.143ZM212.421 28.7236L212.78 29.0093L212.89 28.8994L215.469 31.977L213.791 33.3839L211.359 30.4822L211.469 30.3576L211.168 30.0132C211.578 29.5736 211.989 29.1412 212.414 28.7162L212.421 28.7236ZM210.787 30.4309L211.168 30.702L211.249 30.6068L213.66 33.4865L211.982 34.8934L209.776 32.2555L209.871 32.1382L209.563 31.8085C209.959 31.3395 210.362 30.8779 210.78 30.4236L210.787 30.4309ZM209.204 32.2482L209.578 32.4973L209.666 32.3947L211.857 35.0034L210.098 36.4762L208.2 34.212L208.288 34.0947L207.973 33.7796C208.369 33.2594 208.779 32.7464 209.204 32.2408V32.2482ZM207.629 34.234L208.003 34.4684L208.091 34.3512L209.966 36.5861L208.142 38.1103L206.684 36.3736L206.794 36.2197L206.434 35.8827C206.816 35.3258 207.211 34.7762 207.622 34.234H207.629ZM206.119 36.359L206.537 36.5935L206.588 36.5202L208.017 38.2202L205.987 39.9202L205.101 38.8577L205.189 38.7111L204.815 38.4034C205.225 37.7146 205.665 37.0331 206.119 36.3516V36.359ZM204.28 39.3193C204.361 39.1801 204.441 39.0482 204.522 38.909L204.947 39.1142L205.006 39.0189L205.856 40.0375L203.628 41.8987L203.489 41.7375L203.577 41.5909L203.196 41.3125C203.547 40.631 203.906 39.9642 204.28 39.3193ZM202.932 41.8254L203.35 41.9866L203.401 41.8987L203.496 42.0159L202.815 42.5875L202.793 42.4995L202.58 42.5215C202.697 42.287 202.807 42.0599 202.925 41.8327L202.932 41.8254ZM202.258 43.203L202.91 42.9319L202.873 42.7633L203.621 42.1405L205.497 44.3754L202.426 46.9474L201.569 45.9289L201.642 45.7897L201.225 45.4965C201.562 44.7125 201.913 43.9504 202.265 43.203H202.258ZM200.983 46.0315L201.415 46.2L201.474 46.0901L202.28 47.0573L200.404 48.6255V48.5375L199.979 48.5155C200.301 47.6655 200.631 46.8375 200.975 46.0315H200.983ZM199.796 49.0431L200.44 48.9699V48.838L202.397 47.1892L204.331 49.4974L200.426 52.7656L199.488 51.6518L199.561 51.4906L199.078 51.1901C199.283 50.4794 199.517 49.7612 199.781 49.0358L199.796 49.0431ZM198.931 51.7617L199.378 51.9082L199.415 51.8203L200.301 52.8755L198.828 54.1065L198.814 53.9893H198.433C198.565 53.2639 198.733 52.5164 198.931 51.7544V51.7617ZM198.337 54.5975L198.88 54.4583L198.858 54.3264L200.411 53.022L202.192 55.1471L198.506 58.2393L198.491 58.1587L198.052 58.2027C198.052 57.0449 198.14 55.8432 198.337 54.6048V54.5975ZM183.645 82.5378C188.269 75.2395 190.643 73.6567 194.183 64.4532C194.402 63.8523 195.165 61.654 195.919 61.7566C196.293 61.8079 196.542 62.3355 196.74 63.1122C198.228 68.9377 201.415 72.7407 206.889 75.2248C207.622 75.5546 208.098 75.899 208.083 76.2727C208.054 77.0347 205.753 77.4011 205.123 77.511C195.443 79.3869 193.472 81.4606 185.463 84.7214C183.697 85.4396 182.62 84.1352 183.638 82.5305L183.645 82.5378ZM90.2913 24.9718L90.7163 25.2576L90.7969 25.155L95.7137 29.2731L94.4314 30.8046L89.7197 26.855L89.7637 26.7671L89.3313 26.4886C89.6318 25.9684 89.9542 25.4628 90.2913 24.9718ZM149.206 58.7742C149.176 59.6829 149.096 60.5622 148.956 61.4122L148.546 61.3389L148.517 61.4342L143.395 57.1475L144.956 55.279L148.715 58.4298L148.685 58.5617L149.198 58.7816L149.206 58.7742ZM121.47 47.7168L119.792 46.3099L121.119 44.7271L122.797 46.1341L121.47 47.7168ZM122.921 46.244L124.599 47.6509L123.273 49.2337L121.595 47.8267L122.921 46.244ZM116.422 46.6323L118.114 48.0466L116.832 49.5781L115.139 48.1638L116.422 46.6323ZM115.007 48.0539L113.234 46.5737L114.516 45.0422L116.29 46.5224L115.007 48.0539ZM116.532 46.5004L117.858 44.925L119.551 46.3392L118.224 47.9147L116.532 46.5004ZM119.675 46.4418L121.353 47.8487L120.027 49.4242L118.349 48.0173L119.675 46.4418ZM119.66 46.2L117.968 44.7858L119.294 43.203L120.987 44.6172L119.66 46.2ZM117.843 44.6759L116.07 43.1957L117.396 41.6129L119.17 43.0931L117.843 44.6759ZM117.726 44.8078L116.4 46.3832L114.626 44.903L115.953 43.3276L117.726 44.8078ZM114.502 44.8004L112.809 43.3862L114.135 41.8107L115.828 43.225L114.502 44.8004ZM114.392 44.9323L113.11 46.4638L111.417 45.0496L112.699 43.5181L114.392 44.9323ZM111.292 44.9396L109.512 43.4448L110.794 41.9133L112.575 43.4082L111.292 44.9396ZM111.175 45.0715L109.885 46.6104L108.105 45.1155L109.394 43.5767L111.175 45.0715ZM111.307 45.1815L113 46.5957L111.71 48.1345L110.017 46.7203L111.307 45.1815ZM113.132 46.7056L114.905 48.1858L113.615 49.7246L111.842 48.2444L113.132 46.7056ZM115.029 48.2957L116.722 49.7099L115.432 51.2488L113.74 49.8345L115.029 48.2957ZM116.847 49.8199L118.525 51.2268L117.235 52.7656L115.557 51.3587L116.847 49.8199ZM116.957 49.688L118.239 48.1565L119.917 49.5634L118.635 51.0949L116.957 49.688ZM120.049 49.6733L121.727 51.0802L120.445 52.6117L118.767 51.2048L120.049 49.6733ZM120.166 49.5414L121.492 47.966L123.17 49.3729L121.844 50.9483L120.166 49.5414ZM123.295 49.4755L125.054 50.9483L123.727 52.5238L121.969 51.0509L123.295 49.4755ZM123.405 49.3362L124.731 47.7535L126.49 49.2263L125.164 50.8091L123.405 49.3362ZM124.841 47.6289L126.145 46.0681L127.904 47.541L126.6 49.1018L124.841 47.6289ZM124.717 47.519L123.039 46.1121L124.343 44.5513L126.021 45.9582L124.717 47.519ZM122.907 46.0022L121.229 44.5952L122.533 43.0345L124.211 44.4414L122.907 46.0022ZM121.097 44.4853L119.404 43.0711L120.708 41.5103L122.401 42.9245L121.097 44.4853ZM119.279 42.9612L117.506 41.481L118.81 39.9202L120.584 41.4004L119.279 42.9612ZM117.374 41.3711L115.682 39.9568L116.986 38.3961L118.679 39.8103L117.374 41.3711ZM117.264 41.503L115.938 43.0858L114.245 41.6715L115.572 40.0887L117.264 41.503ZM114.121 41.5616L112.34 40.0668L113.666 38.484L115.447 39.9788L114.121 41.5616ZM114.004 41.6935L112.677 43.2689L110.897 41.7741L112.223 40.1987L114.004 41.6935ZM110.772 41.6715L108.991 40.1767L110.318 38.6012L112.098 40.0961L110.772 41.6715ZM110.662 41.8034L109.38 43.3349L107.599 41.8401L108.882 40.3086L110.662 41.8034ZM109.263 43.4668L107.973 45.0056L106.192 43.5108L107.482 41.9719L109.263 43.4668ZM107.863 45.1375L106.449 46.8302L104.668 45.3353L106.082 43.6427L107.863 45.1375ZM107.995 45.2474L109.775 46.7422L108.361 48.4349L106.581 46.9401L107.995 45.2474ZM109.907 46.8522L111.6 48.2664L110.186 49.9591L108.493 48.5449L109.907 46.8522ZM111.725 48.3763L113.498 49.8565L112.084 51.5492L110.31 50.069L111.725 48.3763ZM113.63 49.9664L115.323 51.3807L113.908 53.0733L112.216 51.6591L113.63 49.9664ZM115.447 51.4906L117.125 52.8975L115.711 54.5902L114.033 53.1833L115.447 51.4906ZM117.257 53.0074L118.935 54.4143L117.521 56.107L115.843 54.7001L117.257 53.0074ZM117.367 52.8755L118.657 51.3367L120.335 52.7436L119.045 54.2824L117.367 52.8755ZM120.467 52.8535L122.225 54.3264L120.935 55.8652L119.177 54.3923L120.467 52.8535ZM120.576 52.7216L121.859 51.1901L123.617 52.663L122.335 54.1945L120.576 52.7216ZM123.749 52.7656L125.574 54.2897L124.292 55.8212L122.467 54.2971L123.749 52.7656ZM123.859 52.6337L125.186 51.0582L127.01 52.5824L125.684 54.1578L123.859 52.6337ZM125.295 50.919L126.622 49.3362L128.446 50.8604L127.12 52.4432L125.295 50.919ZM126.732 49.2043L128.036 47.6435L129.861 49.1677L128.556 50.7285L126.732 49.2043ZM129.985 49.2776L132.015 50.9776L130.711 52.5384L128.681 50.8384L129.985 49.2776ZM130.102 49.1457L131.539 47.4311L133.568 49.1311L132.132 50.8457L130.102 49.1457ZM129.97 49.0358L128.146 47.5117L129.582 45.797L131.407 47.3211L129.97 49.0358ZM128.021 47.4017L126.263 45.9289L127.699 44.2142L129.458 45.6871L128.021 47.4017ZM126.131 45.8263L124.453 44.4194L125.889 42.7047L127.567 44.1116L126.131 45.8263ZM124.328 44.3095L122.65 42.9026L124.086 41.1879L125.764 42.5948L124.328 44.3095ZM122.518 42.7926L120.826 41.3784L122.262 39.6637L123.954 41.078L122.518 42.7926ZM120.694 41.2685L118.92 39.7883L120.357 38.0736L122.13 39.5538L120.694 41.2685ZM118.796 39.6784L117.103 38.2642L118.539 36.5495L120.232 37.9637L118.796 39.6784ZM116.979 38.1469L115.198 36.6521L116.634 34.9374L118.415 36.4322L116.979 38.1469ZM116.861 38.2861L115.557 39.8469L113.769 38.3521L115.073 36.7913L116.854 38.2861H116.861ZM113.644 38.2422L111.864 36.7473L113.168 35.1865L114.949 36.6814L113.644 38.2422ZM113.527 38.3741L112.201 39.9568L110.42 38.462L111.747 36.8792L113.527 38.3741ZM110.296 38.3521L108.171 36.5715L109.497 34.9887L111.622 36.7693L110.296 38.3521ZM110.179 38.484L108.852 40.0594L106.727 38.2788L108.053 36.7034L110.179 38.484ZM108.742 40.1987L107.46 41.7301L105.335 39.9495L106.617 38.418L108.742 40.1987ZM107.35 41.862L106.06 43.4008L103.935 41.6202L105.225 40.0814L107.35 41.862ZM105.95 43.5327L104.536 45.2254L102.411 43.4448L103.825 41.7521L105.95 43.5327ZM104.419 45.3573L102.873 47.1966L100.748 45.4159L102.294 43.5767L104.419 45.3573ZM104.551 45.4672L106.331 46.9621L104.785 48.8013L103.005 47.3065L104.551 45.4672ZM106.463 47.072L108.244 48.5668L106.698 50.4061L104.917 48.9112L106.463 47.072ZM108.376 48.6694L110.069 50.0837L108.522 51.9229L106.83 50.5087L108.376 48.6694ZM110.2 50.2009L111.974 51.6811L110.428 53.5203L108.654 52.0401L110.2 50.2009ZM112.098 51.791L113.791 53.2052L112.245 55.0445L110.552 53.6302L112.098 51.791ZM113.923 53.3152L115.601 54.7221L114.055 56.5613L112.377 55.1544L113.923 53.3152ZM115.726 54.832L117.404 56.2389L115.857 58.0781L114.179 56.6712L115.726 54.832ZM117.535 56.3488L119.294 57.8217L117.748 59.6609L115.989 58.188L117.535 56.3488ZM117.645 56.2096L119.06 54.5169L120.818 55.9897L119.404 57.6824L117.645 56.2096ZM120.95 56.0997L122.775 57.6238L121.36 59.3165L119.536 57.7923L120.95 56.0997ZM121.06 55.9678L122.35 54.429L124.174 55.9531L122.885 57.4919L121.06 55.9678ZM124.299 56.063L126.329 57.763L125.039 59.3018L123.009 57.6018L124.299 56.063ZM124.416 55.9311L125.698 54.3996L127.728 56.0997L126.446 57.6311L124.416 55.9311ZM125.808 54.2677L127.135 52.6923L129.164 54.3923L127.838 55.9678L125.808 54.2677ZM127.245 52.5531L128.571 50.9703L130.601 52.6703L129.274 54.2531L127.245 52.5531ZM130.725 52.7802L132.953 54.6415L131.627 56.2242L129.399 54.363L130.725 52.7802ZM130.842 52.6483L132.147 51.0875L134.374 52.9488L133.07 54.5096L130.842 52.6483ZM132.257 50.9556L133.693 49.241L135.921 51.1022L134.484 52.8169L132.257 50.9556ZM133.803 49.1091L135.364 47.2405L137.591 49.1018L136.03 50.9703L133.803 49.1091ZM133.678 48.9992L131.649 47.2992L133.209 45.4306L135.239 47.1306L133.678 48.9992ZM131.517 47.1892L129.692 45.6651L131.253 43.7965L133.077 45.3207L131.517 47.1892ZM129.567 45.5552L127.809 44.0823L129.37 42.2138L131.128 43.6866L129.567 45.5552ZM127.677 43.9797L125.999 42.5728L127.56 40.7043L129.238 42.1112L127.677 43.9797ZM125.874 42.4629L124.196 41.056L125.757 39.1874L127.435 40.5944L125.874 42.4629ZM124.064 40.9461L122.372 39.5318L123.933 37.6633L125.625 39.0775L124.064 40.9461ZM122.24 39.4219L120.467 37.9417L122.027 36.0732L123.801 37.5534L122.24 39.4219ZM120.342 37.8318L118.649 36.4176L120.21 34.549L121.903 35.9633L120.342 37.8318ZM118.525 36.3004L116.744 34.8055L118.305 32.937L120.085 34.4318L118.525 36.3004ZM116.612 34.7029L114.832 33.2081L116.392 31.3395L118.18 32.8344L116.62 34.7029H116.612ZM116.495 34.8348L115.059 36.5495L113.278 35.0547L114.714 33.34L116.495 34.8348ZM113.146 34.9447L111.021 33.1641L112.457 31.4494L114.582 33.2301L113.146 34.9447ZM113.036 35.0766L111.732 36.6374L109.607 34.8568L110.911 33.296L113.036 35.0766ZM109.475 34.7469L107.482 33.0762L108.786 31.5154L110.779 33.1861L109.475 34.7469ZM109.365 34.8861L108.039 36.4689L106.046 34.7982L107.372 33.2154L109.365 34.8861ZM107.929 36.6008L106.603 38.1762L104.609 36.5055L105.936 34.9301L107.929 36.6008ZM106.493 38.3081L105.21 39.8396L103.217 38.1689L104.5 36.6374L106.493 38.3081ZM105.1 39.9788L103.811 41.5176L101.818 39.8469L103.107 38.3081L105.1 39.9788ZM103.701 41.6495L102.287 43.3422L100.294 41.6715L101.708 39.9788L103.701 41.6495ZM102.169 43.4741L100.623 45.3134L98.6301 43.6427L100.176 41.8034L102.169 43.4741ZM98.5056 43.5327L96.234 41.6276L97.7801 39.7883L100.052 41.6935L98.5056 43.5327ZM98.3956 43.6646L96.637 45.7603L94.3654 43.8552L96.1241 41.7594L98.3956 43.6646ZM98.5202 43.7746L100.513 45.4453L98.7547 47.541L96.7616 45.8703L98.5202 43.7746ZM100.645 45.5552L102.77 47.3358L101.012 49.4315L98.8866 47.6509L100.645 45.5552ZM102.895 47.4384L104.675 48.9332L102.917 51.0289L101.136 49.5341L102.895 47.4384ZM104.815 49.0431L106.595 50.538L104.837 52.6337L103.056 51.1388L104.815 49.0431ZM106.727 50.6479L108.42 52.0621L106.661 54.1578L104.969 52.7436L106.727 50.6479ZM108.544 52.172L110.318 53.6522L108.559 55.7479L106.786 54.2677L108.544 52.172ZM110.442 53.7621L112.135 55.1764L110.376 57.2721L108.684 55.8578L110.442 53.7621ZM112.267 55.2863L113.945 56.6932L112.186 58.7889L110.508 57.382L112.267 55.2863ZM114.077 56.8031L115.755 58.21L113.996 60.3057L112.318 58.8988L114.077 56.8031ZM115.879 58.3199L117.638 59.7928L115.879 61.8885L114.121 60.4156L115.879 58.3199ZM117.77 59.9027L119.595 61.4269L117.836 63.5226L116.011 61.9984L117.77 59.9027ZM117.88 59.7708L119.426 57.9316L121.251 59.4557L119.704 61.295L117.88 59.7708ZM121.375 59.5583L123.405 61.2583L121.859 63.0976L119.829 61.3975L121.375 59.5583ZM121.485 59.4264L122.899 57.7337L124.929 59.4337L123.515 61.1264L121.485 59.4264ZM125.061 59.5437L127.289 61.4049L125.874 63.0976L123.647 61.2363L125.061 59.5437ZM125.171 59.4118L126.461 57.8729L128.688 59.7342L127.398 61.273L125.171 59.4118ZM126.57 57.7411L127.853 56.2096L130.08 58.0708L128.798 59.6023L126.57 57.7411ZM127.97 56.0777L129.296 54.5022L131.524 56.3635L130.198 57.9389L127.97 56.0777ZM131.641 56.4734L134.711 59.0454L133.385 60.6208L130.315 58.0488L131.641 56.4734ZM131.758 56.3341L133.085 54.7514L136.155 57.3234L134.829 58.9061L131.758 56.3341ZM133.195 54.6195L134.499 53.0587L137.569 55.6307L136.265 57.1915L133.195 54.6195ZM134.616 52.9268L136.052 51.2121L139.123 53.7841L137.686 55.4988L134.616 52.9268ZM136.162 51.0802L137.723 49.2117L140.793 51.7837L139.233 53.6522L136.162 51.0802ZM137.708 48.9699L135.481 47.1086L137.261 44.9836L139.489 46.8448L137.708 48.9699ZM135.356 46.9987L133.327 45.2987L135.107 43.1737L137.137 44.8737L135.356 46.9987ZM133.195 45.1888L131.37 43.6646L133.151 41.5396L134.975 43.0638L133.195 45.1888ZM131.245 43.5547L129.487 42.0819L131.267 39.9568L133.026 41.4297L131.245 43.5547ZM129.355 41.9719L127.677 40.565L129.458 38.44L131.136 39.8469L129.355 41.9719ZM127.545 40.4625L125.867 39.0555L127.648 36.9305L129.326 38.3374L127.545 40.4625ZM125.742 38.9456L124.05 37.5314L125.83 35.4064L127.523 36.8206L125.742 38.9456ZM123.918 37.4215L122.145 35.9413L123.925 33.8163L125.698 35.2965L123.918 37.4215ZM122.02 35.8314L120.327 34.4171L122.108 32.2921L123.801 33.7064L122.02 35.8314ZM120.195 34.2999L118.415 32.8051L120.195 30.68L121.976 32.1749L120.195 34.2999ZM118.283 32.7025L116.502 31.2076L118.283 29.0826L120.064 30.5775L118.283 32.7025ZM116.37 31.0977L114.245 29.3171L116.026 27.1921L118.151 28.9727L116.37 31.0977ZM116.26 31.2296L114.7 33.0982L112.575 31.3176L114.135 29.449L116.26 31.2296ZM112.443 31.2076L110.45 29.5369L112.01 27.6684L114.004 29.3391L112.443 31.2076ZM112.333 31.3469L110.897 33.0615L108.903 31.3908L110.34 29.6762L112.333 31.3469ZM108.772 31.2736L106.5 29.3684L107.936 27.6537L110.208 29.5589L108.772 31.2736ZM108.662 31.4128L107.357 32.9736L105.086 31.0684L106.39 29.5076L108.662 31.4128ZM107.24 33.1055L105.914 34.6883L103.642 32.7831L104.969 31.2003L107.24 33.1055ZM105.804 34.8202L104.478 36.3956L102.206 34.4904L103.532 32.915L105.804 34.8202ZM104.368 36.5348L103.085 38.0663L100.814 36.1611L102.096 34.6296L104.368 36.5348ZM102.975 38.1982L101.686 39.737L99.4142 37.8318L100.704 36.293L102.975 38.1982ZM101.576 39.8689L100.162 41.5616L97.89 39.6564L99.3043 37.9637L101.576 39.8689ZM97.7508 39.5465L94.9736 37.2236L96.3879 35.5309L99.1651 37.8538L97.7508 39.5465ZM97.6409 39.6784L96.0948 41.5176L93.3176 39.1948L94.8637 37.3555L97.6409 39.6784ZM95.9922 41.6495L94.2335 43.7452L91.4564 41.4224L93.215 39.3267L95.9922 41.6495ZM94.2482 43.9871L96.5198 45.8922L94.6073 48.1711L92.3357 46.266L94.2482 43.9871ZM96.6517 46.0022L98.6448 47.6729L96.7323 49.9518L94.7391 48.2811L96.6517 46.0022ZM98.7767 47.7828L100.902 49.5634L98.9892 51.8423L96.8642 50.0617L98.7767 47.7828ZM101.034 49.666L102.814 51.1608L100.902 53.4397L99.1211 51.9449L101.034 49.666ZM102.946 51.2707L104.727 52.7656L102.814 55.0445L101.034 53.5496L102.946 51.2707ZM104.859 52.8755L106.551 54.2897L104.639 56.5686L102.946 55.1544L104.859 52.8755ZM106.676 54.3996L108.449 55.8798L106.537 58.1587L104.763 56.6785L106.676 54.3996ZM108.581 55.9897L110.274 57.404L108.361 59.6829L106.669 58.2686L108.581 55.9897ZM110.398 57.5212L112.076 58.9281L110.164 61.207L108.486 59.8001L110.398 57.5212ZM112.208 59.0307L113.886 60.4376L111.974 62.7165L110.296 61.3096L112.208 59.0307ZM114.018 60.5475L115.777 62.0204L113.864 64.2993L112.106 62.8264L114.018 60.5475ZM115.901 62.1303L117.726 63.6545L115.813 65.9334L113.989 64.4092L115.901 62.1303ZM117.851 63.7644L119.88 65.4644L117.968 67.7433L115.938 66.0433L117.851 63.7644ZM117.96 63.6325L119.719 61.5368L121.749 63.2368L119.99 65.3325L117.96 63.6325ZM121.881 63.3467L124.108 65.2079L122.35 67.3036L120.122 65.4424L121.881 63.3467ZM121.991 63.2148L123.537 61.3756L125.764 63.2368L124.218 65.076L121.991 63.2148ZM125.889 63.3394L128.959 65.9114L127.413 67.7506L124.343 65.1786L125.889 63.3394ZM125.999 63.2075L127.413 61.5148L130.483 64.0868L129.069 65.7795L125.999 63.2075ZM127.523 61.3902L128.813 59.8514L131.883 62.4234L130.593 63.9622L127.523 61.3902ZM128.93 59.7122L130.212 58.1807L133.283 60.7527L132 62.2842L128.93 59.7122ZM133.407 60.8626L137.313 64.1308L136.03 65.6622L132.125 62.3941L133.407 60.8626ZM133.524 60.7307L134.851 59.1553L138.756 62.4234L137.43 63.9989L133.524 60.7307ZM134.961 59.0161L136.287 57.4333L140.193 60.7014L138.866 62.2842L134.961 59.0161ZM136.397 57.3014L137.701 55.7406L141.607 59.0087L140.302 60.5695L136.397 57.3014ZM137.811 55.6087L139.247 53.894L143.153 57.1622L141.717 58.8768L137.811 55.6087ZM139.357 53.7621L140.918 51.8936L144.824 55.1617L143.263 57.0303L139.357 53.7621ZM140.911 51.6518L137.84 49.0798L139.621 46.9548L142.691 49.5268L140.911 51.6518ZM139.599 46.7129L137.371 44.8517L139.306 42.5435L141.534 44.4047L139.599 46.7129ZM137.247 44.7418L135.217 43.0418L137.152 40.7336L139.181 42.4336L137.247 44.7418ZM135.085 42.9319L133.261 41.4077L135.195 39.0995L137.02 40.6237L135.085 42.9319ZM133.136 41.2978L131.377 39.8249L133.312 37.5167L135.071 38.9896L133.136 41.2978ZM131.245 39.715L129.567 38.3081L131.502 35.9999L133.18 37.4068L131.245 39.715ZM129.443 38.2055L127.765 36.7986L129.699 34.4904L131.377 35.8973L129.443 38.2055ZM127.633 36.6887L125.94 35.2745L127.875 32.9663L129.567 34.3805L127.633 36.6887ZM125.808 35.1646L124.035 33.6844L125.97 31.3762L127.743 32.8564L125.808 35.1646ZM123.911 33.5671L122.218 32.1529L124.152 29.8447L125.845 31.2589L123.911 33.5671ZM122.093 32.043L120.313 30.5481L122.247 28.2399L124.028 29.7348L122.093 32.043ZM120.181 30.4382L118.4 28.9434L120.335 26.6352L122.115 28.13L120.181 30.4382ZM118.261 28.8408L116.136 27.0602L118.07 24.752L120.195 26.5326L118.261 28.8408ZM116.011 26.9503L114.018 25.2796L115.953 22.9714L117.946 24.6421L116.011 26.9503ZM115.901 27.0822L114.121 29.2072L112.128 27.5365L113.908 25.4115L115.901 27.0822ZM111.996 27.4266L109.724 25.5214L111.505 23.3964L113.776 25.3016L111.996 27.4266ZM111.886 27.5658L110.325 29.4343L108.053 27.5292L109.614 25.6606L111.886 27.5658ZM107.914 27.4192L105.137 25.0964L106.698 23.2278L109.475 25.5507L107.914 27.4192ZM107.804 27.5511L106.368 29.2658L103.591 26.9429L105.027 25.2283L107.804 27.5511ZM106.258 29.3977L104.954 30.9585L102.177 28.6356L103.481 27.0748L106.258 29.3977ZM104.837 31.0904L103.51 32.6732L100.733 30.3503L102.059 28.7675L104.837 31.0904ZM103.4 32.8051L102.074 34.3805L99.2969 32.0576L100.623 30.4822L103.4 32.8051ZM101.964 34.5197L100.682 36.0512L97.9047 33.7283L99.187 32.1969L101.964 34.5197ZM100.572 36.1831L99.2823 37.7219L96.5051 35.3991L97.7948 33.8602L100.572 36.1831ZM96.3732 35.2891L93.1564 32.5926L94.446 31.0538L97.6629 33.7503L96.3732 35.2891ZM96.2633 35.421L94.8491 37.1137L91.6322 34.4171L93.0465 32.7245L96.2633 35.421ZM94.7391 37.2456L93.193 39.0849L89.9762 36.3883L91.5223 34.549L94.7391 37.2456ZM93.0831 39.2168L91.3245 41.3125L88.1076 38.6159L89.8663 36.5202L93.0831 39.2168ZM91.3465 41.5543L94.1236 43.8771L92.2111 46.156L89.4339 43.8332L91.3465 41.5543ZM92.2258 46.4052L94.4973 48.3104L92.6508 50.516L90.3792 48.6108L92.2258 46.4052ZM94.6366 48.413L96.6297 50.0837L94.7831 52.2893L92.79 50.6186L94.6366 48.413ZM96.7542 50.1936L98.8793 51.9742L97.0327 54.1798L94.9077 52.3992L96.7542 50.1936ZM99.0112 52.0841L100.792 53.5789L98.9452 55.7846L97.1646 54.2897L99.0112 52.0841ZM100.924 53.6815L102.704 55.1764L100.858 57.382L99.0771 55.8872L100.924 53.6815ZM102.836 55.2863L104.529 56.7005L102.682 58.9061L100.99 57.4919L102.836 55.2863ZM104.653 56.8178L106.427 58.2979L104.58 60.5036L102.807 59.0234L104.653 56.8178ZM106.559 58.4079L108.251 59.8221L106.405 62.0277L104.712 60.6135L106.559 58.4079ZM108.376 59.932L110.054 61.3389L108.207 63.5445L106.529 62.1376L108.376 59.932ZM110.186 61.4488L111.864 62.8557L110.017 65.0614L108.339 63.6545L110.186 61.4488ZM111.996 62.9583L113.754 64.4312L111.908 66.6368L110.149 65.164L111.996 62.9583ZM113.879 64.5411L115.704 66.0653L113.857 68.2709L112.032 66.7467L113.879 64.5411ZM115.828 66.1752L117.858 67.8752L116.011 70.0808L113.982 68.3808L115.828 66.1752ZM117.99 67.9851L120.217 69.8463L118.371 72.0519L116.143 70.1907L117.99 67.9851ZM118.1 67.8532L120.012 65.5743L122.24 67.4355L120.327 69.7144L118.1 67.8532ZM122.364 67.5454L125.435 70.1174L123.522 72.3963L120.452 69.8243L122.364 67.5454ZM122.474 67.4135L124.233 65.3178L127.303 67.8898L125.545 69.9855L122.474 67.4135ZM127.435 67.9998L131.341 71.2679L129.582 73.3636L125.676 70.0955L127.435 67.9998ZM127.545 67.8679L129.091 66.0286L132.997 69.2967L131.451 71.136L127.545 67.8679ZM129.201 65.8894L130.615 64.1967L134.521 67.4648L133.107 69.1575L129.201 65.8894ZM130.725 64.0648L132.015 62.526L135.921 65.7941L134.631 67.3329L130.725 64.0648ZM136.045 65.9041L142.501 71.3192L142.413 71.3851L142.669 71.7735C142.186 72.1252 141.68 72.4476 141.145 72.7407L140.859 72.389L140.742 72.4623L134.748 67.4429L136.038 65.9041H136.045ZM142.647 71.2093L136.162 65.7722L137.445 64.2407L144.142 69.8537L144.084 69.9269L144.443 70.2933C144.018 70.711 143.563 71.0994 143.087 71.4731L142.743 71.1287L142.647 71.2019V71.2093ZM144.34 69.6192L144.252 69.7218L137.555 64.1088L138.881 62.5333L145.578 68.1463L145.49 68.2562L145.893 68.6739C145.556 69.1136 145.197 69.5312 144.816 69.9343L144.355 69.6265L144.34 69.6192ZM145.747 67.9338L145.681 68.0071L138.983 62.3941L140.31 60.8113L146.795 66.2485L146.736 66.3584L147.176 66.6661C146.883 67.2157 146.553 67.736 146.201 68.2416L145.747 67.9338ZM146.941 65.9993L146.89 66.0946L140.434 60.6794L141.739 59.1186L147.733 64.1381L147.681 64.27L148.143 64.5264C147.931 65.1053 147.696 65.6622 147.425 66.1972L146.941 65.992V65.9993ZM147.828 63.8963L147.791 63.9769L141.841 58.9867L143.277 57.2721L148.458 61.61L148.421 61.7273L148.773 61.8738L148.847 61.9325C148.707 62.6506 148.524 63.3467 148.304 64.0282L147.821 63.8889L147.828 63.8963ZM144.941 55.0298L141.035 51.7617L142.816 49.6367L146.721 52.9048L144.941 55.0298ZM142.801 49.3949L139.731 46.8229L141.665 44.5146L144.736 47.0867L142.801 49.3949ZM141.651 44.2728L139.423 42.4116L141.299 40.1767L143.527 42.0379L141.651 44.2728ZM139.291 42.2944L137.261 40.5944L139.137 38.3594L141.167 40.0594L139.291 42.2944ZM137.137 40.4844L135.312 38.9603L137.188 36.7254L139.013 38.2495L137.137 40.4844ZM135.18 38.8504L133.422 37.3775L135.298 35.1426L137.056 36.6154L135.18 38.8504ZM133.297 37.2749L131.619 35.868L133.495 33.6331L135.173 35.04L133.297 37.2749ZM131.487 35.7581L129.809 34.3512L131.685 32.1163L133.363 33.5232L131.487 35.7581ZM129.677 34.2413L127.985 32.827L129.861 30.5921L131.553 32.0063L129.677 34.2413ZM127.86 32.7171L126.087 31.2369L127.963 29.002L129.736 30.4822L127.86 32.7171ZM125.962 31.127L124.27 29.7128L126.145 27.4779L127.838 28.8921L125.962 31.127ZM124.138 29.6029L122.357 28.108L124.233 25.8731L126.014 27.3679L124.138 29.6029ZM122.225 27.9981L120.445 26.5033L122.32 24.2684L124.108 25.7632L122.232 27.9981H122.225ZM120.313 26.3934L118.188 24.6128L120.064 22.3778L122.189 24.1584L120.313 26.3934ZM118.063 24.5028L116.07 22.8321L117.946 20.5972L119.939 22.2679L118.063 24.5028ZM115.938 22.7295L113.666 20.8244L115.542 18.5894L117.814 20.4946L115.938 22.7295ZM115.821 22.8614L113.886 25.1697L111.615 23.2645L113.549 20.9563L115.821 22.8614ZM111.483 23.1546L108.706 20.8317L110.64 18.5235L113.417 20.8463L111.483 23.1546ZM111.373 23.2938L109.592 25.4188L106.815 23.0959L108.596 20.9709L111.373 23.2938ZM106.683 22.9787L103.466 20.2821L105.247 18.1571L108.464 20.8537L106.683 22.9787ZM106.573 23.1179L105.013 24.9865L101.796 22.2899L103.356 20.4213L106.573 23.1179ZM104.895 25.1184L103.459 26.833L100.242 24.1365L101.678 22.4218L104.895 25.1184ZM103.349 26.9649L102.045 28.5257L98.828 25.8291L100.132 24.2684L103.349 26.9649ZM101.935 28.6576L100.609 30.2404L97.3918 27.5438L98.7181 25.961L101.935 28.6576ZM100.491 30.3723L99.1651 31.9477L95.9482 29.2512L97.2745 27.6684L100.491 30.365V30.3723ZM99.0625 32.0796L97.7801 33.6111L94.5633 30.9145L95.8456 29.3831L99.0625 32.0796ZM89.0749 26.9429L89.5732 27.1335L89.6318 27.0162L94.3142 30.9365L93.0245 32.4753L88.6792 28.8335L88.7378 28.7162L88.3421 28.4451C88.5619 27.9248 88.8111 27.4192 89.0749 26.9283V26.9429ZM88.1516 28.9214L88.5546 29.0826L88.5986 28.9947L92.9146 32.6072L91.5003 34.2999L87.8438 31.2369L87.8878 31.127L87.4775 30.8925C87.6753 30.2184 87.9025 29.5589 88.1589 28.9214H88.1516ZM87.3382 31.3908L87.7266 31.5081L87.7706 31.4055L91.3904 34.4391L89.8443 36.2784L87.2137 34.0727L87.2576 33.9482L86.8473 33.743C86.9718 32.937 87.1404 32.1456 87.3382 31.3835V31.3908ZM86.774 34.2486L87.1257 34.3292L87.155 34.2413L89.7344 36.4029L87.9757 38.4986L86.9425 37.634L86.9645 37.4874L86.5468 37.3702C86.5615 36.293 86.6348 35.2525 86.774 34.2413V34.2486ZM86.5615 38.9017C86.5468 38.5646 86.5395 38.2275 86.5395 37.8904L86.9059 37.9051V37.8465L87.8658 38.6379L86.9865 39.6931V39.6637L86.6128 39.7077C86.5908 39.4366 86.5762 39.1655 86.5688 38.8943L86.5615 38.9017ZM86.6641 40.3379L86.7593 40.2206L87.0891 40.0961L87.0378 39.8909L87.9977 38.7478L91.2146 41.4444L89.302 43.7233L87.3456 42.0819V41.9353L86.8546 41.8547C86.774 41.3564 86.7081 40.8508 86.6568 40.3379H86.6641ZM86.9499 42.375L87.3382 42.3457V42.309L89.1921 43.8625L88.093 45.1741L88.071 45.1082L87.6167 45.2034C87.3456 44.2728 87.1184 43.3349 86.9499 42.3823V42.375ZM87.7999 45.7897L87.9391 45.6211L88.2102 45.4892L88.1589 45.35L89.324 43.9577L92.1012 46.2806L90.2546 48.4862L88.8624 47.3211L88.8404 47.1892L88.3055 47.2112C88.1296 46.7349 87.9611 46.2586 87.8072 45.7823L87.7999 45.7897ZM88.4887 47.7168L88.9063 47.5996L90.1374 48.6328L89.6831 49.1677L89.6245 49.0651L89.1408 49.2556C88.9063 48.75 88.6865 48.2371 88.474 47.7168H88.4887ZM89.4046 49.7905L89.8589 49.4755L89.7783 49.3289L90.2693 48.7427L92.5409 50.6479L91.2878 52.1354L91.2072 52.0182L90.7309 52.26C90.2473 51.4466 89.8003 50.6259 89.3973 49.7832L89.4046 49.7905ZM91.046 52.7656L91.4783 52.3992L91.3977 52.282L92.6801 50.7578L94.6732 52.4285L92.8999 54.5389L92.8193 54.4363L92.343 54.7221C91.8887 54.0846 91.4564 53.4324 91.046 52.7656ZM92.6874 55.2057L93.1051 54.788L93.0025 54.6634L94.7904 52.5238L96.9155 54.3044L94.7318 56.913L94.6439 56.8178L94.1822 57.1329C93.662 56.5027 93.1637 55.8652 92.6801 55.2057H92.6874ZM94.5706 57.5872L94.959 57.1622L94.8491 57.0449L97.0474 54.4216L98.828 55.9165L96.3952 58.8255L96.2999 58.7376L95.8823 59.0747C95.428 58.5911 94.9883 58.1001 94.5633 57.5945L94.5706 57.5872ZM97.6702 60.8773C97.2012 60.4303 96.7396 59.9687 96.2926 59.4997L96.637 59.0527L96.5198 58.9428L98.9599 56.0264L100.74 57.5212L98.1612 60.6062L98.0586 60.5182L97.6702 60.8773ZM99.4288 62.4747C99.0258 62.123 98.6228 61.7639 98.2344 61.4049C98.1905 61.3609 98.1465 61.3243 98.1025 61.2803L98.4176 60.8113L98.2931 60.7087L100.872 57.6238L102.565 59.038L99.9198 62.1963L99.8099 62.1083L99.4215 62.4674L99.4288 62.4747ZM101.371 64.0795C100.865 63.6838 100.367 63.2734 99.8685 62.8557L100.169 62.4088L100.052 62.3135L102.697 59.1553L104.47 60.6355L101.84 63.7717L101.744 63.6984L101.371 64.0721V64.0795ZM103.62 65.1346L103.291 65.501C102.8 65.1566 102.316 64.7976 101.84 64.4312L102.118 63.9769L101.979 63.867L104.602 60.7381L106.295 62.1523L103.738 65.2006L103.628 65.12L103.62 65.1346ZM105.555 66.4463L105.247 66.8273C104.749 66.5049 104.25 66.1752 103.759 65.8308L104.001 65.3911L103.877 65.3032L106.419 62.2622L108.097 63.6691L105.701 66.5269L105.562 66.439L105.555 66.4463ZM107.592 67.714L107.306 68.0877C106.778 67.7799 106.251 67.4648 105.731 67.1351L105.943 66.6881L105.841 66.6222L108.222 63.779L109.9 65.1859L107.724 67.7873L107.592 67.714ZM109.79 68.9377L109.534 69.3041C108.955 69.0036 108.383 68.6959 107.804 68.3661L107.995 67.9411L107.878 67.8752L110.039 65.2959L111.798 66.7687L109.922 69.0036L109.797 68.9377H109.79ZM112.135 70.0368L111.871 70.4472C111.263 70.1687 110.647 69.8756 110.039 69.5679L110.2 69.1575L110.076 69.0916L111.922 66.886L113.747 68.4101L112.311 70.1248L112.135 70.0442V70.0368ZM114.861 71.1946L114.634 71.6123C113.886 71.3265 113.139 71.0114 112.391 70.6817L112.545 70.2347L112.457 70.1907L113.864 68.5127L115.894 70.2127L115.015 71.2606L114.854 71.1946H114.861ZM118.122 72.3524L117.968 72.2938L117.77 72.6968C117.286 72.5429 116.81 72.389 116.341 72.2278C115.953 72.0959 115.564 71.9567 115.176 71.8101L115.301 71.3631L115.198 71.3192L116.041 70.3153L118.268 72.1765L118.136 72.3377L118.122 72.3524ZM119.03 73.0778C118.788 73.0045 118.547 72.9386 118.305 72.8653L118.385 72.4476L118.29 72.411L118.385 72.2938L119.067 72.8653L118.986 72.9019L119.038 73.0778H119.03ZM122.423 73.4882L122.225 73.9132C121.382 73.7153 120.562 73.5028 119.756 73.283L119.389 72.7261L119.235 72.792L118.488 72.1692L120.335 69.9636L123.405 72.5356L122.562 73.5395L122.416 73.4955L122.423 73.4882ZM125.376 74.58C124.497 74.4114 123.632 74.2356 122.782 74.0377L122.863 73.6274L122.745 73.5908L123.544 72.6382L125.42 74.2063L125.332 74.2283L125.376 74.58ZM128.373 74.5507L128.197 75.005C127.45 74.9244 126.695 74.8145 125.918 74.6826L125.75 74.1257L125.625 74.155L123.654 72.5063L125.567 70.2274L129.472 73.4955L128.549 74.5946L128.373 74.5507ZM131.018 75.1662C130.286 75.1662 129.531 75.1296 128.761 75.0636L128.82 74.6752L128.732 74.6533L129.604 73.6127L131.077 74.8438L130.967 74.8804L131.026 75.1662H131.018ZM131.59 75.1589L131.392 74.7339L131.26 74.7778L129.707 73.4735L131.465 71.3778L135.151 74.4701L135.078 74.4994L135.173 74.8291C134.037 75.027 132.836 75.1369 131.59 75.1589ZM135.708 74.7265L135.459 74.3455L135.334 74.3968L131.575 71.2459L133.121 69.4067L138.243 73.6933L138.155 73.7373L138.273 74.0377C137.459 74.3162 136.609 74.5507 135.715 74.7265H135.708ZM138.522 73.5541L138.412 73.6054L133.231 69.2674L134.646 67.5748L140.596 72.5649L140.522 72.6088L140.713 72.9826C140.083 73.3123 139.416 73.6127 138.727 73.8692L138.522 73.5541ZM151.345 61.7566C152.107 61.654 152.862 63.8523 153.082 64.4532C156.621 73.6567 158.995 75.2395 163.619 82.5378C164.638 84.1499 163.56 85.4469 161.794 84.7288C153.793 81.468 151.822 79.3942 142.134 77.5184C141.504 77.4085 139.203 77.0421 139.174 76.28C139.159 75.9063 139.636 75.5619 140.368 75.2321C145.842 72.7481 149.03 68.945 150.517 63.1195C150.715 62.3428 150.964 61.8152 151.338 61.7639L151.345 61.7566ZM149.213 58.1954L148.773 58.1514L148.759 58.232L145.073 55.1397L146.853 53.0147L148.407 54.319L148.385 54.4509L148.927 54.5902C149.118 55.8285 149.213 57.0303 149.213 58.188V58.1954ZM148.832 54.0039H148.451L148.436 54.1139L146.963 52.8828L147.85 51.8276L147.887 51.9156L148.334 51.769C148.531 52.5311 148.7 53.2712 148.832 54.0113V54.0039ZM148.18 51.1975L147.696 51.4979L147.769 51.6591L146.831 52.7729L142.926 49.5048L144.86 47.1966L146.831 48.8453V48.9772L147.469 49.0505C147.733 49.7759 147.967 50.494 148.172 51.2048L148.18 51.1975ZM147.271 48.5155L146.853 48.5375V48.6255L144.97 47.0573L145.776 46.0901L145.835 46.2L146.267 46.0315C146.612 46.8375 146.941 47.6655 147.264 48.5155H147.271ZM146.055 45.5039L145.637 45.797L145.71 45.9362L144.853 46.9548L141.783 44.3827L143.659 42.1478L144.406 42.7707L144.369 42.9392L145.021 43.2103C145.381 43.9577 145.725 44.7198 146.062 45.5039H146.055ZM144.677 42.5142L144.465 42.4922L144.443 42.5801L143.761 42.0086L143.856 41.8913L143.908 41.9793L144.325 41.8181C144.443 42.0452 144.56 42.2724 144.67 42.5069L144.677 42.5142ZM142.984 39.3193C143.351 39.9642 143.717 40.631 144.069 41.3125L143.688 41.5909L143.776 41.7375L143.637 41.8987L141.409 40.0375L142.259 39.0189L142.318 39.1142L142.743 38.909C142.823 39.0482 142.904 39.1801 142.984 39.3193ZM142.449 38.4107L142.076 38.7185L142.164 38.865L141.277 39.9275L139.247 38.2275L140.676 36.5275L140.727 36.6008L141.145 36.3663C141.599 37.0478 142.039 37.7292 142.449 38.418V38.4107ZM140.823 35.89L140.464 36.2271L140.574 36.381L139.115 38.1176L137.291 36.5935L139.167 34.3585L139.255 34.4758L139.628 34.2413C140.039 34.7909 140.434 35.3404 140.815 35.89H140.823ZM139.291 33.787L138.976 34.1021L139.064 34.2193L137.166 36.4835L135.408 35.0107L137.599 32.402L137.686 32.5046L138.06 32.2555C138.485 32.7611 138.888 33.274 139.291 33.7943V33.787ZM136.477 30.4309C136.895 30.8852 137.298 31.3542 137.694 31.8158L137.386 32.1456L137.481 32.2628L135.276 34.9008L133.598 33.4939L136.008 30.6141L136.089 30.7094L136.47 30.4382L136.477 30.4309ZM134.843 28.7236C135.268 29.1486 135.686 29.5809 136.089 30.0206L135.789 30.365L135.899 30.4895L133.466 33.3913L131.788 31.9844L134.367 28.9068L134.477 29.0167L134.836 28.7309L134.843 28.7236ZM133.121 27.0822C133.568 27.4925 134.008 27.9029 134.44 28.3279L134.162 28.6869L134.257 28.7822L131.67 31.8745L129.978 30.4602L132.638 27.2873L132.77 27.4046L133.129 27.0822H133.121ZM131.224 25.4334C131.722 25.8438 132.22 26.2688 132.704 26.7011L132.425 27.0968L132.513 27.1774L129.853 30.3576L128.08 28.8774L130.762 25.6753L130.879 25.7778L131.224 25.4408V25.4334ZM129.355 23.9679C129.516 24.0852 129.67 24.2024 129.831 24.327C130.146 24.5688 130.461 24.8179 130.777 25.0744L130.52 25.4774L130.623 25.5653L127.941 28.7675L126.248 27.3533L128.864 24.2317L128.989 24.3343L129.355 23.9826V23.9679ZM126.944 22.8761L127.281 22.5024C127.823 22.8614 128.358 23.2352 128.886 23.6235L128.63 24.0192L128.732 24.1071L126.116 27.2287L124.336 25.7339L126.812 22.7808L126.944 22.8761ZM124.79 21.5571L125.105 21.1468C125.676 21.4838 126.241 21.8282 126.798 22.1946L126.57 22.6123L126.673 22.6856L124.204 25.6313L122.423 24.1365L124.651 21.4765L124.79 21.5571ZM122.13 20.1575L122.438 19.7106C123.17 20.0696 123.896 20.4506 124.607 20.8537L124.401 21.308L124.511 21.3739L122.298 24.0192L120.173 22.2386L121.991 20.0696L122.13 20.1429V20.1575ZM119.485 18.9778L119.756 18.5162C120.481 18.8019 121.199 19.117 121.917 19.4541L121.734 19.9304L121.851 19.9963L120.056 22.136L118.063 20.4653L119.36 18.9192L119.492 18.9778H119.485ZM116.304 17.908L116.532 17.4243C117.433 17.6808 118.327 17.9739 119.213 18.311L119.067 18.7873L119.192 18.8459L117.924 20.3554L115.652 18.4502L116.151 17.8567L116.304 17.908ZM114.289 17.3071L114.333 16.8821C114.883 16.9993 115.425 17.1239 115.967 17.2705L115.865 17.7614L115.975 17.798L115.52 18.3403L114.289 17.3071ZM112.084 16.9993L112.164 16.7062L112.179 16.6916H112.172L112.216 16.523C112.751 16.5963 113.278 16.6769 113.806 16.7795L113.872 17.3144H114.011L115.403 18.4795L113.527 20.7144L110.75 18.3916L111.93 16.9847L112.076 17.0067L112.084 16.9993ZM111.688 16.4571L111.673 16.9334H111.739L110.625 18.2743L108.772 16.7209H108.808L108.772 16.2885C109.746 16.2885 110.721 16.3472 111.688 16.4571ZM106.537 16.8821L106.639 16.3692C107.167 16.3252 107.694 16.3032 108.229 16.2885L108.405 16.8015L108.552 16.7722L110.508 18.4136L108.574 20.7218L105.357 18.0252L106.331 16.8674L106.537 16.8821ZM105.804 16.4498C105.892 16.4424 105.987 16.4351 106.075 16.4204L106.097 16.8454H106.126L105.232 17.9153L104.287 17.1239L104.346 17.1019L104.258 16.6769C104.771 16.589 105.284 16.5157 105.811 16.4498H105.804ZM103.723 16.7722L103.943 17.2338L104.082 17.1898L105.115 18.0545L103.334 20.1795L100.755 18.0179L100.836 17.9739L100.66 17.5636C101.634 17.2485 102.66 16.9847 103.723 16.7795V16.7722ZM100.154 17.7248L100.484 18.1718L100.601 18.1058L103.232 20.3114L101.671 22.18L98.0512 19.1463L98.1465 19.0877L97.9194 18.6407C98.6375 18.3036 99.3849 17.9959 100.162 17.7248H100.154ZM97.4357 18.8752L97.7948 19.3075L97.89 19.2416L101.547 22.3119L100.11 24.0265L95.7943 20.414L95.8749 20.3554L95.6038 19.9157C96.19 19.542 96.7982 19.1976 97.4284 18.8752H97.4357ZM95.1642 20.2015L95.5525 20.5972L95.6624 20.5166L100.008 24.1584L98.7034 25.7192L94.021 21.7989L94.1236 21.7183L93.8159 21.2054C94.2482 20.8537 94.7025 20.5166 95.1715 20.2015H95.1642ZM93.3982 21.5498L93.7866 21.9675L93.8672 21.9089L98.5788 25.8585L97.2525 27.4412L92.3357 23.3231L92.4236 23.2205L92.0499 22.8321C92.4749 22.3851 92.9219 21.9601 93.3982 21.5571V21.5498ZM92.1671 23.5283L92.2331 23.4477L97.1499 27.5658L95.8236 29.1412L90.9068 25.0231L90.9727 24.9425L90.5917 24.5468C90.9361 24.0852 91.3025 23.6382 91.6908 23.2058L92.1598 23.5209L92.1671 23.5283Z" fill="white" fill-opacity="0.1"/>
<path d="M0 171.825H26.5481C28.4679 173.415 30.908 175.284 33.6266 177.02C40.0309 181.263 47.9741 184.707 52.4586 184.224C58.1156 183.711 61.2298 181.937 62.3143 181.263C65.7583 181.923 69.1803 182.421 72.5877 182.765C72.9834 183.036 73.3717 183.3 73.7454 183.549C74.6321 184.128 75.6726 184.671 76.7718 185.22C77.3213 185.499 77.8929 185.777 78.4718 186.055C79.0507 186.334 79.6442 186.612 80.2377 186.905C82.2015 187.887 84.1434 189.126 85.3304 189.206C86.4809 189.778 87.7706 190.423 89.1042 191.075C90.4378 191.712 91.8081 192.357 93.0758 192.973C95.2081 194.204 97.487 195.42 99.4728 196.475C101.202 196.9 103.122 197.611 105.196 198.293C107.277 198.952 109.49 199.626 111.717 199.956C112.12 199.883 113.007 199.89 113.732 199.839C114.473 199.78 115.044 199.67 114.832 199.392C114.494 198.945 113.754 199.025 112.89 198.454C111.717 198.183 112.582 197.831 111.373 197.56C107.804 196.922 104.888 195.625 101.612 194.299C98.4909 193.061 95.34 191.837 92.1232 190.474C91.3171 190.137 90.5111 189.785 89.7051 189.419C88.899 189.052 88.093 188.657 87.2796 188.246C87.2503 188.232 87.2283 188.217 87.199 188.21C85.3451 185.198 83.7184 182.164 82.2895 179.124C82.5313 178.098 82.905 175.548 82.9856 171.818H264.367C264.447 175.555 264.821 178.105 265.063 179.138C263.641 182.172 262.007 185.205 260.161 188.224C260.131 188.239 260.109 188.254 260.08 188.268C259.274 188.671 258.468 189.067 257.655 189.441C256.849 189.807 256.043 190.159 255.237 190.496C252.02 191.859 248.869 193.083 245.747 194.321C242.472 195.647 239.555 196.952 235.987 197.589C234.778 197.868 235.642 198.212 234.47 198.491C233.605 199.062 232.865 198.981 232.528 199.436C232.316 199.714 232.887 199.824 233.627 199.883C234.353 199.934 235.239 199.927 235.642 200C237.87 199.67 240.083 198.996 242.164 198.337C244.238 197.648 246.165 196.937 247.887 196.512C249.865 195.457 252.144 194.24 254.277 193.009C255.552 192.394 256.915 191.742 258.248 191.104C259.575 190.452 260.872 189.807 262.015 189.236C263.202 189.155 265.136 187.917 267.1 186.935C267.694 186.642 268.28 186.356 268.866 186.085C269.445 185.806 270.016 185.528 270.566 185.249C271.673 184.7 272.706 184.15 273.592 183.579C273.973 183.33 274.362 183.066 274.75 182.795C278.15 182.45 281.58 181.952 285.023 181.285C286.115 181.952 289.222 183.725 294.887 184.238C299.364 184.715 307.314 181.271 313.711 177.02C316.422 175.291 318.848 173.423 320.76 171.833H349.309V170.367H0V171.833V171.825ZM299.261 171.825C293.208 175.372 287.735 178.999 285.522 180.355C282.349 180.985 279.183 181.483 276.04 181.842C276.523 181.483 277.007 181.117 277.491 180.728C278.817 179.68 280.136 178.559 281.338 177.409C283.587 175.291 285.485 173.217 286.68 171.818H299.261V171.825ZM271.958 171.825H283.983C283.639 172.14 283.302 172.463 282.972 172.785C281.77 173.972 280.576 175.218 279.315 176.42C278.055 177.614 276.707 178.728 275.256 179.673C273.746 181.161 272.332 182.633 270.376 183.813C268.045 185.22 266.69 184.861 264.909 185.601C263.744 186.312 262.579 186.957 261.406 187.58C263.106 184.715 264.616 181.842 265.942 178.962C267.181 177.827 269.621 175.218 271.958 171.833V171.825ZM75.3649 171.825C77.7024 175.203 80.1425 177.812 81.3808 178.94C82.7072 181.82 84.2167 184.693 85.924 187.558C84.7516 186.942 83.5865 186.29 82.4214 185.579C80.6334 184.846 79.2851 185.198 76.9549 183.799C74.9985 182.619 73.5842 181.146 72.0747 179.666C70.6239 178.721 69.2756 177.607 68.0079 176.412C66.7475 175.218 65.5531 173.965 64.3514 172.785C64.029 172.463 63.6846 172.148 63.3402 171.833H75.3722L75.3649 171.825ZM60.629 171.825C61.8234 173.217 63.7212 175.291 65.9708 177.409C67.1725 178.552 68.4915 179.673 69.8178 180.721C70.3014 181.102 70.7924 181.476 71.276 181.835C68.1325 181.476 64.9669 180.985 61.7941 180.355C59.5811 178.992 54.1 175.372 48.0401 171.825H60.629Z" fill="white" fill-opacity="0.1"/>
<path d="M332.382 135.187C332.47 135.048 332.558 134.908 332.646 134.777C336.874 128.189 339.314 121.601 339.329 121.66C339.248 121.675 327.062 124.54 320.269 133.179C319.757 133.846 319.251 134.52 318.753 135.187H310.399C310.956 133.165 311.432 131.186 311.916 129.281C312.473 127.654 312.575 126.482 312.883 124.95C312.92 124.774 312.956 124.584 312.993 124.408C315.331 121.836 317.588 119.117 319.735 116.245C321.896 115.146 328.418 111.357 333.078 106.932C340.787 100.432 341.029 77.936 340.567 77.9873C340.501 78.0166 329.744 84.5163 325.897 94.7823C322.783 103.334 320.255 112.493 319.31 115.564C317.375 118.157 315.36 120.634 313.272 122.986C313.675 120.964 314.085 118.861 314.422 116.707C314.862 113.842 315.221 110.903 315.426 107.965C315.433 107.826 315.448 107.686 315.455 107.547C315.485 107.518 315.506 107.496 315.536 107.466C315.514 107.422 315.492 107.371 315.47 107.327C315.69 103.678 315.682 100.285 315.646 96.5776C315.624 95.3319 315.58 94.0789 315.521 92.8185C316.877 89.0887 318.057 85.2124 319.031 81.2188C320.585 79.1891 325.054 72.5429 327.458 66.1092C331.803 56.2755 322.937 35.7654 322.534 36.0219C322.534 36.1318 316.078 47.8561 316.503 58.9648C316.994 68.2342 318.101 77.6283 318.394 80.8231C317.551 84.3111 316.554 87.6965 315.419 90.9866C315.294 89.1107 315.125 87.2128 314.906 85.3003C314.561 82.5378 314.114 79.746 313.55 76.9468C313.272 75.5472 312.964 74.1477 312.627 72.7554C312.275 71.3631 311.894 69.9782 311.484 68.5933C309.996 63.5372 308.201 58.5691 306.2 53.7768C305.9 50.4134 305.431 47.0134 304.786 43.5914C305.292 41.1439 306.325 33.7796 305.768 27.4046C305.46 17.3364 290.556 3.52379 290.321 3.83155C290.402 3.94146 290.043 16.7502 294.491 26.0123C298.309 33.6111 302.603 40.9168 304.061 43.5327C304.581 46.244 304.984 48.9479 305.277 51.6225C304.837 50.6039 304.39 49.6 303.943 48.6328C303.365 47.4164 302.771 46.244 302.178 45.1228C300.976 42.8879 299.737 40.8655 298.426 39.1728C296.33 35.1865 291.706 29.493 289.01 26.2029C288.768 26.0636 288.35 25.6753 287.83 25.1477C286.255 21.5645 282.239 14.2222 275.52 8.28676C266.023 -0.403833 248.715 -0.125383 248.935 0.0944463C248.891 0.116429 254.262 3.89017 259.926 8.57986C265.73 13.2256 271.826 18.7873 276.501 21.4252C281.851 24.3636 285.698 26.1882 287.574 26.9723C287.808 27.2434 288.042 27.5218 288.27 27.7856C288.966 28.6136 289.625 29.4197 290.255 30.2111C292.776 33.3986 294.835 36.381 296.696 39.3413C298.023 41.4517 299.232 43.5254 300.463 45.7603C301.078 46.8815 301.701 48.0392 302.331 49.2849C302.954 50.5306 303.584 51.8496 304.222 53.2785C305.827 56.8471 307.226 60.4962 308.377 64.0062C306.208 61.7273 303.965 59.5803 301.657 57.5579C300.419 54.9565 295.89 47.2332 289.266 42.5142C281.155 36.6228 271.379 38.1762 271.467 38.1836C272.002 37.9491 283.968 53.0367 291.486 56.1216C296.609 57.8143 300.228 58.3492 301.555 58.4298C304.09 60.6721 306.545 63.0756 308.904 65.6329C309.322 66.9592 309.696 68.2636 310.04 69.5312C310.502 71.2166 310.927 72.8287 311.256 74.3455C312.451 79.6727 313.103 84.6555 313.484 89.4551C313.667 91.8586 313.799 94.2181 313.85 96.5556C313.88 98.9004 313.865 101.223 313.814 103.561C313.814 103.7 313.814 103.839 313.806 103.978C312.575 101.612 311.271 99.3328 309.901 97.1271C309.52 94.2987 307.585 85.7473 302.903 79.6141C297.202 72.0153 287.735 70.9235 287.801 70.9235C288.284 70.7696 294.469 88.0629 300.705 93.1189C305.021 96.1086 308.296 97.5375 309.527 97.9478C311.022 100.381 312.436 102.916 313.755 105.539C313.631 109.892 313.264 114.516 312.832 117.798C312.495 120.151 312.055 122.488 311.513 124.892C311.454 124.95 311.403 125.009 311.344 125.067C311.374 125.126 311.403 125.177 311.432 125.236C310.963 127.273 310.428 129.347 309.798 131.523C309.447 132.732 309.073 133.949 308.662 135.165H304.317C304.281 134.725 304.244 134.278 304.2 133.839C305.057 131.039 306.97 122.217 305.336 114.303C303.401 104.447 291.714 99.8017 291.787 99.8897C292.241 99.7798 294.315 117.916 297.766 125.727C300.36 130.512 302.625 133.436 303.533 134.418C303.555 134.667 303.577 134.916 303.592 135.165H293.45C291.032 128.79 285.441 124.474 285.478 124.547C285.727 124.547 285.038 129.354 284.474 135.165H62.8126C62.241 129.354 61.5522 124.547 61.8014 124.547C61.838 124.474 56.247 128.79 53.8362 135.165H43.6948C43.7167 134.916 43.7314 134.667 43.7534 134.425C44.6547 133.443 46.9189 130.519 49.5129 125.734C52.9642 117.923 55.0233 99.7871 55.4776 99.8897C55.5509 99.8091 43.8633 104.455 41.9361 114.31C40.3094 122.224 42.2219 131.047 43.0866 133.846C43.0426 134.286 43.006 134.725 42.9693 135.165H38.6167C38.2064 133.949 37.8326 132.74 37.4809 131.53C36.8507 129.354 36.3085 127.28 35.8395 125.243C35.8688 125.185 35.8981 125.133 35.9275 125.075C35.8688 125.016 35.8175 124.958 35.7589 124.899C35.2167 122.495 34.7697 120.158 34.4399 117.806C34.0076 114.523 33.6412 109.899 33.5093 105.547C34.8283 102.916 36.2352 100.381 37.7301 97.9478C38.9611 97.5375 42.2366 96.1086 46.5525 93.1189C52.7884 88.0555 58.9656 70.7549 59.4492 70.9162C59.5151 70.9162 50.0478 72.0153 44.3542 79.6141C39.6719 85.7473 37.752 94.2987 37.3637 97.1345C35.9934 99.3328 34.6891 101.619 33.4654 103.986C33.4654 103.847 33.4654 103.707 33.458 103.568C33.4067 101.231 33.3848 98.9004 33.4141 96.5629C33.4654 94.2181 33.5973 91.8659 33.7805 89.4624C34.1542 84.6628 34.8063 79.6727 36.0007 74.3528C36.3305 72.836 36.7555 71.2239 37.2171 69.5386C37.5615 68.2782 37.9426 66.9739 38.3529 65.6403C40.7124 63.0829 43.1672 60.6794 45.7025 58.4372C47.0288 58.3566 50.6487 57.8143 55.7634 56.1216C63.2816 53.0294 75.2403 37.9344 75.7752 38.1689C75.8631 38.1689 66.088 36.6154 57.9837 42.5069C51.3595 47.2259 46.8383 54.9492 45.5999 57.5579C43.2917 59.5803 41.0495 61.7346 38.8805 64.0135C40.0309 60.5036 41.4232 56.8544 43.0279 53.2858C43.6655 51.8569 44.2956 50.5306 44.9185 49.2849C45.5487 48.0466 46.1642 46.8815 46.787 45.7603C48.0181 43.5181 49.2271 41.4517 50.5534 39.334C52.4147 36.3736 54.4737 33.3913 56.9944 30.2037C57.6246 29.405 58.2841 28.599 58.9802 27.771C59.2074 27.4998 59.4419 27.2287 59.6764 26.9576C61.5522 26.1735 65.3993 24.3416 70.7411 21.4032C75.4235 18.7653 81.5127 13.1963 87.3089 8.55055C92.9585 3.86818 98.3297 0.0944463 98.2857 0.0724633C98.5056 -0.147366 81.1977 -0.41849 71.701 8.29408C64.9816 14.2368 60.966 21.5791 59.3979 25.1623C58.8776 25.6899 58.4673 26.0783 58.2255 26.2175C55.5289 29.5149 50.9125 35.2012 48.8168 39.1948C47.5125 40.8875 46.2668 42.9099 45.0724 45.1448C44.4715 46.266 43.8853 47.4384 43.3064 48.6548C42.8594 49.622 42.4197 50.6259 41.9728 51.6444C42.2659 48.9699 42.6689 46.266 43.1892 43.5547C44.6474 40.9388 48.934 33.6258 52.7517 26.027C57.1923 16.7648 56.8259 3.95612 56.9065 3.8462C56.672 3.53844 41.7749 17.3584 41.4745 27.4266C40.9249 33.7943 41.9581 41.1586 42.4637 43.606C41.8189 47.028 41.3572 50.4281 41.0568 53.7915C39.0564 58.5837 37.2684 63.5519 35.7809 68.6079C35.3706 69.9855 34.9968 71.3778 34.6378 72.7701C34.3007 74.1696 33.993 75.5619 33.7145 76.9615C33.1576 79.7606 32.7033 82.5525 32.3662 85.315C32.1464 87.2275 31.9779 89.1254 31.8533 91.0012C30.7175 87.7185 29.7136 84.3258 28.8709 80.8378C29.164 77.6503 30.2632 68.2562 30.7468 58.9794C31.1645 47.8707 24.7015 36.1465 24.7015 36.0366C24.2985 35.7801 15.4394 56.2902 19.792 66.1239C22.1954 72.5502 26.6726 79.2037 28.2261 81.2262C29.2007 85.2197 30.3804 89.0887 31.7434 92.8258C31.6847 94.0862 31.6408 95.3392 31.6188 96.5849C31.5822 100.285 31.5748 103.685 31.7947 107.335L31.7287 107.474C31.7287 107.474 31.78 107.525 31.8093 107.554C31.8166 107.694 31.824 107.826 31.8386 107.972C32.0438 110.91 32.4102 113.856 32.8498 116.714C33.1869 118.868 33.5973 120.971 34.0003 122.994C31.9119 120.642 29.8895 118.172 27.955 115.578C27.0097 112.508 24.4743 103.356 21.3528 94.8043C17.4984 84.5383 6.74144 78.046 6.67549 78.0167C6.21384 77.9654 6.46299 100.461 14.179 106.954C18.8394 111.379 25.3683 115.16 27.53 116.26C29.6843 119.125 31.9339 121.851 34.2787 124.415C34.3154 124.598 34.352 124.782 34.3886 124.958C34.6964 126.489 34.799 127.654 35.3559 129.288C35.8395 131.186 36.3158 133.172 36.8727 135.187H28.5119C28.0136 134.52 27.508 133.853 27.0024 133.194C20.2096 124.562 8.01645 121.697 7.94317 121.689C7.96515 121.631 10.4053 128.218 14.6333 134.799C14.7139 134.93 14.8018 135.062 14.8825 135.187H0V136.652H349.302V135.187H332.382Z" fill="white" fill-opacity="0.1"/>
<path d="M162.776 149.549C163.685 148.838 164.198 147.659 163.59 145.314C160.549 143.247 156.431 143.137 153.228 145.35C152.173 146.083 151.316 146.999 150.671 148.018C152.32 147.908 153.917 148.186 156.973 149.659C159.032 150.656 161.421 150.604 162.776 149.542V149.549Z" fill="white" fill-opacity="0.1"/>
<path d="M149.982 149.359C148.825 152.143 149.052 155.441 150.898 158.1C152.342 160.189 154.489 161.486 156.804 161.904C156.826 161.874 158.805 160.819 160.256 158.1C160.402 157.815 163.091 152.759 167.576 153.44C167.693 151.462 167.18 149.432 165.971 147.681C165.605 147.153 165.194 146.669 164.74 146.244C165.136 148.164 164.938 149.388 163.582 150.531C161.831 152.011 158.929 152.224 156.343 150.978C152.686 149.212 150.429 149.197 149.982 149.359Z" fill="white" fill-opacity="0.1"/>
<path d="M161.545 158.782C160.116 161.449 159.113 161.933 158.658 162.05C160.38 162.006 162.117 161.486 163.641 160.431C165.619 159.06 166.894 157.053 167.378 154.876C163.905 154.363 161.567 158.738 161.545 158.782Z" fill="white" fill-opacity="0.1"/>
<path d="M47.1534 146.01C48.8241 146.01 49.8573 146.757 51.1323 149.219L51.6819 150.253H51.9677L51.3961 145.592H38.668L38.0085 150.253H38.2943L38.7779 149.263C39.943 146.911 41.196 146.01 42.9547 146.01H43.3064V158.606C43.3064 160.299 42.4051 160.694 41.4818 160.782V160.98H48.5383V160.782C47.6151 160.694 46.7138 160.299 46.7138 158.606V146.01H47.1534Z" fill="white" fill-opacity="0.1"/>
<path d="M57.0457 160.782V160.98H69.4881L70.1036 156.276H69.7519C68.9385 158.848 66.4105 160.563 63.9044 160.563H62.1897V153.154H63.3329C65.2893 153.154 66.6962 154.056 67.026 155.858H67.3118V150.033H67.026C66.7182 151.791 65.3333 152.715 63.3329 152.715H62.1897V146.01H63.7505C65.773 146.01 67.9053 147.197 69.2463 149.505H69.554L68.9385 145.592H57.0457V145.79C57.947 145.878 58.8044 146.318 58.8044 147.966V158.672C58.8044 160.321 57.947 160.694 57.0457 160.782Z" fill="white" fill-opacity="0.1"/>
<path d="M75.5993 160.782V160.98H81.5567V160.782C80.0399 160.694 78.655 159.617 78.633 156.672L78.611 148.582L88.6352 161.266H89.2068L89.2727 149.637C89.2947 147.065 90.0861 145.878 91.6689 145.79V145.592H85.9753V145.79C87.5581 145.922 88.6572 147.087 88.6792 149.637L88.7451 155.924L80.6114 145.592H75.6433V145.79C77.2481 145.944 78.1274 147.461 78.1054 149.681L78.0394 156.869C78.0175 159.793 76.9403 160.716 75.5993 160.782Z" fill="white" fill-opacity="0.1"/>
<path d="M96.5931 160.782V160.98H102.55V160.782C101.034 160.694 99.6487 159.617 99.6267 156.672L99.6047 148.582L109.629 161.266H110.2L110.266 149.637C110.288 147.065 111.08 145.878 112.663 145.79V145.592H106.969V145.79C108.552 145.922 109.651 147.087 109.673 149.637L109.739 155.924L101.605 145.592H96.637V145.79C98.2418 145.944 99.1211 147.461 99.0991 149.681L99.0331 156.869C99.0112 159.793 97.934 160.716 96.5931 160.782Z" fill="white" fill-opacity="0.1"/>
<path d="M117.807 160.782V160.98H124.731V160.782C123.852 160.694 122.973 160.277 122.973 158.65V147.922C122.973 146.296 123.852 145.878 124.731 145.79V145.592H117.807V145.79C118.708 145.878 119.565 146.296 119.565 147.922V158.65C119.565 160.277 118.708 160.694 117.807 160.782Z" fill="white" fill-opacity="0.1"/>
<path d="M135.921 160.98C133.788 160.98 132.425 159.485 131.766 156.012L131.436 155.968L130.513 160.233C131.634 160.804 133.722 161.398 135.701 161.398C139.196 161.398 141.592 159.156 141.592 156.496C141.592 153.484 138.954 152.385 136.602 151.352C134.689 150.516 132.975 149.725 132.975 148.032C132.975 146.537 134.228 145.592 135.986 145.592C138.031 145.592 139.24 147.065 139.68 149.945L140.031 149.989L140.933 146.252C139.658 145.592 137.943 145.197 136.206 145.197C132.777 145.197 130.777 147.307 130.777 149.791C130.777 152.825 133.327 153.858 135.591 154.891C137.371 155.726 138.976 156.54 138.976 158.386C138.976 159.837 137.921 160.98 135.921 160.98Z" fill="white" fill-opacity="0.1"/>
<path d="M181.095 160.782V160.98H188.152V160.782C187.229 160.629 186.437 159.837 185.844 158.298L180.92 145.416H180.062L175.864 156.474C174.72 159.485 173.731 160.585 172.522 160.782V160.98H177.996V160.782C176.105 160.585 175.446 159.134 176.545 156.056H181.359L182.041 157.881C182.81 159.947 182.414 160.607 181.095 160.782ZM176.721 155.594L178.963 149.527L181.205 155.594H176.721Z" fill="white" fill-opacity="0.1"/>
<path d="M200.77 145.658C202.903 145.658 204.529 147.483 204.991 150.209L205.365 150.253L206.266 146.208C205.079 145.592 203.188 145.197 201.232 145.197C196.462 145.197 192.549 148.604 192.549 153.418C192.549 157.683 195.67 161.354 200.023 161.354C203.012 161.354 205.167 159.551 206.112 157.023L205.782 156.913C204.859 158.54 203.21 159.354 201.452 159.354C198.44 159.354 196.176 157.111 196.176 152.583C196.176 148.054 198.352 145.658 200.77 145.658Z" fill="white" fill-opacity="0.1"/>
<path d="M218.906 160.782V160.98H225.963V160.782C225.039 160.629 224.248 159.837 223.654 158.298L218.73 145.416H217.873L213.674 156.474C212.531 159.485 211.542 160.585 210.333 160.782V160.98H215.807V160.782C213.916 160.585 213.257 159.134 214.356 156.056H219.17L219.851 157.881C220.621 159.947 220.225 160.607 218.906 160.782ZM214.532 155.594L216.774 149.527L219.016 155.594H214.532Z" fill="white" fill-opacity="0.1"/>
<path d="M230.997 160.782V160.98H238.141C242.999 160.98 246.407 157.331 246.407 153.154C246.407 148.978 243.021 145.592 238.295 145.592H230.997V145.79C231.876 145.878 232.755 146.274 232.755 147.922V158.65C232.755 160.299 231.876 160.694 230.997 160.782ZM236.141 146.01H237.482C240.449 146.01 242.626 148.362 242.626 153.308C242.626 158.254 240.779 160.563 237.658 160.563H236.141V146.01Z" fill="white" fill-opacity="0.1"/>
<path d="M252.012 160.782V160.98H264.455L265.07 156.276H264.719C263.905 158.848 261.377 160.563 258.871 160.563H257.156V153.154H258.3C260.256 153.154 261.663 154.056 261.993 155.858H262.278V150.033H261.993C261.685 151.791 260.3 152.715 258.3 152.715H257.156V146.01H258.717C260.74 146.01 262.872 147.197 264.213 149.505H264.521L263.905 145.592H252.012V145.79C252.914 145.878 253.771 146.318 253.771 147.966V158.672C253.771 160.321 252.914 160.694 252.012 160.782Z" fill="white" fill-opacity="0.1"/>
<path d="M273.666 156.628C273.094 159.441 271.973 160.694 270.456 160.782V160.98H276.282V160.782C274.413 160.694 273.71 159.134 274.215 156.518L275.886 148.12L279.733 161.266H280.107L284.437 148.076L286.152 157.925C286.46 159.793 285.954 160.694 284.371 160.782V160.98H292.395V160.782C290.988 160.694 289.955 159.727 289.625 157.859L288.042 149.307C287.713 147.395 288.306 145.9 290.153 145.79V145.592H284.723L281.492 155.441L278.568 145.592H273.006V145.79C274.853 145.9 275.556 147.395 275.182 149.307L273.666 156.628Z" fill="white" fill-opacity="0.1"/>
<path d="M302.287 145.79V145.592H295.517V145.79C296.308 145.988 296.902 146.559 297.627 147.922L300.968 154.319V158.65C300.968 160.277 300.067 160.694 299.144 160.782V160.98H306.178V160.782C305.255 160.694 304.354 160.277 304.354 158.65V154.166L306.926 149.219C308.157 146.889 309.3 145.878 310.267 145.79V145.592H305.079V145.79C306.838 146.032 307.322 147.395 306.003 149.945L304.112 153.594L301.386 148.01C300.771 146.801 301.1 145.922 302.287 145.79Z" fill="white" fill-opacity="0.1"/>
</svg>
